<svg xmlns="http://www.w3.org/2000/svg" width="144.66" height="34.703" viewBox="0 0 144.66 34.703">
  <g id="logo_w" transform="translate(130.34 55.947)">
    <g id="グループ_149" data-name="グループ 149" transform="translate(-130.34 -55.947)">
      <g id="グループ_147" data-name="グループ 147" transform="translate(44.68 2.836)">
        <g id="グループ_144" data-name="グループ 144" transform="translate(0 8.258)">
          <path id="パス_157" data-name="パス 157" d="M129.036,33.515c0,.456-.152.734-.734.734h-2.5c-.582,0-.733-.278-.733-.734V18.342c0-.583.279-.734.733-.734h2.5c.454,0,.733.151.733.734V33.515Z" transform="translate(-89.476 -17.4)" fill="#fff"/>
          <path id="パス_158" data-name="パス 158" d="M86.173,33.312l-2.191-2.83A7.891,7.891,0,0,0,85.7,25.447a7.93,7.93,0,0,0-2.361-5.785,7.731,7.731,0,0,0-5.66-2.377,7.926,7.926,0,0,0-4.037,1.094,8.181,8.181,0,0,0-1.722,12.735,7.729,7.729,0,0,0,5.793,2.409,7.873,7.873,0,0,0,3.322-.7l.959,1.234a.611.611,0,0,0,.479.234h3.224a.606.606,0,0,0,.479-.977Zm-9.684-6.335L78.52,29.59a3.992,3.992,0,0,1-.822.083,4.063,4.063,0,0,1-2.647-.943,3.962,3.962,0,0,1-1.481-3.283,4.187,4.187,0,0,1,1.18-3.087,3.9,3.9,0,0,1,2.925-1.2A3.83,3.83,0,0,1,80.558,22.4a4.158,4.158,0,0,1,1.2,3.031,4.363,4.363,0,0,1-.343,1.737l-.721-.932a.606.606,0,0,0-.48-.235H76.968a.607.607,0,0,0-.479.978Z" transform="translate(-69.615 -17.284)" fill="#fff"/>
          <path id="パス_159" data-name="パス 159" d="M111.805,32.109h0V26.357h-4.042v5.751h0a2.021,2.021,0,1,1-4.042,0h0V26.357H99.679v5.751h0v.032h0a6.062,6.062,0,0,0,12.124,0h0Z" transform="translate(-80.383 -20.534)" fill="#fff"/>
          <path id="パス_160" data-name="パス 160" d="M156.033,31.562h0v-.029h0a5.8,5.8,0,0,0-9.6-4.366,5.8,5.8,0,0,0-9.6,4.366h0v5.927h4.042v-5.9h0a1.77,1.77,0,0,1,3.539,0v5.9h4.043v-5.9h0a1.769,1.769,0,1,1,3.538,0v5.9h4.043v-5.9Z" transform="translate(-93.689 -20.316)" fill="#fff"/>
          <g id="グループ_143" data-name="グループ 143" transform="translate(95.137 0.694)">
            <path id="パス_161" data-name="パス 161" d="M220.262,18.366a2.421,2.421,0,1,1-2.418,2.425A2.432,2.432,0,0,1,220.262,18.366Zm0,4.318a1.893,1.893,0,1,0-1.893-1.893A1.89,1.89,0,0,0,220.262,22.684Zm-.9-3a.128.128,0,0,1,.128-.128h1.044a.816.816,0,0,1,.829.835.781.781,0,0,1-.478.748l.31.7a.125.125,0,0,1-.115.182h-.363a.147.147,0,0,1-.121-.094l-.3-.755h-.35v.721a.128.128,0,0,1-.128.128h-.33a.128.128,0,0,1-.128-.128Zm1.1.99a.269.269,0,0,0,.276-.276.265.265,0,0,0-.276-.277h-.532v.553Z" transform="translate(-217.844 -18.366)" fill="#fff"/>
          </g>
          <path id="パス_162" data-name="パス 162" d="M178.407,24.784a7.421,7.421,0,0,0-7.115,7.678,7.421,7.421,0,0,0,7.115,7.678h3.649c.529,0,.667-.259.667-.684V37.121c0-.424-.138-.684-.667-.684h-1.2v0h-2.447a3.386,3.386,0,0,1-3.015-2.12h8.274a1.852,1.852,0,0,0,1.853-1.852A7.42,7.42,0,0,0,178.407,24.784Zm-3.015,5.825a3.2,3.2,0,0,1,6.027,0Z" transform="translate(-106.034 -19.97)" fill="#fff"/>
          <path id="パス_163" data-name="パス 163" d="M204.3,24.784a7.42,7.42,0,0,0-7.113,7.678A7.42,7.42,0,0,0,204.3,40.14h3.67c.529,0,.667-.259.667-.684V37.121c0-.424-.138-.684-.667-.684h-1.222v0H204.3a3.385,3.385,0,0,1-3.013-2.12h8.274a1.852,1.852,0,0,0,1.853-1.852A7.42,7.42,0,0,0,204.3,24.784Zm-3.013,5.825a3.2,3.2,0,0,1,6.027,0Z" transform="translate(-115.308 -19.97)" fill="#fff"/>
        </g>
        <g id="グループ_145" data-name="グループ 145" transform="translate(9.318)">
          <path id="パス_164" data-name="パス 164" d="M84.467,7.743a.322.322,0,0,1-.334-.333.318.318,0,0,1,.326-.327h.008l1.707.015a4.16,4.16,0,0,0-.349-.546.3.3,0,0,1-.068-.175c0-.159.167-.265.341-.265a.342.342,0,0,1,.2.06c.046.03.584.63.584.888v.046l.478.008.409-.008a5.623,5.623,0,0,0,.356-.811.3.3,0,0,1,.3-.213.39.39,0,0,1,.4.334,2.518,2.518,0,0,1-.349.682l1.737-.015h.007a.317.317,0,0,1,.334.327.324.324,0,0,1-.341.333ZM85,5.984a.33.33,0,1,1,0-.66h1.972l-.007-.485a.339.339,0,0,1,.372-.327.349.349,0,0,1,.386.327l-.008.485H89.7a.33.33,0,1,1,0,.66Zm3.61,5.149c-.372.008-.766.015-1.146.015-.447,0-.887-.008-1.3-.022-.531-.023-.812-.311-.834-.7-.015-.25-.022-.493-.022-.743s.007-.5.022-.758c.015-.319.235-.652.819-.667.334-.008.705-.008,1.085-.008.463,0,.948,0,1.411.015a.759.759,0,0,1,.781.615q.023.387.022.773t-.022.773A.785.785,0,0,1,88.608,11.133Zm.137-1.721c0-.372,0-.569-.372-.576-.394-.008-.841-.015-1.266-.015-.258,0-.516,0-.743.008-.372.015-.372.228-.372.576Zm-2.753.523c0,.107,0,.2.008.311.008.311.144.318,1.517.318.3,0,.584-.008.865-.015.365-.015.365-.167.365-.607Z" transform="translate(-84.133 -4.452)" fill="#fff"/>
          <path id="パス_165" data-name="パス 165" d="M101.894,6.367a.3.3,0,0,1-.341-.3.327.327,0,0,1,.341-.326h2.086a.3.3,0,0,1,.326.311.307.307,0,0,1-.326.311Zm.948,4.664c-.189,0-.379-.008-.531-.015a.578.578,0,0,1-.561-.6c0-.2-.008-.395-.008-.584s.008-.372.008-.538a.564.564,0,0,1,.553-.576c.168-.008.349-.015.524-.015.212,0,.417.008.591.015a.6.6,0,0,1,.607.538c.008.175.008.379.008.584s0,.4-.008.569a.555.555,0,0,1-.046.227c1.055-.2,1.289-.97,1.289-2.085,0-.091-.008-.189-.008-.288V8.248a.317.317,0,0,1,.334-.333.365.365,0,0,1,.379.356c0,.091.008.182.008.28,0,1.214-.319,2.42-1.866,2.723a.533.533,0,0,1-.107.008.3.3,0,0,1-.326-.311V10.94C103.578,10.986,103.487,11.031,102.842,11.031Zm-.7-5.7a.294.294,0,0,1-.326-.288.313.313,0,0,1,.326-.318h1.51a.3.3,0,1,1,0,.607Zm.015,2.025a.294.294,0,0,1-.326-.288.312.312,0,0,1,.326-.318h1.509a.3.3,0,1,1,0,.607Zm0,.978a.294.294,0,0,1-.326-.288.312.312,0,0,1,.326-.318h1.509a.3.3,0,1,1,0,.607ZM103.4,9.863c0-.144,0-.288-.008-.394-.015-.2-.182-.2-.531-.2-.091,0-.182,0-.3.008-.212.015-.212.128-.212.584,0,.144.008.288.008.4.008.159.152.182.493.182.47,0,.531-.068.538-.189C103.4,10.144,103.4,10,103.4,9.863Zm1.441-1.411a.309.309,0,0,1-.326.3.313.313,0,0,1-.334-.311c0-.1-.008-.2-.008-.311s.008-.235.008-.356c.015-.387.273-.645.8-.653.44-.007.933-.007,1.425-.007.364,0,.721,0,1.062.007a.742.742,0,0,1,.773.705c.008.1.008.205.008.3s0,.2-.008.3a.335.335,0,0,1-.357.3.3.3,0,0,1-.334-.288V8.43c0-.66,0-.721-.394-.728-.311-.007-.759-.015-1.175-.015-1.039,0-1.115,0-1.138.379v.386Zm0-1.66a.282.282,0,0,1-.318-.281.3.3,0,0,1,.318-.3l.933.008V5.8l-1.236.007a.294.294,0,0,1-.326-.288.311.311,0,0,1,.326-.311l1.236.008V4.752a.328.328,0,0,1,.357-.334.338.338,0,0,1,.364.334v.463l1.388-.008a.3.3,0,1,1,0,.6L106.5,5.8v.417l1.009-.008a.292.292,0,1,1,0,.584Zm2.92,3a.288.288,0,0,1,.311-.3.348.348,0,0,1,.364.365c0,.841-.227,1.282-1.213,1.282-.774,0-.941-.341-.941-.872,0-.3.015-1.836.03-2.071a.343.343,0,0,1,.365-.3c.326,0,.326.28.326.409,0,.409-.03,1.418-.03,1.8,0,.212.015.364.288.364.372,0,.5-.03.5-.591V9.8Z" transform="translate(-90.372 -4.418)" fill="#fff"/>
          <path id="パス_166" data-name="パス 166" d="M121.807,11.557a.516.516,0,0,1-.713-.068.388.388,0,0,1,.2-.592,2.9,2.9,0,0,0,1.593-2.981.388.388,0,0,1,.417-.463.4.4,0,0,1,.455.433c0,.09,0,.189-.008.28.022-.008.038-.023.061-.03a3.309,3.309,0,0,0,1.38-.956c.114-.159.114-.273-.083-.273-.85-.007-2.5.015-3.565.069-.667.03-.629-.7-.06-.728,1.1-.053,2.753-.046,3.891-.046.789,0,1.153.66.622,1.259a4.413,4.413,0,0,1-1.881,1.35.493.493,0,0,1-.432-.022A3.824,3.824,0,0,1,121.807,11.557Z" transform="translate(-97.346 -5.057)" fill="#fff"/>
          <path id="パス_167" data-name="パス 167" d="M139.945,10.189a4.694,4.694,0,0,0,3.011-3.026c.06-.2.038-.394-.243-.4-.743-.022-1.942.022-3.033.06a.376.376,0,1,1-.015-.751c1-.045,2.418-.053,3.382-.037a.8.8,0,0,1,.827,1.092,5.8,5.8,0,0,1-3.579,3.8C139.649,11.167,139.369,10.371,139.945,10.189Zm4.5-3.982a.8.8,0,0,1,0-1.6.8.8,0,1,1,0,1.6Zm0-1.191a.4.4,0,0,0-.387.394.387.387,0,0,0,.774,0A.4.4,0,0,0,144.45,5.016Z" transform="translate(-103.886 -4.486)" fill="#fff"/>
          <path id="パス_168" data-name="パス 168" d="M159.159,9.069a.373.373,0,0,1-.395-.387c.046-.75.023-1.942-.015-2.662-.022-.47.758-.508.789-.03.038.682.038,1.979.022,2.685A.392.392,0,0,1,159.159,9.069Zm.061,1.836a2.957,2.957,0,0,0,1.646-2.889c0-.592-.038-1.532-.038-2.131,0-.493.82-.462.812,0-.016.645.022,1.494.022,2.124a3.734,3.734,0,0,1-1.964,3.519C159.076,11.883,158.743,11.17,159.22,10.905Z" transform="translate(-110.859 -4.815)" fill="#fff"/>
        </g>
        <g id="グループ_146" data-name="グループ 146" transform="translate(23.639 28.987)">
          <path id="パス_169" data-name="パス 169" d="M107.291,52.19a5.987,5.987,0,0,0-.689-1.055.484.484,0,0,1,.039-.744,7.986,7.986,0,0,0,.666-.734.182.182,0,1,1,.289.221c-.162.2-.506.481-.708.682-.139.139-.146.237-.039.37a5.579,5.579,0,0,1,.759,1.058C107.709,52.206,107.394,52.4,107.291,52.19Z" transform="translate(-106.446 -49.581)" fill="#fff"/>
          <path id="パス_170" data-name="パス 170" d="M119.578,51.926a.407.407,0,0,0,.042-.642.855.855,0,0,0-.848.055.71.71,0,0,0-.272.243c-.117.172-.442-.019-.241-.218a11.465,11.465,0,0,0,.981-1.049c.036-.045,0-.032-.023-.019a2.588,2.588,0,0,1-.545.166c-.257.055-.306-.266-.085-.292a5.079,5.079,0,0,0,.714-.159c.26-.074.474.156.311.338-.1.117-.234.243-.363.363s-.26.237-.377.351a.994.994,0,0,1,.913-.01.648.648,0,0,1-.026,1.1,1.07,1.07,0,0,1-1.074.081.338.338,0,0,1,.191-.64.461.461,0,0,1,.513.438A.435.435,0,0,0,119.578,51.926Zm-.692-.1c-.142.013-.149.146-.046.2a.586.586,0,0,0,.273.049C119.116,51.929,119.029,51.816,118.886,51.829Z" transform="translate(-110.654 -49.73)" fill="#fff"/>
          <path id="パス_171" data-name="パス 171" d="M132.121,51.041a2.431,2.431,0,0,1,.7.142.526.526,0,0,0-.046-.341c-.091-.153.2-.276.309-.074a.794.794,0,0,1,.032.539,2.537,2.537,0,0,1,.448.276c.2.159-.016.458-.2.289a2.226,2.226,0,0,0-.354-.263,1.583,1.583,0,0,1-.617.659c-.227.133-.39-.12-.178-.25a1.388,1.388,0,0,0,.513-.548,2.023,2.023,0,0,0-.756-.162,1.546,1.546,0,0,1-.416.594.454.454,0,0,1-.62,0c-.166-.207-.046-.545.328-.71a1.823,1.823,0,0,1,.532-.14c.114-.244.263-.539.354-.743.019-.046.029-.072-.02-.059a1.688,1.688,0,0,1-.383.078.154.154,0,0,1-.01-.309,4.337,4.337,0,0,0,.468-.081c.3-.058.425.133.279.37s-.266.49-.383.734Zm-.762.39c-.085.042-.237.178-.182.26.039.055.156.035.214-.01a1.135,1.135,0,0,0,.27-.347A1.024,1.024,0,0,0,131.358,51.431Z" transform="translate(-115.193 -49.705)" fill="#fff"/>
          <path id="パス_172" data-name="パス 172" d="M144.959,51.691a.156.156,0,0,1-.172-.155.166.166,0,0,1,.172-.166H147a.161.161,0,1,1,0,.322Z" transform="translate(-120.179 -50.222)" fill="#fff"/>
        </g>
      </g>
      <g id="グループ_148" data-name="グループ 148">
        <path id="パス_173" data-name="パス 173" d="M35.43,18.773A14.992,14.992,0,1,1,20.439,3.781,14.991,14.991,0,0,1,35.43,18.773" transform="translate(-1.951 -1.354)" fill="#b2daff"/>
        <path id="パス_174" data-name="パス 174" d="M16.718,25.485c-9.819-2.832-8.674-13.977,0-16.024a2.5,2.5,0,0,1,1.989-1.807A2.5,2.5,0,0,1,20.695,9.46c8.675,2.047,9.819,13.193,0,16.024a2.173,2.173,0,0,1-1.988,1.566,2.174,2.174,0,0,1-1.989-1.566M18.526,34.7c11.657,0,18.888-7.321,18.888-17.262S27.2,0,18.526,0h.361C10.212,0,0,7.5,0,17.441S7.229,34.7,18.888,34.7Z" fill="#3e9cf2"/>
        <path id="パス_175" data-name="パス 175" d="M46.6,36.688l-7.6-7.6c-.463,2.884-2.651,5.608-6.842,6.817a1.883,1.883,0,0,1-.158.414l7.029,7.03A16.135,16.135,0,0,0,46.6,36.688" transform="translate(-11.461 -10.418)" fill="#177fde"/>
      </g>
    </g>
  </g>
</svg>
