<svg xmlns="http://www.w3.org/2000/svg" width="253.242" height="60.752" viewBox="0 0 253.242 60.752">
  <g id="logo" transform="translate(60.66 32.947)">
    <g id="グループ_149" data-name="グループ 149" transform="translate(-60.66 -32.947)">
      <g id="グループ_147" data-name="グループ 147" transform="translate(78.218 4.964)">
        <g id="グループ_144" data-name="グループ 144" transform="translate(0 14.456)">
          <path id="パス_157" data-name="パス 157" d="M132.016,45.455c0,.8-.266,1.284-1.284,1.284h-4.383c-1.019,0-1.283-.487-1.283-1.284V18.893c0-1.02.488-1.285,1.283-1.285h4.384c.794,0,1.283.265,1.283,1.285V45.455Z" transform="translate(-62.762 -17.244)" fill="#3e9cf2"/>
          <path id="パス_158" data-name="パス 158" d="M98.6,45.342l-3.835-4.955a13.814,13.814,0,0,0,3-8.813,13.882,13.882,0,0,0-4.134-10.128,13.533,13.533,0,0,0-9.909-4.162A13.876,13.876,0,0,0,76.659,19.2a14.322,14.322,0,0,0-3.015,22.294,13.531,13.531,0,0,0,10.141,4.217A13.782,13.782,0,0,0,89.6,44.484l1.679,2.161a1.069,1.069,0,0,0,.838.409h5.644a1.062,1.062,0,0,0,.839-1.711ZM81.647,34.251,85.2,38.826a6.988,6.988,0,0,1-1.439.146,7.113,7.113,0,0,1-4.634-1.652,6.935,6.935,0,0,1-2.592-5.747,7.329,7.329,0,0,1,2.065-5.4,6.822,6.822,0,0,1,5.121-2.1,6.7,6.7,0,0,1,5.046,2.161,7.279,7.279,0,0,1,2.1,5.307,7.638,7.638,0,0,1-.6,3.042L89.014,32.95a1.061,1.061,0,0,0-.84-.411H82.487a1.063,1.063,0,0,0-.839,1.712Z" transform="translate(-69.615 -17.284)" fill="#3e9cf2"/>
          <path id="パス_159" data-name="パス 159" d="M120.908,36.427h0V26.357h-7.076V36.425h0a3.538,3.538,0,1,1-7.075,0h0V26.357H99.679V36.425h0v.056h0a10.612,10.612,0,0,0,21.224,0h0Z" transform="translate(-65.9 -16.163)" fill="#3e9cf2"/>
          <path id="パス_160" data-name="パス 160" d="M170.449,35.924h0v-.051h0a10.159,10.159,0,0,0-16.809-7.644,10.158,10.158,0,0,0-16.808,7.644h0V46.249H143.9V35.924h0a3.1,3.1,0,0,1,6.2,0V46.249h7.077V35.924h0a3.1,3.1,0,1,1,6.194,0V46.249h7.077V35.924Z" transform="translate(-61.309 -16.238)" fill="#3e9cf2"/>
          <g id="グループ_143" data-name="グループ 143" transform="translate(166.547 1.216)">
            <path id="パス_161" data-name="パス 161" d="M222.078,18.366a4.239,4.239,0,1,1-4.234,4.245A4.257,4.257,0,0,1,222.078,18.366Zm0,7.558a3.313,3.313,0,1,0-3.313-3.313A3.308,3.308,0,0,0,222.078,25.924ZM220.5,20.665a.224.224,0,0,1,.225-.224h1.827A1.428,1.428,0,0,1,224,21.9a1.368,1.368,0,0,1-.837,1.309l.543,1.226a.219.219,0,0,1-.2.319h-.636a.257.257,0,0,1-.212-.165l-.519-1.321h-.614v1.262a.224.224,0,0,1-.224.225h-.578a.225.225,0,0,1-.225-.225Zm1.922,1.734a.471.471,0,0,0,.483-.483.465.465,0,0,0-.483-.484h-.931V22.4Z" transform="translate(-217.844 -18.366)" fill="#3e9cf2"/>
          </g>
          <path id="パス_162" data-name="パス 162" d="M183.747,24.784c-6.867,0-12.455,6.03-12.455,13.441s5.588,13.441,12.455,13.441h3.637l.046,0h2.706c.926,0,1.167-.454,1.167-1.2V46.381c0-.743-.242-1.2-1.167-1.2h-2.1v0h-4.284a5.928,5.928,0,0,1-5.277-3.711h14.484a3.243,3.243,0,0,0,3.244-3.243C196.2,30.814,190.613,24.784,183.747,24.784Zm-5.277,10.2a5.606,5.606,0,0,1,10.552,0Z" transform="translate(-57.05 -16.357)" fill="#3e9cf2"/>
          <path id="パス_163" data-name="パス 163" d="M209.639,24.784c-6.867,0-12.453,6.03-12.453,13.441s5.585,13.441,12.453,13.441h3.672l.047,0h2.706c.926,0,1.167-.454,1.167-1.2V46.381c0-.743-.242-1.2-1.167-1.2h-2.139v0h-4.285a5.925,5.925,0,0,1-5.275-3.711h14.484a3.243,3.243,0,0,0,3.244-3.243C222.091,30.814,216.506,24.784,209.639,24.784Zm-5.275,10.2a5.605,5.605,0,0,1,10.55,0Z" transform="translate(-53.85 -16.357)" fill="#3e9cf2"/>
        </g>
        <g id="グループ_145" data-name="グループ 145" transform="translate(16.312)">
          <path id="パス_164" data-name="パス 164" d="M84.717,10.168a.563.563,0,0,1-.584-.583.557.557,0,0,1,.571-.572h.013L87.7,9.04a7.282,7.282,0,0,0-.611-.956.522.522,0,0,1-.119-.306c0-.279.292-.464.6-.464a.6.6,0,0,1,.357.106c.08.053,1.022,1.1,1.022,1.554v.08l.837.013.717-.013a9.843,9.843,0,0,0,.624-1.42.532.532,0,0,1,.531-.373.683.683,0,0,1,.7.585,4.409,4.409,0,0,1-.61,1.194l3.04-.027h.012a.555.555,0,0,1,.585.572.568.568,0,0,1-.6.583Zm.929-3.08a.578.578,0,1,1,0-1.155H89.1l-.012-.849a.594.594,0,0,1,.651-.572.611.611,0,0,1,.676.572l-.013.849h3.479a.578.578,0,1,1,0,1.155Zm6.32,9.014c-.651.013-1.342.027-2.006.027-.783,0-1.553-.013-2.27-.039-.929-.04-1.421-.545-1.461-1.222-.027-.437-.039-.863-.039-1.3s.012-.875.039-1.327c.027-.558.411-1.142,1.434-1.169.584-.013,1.235-.013,1.9-.013.81,0,1.66,0,2.47.026A1.329,1.329,0,0,1,93.4,12.16q.04.678.039,1.354,0,.657-.039,1.354A1.374,1.374,0,0,1,91.967,16.1Zm.239-3.013c0-.651,0-1-.652-1.009-.69-.013-1.473-.027-2.217-.027-.452,0-.9,0-1.3.013-.651.027-.651.4-.651,1.009Zm-4.82.916c0,.187,0,.358.013.545.013.544.253.557,2.655.557.518,0,1.022-.013,1.513-.027.638-.026.638-.292.638-1.062Z" transform="translate(-84.133 -4.406)" fill="#3e9cf2"/>
          <path id="パス_165" data-name="パス 165" d="M102.15,7.83a.526.526,0,0,1-.6-.518.572.572,0,0,1,.6-.571H105.8a.529.529,0,0,1,.571.544.537.537,0,0,1-.571.545ZM103.809,16c-.331,0-.663-.013-.929-.027a1.011,1.011,0,0,1-.982-1.048c0-.345-.013-.691-.013-1.022s.013-.651.013-.943a.988.988,0,0,1,.969-1.009c.293-.013.611-.027.917-.027.372,0,.73.013,1.035.027a1.055,1.055,0,0,1,1.063.943c.013.306.013.664.013,1.022s0,.7-.013,1a.971.971,0,0,1-.08.4c1.846-.357,2.257-1.7,2.257-3.651,0-.16-.013-.331-.013-.5v-.027a.556.556,0,0,1,.584-.583.639.639,0,0,1,.664.624c0,.16.013.318.013.491,0,2.125-.558,4.236-3.266,4.766a.933.933,0,0,1-.187.013.529.529,0,0,1-.571-.544v-.054C105.1,15.916,104.938,16,103.809,16Zm-1.221-9.984a.515.515,0,0,1-.571-.5.547.547,0,0,1,.571-.557h2.643a.531.531,0,1,1,0,1.062Zm.027,3.545a.514.514,0,0,1-.571-.5.547.547,0,0,1,.571-.557h2.642a.531.531,0,1,1,0,1.062Zm0,1.712a.514.514,0,0,1-.571-.5.547.547,0,0,1,.571-.557h2.642a.531.531,0,1,1,0,1.062Zm2.177,2.682c0-.252,0-.5-.013-.69-.027-.345-.319-.358-.929-.358-.16,0-.319,0-.518.013-.372.026-.372.225-.372,1.022,0,.252.013.5.013.7.013.279.266.318.863.318.824,0,.929-.119.943-.331C104.792,14.443,104.792,14.19,104.792,13.95Zm2.522-2.47a.541.541,0,0,1-.571.531.547.547,0,0,1-.584-.544c0-.173-.014-.358-.014-.545s.014-.411.014-.624c.026-.678.479-1.129,1.394-1.143.77-.012,1.633-.012,2.5-.012.637,0,1.262,0,1.86.012a1.3,1.3,0,0,1,1.354,1.235c.013.173.013.36.013.531s0,.358-.013.518a.587.587,0,0,1-.625.531.524.524,0,0,1-.584-.5v-.027c0-1.155,0-1.262-.69-1.275-.545-.012-1.328-.026-2.057-.026-1.819,0-1.952,0-1.992.664v.676Zm0-2.907a.494.494,0,0,1-.557-.492.53.53,0,0,1,.557-.53l1.633.013v-.73l-2.164.012a.515.515,0,0,1-.571-.5.545.545,0,0,1,.571-.544l2.164.013V5a.574.574,0,0,1,.625-.584.593.593,0,0,1,.637.584v.81l2.429-.013a.525.525,0,1,1,0,1.048l-2.429-.012v.73l1.766-.013a.512.512,0,1,1,0,1.022Zm5.111,5.257a.5.5,0,0,1,.545-.531.609.609,0,0,1,.637.638c0,1.473-.4,2.244-2.124,2.244-1.355,0-1.647-.6-1.647-1.527,0-.531.027-3.213.053-3.625a.6.6,0,0,1,.638-.518c.571,0,.571.491.571.717,0,.717-.053,2.483-.053,3.146,0,.372.026.637.5.637.652,0,.876-.053.876-1.035v-.146Z" transform="translate(-81.98 -4.418)" fill="#3e9cf2"/>
          <path id="パス_166" data-name="パス 166" d="M122.4,15.576a.9.9,0,0,1-1.248-.119.68.68,0,0,1,.358-1.036A5.074,5.074,0,0,0,124.295,9.2a.68.68,0,0,1,.73-.81.708.708,0,0,1,.8.757c0,.158,0,.331-.014.491.039-.013.066-.04.107-.053a5.792,5.792,0,0,0,2.416-1.673c.2-.279.2-.479-.146-.479-1.488-.012-4.381.027-6.24.12-1.167.053-1.1-1.222-.106-1.275,1.925-.092,4.819-.08,6.811-.08,1.381,0,2.018,1.155,1.089,2.2a7.725,7.725,0,0,1-3.293,2.363.863.863,0,0,1-.756-.039A6.7,6.7,0,0,1,122.4,15.576Z" transform="translate(-79.574 -4.198)" fill="#3e9cf2"/>
          <path id="パス_167" data-name="パス 167" d="M140.443,14.379a8.217,8.217,0,0,0,5.271-5.3c.106-.358.066-.69-.426-.7-1.3-.039-3.4.039-5.31.106a.658.658,0,1,1-.026-1.315c1.752-.079,4.234-.092,5.92-.065a1.4,1.4,0,0,1,1.448,1.911,10.159,10.159,0,0,1-6.266,6.652C139.925,16.091,139.434,14.7,140.443,14.379Zm7.886-6.971a1.4,1.4,0,0,1,0-2.8,1.4,1.4,0,1,1,0,2.8Zm0-2.084a.692.692,0,0,0-.678.69.678.678,0,0,0,1.355,0A.692.692,0,0,0,148.329,5.324Z" transform="translate(-77.318 -4.395)" fill="#3e9cf2"/>
          <path id="パス_168" data-name="パス 168" d="M159.467,11.729a.652.652,0,0,1-.691-.678c.08-1.313.04-3.4-.026-4.659-.038-.824,1.327-.89,1.381-.053.067,1.194.067,3.465.039,4.7A.686.686,0,0,1,159.467,11.729Zm.107,3.213a5.177,5.177,0,0,0,2.881-5.058c0-1.036-.066-2.682-.066-3.731,0-.863,1.435-.809,1.421,0-.028,1.129.039,2.616.039,3.718a6.536,6.536,0,0,1-3.438,6.161C159.321,16.655,158.738,15.407,159.574,14.943Z" transform="translate(-74.912 -4.281)" fill="#3e9cf2"/>
        </g>
        <g id="グループ_146" data-name="グループ 146" transform="translate(41.382 50.745)">
          <path id="パス_169" data-name="パス 169" d="M107.925,54.148a10.479,10.479,0,0,0-1.206-1.847.846.846,0,0,1,.069-1.3,13.981,13.981,0,0,0,1.165-1.284.318.318,0,1,1,.506.387c-.284.347-.886.842-1.239,1.194-.244.244-.256.415-.067.647a9.767,9.767,0,0,1,1.329,1.853C108.657,54.176,108.106,54.512,107.925,54.148Z" transform="translate(-106.446 -49.581)" fill="#3e9cf2"/>
          <path id="パス_170" data-name="パス 170" d="M120.615,53.375a.713.713,0,0,0,.074-1.125,1.5,1.5,0,0,0-1.484.1,1.242,1.242,0,0,0-.476.426c-.2.3-.773-.034-.421-.381a20.072,20.072,0,0,0,1.717-1.836c.063-.079.006-.056-.04-.034a4.53,4.53,0,0,1-.954.29c-.449.1-.535-.466-.148-.511a8.893,8.893,0,0,0,1.251-.279c.455-.13.829.273.545.591-.181.2-.409.426-.636.636s-.455.416-.66.615a1.74,1.74,0,0,1,1.6-.017,1.135,1.135,0,0,1-.046,1.921,1.873,1.873,0,0,1-1.881.142.592.592,0,0,1,.335-1.12.808.808,0,0,1,.9.767A.762.762,0,0,0,120.615,53.375ZM119.4,53.2c-.249.022-.261.255-.08.352a1.025,1.025,0,0,0,.479.085C119.807,53.38,119.655,53.182,119.4,53.2Z" transform="translate(-104.994 -49.53)" fill="#3e9cf2"/>
          <path id="パス_171" data-name="パス 171" d="M133.063,51.878a4.256,4.256,0,0,1,1.234.249.921.921,0,0,0-.08-.6c-.16-.267.353-.483.54-.13a1.389,1.389,0,0,1,.056.944,4.44,4.44,0,0,1,.784.483c.358.278-.028.8-.352.506a3.9,3.9,0,0,0-.62-.461,2.772,2.772,0,0,1-1.08,1.154c-.4.234-.682-.21-.312-.438a2.429,2.429,0,0,0,.9-.96,3.542,3.542,0,0,0-1.324-.284,2.706,2.706,0,0,1-.728,1.039.8.8,0,0,1-1.085,0c-.29-.363-.08-.954.574-1.244a3.193,3.193,0,0,1,.931-.245c.2-.427.461-.944.62-1.3.034-.08.051-.126-.035-.1a2.955,2.955,0,0,1-.67.137.27.27,0,0,1-.018-.54,7.59,7.59,0,0,0,.819-.142c.517-.1.744.233.489.648-.239.4-.466.858-.671,1.284Zm-1.335.682c-.148.074-.416.312-.319.455.069.1.273.062.375-.018a1.986,1.986,0,0,0,.472-.608A1.793,1.793,0,0,0,131.728,52.56Z" transform="translate(-103.428 -49.539)" fill="#3e9cf2"/>
          <path id="パス_172" data-name="パス 172" d="M145.088,51.932a.273.273,0,0,1-.3-.272.29.29,0,0,1,.3-.291h3.57a.282.282,0,1,1,0,.563Z" transform="translate(-101.707 -49.36)" fill="#3e9cf2"/>
        </g>
      </g>
      <g id="グループ_148" data-name="グループ 148">
        <path id="パス_173" data-name="パス 173" d="M57.936,30.026A26.245,26.245,0,1,1,31.693,3.781,26.243,26.243,0,0,1,57.936,30.026" transform="translate(0.673 0.467)" fill="#b2daff"/>
        <path id="パス_174" data-name="パス 174" d="M29.267,44.614c-17.19-4.957-15.185-24.468,0-28.052A4.378,4.378,0,0,1,32.749,13.4a4.38,4.38,0,0,1,3.48,3.164c15.186,3.584,17.19,23.1,0,28.052a3.8,3.8,0,0,1-3.48,2.742,3.806,3.806,0,0,1-3.482-2.742m3.165,16.138C52.84,60.752,65.5,47.936,65.5,30.533S47.618,0,32.432,0h.633C17.877,0,0,13.132,0,30.533S12.656,60.752,33.065,60.752Z" fill="#3e9cf2"/>
        <path id="パス_175" data-name="パス 175" d="M57.561,42.395,44.252,29.086c-.811,5.048-4.64,9.817-11.978,11.934a3.3,3.3,0,0,1-.276.725L44.3,54.051A28.246,28.246,0,0,0,57.561,42.395" transform="translate(3.954 3.594)" fill="#177fde"/>
      </g>
    </g>
  </g>
</svg>
