<svg xmlns="http://www.w3.org/2000/svg" width="161" height="161" viewBox="0 0 161 161">
  <g id="txt1" transform="translate(-1310 -210)">
    <g id="グループ_1172" data-name="グループ 1172">
      <circle id="楕円形_29" data-name="楕円形 29" cx="80.5" cy="80.5" r="80.5" transform="translate(1310 210)" fill="#49b2f4"/>
      <path id="パス_837" data-name="パス 837" d="M76,0A76,76,0,1,1,0,76,76,76,0,0,1,76,0Z" transform="translate(1315 215)" fill="#60b5ff"/>
      <path id="パス_837_-_アウトライン" data-name="パス 837 - アウトライン" d="M76,1A74.645,74.645,0,0,0,34.067,13.808a75.222,75.222,0,0,0-27.174,33,74.9,74.9,0,0,0,6.915,71.126,75.222,75.222,0,0,0,33,27.174,74.9,74.9,0,0,0,71.126-6.915,75.222,75.222,0,0,0,27.174-33,74.9,74.9,0,0,0-6.915-71.126,75.222,75.222,0,0,0-33-27.174A74.529,74.529,0,0,0,76,1m0-1A76,76,0,1,1,0,76,76,76,0,0,1,76,0Z" transform="translate(1315 215)" fill="#fff"/>
      <path id="パス_888" data-name="パス 888" d="M-63.992,1.92a7.85,7.85,0,0,0-.372-1.4A6.26,6.26,0,0,0-65-.816a19.194,19.194,0,0,0,8.376-2.16Q-58.16-3.6-59.6-4.092t-2.64-.78q.408-.6.936-1.464t1.1-1.9h-5.448v-2.52h6.792q.624-1.176,1.128-2.256t.792-1.848l2.976.864q-.312.7-.708,1.536t-.852,1.7h11.664v2.52h-4.992a15.871,15.871,0,0,1-2.376,4.488q1.656.744,3.252,1.536t2.916,1.584A6.8,6.8,0,0,0-46.04.54a11.222,11.222,0,0,0-.84,1.38q-1.392-.888-3.084-1.788t-3.468-1.716A14.887,14.887,0,0,1-57.956.672,34.883,34.883,0,0,1-63.992,1.92Zm-.936-14.136V-17.5h8.448v-2.736h3.24V-17.5H-44.7v5.256h-2.928v-2.784H-61.952v2.808ZM-54.1-4.944a9.751,9.751,0,0,0,2.016-3.288H-56.84q-.336.6-.624,1.1t-.5.84q.84.24,1.824.588T-54.1-4.944ZM-29.816,1.7V-9.648a30.637,30.637,0,0,1-2.328,3.276,36.228,36.228,0,0,1-2.724,3A28.487,28.487,0,0,1-37.736-.888a4.684,4.684,0,0,0-.576-.72q-.384-.408-.8-.78a5.377,5.377,0,0,0-.78-.588,22.7,22.7,0,0,0,2.412-1.836A32.9,32.9,0,0,0-35.06-7.14q1.188-1.26,2.208-2.58a23.116,23.116,0,0,0,1.764-2.616h-7.7v-2.616h8.976v-5.064h2.808v5.064h9.024v2.616h-7.752a26.614,26.614,0,0,0,2.448,3.4A33.92,33.92,0,0,0-20.18-5.7a29.941,29.941,0,0,0,3.324,2.652,5.913,5.913,0,0,0-.768.612,11.372,11.372,0,0,0-.816.828,8.156,8.156,0,0,0-.6.744,31.057,31.057,0,0,1-2.9-2.556A37.909,37.909,0,0,1-24.68-6.444,32.068,32.068,0,0,1-27.008-9.7V1.7ZM-9.344-5.52V-15.648h5.712v-1.008h-8.736v-2.208h8.736v-1.368h3.24v1.368h8.76v2.208H-.392v1.008H5.32V-5.52Zm-1.2,7.608A7.233,7.233,0,0,0-11.108.84a7.371,7.371,0,0,0-.756-1.152q.6-.144,1.56-.468t2.028-.744q1.068-.42,1.956-.852H-12.8V-4.632H8.824v2.256H2.32q.888.432,1.956.852t2.04.744q.972.324,1.548.468A7.371,7.371,0,0,0,7.108.84a7.233,7.233,0,0,0-.564,1.248A24.455,24.455,0,0,1,4.228,1.26Q2.968.744,1.744.108T-.488-1.176l.912-1.2H-4.424l.912,1.2Q-4.52-.528-5.756.108T-8.24,1.26A23.545,23.545,0,0,1-10.544,2.088Zm4.272-14.832H2.272v-.984H-6.272Zm0,5.3H2.272v-.912H-6.272Zm0-2.664H2.272v-.912H-6.272Zm20.16,2.568V-10.56H34.96v3.024ZM40.41,1.148A5.329,5.329,0,0,0,40,.364a3.931,3.931,0,0,0-.56-.742,6.2,6.2,0,0,0,2.282-.9,3.708,3.708,0,0,0,1.281-1.484,5.365,5.365,0,0,0,.469-2.03H39.542V-6.342h5.53V-8.064H42.426a8.669,8.669,0,0,1-1.078,1.456,5.63,5.63,0,0,0-.728-.5,5.475,5.475,0,0,0-.784-.385,6.613,6.613,0,0,0,.707-.854,11.582,11.582,0,0,0,.672-1.071,10.472,10.472,0,0,0,.546-1.134,7.111,7.111,0,0,0,.343-1.043l1.666.49a14.173,14.173,0,0,1-.546,1.5h1.848v-2.17h1.792V-9.6H50.84v1.54H46.864v1.722h5.222v1.554H48.012v3.6a.38.38,0,0,0,.1.3A.663.663,0,0,0,48.53-.8h1.12a1.222,1.222,0,0,0,.581-.112.787.787,0,0,0,.322-.462,6.128,6.128,0,0,0,.217-1.036,4.68,4.68,0,0,0,.483.217q.3.119.623.224t.546.161a5.842,5.842,0,0,1-.4,1.575,1.65,1.65,0,0,1-.7.805A2.36,2.36,0,0,1,50.2.812H47.872A2.079,2.079,0,0,1,46.654.546a1.021,1.021,0,0,1-.35-.868V-4.788h-1.12a6.369,6.369,0,0,1-1.239,3.724A6.632,6.632,0,0,1,40.41,1.148ZM53.654.406v-1.5h5.474V-3.7H55.586V-5.222h3.542v-2.17H56.2q-.392.658-.805,1.246a10.721,10.721,0,0,1-.805,1.022,2.522,2.522,0,0,0-.413-.315q-.273-.175-.56-.336a2.977,2.977,0,0,0-.5-.231A6.759,6.759,0,0,0,54-7.049a15.265,15.265,0,0,0,.9-1.456q.434-.791.763-1.547a6.572,6.572,0,0,0,.441-1.33l1.61.532a10.1,10.1,0,0,1-.728,1.96h2.142v-2.772h1.764V-8.89h4.55v1.5h-4.55v2.17h3.5V-3.7h-3.5v2.6h5.054v1.5Zm-66.562,23.24V16.618H-6.72v1.218H-8.834v.77h1.61v1.6a9.346,9.346,0,0,0,.791-1.267,13.908,13.908,0,0,0,.651-1.428,8.914,8.914,0,0,0,.406-1.3l1.456.364q-.1.364-.224.756t-.28.8h3.7v1.386H-5.054a9.522,9.522,0,0,1-.476.868,8.192,8.192,0,0,1-.5.728,5.9,5.9,0,0,0-.567-.336,4.578,4.578,0,0,0-.623-.28v1.148h-1.61v.784h2.142v1.218ZM-13.3,28.84V27.412h1.68V24.22h9.226v3.192H-.686V28.84Zm7.574-5.894V21.518h4.382v1.428Zm-5.74-2.408H-8.61v-.812h-2.856Zm1.414,6.874h1.106V25.564h-1.106Zm2.492,0h1.106V25.564H-7.56Zm2.506,0h1.092V25.564H-5.054Zm-6.412-4.984h1.218v-.784h-1.218Zm0-3.822h1.218v-.77h-1.218Zm15.54,8.232V19.026H5.446v.77a8.12,8.12,0,0,0,.847-1.155,10.191,10.191,0,0,0,.686-1.323,6.705,6.705,0,0,0,.4-1.19l1.414.294q-.07.266-.168.56t-.224.6h4.732v1.344h-1.3a8.194,8.194,0,0,1-.616.973,8.553,8.553,0,0,1-.728.861,8.546,8.546,0,0,0,1.477.651,9.991,9.991,0,0,0,1.547.385,7,7,0,0,0-.413.665,4.72,4.72,0,0,0-.343.735,12.734,12.734,0,0,1-1.785-.6,10.281,10.281,0,0,1-1.631-.868,9.026,9.026,0,0,1-1.491.833,12.887,12.887,0,0,1-1.757.623q-.112-.266-.3-.616a4.933,4.933,0,0,0-.343-.56v4.83ZM2,29.064V22.288q-.14.224-.3.434t-.315.406a5.9,5.9,0,0,0-.616-.476A6.779,6.779,0,0,0,.1,22.246a9,9,0,0,0,1.008-1.372,16.249,16.249,0,0,0,.861-1.617,16.879,16.879,0,0,0,.651-1.61,12.176,12.176,0,0,0,.392-1.365l1.554.378A14.817,14.817,0,0,1,4.1,18.088q-.28.742-.6,1.47v9.506Zm4.046.112a7.2,7.2,0,0,0-.28-.693,4.014,4.014,0,0,0-.35-.637,13.892,13.892,0,0,0,2.051-.385,15.547,15.547,0,0,0,1.988-.672,12.609,12.609,0,0,0,1.757-.889,7.272,7.272,0,0,0,1.344-1.036l1.078.91a8.161,8.161,0,0,1-1.5,1.19,14.226,14.226,0,0,1-1.876.987,16.522,16.522,0,0,1-2.086.749A18.23,18.23,0,0,1,6.048,29.176Zm.42-2.128a3.544,3.544,0,0,0-.28-.644,4.755,4.755,0,0,0-.364-.588,10.43,10.43,0,0,0,1.946-.49A12.5,12.5,0,0,0,9.632,24.5a6.84,6.84,0,0,0,1.428-1.008l1.008.868a8.2,8.2,0,0,1-1.561,1.148,13.037,13.037,0,0,1-1.96.924A14.8,14.8,0,0,1,6.468,27.048Zm-.07-1.9a4.939,4.939,0,0,0-.294-.6,3.4,3.4,0,0,0-.378-.56A8.836,8.836,0,0,0,7.07,23.59a11.37,11.37,0,0,0,1.372-.616A5.828,5.828,0,0,0,9.52,22.26l.938.826A7.9,7.9,0,0,1,9.3,23.9a12.211,12.211,0,0,1-1.421.707Q7.126,24.92,6.4,25.144Zm-.952-3.178a10.569,10.569,0,0,0,1.519-.476,8.05,8.05,0,0,0,1.253-.63q-.266-.252-.511-.525a7.278,7.278,0,0,1-.469-.581q-.21.308-.441.595t-.469.539a2.327,2.327,0,0,0-.392-.329q-.252-.175-.49-.315Zm3.892-1.974a7.793,7.793,0,0,0,.91-1.064H8.274A6.375,6.375,0,0,0,9.338,19.992Z" transform="translate(1391 302)" fill="#fff"/>
      <path id="パス_887" data-name="パス 887" d="M-46.074,1.092a4.131,4.131,0,0,0-.077-.539q-.063-.315-.133-.623a2.553,2.553,0,0,0-.154-.49h.966a.7.7,0,0,0,.413-.1.426.426,0,0,0,.133-.364V-3.78H-48.44V-8.092h8.708V-3.78h-3.514v3.4a1.344,1.344,0,0,1-.441,1.12,2.129,2.129,0,0,1-1.337.35Zm-4.2-10.024v-1.484h5.32V-11.83h1.722v1.414h5.264v1.484Zm3.486,3.78h5.39V-6.72h-5.39ZM-38.878.63a10.868,10.868,0,0,1-1.211-.861,16.743,16.743,0,0,1-1.26-1.127A15.664,15.664,0,0,1-42.42-2.52l1.26-.966a8.088,8.088,0,0,0,.714.791q.42.413.9.812t.952.721a8.177,8.177,0,0,0,.847.518,5.024,5.024,0,0,0-.616.609A7.507,7.507,0,0,0-38.878.63Zm-10.486,0a4.451,4.451,0,0,0-.511-.644,4.463,4.463,0,0,0-.623-.56,7.388,7.388,0,0,0,.868-.546,12.018,12.018,0,0,0,.973-.777q.483-.427.9-.854a6.034,6.034,0,0,0,.651-.777l1.288,1.008a13.566,13.566,0,0,1-1.057,1.162,16.743,16.743,0,0,1-1.26,1.127A10.139,10.139,0,0,1-49.364.63Zm21.21.434V-10.374a15.738,15.738,0,0,1-.7,1.442,16.245,16.245,0,0,1-.854,1.386h1.162V-6.16h-2.268q-.238.28-.5.546t-.546.532h2.716V.742h-5.124V-3.3q-.28.154-.567.308t-.6.308a3.541,3.541,0,0,0-.371-.658,4.284,4.284,0,0,0-.483-.6,12.849,12.849,0,0,0,1.827-.959A11.863,11.863,0,0,0-32.816-6.16h-2.8V-7.546h2.38v-1.2h-1.946v-1.414h1.946v-1.512h1.554v1.512h1.2v1.12q.238-.448.455-.91t.4-.952l1.47.518v-.77h4.606l.63.434q-.112.266-.294.707t-.406.952l-.441,1.008q-.217.5-.4.889t-.28.588a6.159,6.159,0,0,1,1.232,1.463,3.858,3.858,0,0,1,.518,2.051,2.778,2.778,0,0,1-.644,1.974,2.431,2.431,0,0,1-1.862.686h-.574a6.632,6.632,0,0,0-.133-.84,4.377,4.377,0,0,0-.231-.784h.6q1.218,0,1.218-1.134a3.667,3.667,0,0,0-.434-1.806,5.474,5.474,0,0,0-1.3-1.512l.273-.637q.189-.441.4-.966t.385-.987a6.169,6.169,0,0,0,.231-.7H-26.6V1.064ZM-32.7-.518h1.988V-1.582H-32.7Zm0-2.268h1.988V-3.822H-32.7Zm1.022-4.76h.182a6.967,6.967,0,0,0,.448-.588q.21-.308.392-.616h-1.022ZM-19.908,1.12a5.032,5.032,0,0,0-.56-.686,3.8,3.8,0,0,0-.686-.574,9.957,9.957,0,0,0,2.03-1.645,11.93,11.93,0,0,0,1.582-2.079q-.392-.252-.805-.5t-.693-.385l.91-1.568q.308.14.693.357t.735.441q.238-.616.42-1.239A10.045,10.045,0,0,0-16-7.994H-17.92a19.1,19.1,0,0,1-.966,2.114,9.937,9.937,0,0,1-1.078,1.652A4.285,4.285,0,0,0-20.65-4.7a7.521,7.521,0,0,0-.756-.392,8.3,8.3,0,0,0,.959-1.393,15.95,15.95,0,0,0,.854-1.771,17.106,17.106,0,0,0,.637-1.827,9.545,9.545,0,0,0,.322-1.533l1.68.35A12.1,12.1,0,0,1-17.4-9.492h3.332a17.2,17.2,0,0,1-.294,1.862l.742-.658a6.04,6.04,0,0,0,.392.462l.434.462v-4.312h1.722v5.768a15.616,15.616,0,0,0,1.68,1.071,9.4,9.4,0,0,0,1.582.707q-.14.168-.35.469t-.4.616a4.516,4.516,0,0,0-.273.511,10.394,10.394,0,0,1-1.085-.553q-.567-.329-1.155-.721v4.83H-12.8V-5.11q-.49-.42-.938-.854a11.516,11.516,0,0,1-.812-.868,14.017,14.017,0,0,1-2.03,4.557A13.954,13.954,0,0,1-19.908,1.12ZM-5.922.686V-11.326H5.922V.686ZM-4.256-.8H4.256V-9.912H-4.256Zm.546-.854V-3.024H-.84v-1.96H-3.15V-6.356H-.84V-7.7H-3.514V-9.086H3.5V-7.7H.784v1.344H3.122v1.372H2.3q.182.168.427.406t.455.462a3.568,3.568,0,0,1,.308.364,4.125,4.125,0,0,0-.378.315q-.238.217-.42.413h1.05v1.372ZM.784-3.024H2.366q-.252-.294-.623-.658a7.035,7.035,0,0,0-.609-.546l.854-.756H.784Zm12.8-1.5V-5.936h1.568q.084-.294.2-.714t.21-.882H14.308V-8.876h1.54q.07-.308.119-.581t.091-.483h-2.2v-1.316h6.986V-9.94H17.724q-.042.238-.091.511t-.119.553h2.352v2.94h1.372v1.414ZM14.644.714V-3.64h5.53V.714Zm-5.866,0V-3.318h4.536V.714ZM8.2-7.98V-9.254h5.474V-7.98ZM8.89-9.94v-1.316h4.172V-9.94ZM8.876-4.032V-5.32h4.186v1.288Zm0-1.974V-7.294h4.186v1.288ZM16.254-.714h2.324V-2.226H16.254Zm-5.978.14H11.83V-2.03H10.276Zm6.552-5.362h1.428v-1.6H17.234q-.1.448-.2.861T16.828-5.936Zm7.028,7.042q-.112-.224-.3-.525T23.163.007a3.075,3.075,0,0,0-.371-.427A9.555,9.555,0,0,0,25.543-1.9a8.265,8.265,0,0,0,1.946-2.142,6.581,6.581,0,0,0,.945-2.548H23.2V-8.2H28.5v-3.458h1.764V-8.2h5.32v1.61H30.352a6.812,6.812,0,0,0,.994,2.527,8.56,8.56,0,0,0,1.967,2.149,9.524,9.524,0,0,0,2.681,1.47,4.933,4.933,0,0,0-.4.462q-.217.28-.406.581a4.887,4.887,0,0,0-.287.511,12.766,12.766,0,0,1-2.24-1.323A11.085,11.085,0,0,1,30.73-2.023a8.273,8.273,0,0,1-1.344-2.219,8.2,8.2,0,0,1-1.358,2.226A11.025,11.025,0,0,1,26.075-.21,13.793,13.793,0,0,1,23.856,1.106Zm17.948,0a5.9,5.9,0,0,0-.14-.819,5.454,5.454,0,0,0-.224-.763h1.4a.705.705,0,0,0,.406-.091.437.437,0,0,0,.126-.371V-2.38h-5.46V-3.808h5.46v-.826H44q.21-.154.553-.427t.623-.525H40.4V-6.958h7.07l.63.644q-.266.266-.658.616t-.826.714q-.434.364-.833.672t-.679.5h5.166V-2.38H45.038V-.35q0,1.456-1.764,1.456Zm-3.78-6.958v-3.3H40.18a10.185,10.185,0,0,0-.5-.973,5.408,5.408,0,0,0-.567-.833l1.442-.658a5.059,5.059,0,0,1,.455.623q.245.385.469.784a5.356,5.356,0,0,1,.336.693l-.854.364H43.4a7.348,7.348,0,0,0-.3-.721q-.189-.4-.4-.777a4.821,4.821,0,0,0-.42-.644l1.5-.546a4.37,4.37,0,0,1,.455.651q.245.413.462.847a5.341,5.341,0,0,1,.315.742l-1.12.448h1.834q.238-.378.5-.861t.49-.959q.231-.476.371-.8l1.68.434q-.238.5-.574,1.106t-.63,1.078h2.618v3.3h-1.61v-1.96h-8.96v1.96Z" transform="translate(1391 267)" fill="#fff"/>
    </g>
  </g>
</svg>
