<svg xmlns="http://www.w3.org/2000/svg" width="268.259" height="176.18" viewBox="0 0 268.259 176.18">
  <path id="num2" d="M111.5-172.585q30.162,0,43.881,22.975,12.74,21.451,12.74,64.461,0,49.217-16.66,70.776-13.938,17.966-40.4,17.966-30.488,0-43.99-23.411-12.413-21.451-12.413-64.9,0-49,16.769-70.341Q85.258-172.585,111.5-172.585Zm0,22.213q-15.026,0-21.233,16.115Q84.278-118.9,84.278-85.041q0,38.764,7.4,53.79,6.1,12.522,19.382,12.522,15.353,0,21.668-16.769Q138.5-51.068,138.5-85.041q0-38.437-7.513-53.137Q124.893-150.373,111.5-150.373Zm101.226,24.826q3.158-23.955,20.253-36.477,14.373-10.562,35.279-10.562,26.568,0,41.05,13.5Q322.266-147,322.266-126.744a50.7,50.7,0,0,1-8.929,28.637Q305.28-86.129,285.9-69.143q-20.362,17.1-30.053,27.766A83.6,83.6,0,0,0,242.235-22.1H322.92V.436H211.2V-19.6q15.244-30.053,51.5-62.937,18.729-16.986,24.5-26.351a33.9,33.9,0,0,0,5.009-18.075q0-11.76-7.4-17.966-6.424-5.444-16.986-5.444-12.086,0-18.946,8.82-6.207,7.84-7.078,21.777Z" transform="translate(-54.661 172.586)" fill="#afddff" opacity="0.249"/>
</svg>
