<svg xmlns="http://www.w3.org/2000/svg" width="268.694" height="176.18" viewBox="0 0 268.694 176.18">
  <path id="num3" d="M111.5-172.585q30.162,0,43.881,22.975,12.74,21.451,12.74,64.461,0,49.217-16.66,70.776-13.938,17.966-40.4,17.966-30.488,0-43.99-23.411-12.413-21.451-12.413-64.9,0-49,16.769-70.341Q85.258-172.585,111.5-172.585Zm0,22.213q-15.026,0-21.233,16.115Q84.278-118.9,84.278-85.041q0,38.764,7.4,53.79,6.1,12.522,19.382,12.522,15.353,0,21.668-16.769Q138.5-51.068,138.5-85.041q0-38.437-7.513-53.137Q124.893-150.373,111.5-150.373Zm99.484,14.482q5.444-18.946,21.451-28.528,13.72-8.167,33.1-8.167,26.024,0,41.268,13.72a37.485,37.485,0,0,1,12.958,29.073q0,16.115-10.453,26.677-9.038,9.146-24.064,11.651v1.524q19.491,4.029,29.4,16.333,8.711,10.78,8.711,26.568,0,24.173-17.966,38.328-15.68,12.3-39.853,12.3-45.95,0-57.492-37.675l28.528-8.058q3.375,13.393,11,19.055,6.642,4.791,17.749,4.791,13.72,0,21.56-8.711,6.86-7.622,6.86-19.817,0-30.6-35.715-30.6H244.412v-22.975h12.522q33.646,0,33.646-26.786,0-11.978-7.949-18.293-6.751-5.335-17.531-5.335-10.671,0-17.422,6.424-6.424,6.1-8.167,16.769Z" transform="translate(-54.661 172.586)" fill="#afddff" opacity="0.249"/>
</svg>
