<svg xmlns="http://www.w3.org/2000/svg" width="26" height="26" viewBox="0 0 26 26">
  <g id="btn_help" transform="translate(-345 -178)">
    <circle id="楕円形_3" data-name="楕円形 3" cx="13" cy="13" r="13" transform="translate(345 178)" fill="#aadcf7"/>
    <g id="Icon_ionic-ios-help-circle-outline" data-name="Icon ionic-ios-help-circle-outline" transform="translate(340.625 174)">
      <path id="パス_2990" data-name="パス 2990" d="M17.544,11.25c2.344,0,3.956,1.3,3.956,3.169a3.057,3.057,0,0,1-1.756,2.775c-1.088.631-1.456,1.094-1.456,1.894v.494H16.119l-.019-.537a2.6,2.6,0,0,1,1.475-2.75c1.056-.631,1.5-1.031,1.5-1.806a1.517,1.517,0,0,0-1.681-1.344,1.581,1.581,0,0,0-1.675,1.538H13.5C13.544,12.669,15.031,11.25,17.544,11.25ZM15.9,21.963a1.342,1.342,0,1,1,1.338,1.287A1.309,1.309,0,0,1,15.9,21.963Z" fill="#399fe8"/>
    </g>
  </g>
</svg>
