<svg width="622" height="86" viewBox="0 0 622 86" fill="none" xmlns="http://www.w3.org/2000/svg">
<path d="M617.196 77.2676C615.692 77.2676 614.464 78.4953 614.464 79.9992C614.464 81.5031 615.692 82.7307 617.196 82.7307C618.7 82.7307 619.927 81.5031 619.927 79.9992C619.927 78.4646 618.73 77.2676 617.196 77.2676ZM617.196 75.733C619.559 75.733 621.462 77.6359 621.462 79.9992C621.462 82.3317 619.559 84.2653 617.196 84.2653C614.863 84.2653 612.93 82.3317 612.93 79.9992C612.93 77.6359 614.833 75.733 617.196 75.733Z" fill="#4EA8E8"/>
<path d="M594.017 71.4055C592.82 71.4055 592.513 73.0936 592.513 74.0143C592.513 74.935 592.727 76.6231 593.955 76.6231C595.183 76.6231 595.551 75.0578 595.551 74.1064C595.551 73.1549 595.275 71.4055 594.017 71.4055ZM594.17 58.3923C594.876 58.3923 595.827 58.5764 596.564 58.6378C597.301 58.6992 598.221 58.7913 598.221 59.0675C598.221 59.2209 598.129 59.313 598.037 59.4051C597.822 59.5586 597.577 59.8041 597.546 60.6941C597.515 61.3387 597.515 62.0139 597.515 62.6584C597.515 63.2415 597.853 63.5485 598.405 63.5485C598.651 63.5485 599.848 63.4564 600.186 63.4564C601.689 63.395 604.973 63.2109 606.293 63.2109C606.784 63.2109 606.999 63.395 606.999 64.7761C606.999 66.6483 606.631 66.6176 606.324 66.6176C605.894 66.6176 603.592 66.4642 601.874 66.4642C601.321 66.4642 598.467 66.4949 598.129 66.5869C597.7 66.7404 597.546 67.1701 597.546 67.5998V68.674C597.546 69.5333 597.577 69.7789 597.853 70.2699C598.528 71.5283 598.804 73.1549 598.804 74.5668C598.804 79.5081 595.52 85.0019 594.17 85.0019C593.802 85.0019 591.316 84.2346 591.316 83.6822C591.316 83.4366 591.837 83.0069 592.022 82.8228C593.188 81.7179 593.464 81.1961 594.231 79.8457C594.293 79.6922 594.385 79.5695 594.385 79.3853C594.385 79.2933 594.293 79.1705 594.17 79.1705C594.078 79.1705 594.017 79.1705 593.924 79.2012C593.71 79.2626 593.433 79.3546 593.219 79.3546C590.548 79.3546 589.566 76.4696 589.566 74.2291C589.566 71.4055 590.794 68.7047 593.894 68.4284C594.047 68.3977 594.262 68.3057 594.262 68.0601C594.262 66.9245 594.047 66.7711 593.71 66.7711C593.464 66.7711 592.052 66.9245 591.684 66.9552C590.088 67.1087 586.129 67.5384 584.656 67.8453C584.502 67.876 584.349 67.9067 584.195 67.9067C583.704 67.9067 583.673 67.477 583.581 67.078C583.489 66.5562 583.336 65.39 583.336 64.8682C583.336 64.2544 583.612 64.3158 585.116 64.2544C585.945 64.2237 593.157 63.8247 593.433 63.7633C593.894 63.6405 594.109 63.2722 594.109 62.8119C594.109 61.8604 593.986 59.9269 593.802 59.0061C593.771 58.914 593.771 58.8526 593.771 58.7606C593.771 58.515 593.924 58.3923 594.17 58.3923Z" fill="#4EA8E8"/>
<path d="M552.437 64.1009C552.437 63.3029 552.866 63.395 554.217 63.3029C558.698 63.0267 563.179 62.5663 567.629 62.0446C569.961 61.7683 572.294 61.4614 574.596 61.0931C574.719 61.0624 574.872 61.0624 574.995 61.0624C575.455 61.0624 575.517 61.4614 575.578 61.8297C575.701 62.3515 575.854 63.5485 575.854 64.0702C575.854 64.7454 575.21 64.684 574.473 64.7147C572.693 64.7454 571.128 64.7454 569.378 65.3593C567.015 66.2186 565.358 67.7225 564.161 69.9323C563.271 71.559 562.688 73.4618 562.688 75.334C562.688 78.8943 564.959 79.7536 568.089 79.7536C568.611 79.7536 569.286 79.7229 569.624 79.7229C570.084 79.7229 570.33 79.7536 570.33 80.2447C570.33 80.8585 570.115 82.209 569.869 82.7614C569.655 83.2218 569.409 83.2832 568.887 83.2832C563.67 83.2832 559.189 81.6258 559.189 75.641C559.189 72.5104 560.478 69.1343 562.565 66.8325C562.902 66.4642 563.087 66.2493 563.087 66.0959C563.087 65.8196 562.841 65.7276 562.626 65.7276C562.411 65.7276 561 65.9731 560.693 66.0038C558.636 66.3107 555.874 66.7404 553.91 67.2621C553.756 67.2928 553.603 67.3235 553.449 67.3235C553.02 67.3235 552.866 66.6483 552.774 66.3107C552.651 65.7889 552.437 64.6227 552.437 64.1009ZM575.639 65.881C575.946 65.881 578.31 68.7353 578.31 69.1036C578.31 69.5333 577.113 70.3927 576.744 70.3927C576.529 70.3927 576.407 70.1472 576.284 69.9937C575.793 69.2571 574.903 68.1215 574.289 67.4463C574.197 67.3542 574.074 67.1701 574.074 67.0473C574.074 66.679 575.271 65.881 575.639 65.881ZM571.926 67.5691C572.263 67.5691 574.596 70.4234 574.596 70.7917C574.596 71.2521 573.368 72.0807 573.031 72.0807C572.816 72.0807 572.724 71.8659 572.601 71.7124C571.987 70.8224 571.312 69.963 570.637 69.1343C570.545 69.0423 570.36 68.8581 570.36 68.7046C570.36 68.3363 571.588 67.5691 571.926 67.5691Z" fill="#4EA8E8"/>
<path d="M530.124 62.3822H538.472C538.963 62.3822 539.485 62.3822 539.792 62.3208C539.976 62.3208 540.283 62.2594 540.467 62.2594C541.111 62.2594 542.431 63.9474 542.431 64.3464C542.431 64.4999 542.094 64.991 541.756 65.5434C541.572 65.8196 541.388 66.1265 541.265 66.3414C540.037 68.3977 538.81 70.3313 537.275 72.1728C537.121 72.3569 537.029 72.5104 537.029 72.7559C537.029 73.1242 537.214 73.3084 537.49 73.4925C539.178 74.5974 541.142 76.1013 542.677 77.4517C543.413 78.0963 544.181 78.8022 544.886 79.5388C545.009 79.6615 545.101 79.7843 545.101 79.9685C545.101 80.613 543.413 82.4238 542.769 82.4238C542.431 82.4238 542.216 82.2089 542.001 81.9634C539.792 79.3239 537.95 77.8507 535.219 75.8865C534.973 75.7023 534.789 75.6102 534.513 75.6102C534.114 75.6102 533.837 75.9172 533.592 76.132C531.321 78.2497 528.681 80.0912 525.919 81.503C525.643 81.6565 524.845 82.0862 524.569 82.0862C523.924 82.0862 522.512 80.0298 522.512 79.4774C522.512 79.1091 522.881 78.9556 523.157 78.8636C528.589 76.7765 533.745 72.0807 536.845 67.2314C536.999 66.9859 537.367 66.4641 537.367 66.1879C537.367 65.7275 536.937 65.6662 536.477 65.6662H530.124C528.804 65.6662 527.484 65.7276 526.165 65.7276C525.336 65.7276 525.397 65.2672 525.397 63.8554C525.397 62.7812 525.367 62.3208 526.134 62.3208C527.454 62.3208 528.773 62.3822 530.124 62.3822Z" fill="#4EA8E8"/>
<path d="M512.2 61.2466C512.568 61.2466 514.87 64.1316 514.87 64.4999C514.87 64.9603 513.673 65.7583 513.305 65.7583C513.09 65.7583 512.967 65.5434 512.844 65.39C512.231 64.4385 511.617 63.7019 510.911 62.8426C510.819 62.7198 510.635 62.5356 510.635 62.3822C510.635 62.0446 511.893 61.2466 512.2 61.2466ZM515.392 59.3437C515.729 59.3437 518.062 62.198 518.062 62.5356C518.062 63.0267 516.865 63.8554 516.497 63.8554C516.313 63.8554 516.19 63.6405 516.067 63.4871C515.422 62.597 514.778 61.7377 514.072 60.909C513.98 60.7862 513.827 60.6328 513.827 60.51C513.827 60.111 515.085 59.3437 515.392 59.3437ZM497.499 72.6332V75.2113C497.499 78.925 498.112 78.8636 502.317 78.8636C505.356 78.8636 509.622 78.8022 512.568 78.2191C512.66 78.2191 512.783 78.1884 512.875 78.1884C513.458 78.1884 513.489 78.9557 513.489 79.8764C513.489 80.7972 513.489 81.5644 512.507 81.6872C510.42 81.9941 504.159 82.0248 501.765 82.0248C499.708 82.0248 496.271 82.1476 494.951 80.2447C494.184 79.1091 494.153 76.7152 494.153 75.3647V64.9603C494.153 63.6098 494.153 62.0139 494 60.6941V60.4486C494 60.1724 494.215 60.111 494.337 60.111C494.644 60.111 496.701 60.5407 497.13 60.6328C497.529 60.7248 498.051 60.7862 498.051 61.0931C498.051 61.4307 497.591 61.5228 497.529 62.1673C497.499 62.3822 497.499 62.9653 497.499 63.5178V67.9988C497.499 68.5205 497.898 68.766 498.389 68.766C501.673 68.766 507.044 67.078 509.837 65.3593C509.959 65.2979 510.174 65.1444 510.328 65.1444C510.604 65.1444 511.156 65.9731 511.525 66.5562C511.617 66.679 511.678 66.7711 511.74 66.8632C511.924 67.1087 512.568 67.9987 512.568 68.275C512.568 68.5205 512.292 68.5819 512.108 68.5819C511.985 68.5819 511.862 68.5512 511.709 68.5512C511.647 68.5512 511.555 68.5205 511.494 68.5205C511.126 68.5205 510.727 68.7047 510.389 68.8581C506.43 70.5155 502.808 71.559 498.481 71.7738C497.928 71.8045 497.499 72.05 497.499 72.6332Z" fill="#4EA8E8"/>
<path d="M465.426 69.4719H479.544C480.956 69.4719 482.951 69.3799 483.35 69.3799C484.178 69.3799 484.209 69.6254 484.209 71.3134C484.209 72.2956 484.178 72.8787 483.38 72.8787C482.091 72.8787 480.802 72.8173 479.544 72.8173H465.426C464.168 72.8173 462.878 72.8787 461.589 72.8787C460.791 72.8787 460.761 72.2956 460.761 71.3441C460.761 69.6254 460.822 69.3799 461.62 69.3799C462.019 69.3799 464.137 69.4719 465.426 69.4719Z" fill="#4EA8E8"/>
<path d="M433.169 66.4642H433.906C434.397 66.4642 434.949 66.28 434.949 65.6969V63.6098C434.949 61.8911 434.826 60.2645 434.826 60.2338C434.826 60.0189 434.918 59.9269 435.133 59.9269C435.901 59.9269 436.422 59.9882 437.404 60.0803C438.172 60.1417 438.816 60.2338 438.816 60.51C438.816 60.6328 438.694 60.7555 438.632 60.8169C438.233 61.308 438.264 61.5535 438.264 63.5485V65.6662C438.264 66.0959 438.601 66.4642 439.062 66.4642H444.464C444.893 66.4642 445.231 66.1879 445.231 65.5741C445.231 64.4692 445.169 61.2773 445.108 60.3565C445.108 60.2338 445.077 60.111 445.077 59.9882C445.077 59.7734 445.262 59.6199 445.476 59.6199C445.906 59.6199 447.625 59.8041 448.116 59.8348C448.638 59.8962 449.067 59.8962 449.067 60.1724C449.067 60.3258 448.945 60.4486 448.73 60.6635C448.576 60.8476 448.546 62.198 448.546 63.2415V64.4078C448.546 64.7147 448.576 65.0217 448.576 65.3286V65.5127C448.576 66.1266 448.852 66.4642 449.466 66.4642H450.295C451.246 66.4642 453.272 66.4028 453.917 66.4028C454.469 66.4028 454.684 66.6483 454.684 67.8453C454.684 69.3799 454.592 69.6561 453.824 69.6561C452.628 69.6561 451.461 69.5947 450.295 69.5947H449.466C448.515 69.5947 448.515 70.2392 448.515 70.6382C448.423 75.9786 447.901 79.6922 443.113 82.8535C442.622 83.1911 440.566 84.4188 440.044 84.4188C439.584 84.4188 437.803 82.6693 437.803 82.1783C437.803 81.9327 438.08 81.7793 438.295 81.6872C444.126 79.2626 445.2 76.7152 445.2 70.5768C445.2 70.0551 444.985 69.5947 444.402 69.5947H439.062C438.632 69.5947 438.264 69.9323 438.264 70.362V73.2777C438.264 74.1371 438.325 74.9657 438.325 75.8251C438.325 77.1755 438.172 77.0528 436.33 77.0528C435.256 77.0528 434.888 77.0835 434.888 76.2855C434.888 75.3033 434.949 74.3212 434.949 73.3391V70.3927C434.949 69.9323 434.55 69.5947 434.12 69.5947H433.169C431.972 69.5947 430.744 69.6868 429.732 69.6868C428.964 69.6868 428.934 69.0423 428.934 68.275C428.934 66.8018 428.964 66.4028 429.701 66.4028C430.591 66.4028 431.972 66.4642 433.169 66.4642Z" fill="#4EA8E8"/>
<path d="M417.148 65.3285C417.148 65.9117 415.491 66.0651 415.061 66.0651C414.539 66.0651 414.509 65.9424 414.294 64.9602C414.202 64.4692 414.048 63.7633 413.772 62.7505C413.741 62.6891 413.741 62.6277 413.741 62.5663C413.741 62.0139 415.399 61.8297 415.767 61.8297C416.411 61.8297 416.473 62.0445 416.841 63.6405C416.933 63.9781 417.148 65.0216 417.148 65.3285ZM412.053 65.482C412.053 66.0651 410.427 66.28 409.997 66.28C409.414 66.28 409.383 65.8503 409.199 65.2058C409.015 64.5306 408.769 63.9167 408.524 63.2722C408.462 63.1801 408.401 62.996 408.401 62.9039C408.401 62.3822 410.212 62.1366 410.488 62.1366C410.979 62.1366 411.102 62.3822 411.593 63.7633C411.716 64.1316 412.053 65.1444 412.053 65.482ZM423.624 60.2337C423.624 60.3872 423.47 60.51 423.317 60.51C423.194 60.51 423.041 60.4486 422.949 60.4179C422.795 60.3565 422.611 60.2951 422.488 60.2951C422.366 60.2951 422.12 60.3258 421.997 60.3565C417.915 61.1238 413.035 61.7376 408.892 61.7376C408.247 61.7376 408.033 61.7069 407.787 61.0317C407.634 60.6634 407.572 60.2644 407.572 59.8654C407.572 59.1595 407.787 59.0982 408.34 59.0982H408.892C412.176 59.0982 418.192 58.7299 421.261 57.8091C421.414 57.7477 421.598 57.6863 421.752 57.6863C421.967 57.6863 422.243 58.0239 422.458 58.3309C422.58 58.515 422.734 58.6992 422.857 58.8833C423.164 59.3437 423.624 59.9575 423.624 60.2337ZM401.066 80.0605V75.6716C401.035 75.4875 401.004 75.1192 400.575 75.1192C400.482 75.1192 400.421 75.1499 400.329 75.1806C400.022 75.3033 399.807 75.4261 399.623 75.4875C399.009 75.733 398.979 75.7637 398.856 76.1627C398.794 76.3161 398.672 76.5003 398.488 76.5003C398.181 76.5003 397.996 75.8558 397.69 74.8429C397.597 74.5053 397.475 74.2598 397.352 73.738C397.321 73.6153 397.291 73.4925 397.291 73.3697C397.291 73.0321 397.72 72.9708 397.996 72.8787C398.702 72.6945 399.623 72.2955 400.329 71.9886C400.912 71.7431 401.066 71.4976 401.066 70.8223V66.7711C401.066 66.2186 400.851 65.9424 400.268 65.9117C399.654 65.9424 398.856 66.0038 398.334 66.0038C397.628 66.0038 397.659 65.5434 397.659 64.5306C397.659 63.4564 397.628 63.0267 398.334 63.0267C398.948 63.0267 399.592 63.0881 400.206 63.0881C400.82 63.0881 401.066 62.8425 401.066 62.2287V60.7862C401.066 60.3258 401.066 59.8654 401.035 59.4051C401.035 59.0982 400.943 58.4229 400.943 58.2388C400.943 57.8398 401.188 57.7784 401.526 57.7784C401.956 57.7784 403.49 57.9012 403.981 57.9319C404.258 57.9626 404.749 57.9933 404.749 58.3616C404.749 58.6378 404.534 58.6992 404.35 58.8526C404.043 59.0675 404.012 59.5278 404.012 60.3872V62.2287C404.012 62.8118 404.227 63.0881 404.81 63.0881C405.393 63.0881 405.976 63.0267 406.559 63.0267C407.265 63.0267 407.204 63.4564 407.204 64.4999C407.204 65.5741 407.235 66.0038 406.559 66.0038C406.529 66.0038 404.963 65.9117 404.841 65.9117C404.227 65.9117 404.012 66.2493 404.012 66.7711V69.4719C404.043 69.7481 404.135 70.0244 404.472 70.0244C404.564 70.0244 404.626 69.9937 404.718 69.963C404.994 69.8095 405.884 69.3185 406.13 69.3185C406.774 69.3185 406.897 70.7917 406.897 71.2827C406.897 71.8659 406.682 71.9886 405.577 72.6025C405.332 72.7252 405.056 72.8787 404.718 73.0628C404.165 73.4004 404.012 73.6767 404.012 74.3212V79.9071C404.012 80.613 404.073 81.2882 404.073 81.9941C404.073 84.9405 401.833 85.1553 399.47 85.1553C398.518 85.1553 398.119 84.9098 398.119 82.8535C398.119 82.3624 398.211 81.9941 398.764 81.9941C398.948 81.9941 399.378 82.0555 399.777 82.0555C401.096 82.0555 401.066 81.6258 401.066 80.0605ZM418.099 76.6538H415.03C414.815 76.6844 414.57 76.7458 414.57 77.0221C414.57 77.1448 414.631 77.2369 414.693 77.329C415.245 77.9428 415.583 78.3111 416.227 78.8635C416.411 79.017 416.565 79.1091 416.81 79.1091C417.087 79.1091 417.271 78.9863 417.455 78.8022C417.762 78.4952 418.805 77.3904 418.805 76.9914C418.805 76.6844 418.529 76.6538 418.099 76.6538ZM420.309 61.8604C420.432 61.5228 420.493 61.308 420.708 61.308C420.984 61.308 421.997 61.7069 422.611 61.9525C422.734 62.0139 422.857 62.0752 422.949 62.1059C423.256 62.2287 423.716 62.4128 423.716 62.6584C423.716 62.9039 423.44 62.9346 423.256 62.9653C423.041 62.996 422.918 63.0574 422.826 63.2415C422.396 64.1009 421.967 64.9602 421.476 65.8196C421.414 65.9117 421.383 65.9731 421.383 66.0958C421.383 66.4028 421.598 66.4948 421.875 66.5255C422.243 66.4948 422.642 66.4641 423.041 66.4641C423.685 66.4641 423.655 67.0166 423.655 67.8453C423.655 68.5512 423.655 68.9809 423.041 68.9809C421.936 68.9809 420.8 68.9195 419.695 68.9195H415.245C414.723 68.9195 414.509 69.1036 414.416 69.5947C414.386 69.7175 414.386 69.8402 414.386 69.963C414.386 70.4234 414.723 70.5768 415.122 70.5768H420.739C421.905 70.5768 423.071 70.5154 424.268 70.5154C424.944 70.5154 424.913 71.0065 424.913 71.8659C424.913 72.6331 424.913 73.0321 424.268 73.0321C423.071 73.0321 421.905 72.9708 420.739 72.9708H414.447C413.925 72.9708 413.68 73.1242 413.526 73.6153L413.496 73.7074C413.496 73.7687 413.465 73.8608 413.465 73.9529C413.465 74.3519 413.772 74.4746 414.11 74.5053H418.253C419.051 74.5053 419.849 74.4746 420.678 74.4746C421.291 74.4746 421.66 74.5974 422.059 75.0885C422.304 75.3954 422.58 75.8558 422.58 76.2548C422.58 77.2062 420.616 79.4774 419.941 80.214C419.849 80.3367 419.757 80.4595 419.757 80.6437C419.757 80.9199 419.941 81.0427 420.125 81.1347C421.199 81.5951 422.55 82.0555 423.685 82.3317C424.606 82.5772 424.76 82.6079 424.76 83.0069C424.76 83.7128 423.869 85.2167 423.225 85.2167C422.274 85.2167 418.683 83.5287 417.7 83.0069C417.486 82.8841 417.301 82.8228 417.056 82.8228C416.78 82.8228 416.565 82.9148 416.35 83.0069C415.399 83.5594 412.145 85.1246 411.163 85.1246C410.488 85.1246 409.659 83.3752 409.659 82.9762C409.659 82.5772 410.089 82.5465 410.427 82.4545C411.593 82.1782 412.851 81.7793 413.956 81.2575C414.14 81.1347 414.294 81.012 414.294 80.7664C414.294 80.5823 414.202 80.4595 414.079 80.3367C413.496 79.7536 412.913 79.1091 412.422 78.4339C412.299 78.3111 412.207 78.1883 412.023 78.1883C411.808 78.1883 411.685 78.3418 411.593 78.4953C410.396 80.6437 409.168 82.4852 407.48 84.2653C407.265 84.5108 406.928 84.8484 406.59 84.8484C406.038 84.8484 404.534 83.6821 404.534 83.1911C404.534 82.8535 404.994 82.4545 405.209 82.2089C407.726 79.5695 409.168 77.2369 410.334 73.7687C410.334 73.6767 410.365 73.6153 410.365 73.5232C410.365 73.1549 410.089 73.0015 409.751 72.9708C409.076 73.0015 408.401 73.0321 407.695 73.0321C407.02 73.0321 407.081 72.5104 407.081 71.6817C407.081 70.9144 407.081 70.5154 407.726 70.5154C408.493 70.5154 409.659 70.5461 410.488 70.5768C410.979 70.5461 411.194 70.362 411.286 69.9016C411.317 69.7481 411.317 69.6254 411.317 69.564C411.317 69.1343 411.01 68.9502 410.611 68.9502C409.935 68.9502 409.23 68.9809 408.554 68.9809C407.91 68.9809 407.941 68.4591 407.941 67.569C407.941 66.9245 407.971 66.4641 408.554 66.4641C409.659 66.4641 410.764 66.5255 411.9 66.5255H417.117C417.762 66.5255 418.007 66.4334 418.376 65.881C418.99 64.9296 419.88 62.9653 420.309 61.8604Z" fill="#4EA8E8"/>
<path d="M383.97 71.3134H377.556C377.249 71.3441 376.973 71.4362 376.973 71.7738C376.973 71.8966 377.003 71.9579 377.065 72.0807C377.801 73.4925 378.876 74.7816 380.103 75.8251C380.287 75.9785 380.472 76.1013 380.748 76.1013C380.993 76.1013 381.147 76.0092 381.331 75.8558C382.068 75.2419 384.983 72.5104 384.983 71.6817C384.983 71.3441 384.615 71.3134 383.97 71.3134ZM382.098 60.4793V60.9397C382.098 61.5535 382.344 61.799 382.958 61.799H389.249C390.508 61.799 391.797 61.7069 393.055 61.7069C393.792 61.7069 393.761 62.1059 393.761 63.2415C393.761 64.4078 393.792 64.7761 393.055 64.7761C391.797 64.7761 390.508 64.7147 389.249 64.7147H382.958C382.344 64.7147 382.098 64.9603 382.098 65.5434V67.6304C382.098 68.2443 382.344 68.4898 382.958 68.4898H385.014C385.873 68.4898 386.702 68.4591 387.531 68.4591C388.175 68.4591 388.543 68.5205 388.973 69.0115C389.28 69.3492 389.71 69.9016 389.71 70.362C389.71 70.9451 389.127 71.7738 388.82 72.2342C387.439 74.2598 385.781 76.0706 383.97 77.6359C383.817 77.7894 383.725 77.9121 383.725 78.0963C383.725 78.3418 383.878 78.4646 384.062 78.5873C386.978 80.214 389.802 81.0734 393.055 81.6872C393.638 81.8099 393.914 81.902 393.914 82.5465C393.914 83.1604 393.393 84.9098 392.472 84.9098C392.226 84.9098 391.827 84.8177 391.582 84.7563C387.745 83.897 384.615 82.6693 381.239 80.613C381.024 80.4902 380.84 80.3674 380.564 80.3674C380.318 80.3674 380.134 80.4595 379.919 80.5823C377.065 82.2703 374.057 83.5287 370.865 84.388C370.343 84.5108 368.962 84.9098 368.502 84.9098C367.642 84.9098 367.121 83.3445 367.121 82.6693C367.121 81.9941 367.428 81.9327 368.932 81.5951C369.269 81.5337 369.607 81.4417 370.036 81.3496C372.4 80.7971 375.193 79.7229 377.341 78.5873C377.525 78.4646 377.679 78.3111 377.679 78.0963C377.679 77.9121 377.587 77.7587 377.464 77.6359C375.806 76.0399 374.395 74.137 373.474 72.05C373.198 71.5896 373.044 71.3441 372.492 71.3441C371.663 71.3134 370.865 71.3748 370.067 71.3748C369.269 71.3748 369.3 71.0679 369.3 69.9016C369.3 68.7353 369.269 68.3977 370.067 68.3977C371.356 68.3977 372.614 68.4898 373.904 68.4898H378.047C378.63 68.4898 378.906 68.2443 378.906 67.6304V65.5434C378.906 64.9603 378.63 64.7147 378.047 64.7147H371.755C370.466 64.7147 369.208 64.7761 367.949 64.7761C367.213 64.7761 367.213 64.4078 367.213 63.2415C367.213 62.0752 367.213 61.7069 367.949 61.7069C369.208 61.7069 370.466 61.799 371.755 61.799H378.047C378.63 61.799 378.906 61.5228 378.906 60.9397C378.937 60.111 378.876 59.2516 378.784 58.4229C378.784 58.3616 378.753 58.2388 378.753 58.1467C378.753 57.7784 378.998 57.717 379.305 57.717C379.919 57.717 381.454 57.8398 382.129 57.9012C382.405 57.9012 382.927 57.9319 382.927 58.3002C382.927 58.515 382.712 58.6071 382.497 58.7606C382.098 59.0368 382.098 59.4051 382.098 60.4793Z" fill="#4EA8E8"/>
<path d="M348.43 62.3208C347.877 61.4307 347.355 60.5407 346.741 59.6813C346.619 59.4972 346.404 59.2209 346.404 59.0368C346.404 58.4537 348.031 57.6557 348.522 57.6557C349.013 57.6557 349.626 58.6992 350.087 59.4358C350.302 59.7734 351.315 61.3387 351.315 61.6763C351.315 62.1366 350.578 62.5049 350.21 62.6891C350.087 62.7505 350.118 62.8119 350.118 62.8426C350.118 62.8732 350.118 62.9653 350.271 62.9653H353.095C353.801 62.9653 354.015 62.8732 354.445 62.3208C355.304 61.1852 356.379 59.5892 356.992 58.3002C357.085 58.116 357.207 57.8398 357.422 57.8398C357.637 57.8398 360.645 58.822 360.645 59.4051C360.645 59.6813 360.399 59.712 360.154 59.712C359.939 59.712 359.755 59.7734 359.601 59.9575C359.08 60.6941 358.803 61.2159 357.975 62.3208C357.913 62.4129 357.883 62.4743 357.883 62.597C357.883 62.8425 358.097 62.9653 358.312 62.9653C359.141 62.9346 359.97 62.9346 360.829 62.9346C361.627 62.9346 362.548 63.0574 362.548 64.1009C362.548 64.4999 362.486 64.991 362.486 65.5434V67.477C362.486 67.8453 362.548 68.367 362.548 68.7046C362.548 69.3492 362.118 69.3492 360.952 69.3492C359.908 69.3492 359.386 69.3799 359.386 68.7353C359.386 68.3057 359.448 67.9067 359.448 67.5077V66.4335C359.448 65.8503 359.172 65.5741 358.588 65.5741H340.91C340.296 65.5741 340.051 65.8503 340.051 66.4335V67.4156C340.051 67.8146 340.112 68.2136 340.112 68.6433C340.112 69.3185 339.59 69.2571 338.578 69.2571C337.473 69.2571 337.012 69.2878 337.012 68.6126C337.012 68.3057 337.074 67.7532 337.074 67.4156V65.5434C337.074 64.8989 337.043 64.4692 337.043 64.1316C337.043 62.996 337.994 62.9346 338.854 62.9346C339.437 62.9346 340.02 62.9346 340.603 62.9653C340.849 62.9346 341.064 62.8426 341.064 62.5356C341.064 62.4436 341.033 62.3515 340.971 62.2594C340.511 61.5842 340.051 60.8783 339.56 60.2031C339.345 59.9269 339.069 59.6199 339.069 59.3744C339.069 58.7913 340.665 57.9933 341.156 57.9933C341.585 57.9933 342.168 58.7913 342.598 59.4051C342.69 59.5279 342.752 59.6199 342.813 59.712C343.089 60.111 344.133 61.5535 344.133 61.9218C344.133 62.2901 343.672 62.5663 343.396 62.7198C343.365 62.7505 343.335 62.7812 343.335 62.8426C343.335 62.9346 343.396 62.9653 343.488 62.9653H348.061C348.153 62.9653 348.491 62.9653 348.491 62.597C348.491 62.5049 348.46 62.4129 348.43 62.3208ZM343.151 81.5644H356.225C356.747 81.5644 357.023 81.2575 357.085 80.7358V79.6309C357.023 79.1091 356.747 78.8636 356.225 78.8022H343.151C342.629 78.8022 342.353 79.1091 342.291 79.6309V80.7358C342.353 81.2575 342.629 81.5644 343.151 81.5644ZM345.575 71.8352H353.831C354.353 71.7738 354.629 71.5283 354.691 70.9758V70.5155C354.629 69.963 354.353 69.7175 353.831 69.6561H345.575C345.053 69.7175 344.777 69.963 344.716 70.5155V70.9758C344.777 71.5283 345.053 71.7738 345.575 71.8352ZM350.424 75.6103C350.394 75.7023 350.363 75.7944 350.363 75.8865C350.363 76.2241 350.609 76.3162 350.885 76.3469H355.673C356.593 76.3469 357.514 76.2855 358.435 76.2855C359.356 76.2855 360.307 76.4082 360.307 77.5438C360.307 78.1577 360.246 78.7715 360.246 79.3546V82.5466C360.246 83.2218 360.307 84.2039 360.307 84.695C360.307 85.4009 359.908 85.3702 358.65 85.3702C357.238 85.3702 356.992 85.3702 356.992 84.5722C356.992 84.1732 356.808 84.0198 356.44 84.0198H342.936C342.567 84.0198 342.383 84.1732 342.383 84.5722C342.353 85.2781 342.076 85.2781 340.695 85.2781C339.468 85.2781 339.038 85.3088 339.038 84.6336C339.038 84.0505 339.13 83.1604 339.13 82.4852V79.3546C339.13 78.7715 339.069 78.1577 339.069 77.5745C339.069 76.4082 339.989 76.2855 340.91 76.2855C341.831 76.2855 342.782 76.3469 343.703 76.3469H345.851C346.588 76.3469 346.741 76.1627 347.079 75.5796C347.171 75.3647 347.294 75.1499 347.386 74.935C347.417 74.843 347.447 74.7509 347.447 74.6588C347.447 74.2905 347.171 74.1984 346.864 74.1678H345.207C344.931 74.1678 344.839 74.3519 344.747 74.5667C344.562 74.9044 344.255 74.9044 343.243 74.9044C341.954 74.9044 341.555 74.935 341.555 74.2598C341.555 73.5846 341.616 72.8173 341.616 72.1421V70.2085C341.616 69.6254 341.585 69.0423 341.585 68.4591C341.585 67.3849 342.414 67.2315 343.304 67.2315C344.102 67.2315 344.9 67.2621 345.667 67.2621H353.616C354.445 67.2621 355.243 67.2315 356.072 67.2315C356.992 67.2315 357.821 67.3542 357.821 68.4898C357.821 69.073 357.79 69.6254 357.79 70.2085V72.1421C357.79 72.8173 357.852 73.7381 357.852 74.2598C357.852 74.935 357.453 74.9044 356.133 74.9044C355.212 74.9044 354.813 74.9044 354.691 74.5667C354.568 74.3519 354.506 74.1678 354.2 74.1678H351.928C351.284 74.1678 351.069 74.3212 350.762 74.8737C350.639 75.1192 350.547 75.3647 350.424 75.6103Z" fill="#4EA8E8"/>
<path d="M317.584 80.4288C317.584 81.0733 316.111 81.411 315.866 81.411C315.375 81.411 315.252 80.9199 315.129 80.5209C314.761 79.1398 314.147 77.5131 313.564 76.2241C313.472 76.0706 313.349 75.7944 313.349 75.6102C313.349 75.0271 314.791 74.7202 315.098 74.7202C315.62 74.7202 315.958 75.6716 316.572 77.2676C316.756 77.7587 317.584 80.0298 317.584 80.4288ZM309.666 76.0706C309.666 76.2548 309.513 76.3468 309.359 76.4082C308.96 76.5617 308.929 76.7151 308.868 77.0834C308.684 78.219 307.763 81.6872 307.426 82.8535C307.303 83.2218 307.211 83.6208 306.781 83.6208C306.413 83.6208 304.847 83.3445 304.847 82.7921C304.847 82.5772 305.032 82.0862 305.093 81.8713C305.799 79.8457 306.351 77.8814 306.597 75.733C306.628 75.4875 306.658 75.1499 306.996 75.1499C307.241 75.1499 308.622 75.4875 308.929 75.5795C309.175 75.6409 309.666 75.733 309.666 76.0706ZM325.073 64.285C325.441 63.9167 327.007 62.2287 327.007 61.799C327.007 61.5228 326.731 61.4921 326.301 61.4921H323.109C322.833 61.4921 322.556 61.5842 322.556 61.9218C322.556 62.0446 322.618 62.1366 322.649 62.2287C323.078 63.0267 323.385 63.5484 323.968 64.285C324.122 64.4385 324.275 64.5613 324.521 64.5613C324.766 64.5613 324.92 64.4385 325.073 64.285ZM323.753 69.0422C322.833 69.6561 319.303 71.8045 318.352 71.8045C317.646 71.8045 316.694 70.4234 316.694 69.7481C316.694 69.3491 317.185 69.2264 317.554 69.1036C318.935 68.5819 320.469 67.8146 321.728 67.0166C321.912 66.8631 322.065 66.7097 322.065 66.4641C322.065 66.2493 321.973 66.0958 321.881 65.9424C321.053 64.8375 319.948 63.0574 319.457 61.799C319.365 61.6456 319.303 61.5228 319.119 61.4921C318.751 61.5228 318.382 61.5535 318.014 61.5535C317.431 61.5535 317.462 61.1852 317.462 60.1417C317.462 59.0675 317.431 58.6992 318.014 58.6992C318.996 58.6992 319.948 58.7605 320.93 58.7605H327.375C328.02 58.7605 328.633 58.7299 329.247 58.7299C329.83 58.7299 330.229 58.8219 330.628 59.2516C330.874 59.5585 331.304 60.0803 331.304 60.51C331.304 60.909 330.966 61.4921 330.751 61.8911C330.69 61.9832 330.659 62.0445 330.628 62.1059C329.646 63.7019 328.664 64.8989 327.344 66.2186C327.191 66.3414 327.099 66.4948 327.099 66.7097C327.099 66.9552 327.222 67.078 327.406 67.2007C329.063 68.2136 330.813 68.8581 332.654 69.4105C332.992 69.5026 333.268 69.6254 333.268 69.963C333.268 70.6689 332.47 72.2342 331.703 72.2342C331.396 72.2342 330.997 72.0807 330.72 71.9886C328.633 71.252 326.853 70.3313 325.073 69.0729C324.858 68.9195 324.674 68.8274 324.398 68.8274C324.152 68.8274 323.968 68.9195 323.753 69.0422ZM309.175 69.1036C309.267 68.9195 309.359 68.766 309.359 68.5205C309.359 68.2443 309.206 68.0601 308.991 67.8453C307.487 66.4948 307.241 66.28 305.584 65.0523C305.4 64.9296 305.216 64.8068 305.216 64.5613C305.216 64.193 306.075 62.4742 306.597 62.4742C306.781 62.4742 307.027 62.6891 307.149 62.7811C307.272 62.8732 307.395 62.9346 307.548 62.9346C307.763 62.9346 307.917 62.7811 308.009 62.597C308.622 61.3079 309.451 59.4051 309.85 58.0239C309.912 57.8398 309.973 57.5943 310.218 57.5943C310.403 57.5943 311.661 58.116 312.244 58.3616C312.336 58.3923 312.428 58.4229 312.49 58.4536C312.674 58.5457 313.011 58.6992 313.011 58.9447C313.011 59.2516 312.735 59.2823 312.49 59.313C312.275 59.3744 312.183 59.4665 312.06 59.6506C311.323 61.3386 310.679 62.6891 309.85 64.3157C309.789 64.4385 309.758 64.5306 309.758 64.6533C309.758 64.8682 309.85 64.9909 310.004 65.1444C310.157 65.2672 310.311 65.4206 310.433 65.5434C310.587 65.6662 310.74 65.7582 310.924 65.7582C311.17 65.7582 311.323 65.6048 311.446 65.4206C312.152 64.2237 312.858 63.0267 313.502 61.7683C313.656 61.4614 313.687 61.2773 313.932 61.2773C314.086 61.2773 315.098 61.8297 315.743 62.198C315.988 62.3208 316.142 62.4129 316.234 62.4435C316.449 62.597 316.786 62.7812 316.786 63.0574C316.786 63.3643 316.51 63.3643 316.203 63.4257C315.958 63.4564 315.835 63.5484 315.682 63.7326C314.362 65.881 313.042 68.0601 311.538 70.1164C311.507 70.2085 311.446 70.2699 311.446 70.362C311.446 70.6382 311.661 70.7303 311.876 70.7303C312.336 70.6689 312.766 70.6382 313.226 70.5768C313.564 70.4847 313.779 70.3927 313.779 70.0244C313.779 69.9323 313.717 69.8095 313.687 69.7481C313.595 69.5333 313.288 68.9502 313.288 68.7353C313.288 68.2749 314.638 67.8453 314.976 67.8453C315.283 67.8453 315.497 68.0294 315.62 68.3056C316.295 69.7481 316.94 71.16 317.523 72.4183C317.707 72.8173 317.953 73.5539 317.953 73.7074C317.953 74.2905 316.295 74.7202 316.111 74.7202C315.712 74.7202 315.559 74.3519 315.405 73.8301L315.313 73.5232C315.16 73.2163 314.976 73.0015 314.607 73.0015H314.393C314.147 73.0628 313.932 73.0935 313.687 73.1242C313.103 73.247 312.919 73.5232 312.919 74.1063V80.1526C312.919 81.4723 312.981 82.7921 312.981 84.1118C312.981 85.0633 312.674 85.0939 311.446 85.0939C310.28 85.0939 309.912 85.0633 309.912 84.1118C309.912 82.7921 310.004 81.4723 310.004 80.1526V74.5053C310.004 74.0757 309.789 73.7381 309.298 73.7381H309.175C308.438 73.8301 307.702 73.9222 306.934 73.9836C306.689 74.045 306.628 74.1064 306.535 74.3212C306.413 74.5053 306.29 74.6895 306.075 74.6895C305.737 74.6895 305.707 74.5053 305.553 73.7381C305.492 73.4925 305.461 73.2163 305.369 72.8787C305.308 72.6025 305.062 71.6817 305.062 71.4362C305.062 71.1293 305.369 71.0986 305.983 71.0986H306.382C306.628 71.0986 306.873 71.0986 307.149 71.0679C307.763 71.0372 308.009 70.853 308.346 70.362C308.653 69.9323 308.899 69.5333 309.175 69.1036ZM322.096 77.5131H321.636C320.531 77.5131 319.457 77.5745 318.352 77.5745C317.523 77.5745 317.554 77.2062 317.554 76.1013C317.554 75.0578 317.523 74.6281 318.321 74.6281C319.426 74.6281 320.531 74.7202 321.636 74.7202H322.096C322.71 74.7202 322.955 74.444 322.955 73.8608C322.986 73.1242 322.955 72.3569 322.863 71.6203C322.833 71.5283 322.833 71.4055 322.833 71.3134C322.833 70.9758 323.048 70.8837 323.354 70.8837C323.784 70.8837 325.503 71.0679 325.994 71.1293C326.239 71.16 326.7 71.1906 326.7 71.5283C326.7 71.7431 326.577 71.8045 326.332 71.9886C325.963 72.2649 325.963 72.7252 325.994 73.9222C325.994 74.5053 326.301 74.7202 326.853 74.7202H327.713C328.818 74.7202 329.922 74.6281 331.027 74.6281C331.825 74.6281 331.795 75.0885 331.795 76.1013C331.795 77.1755 331.825 77.5745 330.997 77.5745C329.892 77.5745 328.787 77.5131 327.713 77.5131H326.853C326.239 77.5131 325.994 77.7587 325.994 78.3725V80.6744C325.994 81.2882 326.239 81.5337 326.853 81.5337H328.848C329.892 81.5337 330.935 81.4723 331.979 81.4723C332.807 81.4723 332.746 81.9327 332.746 82.9762C332.746 84.0504 332.777 84.4801 331.979 84.4801C330.935 84.4801 329.892 84.388 328.848 84.388H320.101C319.058 84.388 318.045 84.4801 317.001 84.4801C316.173 84.4801 316.203 84.0504 316.203 82.9455C316.203 81.902 316.173 81.4723 316.971 81.4723C318.014 81.4723 319.058 81.5337 320.101 81.5337H322.096C322.71 81.5337 322.955 81.2882 322.955 80.6744V78.3725C322.955 77.7587 322.71 77.5131 322.096 77.5131Z" fill="#4EA8E8"/>
<path d="M288.335 79.9378C288.335 78.9863 287.507 78.127 286.432 78.127C285.757 78.127 285.113 78.618 285.113 79.3546C285.113 80.4595 286.586 80.9813 287.507 80.9813C288.09 80.9813 288.335 80.4288 288.335 79.9378ZM291.19 60.0496C292.417 60.0496 294.197 62.3822 294.197 62.9039C294.197 63.1188 293.86 63.3029 293.522 63.5485C291.803 64.7454 290.514 66.1572 289.072 67.6611C288.949 67.7839 288.765 67.9987 288.765 68.1829C288.765 68.4284 289.011 68.5819 289.287 68.5819C289.41 68.5819 289.563 68.5512 289.686 68.5205C290.085 68.4284 290.545 68.3977 290.944 68.3977C292.172 68.3977 293.614 68.766 294.719 69.3185C297.113 70.5462 298.371 72.6025 298.371 75.2727C298.371 80.7051 293.553 83.5287 288.612 83.5287C286.064 83.5287 282.443 82.4852 282.443 79.3546C282.443 77.2369 284.315 75.641 286.371 75.641C287.967 75.641 289.594 76.5003 290.453 77.8201C290.913 78.526 291.006 78.9863 291.006 79.7843C291.036 79.9992 291.128 80.1833 291.374 80.1833C292.172 80.1833 295.087 78.5567 295.087 75.4568C295.087 72.4797 292.571 71.2521 289.901 71.2521C287.108 71.2521 284.99 72.3263 283.026 74.2598C281.829 75.4261 280.724 76.6845 279.619 77.9428C279.527 78.0656 279.435 78.1577 279.281 78.1577C278.637 78.1577 277.072 76.4389 277.072 75.9479C277.072 75.5796 277.532 75.242 277.808 75.0271C280.969 72.2956 284.53 68.4898 287.353 65.39C287.599 65.1444 288.151 64.592 288.151 64.2851C288.151 64.0088 287.875 63.9168 287.629 63.9168C287.476 63.9168 287.077 64.0088 286.893 64.0395C286.156 64.2237 281.829 65.1137 281.338 65.1137C280.662 65.1137 280.57 62.8119 280.57 62.2901C280.57 61.5842 280.601 61.5228 281.522 61.5228H282.258C284.223 61.5228 288.243 61.0931 290.023 60.3872C290.361 60.2645 290.852 60.0496 291.19 60.0496Z" fill="#4EA8E8"/>
<path d="M262.493 75.4875C262.493 76.2241 262.37 77.0528 262.247 77.7894C262.186 78.2805 262.033 79.324 262.033 79.7843C262.033 80.4596 262.34 80.7972 263.045 80.7972C264.519 80.7972 266.36 79.723 267.588 78.9557C267.803 78.8329 268.202 78.5567 268.447 78.5567C268.877 78.5567 268.846 80.1526 268.846 80.4902C268.846 81.0427 268.877 82.0248 268.324 82.3317C267.066 83.0683 264.12 83.897 262.646 83.897C260.559 83.897 258.871 82.5159 258.871 80.3675C258.871 79.5388 259.025 78.7408 259.148 77.9428C259.24 77.2983 259.332 76.6538 259.332 76.0093C259.332 75.3034 259.056 74.9044 258.319 74.9044C257.368 74.9044 256.293 75.6103 255.587 76.1934C254.053 77.5132 251.106 81.411 249.756 83.1604C249.572 83.3753 249.204 83.9584 248.897 83.9584C248.252 83.9584 246.441 82.4238 246.441 81.7179C246.441 81.3496 246.932 80.9199 247.178 80.6744C250.677 77.2062 253.838 73.4312 257.122 69.7789C257.398 69.472 258.227 68.6433 258.227 68.3364C258.227 68.1829 258.104 68.0908 257.951 68.0908C257.705 68.0908 256.416 68.4898 256.078 68.5819C255.373 68.766 251.782 69.7175 251.26 69.7175C250.83 69.7175 250.707 69.472 250.431 69.0116C250.37 68.8888 250.308 68.766 250.216 68.6433C249.971 68.2136 249.51 67.4156 249.51 66.9246C249.51 66.5256 249.817 66.4642 250.155 66.4335C253.163 66.188 258.35 65.1137 261.235 64.2237C261.48 64.1316 261.818 64.0089 262.094 64.0089C262.831 64.0089 264.242 66.1573 264.242 66.6176C264.242 66.9552 263.843 67.2008 263.567 67.3849C262.033 68.5512 260.652 70.1165 259.301 71.5283C259.148 71.6818 258.902 71.9273 258.902 72.1421C258.902 72.3263 259.056 72.449 259.209 72.449C259.424 72.449 259.608 72.4184 259.823 72.4184C260.652 72.4184 262.493 72.9401 262.493 75.4875ZM254.022 58.6378C254.268 58.6378 258.994 60.2338 259.669 60.4486C259.976 60.5407 260.253 60.6635 260.253 61.0318C260.253 61.1852 259.823 63.6406 259.117 63.6406C258.902 63.6406 257.183 63.0267 255.864 62.5663C255.28 62.3515 254.759 62.1674 254.544 62.106C253.47 61.7684 252.794 61.6456 252.794 61.1545C252.794 60.8169 253.132 59.9576 253.255 59.5893C253.562 58.7606 253.685 58.6378 254.022 58.6378Z" fill="#4EA8E8"/>
<path d="M233.796 60.6634V66.5255C233.796 67.1394 234.042 67.3849 234.656 67.3849H236.988C238.062 67.3849 239.137 67.3235 240.088 67.3235C240.794 67.3235 240.763 67.7532 240.763 68.9195C240.763 70.0551 240.794 70.5154 240.088 70.5154C239.167 70.5154 238.062 70.4234 236.988 70.4234H234.656C234.042 70.4234 233.796 70.6689 233.796 71.2827V79.7229C233.796 81.2575 233.888 82.7614 233.888 84.296C233.888 85.3395 233.551 85.3395 232.2 85.3395C230.911 85.3395 230.512 85.3395 230.512 84.3573C230.512 82.7921 230.604 81.2575 230.604 79.7229V71.2827C230.604 70.6689 230.359 70.4234 229.745 70.4234H228.088C227.013 70.4234 225.909 70.5154 225.019 70.5154C224.282 70.5154 224.313 70.1164 224.313 68.9195C224.313 67.7225 224.282 67.3235 225.019 67.3235C225.939 67.3235 227.013 67.3849 228.088 67.3849H229.745C230.359 67.3849 230.604 67.1394 230.604 66.5255V60.8476C230.604 59.9882 230.543 59.0982 230.482 58.4229C230.482 58.3309 230.451 58.2388 230.451 58.1467C230.451 57.7784 230.696 57.6863 231.003 57.6863C231.402 57.6863 233.305 57.8705 233.796 57.9319C234.042 57.9626 234.533 57.9933 234.533 58.3616C234.533 58.5764 234.379 58.6378 234.134 58.8219C233.827 59.0675 233.796 59.6813 233.796 60.6634ZM218.205 74.444H219.709C220.231 74.3826 220.538 74.1064 220.538 73.5846V64.7454C220.538 64.2237 220.2 63.9474 219.709 63.886H218.205C217.714 63.9474 217.376 64.2237 217.376 64.7454V73.5846C217.376 74.1064 217.683 74.3826 218.205 74.444ZM220.507 78.4646V78.0349C220.507 77.5745 220.231 77.3597 219.801 77.3597H218.236C217.653 77.3597 217.407 77.6052 217.376 78.1576C217.407 78.6794 217.407 79.1705 217.407 79.6615C217.407 80.4288 217.039 80.3981 215.903 80.3981C214.675 80.3981 214.338 80.4288 214.338 79.6922C214.338 78.618 214.399 77.5745 214.399 76.531V64.7454C214.399 63.9474 214.338 63.1188 214.338 62.2901C214.338 61.308 214.675 60.909 215.688 60.909C216.302 60.909 216.916 60.9397 217.56 60.9397H220.384C220.998 60.9397 221.612 60.909 222.226 60.909C223.238 60.909 223.607 61.2773 223.607 62.2901C223.607 63.1188 223.545 63.9474 223.545 64.7454V75.2726C223.545 76.3161 223.607 77.3597 223.607 78.4032C223.607 79.2012 223.3 79.1705 222.041 79.1705C220.967 79.1705 220.507 79.2012 220.507 78.4646Z" fill="#4EA8E8"/>
<path d="M184.137 64.1009C184.137 63.3029 184.567 63.395 185.917 63.3029C190.398 63.0267 194.879 62.5663 199.33 62.0446C201.662 61.7683 203.995 61.4614 206.297 61.0931C206.419 61.0624 206.573 61.0624 206.696 61.0624C207.156 61.0624 207.217 61.4614 207.279 61.8297C207.402 62.3515 207.555 63.5485 207.555 64.0702C207.555 64.7454 206.911 64.684 206.174 64.7147C204.394 64.7454 202.829 64.7454 201.079 65.3593C198.716 66.2186 197.059 67.7225 195.862 69.9323C194.971 71.559 194.388 73.4618 194.388 75.334C194.388 78.8943 196.66 79.7536 199.79 79.7536C200.312 79.7536 200.987 79.7229 201.325 79.7229C201.785 79.7229 202.031 79.7536 202.031 80.2447C202.031 80.8585 201.816 82.209 201.57 82.7614C201.355 83.2218 201.11 83.2832 200.588 83.2832C195.37 83.2832 190.889 81.6258 190.889 75.641C190.889 72.5104 192.179 69.1343 194.266 66.8325C194.603 66.4642 194.787 66.2493 194.787 66.0959C194.787 65.8196 194.542 65.7276 194.327 65.7276C194.112 65.7276 192.7 65.9731 192.393 66.0038C190.337 66.3107 187.575 66.7404 185.611 67.2621C185.457 67.2928 185.304 67.3235 185.15 67.3235C184.72 67.3235 184.567 66.6483 184.475 66.3107C184.352 65.7889 184.137 64.6227 184.137 64.1009ZM207.34 65.881C207.647 65.881 210.01 68.7353 210.01 69.1036C210.01 69.5333 208.813 70.3927 208.445 70.3927C208.23 70.3927 208.107 70.1472 207.985 69.9937C207.494 69.2571 206.604 68.1215 205.99 67.4463C205.898 67.3542 205.775 67.1701 205.775 67.0473C205.775 66.679 206.972 65.881 207.34 65.881ZM203.627 67.5691C203.964 67.5691 206.297 70.4234 206.297 70.7917C206.297 71.2521 205.069 72.0807 204.731 72.0807C204.517 72.0807 204.424 71.8659 204.302 71.7124C203.688 70.8224 203.013 69.963 202.337 69.1343C202.245 69.0423 202.061 68.8581 202.061 68.7046C202.061 68.3363 203.289 67.5691 203.627 67.5691Z" fill="#4EA8E8"/>
<path d="M159.707 62.5049H171.615C172.137 62.5049 172.874 62.4436 173.15 62.4436C173.764 62.4436 174.224 63.0267 174.623 63.4257C174.899 63.7019 175.666 64.4385 175.666 64.8375C175.666 65.1137 175.421 65.4206 175.206 66.6176C174.193 72.3876 171.922 76.4389 167.073 79.815C165.293 81.0734 163.206 82.1783 161.18 82.9762C160.904 83.0683 160.474 83.2218 160.167 83.2218C159.431 83.2218 158.356 81.1654 158.356 80.6744C158.356 80.3368 158.633 80.2447 158.909 80.1833C161.518 79.4774 164.433 77.8814 166.551 76.132C169.221 73.9222 171.063 70.6382 171.554 67.2008C171.584 66.9859 171.646 66.6176 171.646 66.4335C171.646 65.8503 171.124 65.7889 170.572 65.7889H159.645C158.356 65.7889 157.098 65.8503 155.809 65.8503C154.888 65.8503 154.888 65.5741 154.888 64.193C154.888 62.7812 154.858 62.4436 155.748 62.4436C157.067 62.4436 158.387 62.5049 159.707 62.5049ZM177.385 58.6071C176.495 58.6071 175.759 59.3437 175.759 60.2644C175.759 61.1852 176.495 61.8911 177.385 61.8911C178.306 61.8911 179.043 61.1852 179.043 60.2644C179.043 59.3437 178.306 58.6071 177.385 58.6071ZM177.385 57.226C179.073 57.226 180.454 58.5764 180.454 60.2644C180.454 61.9525 179.073 63.3029 177.385 63.3029C175.697 63.3029 174.347 61.9525 174.347 60.2644C174.347 58.5764 175.697 57.226 177.385 57.226Z" fill="#4EA8E8"/>
<path d="M141.138 66.679C141.415 66.679 143.287 67.4156 143.655 67.569C143.901 67.6611 144.208 67.8146 144.208 68.1215C144.208 68.3363 143.993 68.4591 143.839 68.5819C143.594 68.766 143.563 68.8581 143.44 69.2264C142.52 72.3876 141.353 75.2726 139.236 77.82C136.995 80.4595 134.171 82.1169 130.887 83.1604C130.673 83.2218 130.151 83.4059 129.936 83.4059C129.353 83.4059 128.217 81.7179 128.217 81.2882C128.217 80.9506 128.401 80.8278 128.708 80.7357C132.668 79.6615 136.013 77.8507 138.223 74.2598C139.542 72.1421 140.402 69.7481 140.739 67.2928C140.77 67.0166 140.801 66.679 141.138 66.679ZM135.706 67.7839L135.982 68.2443C136.258 68.6739 137.363 70.362 137.363 70.761C137.363 71.3748 135.583 72.1728 135.154 72.1728C134.847 72.1728 134.662 71.8352 134.54 71.5896C133.895 70.3006 133.189 69.165 132.391 67.968C132.269 67.8146 132.115 67.5997 132.115 67.3542C132.115 66.8324 133.772 66.0652 134.171 66.0652C134.601 66.0652 135.184 66.9245 135.706 67.7839ZM127.941 67.7839C128.187 67.7839 128.309 67.9067 128.463 68.0601C128.8 68.4591 129.506 69.564 129.813 70.0551C130.089 70.4847 131.133 72.0807 131.133 72.4797C131.133 73.1242 129.291 73.8915 128.923 73.8915C128.616 73.8915 128.463 73.6153 128.34 73.3698C127.695 72.0807 126.959 70.853 126.13 69.6561C126.038 69.5026 125.885 69.3185 125.885 69.1036C125.885 68.5512 127.542 67.7839 127.941 67.7839Z" fill="#4EA8E8"/>
<path d="M103.924 68.2136C104.139 67.9681 104.476 67.5384 104.814 67.5384C105.428 67.5384 108.497 69.963 109.111 70.4848C109.54 70.8531 111.259 72.1728 111.259 72.6946C111.259 73.2163 109.817 74.8123 109.203 74.8123C108.957 74.8123 108.712 74.5975 108.528 74.4133C106.87 72.9401 105.888 72.1114 104.077 70.8224C103.985 70.761 103.893 70.6996 103.77 70.6996C103.494 70.6996 103.402 70.9452 103.402 71.1907V79.5695C103.402 80.7972 103.463 81.9941 103.463 83.2218C103.463 84.6336 103.433 84.8178 101.561 84.8178C100.333 84.8178 99.8112 84.7871 99.8112 83.7742C99.8112 82.3931 99.9033 81.012 99.9033 79.6309V62.1367C99.9033 61.3387 99.8419 60.51 99.8112 59.7427C99.8112 59.5893 99.7805 59.313 99.7805 59.1903C99.7805 58.8834 99.8726 58.7299 100.179 58.7299C100.364 58.7299 101.008 58.822 101.223 58.8527C102.604 59.0368 103.862 59.1596 103.862 59.5893C103.862 59.712 103.77 59.8962 103.709 59.9882C103.433 60.3259 103.371 60.7862 103.371 61.6149C103.371 62.0753 103.402 62.6584 103.402 63.4257V68.0294C103.402 68.275 103.556 68.3364 103.648 68.3364C103.77 68.3364 103.832 68.3057 103.924 68.2136Z" fill="#4EA8E8"/>
<path d="M69.1503 62.3822H77.4984C77.9895 62.3822 78.5112 62.3822 78.8181 62.3208C79.0023 62.3208 79.3092 62.2594 79.4933 62.2594C80.1379 62.2594 81.4576 63.9474 81.4576 64.3464C81.4576 64.4999 81.12 64.991 80.7824 65.5434C80.5982 65.8196 80.4141 66.1265 80.2913 66.3414C79.0637 68.3977 77.836 70.3313 76.3014 72.1728C76.148 72.3569 76.0559 72.5104 76.0559 72.7559C76.0559 73.1242 76.24 73.3084 76.5163 73.4925C78.2043 74.5974 80.1686 76.1013 81.7031 77.4517C82.4397 78.0963 83.207 78.8022 83.9129 79.5388C84.0357 79.6615 84.1278 79.7843 84.1278 79.9685C84.1278 80.613 82.4397 82.4238 81.7952 82.4238C81.4576 82.4238 81.2428 82.2089 81.0279 81.9634C78.8181 79.3239 76.9766 77.8507 74.2451 75.8865C73.9995 75.7023 73.8154 75.6102 73.5392 75.6102C73.1402 75.6102 72.864 75.9172 72.6184 76.132C70.3472 78.2497 67.7078 80.0912 64.9455 81.503C64.6693 81.6565 63.8713 82.0862 63.5951 82.0862C62.9506 82.0862 61.5388 80.0298 61.5388 79.4774C61.5388 79.1091 61.9071 78.9556 62.1833 78.8636C67.6157 76.7765 72.7719 72.0807 75.8717 67.2314C76.0252 66.9859 76.3935 66.4641 76.3935 66.1879C76.3935 65.7275 75.9638 65.6662 75.5034 65.6662H69.1503C67.8305 65.6662 66.5108 65.7276 65.1911 65.7276C64.3624 65.7276 64.4238 65.2672 64.4238 63.8554C64.4238 62.7812 64.3931 62.3208 65.1604 62.3208C66.4801 62.3208 67.7998 62.3822 69.1503 62.3822Z" fill="#4EA8E8"/>
<path d="M53.252 65.5741C53.8658 65.5741 54.9707 67.8453 54.9707 68.3057C54.9707 68.8274 53.7431 70.0244 53.3441 70.4234C48.372 75.5489 43.1545 78.9863 36.6785 81.9941C35.6657 82.4852 35.635 82.5159 35.3895 83.0376C35.3281 83.1604 35.236 83.2218 35.0826 83.2218C34.745 83.2218 34.1005 81.9941 33.8856 81.6258C33.7015 81.3189 32.9649 80.0912 32.9649 79.7843C32.9649 79.4467 33.5173 79.3853 33.9163 79.2626C40.6991 77.2676 48.372 71.4669 52.7303 65.9117C52.853 65.7583 53.0372 65.5741 53.252 65.5741ZM35.1133 60.6635C35.6043 60.6635 38.5507 62.8119 39.1339 63.2415C39.5329 63.5178 41.0061 64.5306 41.0061 64.991C41.0061 65.6969 39.5636 67.3542 38.9804 67.3542C38.7349 67.3542 38.1517 66.8938 37.7528 66.5255C36.8934 65.7583 34.7757 64.3464 33.6708 63.6712C33.4252 63.5178 33.1797 63.3643 33.1797 63.0881C33.1797 62.6277 34.4074 60.6635 35.1133 60.6635Z" fill="#4EA8E8"/>
<path d="M6.63148 61.5842H18.0181C18.6319 61.5842 19.2764 61.5842 19.6754 61.5228C19.8596 61.5228 20.0744 61.4921 20.2586 61.4921C20.7496 61.4921 21.1793 61.9525 21.5169 62.2901C21.9773 62.7198 22.2842 62.9653 22.2842 63.3336C22.2842 63.7019 22.0387 64.0702 21.8238 65.4207C20.6882 72.2035 19.0002 77.0835 13.5371 81.6565C12.9233 82.1783 10.5293 84.1118 9.82341 84.1118C9.14819 84.1118 7.675 82.3317 7.675 81.8407C7.675 81.5031 8.25814 81.2575 8.53436 81.1041C10.2838 80.214 12.2787 78.526 13.5678 77.0528C15.2865 75.0885 16.5449 72.8173 17.3122 70.3313C17.6805 69.1036 18.2022 66.8018 18.2022 65.5434C18.2022 64.8375 17.5884 64.7761 17.0052 64.7761H5.86419C5.37313 64.7761 4.94344 65.1751 4.94344 65.6969V69.8402C4.94344 70.5768 5.00483 71.3441 5.00483 72.1114C5.00483 72.9094 4.69791 72.9094 3.19402 72.9094C1.84359 72.9094 1.56737 72.848 1.56737 72.1728C1.56737 71.3748 1.62875 70.6075 1.62875 69.8096V64.4385C1.62875 64.0088 1.59806 63.6099 1.59806 63.1802C1.59806 62.0139 1.72083 61.5535 3.2861 61.5535C4.42169 61.5535 5.52658 61.5842 6.63148 61.5842Z" fill="#4EA8E8"/>
<path d="M409.213 0.461761C409.49 0.461761 412.651 1.87358 412.651 2.33395C412.651 2.5181 412.436 2.64087 412.282 2.70225C411.791 2.8864 411.669 3.03986 411.27 3.74576C411.178 3.89922 410.963 4.26752 410.963 4.45167C410.963 4.66651 411.116 4.75859 411.3 4.75859C411.914 4.75859 414.216 4.11406 414.861 3.89922C415.075 3.80715 415.413 3.71507 415.628 3.71507C416.15 3.71507 416.303 4.20614 416.395 4.63582C416.487 5.03481 416.641 5.86348 416.641 6.29317C416.641 6.81493 415.659 6.93769 415.014 7.06046C413.08 7.45945 411.147 7.79706 409.213 8.0119C408.722 8.07328 408.599 8.13466 408.293 8.50296C408.108 8.7485 407.249 10.0682 407.249 10.2831C407.249 10.4058 407.372 10.4979 407.495 10.4979C407.679 10.4979 407.894 10.4058 408.047 10.3138C409.091 9.8534 410.257 9.51579 411.392 9.51579C413.357 9.51579 414.492 10.3445 414.891 12.278C414.953 12.5543 415.045 12.7998 415.352 12.7998C415.72 12.7998 418.451 11.3266 418.943 11.0504C419.157 10.9583 419.495 10.7435 419.741 10.7435C420.324 10.7435 421.06 13.1067 421.06 13.6285C421.06 13.9968 420.723 14.1195 420.139 14.3037C420.017 14.3651 419.863 14.3958 419.71 14.4571C418.482 14.9175 417.285 15.4393 416.088 15.961C415.536 16.1759 415.29 16.36 415.29 16.9738V17.3728C415.29 18.3243 415.321 19.245 415.321 20.1965C415.321 21.3014 415.167 21.4241 414.001 21.4241C412.681 21.4241 412.129 21.3627 412.129 20.5648C412.129 19.8895 412.19 19.2143 412.19 18.5698C412.19 18.2936 412.098 18.0481 411.791 18.0481C411.638 18.0481 408.477 19.3985 408.477 21.3014C408.477 23.3577 411.454 23.5419 412.927 23.5419C414.983 23.5419 416.641 23.2656 418.636 22.7746C418.82 22.7439 419.035 22.7132 419.249 22.7132C419.648 22.7132 419.863 23.0508 419.863 24.8002C419.863 25.721 419.833 25.9665 419.157 26.1199C417.991 26.3962 414.584 26.5189 413.265 26.5189C411.515 26.5189 410.042 26.4269 408.415 25.721C406.543 24.8923 405.346 23.4191 405.346 21.3321C405.346 18.5698 407.587 17.0659 409.704 15.8076C410.318 15.4393 410.963 15.1017 411.607 14.7947C411.914 14.6413 412.16 14.4571 412.16 14.0888C412.16 13.874 412.068 13.4443 412.006 13.2295C411.853 12.5543 411.362 12.186 410.656 12.186C408.937 12.186 406.113 13.6592 404.916 14.8868C404.026 15.7769 402.983 17.3728 402.338 18.4777C402.246 18.6312 402.124 18.7847 401.909 18.7847C401.356 18.7847 399.3 17.557 399.3 17.0045C399.3 16.759 399.545 16.5135 399.699 16.3293C400.405 15.562 404.855 9.39302 404.855 8.80988C404.855 8.53366 404.61 8.44158 404.18 8.44158C403.689 8.44158 402.983 8.53366 402.031 8.53366C401.356 8.53366 401.233 8.3802 401.233 6.81492C401.233 5.58726 401.356 5.40311 402.124 5.40311C402.645 5.40311 403.443 5.4645 404.333 5.4645H405.223C406.021 5.4645 406.85 5.4338 407.126 5.0655C407.648 4.39029 408.569 1.99634 408.784 1.10629C408.845 0.768678 408.906 0.461761 409.213 0.461761Z" fill="#4EA8E8"/>
<path d="M370.419 13.5978C371.002 13.5978 371.278 13.3215 371.278 12.7384V4.94273C371.278 4.14475 371.217 3.43884 371.217 2.79432C371.217 1.72011 371.739 1.41319 372.721 1.41319C373.488 1.41319 374.256 1.47457 375.054 1.47457H386.9C387.791 1.47457 388.681 1.41319 389.571 1.41319C390.246 1.41319 390.246 1.65873 390.246 2.73293C390.246 3.77645 390.246 4.05267 389.571 4.05267C388.681 4.05267 387.791 3.99129 386.9 3.99129H375.207C374.716 3.99129 374.47 4.20613 374.47 4.6972V4.85065C374.47 5.37241 374.716 5.58725 375.207 5.58725H383.985C385.12 5.58725 386.256 5.52587 387.392 5.52587C388.005 5.52587 388.036 5.7714 388.036 6.78422C388.036 7.76636 388.005 8.01189 387.392 8.01189C386.256 8.01189 385.12 7.95051 383.985 7.95051H375.207C374.716 7.95051 374.47 8.16535 374.47 8.65641V8.84056C374.47 9.33163 374.716 9.54647 375.207 9.54647H384.108C385.182 9.54647 386.256 9.48509 387.361 9.48509C388.005 9.48509 388.005 9.76131 388.005 10.7434C388.005 11.6949 388.005 11.9711 387.361 11.9711C386.256 11.9711 385.182 11.9097 384.108 11.9097H375.207C374.716 11.9097 374.47 12.1246 374.47 12.6463V12.8612C374.47 13.3829 374.716 13.5978 375.207 13.5978H388.926C390.154 13.5978 391.381 13.5364 392.64 13.5364C393.346 13.5364 393.346 13.874 393.346 14.9175C393.346 15.961 393.346 16.2986 392.64 16.2986C391.412 16.2986 390.154 16.2372 388.926 16.2372H383.033C382.757 16.2679 382.481 16.36 382.481 16.6669C382.481 16.7897 382.512 16.8511 382.573 16.9431C383.003 17.7411 383.524 18.5084 384.108 19.1836C384.261 19.3678 384.445 19.5212 384.721 19.5212C384.936 19.5212 385.12 19.3985 385.305 19.2757C385.98 18.7233 387.207 17.5877 387.791 16.9431C388.036 16.6976 388.19 16.4828 388.374 16.4828C388.681 16.4828 390.952 18.5084 390.952 18.8767C390.952 19.0609 390.829 19.2143 390.645 19.2143C390.583 19.2143 390.522 19.1836 390.43 19.1529C390.338 19.1223 390.184 19.0916 390.092 19.0916C389.939 19.0916 389.878 19.1529 389.785 19.2143C389.417 19.4599 388.957 19.8588 388.589 20.1351C388.128 20.4727 387.637 20.841 387.146 21.1786C387.023 21.3014 386.9 21.4548 386.9 21.639C386.9 21.8231 386.993 21.9459 387.115 22.0686C388.834 23.327 390.737 24.3091 392.67 25.0764C392.947 25.1992 393.376 25.322 393.376 25.6903C393.376 26.3041 392.271 28.0228 391.596 28.0228C390.737 28.0228 387.207 25.9972 386.348 25.414C383.279 23.3577 380.639 20.442 379.197 17.0045C378.951 16.3907 378.706 16.2372 378.092 16.2372H375.33C374.747 16.2372 374.47 16.4828 374.47 17.0966V22.3756C374.47 22.7746 374.655 23.1122 375.084 23.1122C375.176 23.1122 375.238 23.0815 375.299 23.0815C377.048 22.7439 380.517 22.0073 380.701 22.0073C381.376 22.0073 381.315 22.928 381.315 23.6032C381.315 24.616 381.069 24.7081 380.302 24.8923C376.772 25.813 373.181 26.4882 369.56 27.01C368.884 27.1021 368.792 27.1635 368.608 27.5624C368.516 27.7466 368.424 27.8694 368.209 27.8694C367.872 27.8694 367.81 27.5624 367.595 26.7952C367.565 26.6417 367.503 26.4269 367.442 26.212C367.381 25.9665 367.104 24.8616 367.104 24.6467C367.104 24.2477 367.411 24.1864 368.547 24.0943C369.038 24.0329 369.682 24.0329 370.48 23.8795C371.064 23.7874 371.217 23.4805 371.278 22.8973V17.0966C371.278 16.4828 371.002 16.2372 370.419 16.2372C369.283 16.2065 368.179 16.2986 367.043 16.2986C366.337 16.2986 366.337 15.961 366.337 14.9175C366.337 13.8433 366.337 13.5364 367.043 13.5364C368.179 13.5364 369.283 13.6285 370.419 13.5978Z" fill="#4EA8E8"/>
<path d="M359.892 4.05266C359.892 4.6051 358.296 5.61793 357.805 5.61793C357.529 5.61793 357.252 5.24963 356.761 4.6051C356.301 4.02196 355.626 3.1626 354.613 2.11908C354.521 2.02701 354.367 1.87355 354.367 1.72009C354.367 1.29041 355.933 0.277588 356.424 0.277588C356.7 0.277588 356.823 0.431045 357.007 0.615194L358.572 2.30323C358.634 2.36462 358.726 2.48738 358.848 2.61015C359.247 3.07052 359.892 3.80712 359.892 4.05266ZM348.198 8.87124H341.692C341.109 8.87124 340.832 9.11677 340.832 9.7306V11.6642C340.832 12.2473 341.109 12.5235 341.692 12.5235H343.687C344.423 12.5235 345.16 12.4622 345.866 12.4622C347.186 12.4622 347.278 13.1374 347.278 14.1809C347.278 15.8996 347.124 20.2271 346.725 21.731C346.234 23.6032 344.669 24.0636 342.95 24.0636C341.876 24.0636 341.17 24.0022 341.17 21.7924C341.17 21.4548 341.201 20.9944 341.63 20.9944C341.814 20.9944 342.735 21.1172 342.889 21.1172C344.086 21.1172 344.27 20.1657 344.27 16.1758C344.27 15.4085 344.024 15.3472 343.318 15.3472H341.692C341.078 15.3472 340.863 15.562 340.771 16.1451C340.587 19.3678 340.034 22.5904 338.868 25.5982C338.131 27.4397 337.947 27.6545 337.426 27.6545C336.566 27.6545 335.032 26.7644 335.032 26.0278C335.032 25.9051 335.124 25.7516 335.154 25.6595C336.935 21.7924 337.733 17.5263 337.733 13.2908V9.91475C337.733 9.05539 337.671 8.19602 337.671 7.33666C337.671 6.13968 338.224 5.86346 339.359 5.86346C340.311 5.86346 341.293 5.92484 342.244 5.92484H347.861C348.413 5.92484 348.659 5.67931 348.659 5.09617C348.659 5.00409 348.383 1.38249 348.383 1.13695C348.383 0.676579 348.689 0.553812 349.088 0.553812C349.426 0.553812 350.869 0.676579 351.36 0.70727C351.943 0.737961 352.434 0.70727 352.434 1.16764C352.434 1.47456 352.158 1.53594 351.943 1.65871C351.636 1.81217 351.636 2.02701 351.636 2.57946C351.636 3.40813 351.728 4.2368 351.789 5.09617C351.851 5.71 352.096 5.86346 352.71 5.92484H358.388C359.585 5.92484 360.782 5.83277 361.979 5.83277C362.777 5.83277 362.715 6.23176 362.715 7.39804C362.715 8.53363 362.746 8.93262 362.01 8.93262C360.782 8.93262 359.585 8.87124 358.388 8.87124H353.017C352.618 8.87124 352.28 9.05539 352.28 9.51576V9.66922C352.649 12.1552 352.986 13.7819 353.723 16.1758C353.784 16.3293 353.907 16.5134 354.091 16.5134C354.245 16.5134 354.367 16.4214 354.459 16.2986C355.442 14.764 356.27 13.1374 356.884 11.3879C356.976 11.081 357.13 10.7127 357.498 10.7127C357.805 10.7127 358.879 11.2038 359.585 11.5414C359.769 11.6335 359.923 11.6949 360.045 11.7562C360.26 11.8483 360.628 12.0018 360.628 12.278C360.628 12.5235 360.322 12.6156 360.137 12.677C359.708 12.7998 359.677 12.9839 359.37 13.5977C358.48 15.4699 357.038 17.8946 355.81 19.5519C355.656 19.7668 355.534 19.9816 355.534 20.2578C355.534 20.5034 355.595 20.6568 355.718 20.8717C356.178 21.7003 357.559 24.0943 358.603 24.0943C359.8 24.0943 360.015 21.6083 360.137 20.7182C360.168 20.3806 360.26 20.1964 360.628 20.1964C361.334 20.1964 362.9 20.534 362.9 21.6389C362.9 23.0815 361.918 27.6852 358.91 27.6852C356.608 27.6852 354.736 25.1378 353.631 23.3884C353.508 23.2042 353.355 23.0508 353.109 23.0508C352.894 23.0508 352.771 23.1428 352.649 23.2656C351.053 24.8002 349.365 26.1813 347.492 27.3783C347.308 27.501 346.848 27.7466 346.633 27.7466C345.896 27.7466 344.577 26.4882 344.577 25.9972C344.577 25.6595 344.945 25.4754 345.191 25.2912C347.278 23.8794 349.518 22.2221 351.268 20.3806C351.452 20.1351 351.605 19.9509 351.605 19.6133C351.605 19.4292 351.544 19.2757 351.482 19.0915C350.316 16.2372 349.641 12.7384 349.15 9.66922C349.058 9.08608 348.781 8.87124 348.198 8.87124Z" fill="#4EA8E8"/>
<path d="M316.371 7.42873C316.126 7.42873 315.573 7.64358 315.328 7.76634C311.829 9.42369 309.803 12.7077 309.803 16.6055C309.803 17.7411 310.202 20.5954 311.767 20.5954C313.302 20.5954 315.021 17.0966 315.88 13.966C316.279 12.4929 316.862 9.45438 316.862 7.98118C316.862 7.67427 316.709 7.42873 316.371 7.42873ZM319.318 3.83781C322.325 3.83781 325.088 4.72787 327.267 6.87629C329.323 8.93262 330.367 11.5107 330.367 14.4264C330.367 18.6926 328.126 22.3449 324.382 24.3398C323.676 24.7081 321.773 25.5675 321.036 25.5675C320.238 25.5675 318.98 23.6646 318.98 22.9894C318.98 22.6825 319.44 22.6211 319.747 22.5597C323.768 21.6083 326.929 18.9688 326.929 14.5799C326.929 11.2959 325.21 8.34948 322.018 7.24458C321.742 7.15251 321.128 6.96836 320.852 6.96836C320.146 6.96836 320.146 7.64357 320.116 8.16533C319.778 12.6463 318.704 18.1094 315.757 21.6389C314.745 22.8666 313.394 24.0022 311.706 24.0022C309.834 24.0022 308.361 22.6518 307.532 21.0865C306.857 19.8281 306.581 18.1708 306.581 16.7283C306.581 9.54645 312.074 3.83781 319.318 3.83781Z" fill="#4EA8E8"/>
<path d="M286.109 10.8355H289.301C289.976 10.8355 290.161 10.7128 290.529 10.1296C290.713 9.76131 290.897 9.36232 291.112 8.96333C291.143 8.90195 291.173 8.80987 291.173 8.7178C291.173 8.3495 290.897 8.25743 290.59 8.22673H285.035C284.728 8.25743 284.483 8.3495 284.483 8.68711C284.483 8.77918 284.513 8.87126 284.544 8.96333C285.311 10.4979 285.311 10.8355 286.109 10.8355ZM293.26 5.52587C294.12 4.14475 294.979 2.76363 295.654 1.29043C295.716 1.13697 295.808 0.983514 295.992 0.983514C296.115 0.983514 298.754 1.99634 298.754 2.42602C298.754 2.67155 298.417 2.70224 298.355 2.70224C298.11 2.73293 297.925 2.79432 297.772 2.97847C297.496 3.53092 296.851 4.60513 296.544 5.12688C296.483 5.21896 296.452 5.28034 296.452 5.40311C296.452 5.71002 296.667 5.8021 296.913 5.8021C298.018 5.8021 299.122 5.74072 300.227 5.74072C300.903 5.74072 300.903 6.07832 300.903 7.02976C300.903 7.95051 300.903 8.28812 300.227 8.28812C298.938 8.28812 297.68 8.22673 296.391 8.22673H295.194C295.102 8.22673 295.102 8.28812 295.163 8.3495C295.194 8.41088 295.255 8.47227 295.255 8.53365C295.255 8.74849 294.979 8.80987 294.826 8.87126C294.488 8.96333 294.396 8.99403 294.212 9.23956C294.089 9.51578 293.936 9.8227 293.813 10.0989C293.782 10.191 293.721 10.2831 293.721 10.3751C293.721 10.7128 293.997 10.8048 294.304 10.8355H295.102C296.36 10.8355 297.588 10.7741 298.846 10.7741C299.552 10.7741 299.521 11.1731 299.521 12.0018C299.521 12.7384 299.552 13.1988 298.877 13.1988C297.619 13.1988 296.36 13.1374 295.102 13.1374H289.884C289.485 13.1374 289.301 13.2909 289.301 13.7205V13.9661C289.301 14.3651 289.455 14.5492 289.884 14.5492H293.537C294.703 14.5492 295.869 14.4878 297.066 14.4878C297.772 14.4878 297.772 14.8254 297.772 15.6848C297.772 16.5442 297.772 16.8818 297.066 16.8818C295.869 16.8818 294.703 16.8204 293.537 16.8204H289.884C289.485 16.8204 289.301 16.9738 289.301 17.3728V17.6491C289.301 18.048 289.455 18.2322 289.884 18.2322H296.759C298.048 18.2322 299.337 18.1708 300.657 18.1708C301.363 18.1708 301.363 18.4777 301.363 19.3985C301.363 20.3192 301.363 20.6568 300.688 20.6568C299.368 20.6568 298.048 20.5955 296.759 20.5955H292.831C292.677 20.5955 292.524 20.6568 292.524 20.841C292.524 20.9331 292.554 20.9944 292.647 21.0558C294.979 22.6518 297.588 23.8795 300.289 24.7388C300.995 24.9537 301.302 25.1071 301.302 25.4754C301.302 26.1199 300.197 27.5011 299.583 27.5011C299 27.5011 296.575 26.3962 295.931 26.0893C293.813 25.0764 291.726 23.6953 289.946 22.2221C289.854 22.13 289.762 22.0993 289.639 22.0993C289.393 22.0993 289.332 22.3142 289.301 22.529V22.8052C289.301 24.1557 289.393 25.5368 289.393 26.9179C289.393 27.9614 289.056 27.9921 287.644 27.9921C286.293 27.9921 285.925 27.9614 285.925 26.9486C285.925 25.5675 286.017 24.1864 286.017 22.8052V22.5904C285.986 22.3449 285.925 22.1607 285.649 22.1607C285.557 22.1607 285.465 22.1914 285.373 22.2528C283.224 23.9715 280.861 25.414 278.283 26.5803C277.638 26.8565 276.196 27.5318 275.735 27.5318C275.091 27.5318 274.047 26.0279 274.047 25.414C274.047 25.0457 274.446 24.923 275.122 24.7081C277.7 23.8488 280.37 22.529 282.672 21.0558C282.733 20.9944 282.795 20.9331 282.795 20.8103C282.795 20.6568 282.641 20.5955 282.518 20.5955H278.805C277.516 20.5955 276.196 20.6568 274.876 20.6568C274.201 20.6568 274.201 20.2885 274.201 19.3985C274.201 18.5084 274.201 18.1708 274.876 18.1708C276.196 18.1708 277.516 18.2322 278.805 18.2322H285.434C285.833 18.2322 286.017 18.048 286.017 17.6491V17.4035C286.017 16.9738 285.833 16.8204 285.434 16.8204H281.966C280.8 16.8204 279.603 16.8818 278.436 16.8818C277.7 16.8818 277.73 16.5442 277.73 15.6848C277.73 14.7947 277.73 14.4878 278.436 14.4878C279.603 14.4878 280.8 14.5492 281.966 14.5492H285.434C285.833 14.5492 286.017 14.3957 286.017 13.9661V13.7205C286.017 13.2909 285.833 13.1374 285.434 13.1374H280.493C279.234 13.1374 277.976 13.1988 276.718 13.1988C276.042 13.1988 276.073 12.7077 276.073 12.0018C276.073 11.1731 276.042 10.7741 276.748 10.7741C278.007 10.7741 279.234 10.8355 280.493 10.8355H281.199C281.26 10.8355 281.751 10.8355 281.751 10.3751C281.751 10.2831 281.72 10.191 281.69 10.0989C281.505 9.69993 281.321 9.33163 281.106 8.93264C280.8 8.41088 280.585 8.22673 279.971 8.22673H279.173C277.884 8.22673 276.626 8.28812 275.336 8.28812C274.661 8.28812 274.661 7.95051 274.661 7.02976C274.661 6.10901 274.661 5.74072 275.336 5.74072C276.349 5.74072 277.362 5.8021 278.375 5.8021H278.713C278.927 5.8021 279.142 5.71002 279.142 5.4338C279.142 5.31103 279.142 5.28034 279.081 5.15757C278.498 4.26752 277.884 3.43884 277.209 2.64086C277.117 2.5181 276.932 2.30325 276.932 2.1498C276.932 1.68942 278.528 0.952823 279.081 0.952823C279.418 0.952823 279.541 1.10628 279.879 1.53596C279.94 1.62804 280.032 1.7508 280.155 1.90426C280.493 2.30325 282.089 4.39028 282.089 4.75858C282.089 5.12688 281.413 5.4338 281.106 5.55656C281.076 5.58726 281.045 5.61795 281.045 5.67933C281.045 5.77141 281.106 5.8021 281.199 5.8021H282.702C283.286 5.8021 283.562 5.55656 283.562 4.97342V4.02198C283.562 3.03985 283.531 2.05772 283.439 1.07559C283.439 0.983514 283.408 0.891438 283.408 0.799365C283.408 0.431065 283.623 0.338989 283.93 0.338989C284.36 0.338989 286.017 0.523141 286.508 0.584524C286.815 0.615215 287.245 0.645908 287.245 1.01421C287.245 1.22905 287.122 1.29043 286.877 1.47458C286.539 1.7508 286.508 2.27256 286.508 3.16262V4.97342C286.508 5.55656 286.754 5.8021 287.368 5.8021H288.258C288.871 5.8021 289.117 5.55656 289.117 4.97342V3.224C289.117 2.5181 289.117 1.81219 288.994 1.10628V0.830056C288.994 0.461756 289.209 0.400374 289.516 0.400374C289.915 0.400374 291.542 0.553831 292.002 0.615214C292.278 0.645907 292.8 0.676598 292.8 1.0449C292.8 1.22905 292.647 1.32112 292.432 1.47458C292.125 1.72011 292.094 2.1191 292.094 2.88639V4.97342C292.094 5.46449 292.278 5.77141 292.831 5.8021C293.046 5.77141 293.138 5.71002 293.26 5.52587Z" fill="#4EA8E8"/>
<path d="M258.64 9.63854V9.82269C258.64 10.2524 258.947 10.5593 259.377 10.5593H262.477C262.906 10.5593 263.213 10.2524 263.213 9.82269V9.63854C263.213 9.20886 262.906 8.90194 262.477 8.90194H259.377C258.947 8.90194 258.64 9.20886 258.64 9.63854ZM254.712 8.90194H251.612C251.182 8.90194 250.875 9.20886 250.875 9.63854V9.82269C250.875 10.2524 251.182 10.5593 251.612 10.5593H254.712C255.141 10.5593 255.448 10.2524 255.448 9.82269V9.63854C255.448 9.20886 255.141 8.90194 254.712 8.90194ZM263.397 19.245H259.223C258.886 19.2757 258.671 19.4905 258.64 19.8282V19.9816C258.64 20.3499 258.886 20.5648 259.223 20.5648H263.397C263.735 20.5648 263.981 20.3499 263.981 19.9816V19.8282C263.95 19.4905 263.735 19.2757 263.397 19.245ZM258.64 16.5748V16.6976C258.64 17.0659 258.886 17.2808 259.223 17.2808H263.397C263.735 17.2808 263.981 17.0659 263.981 16.6976V16.5748C263.95 16.2372 263.735 16.0224 263.397 15.9917H259.223C258.886 16.0224 258.671 16.2372 258.64 16.5748ZM267.173 16.4521C267.203 17.0045 267.449 17.2501 267.971 17.2808C268.646 17.2501 269.29 17.2501 269.935 17.2501C270.579 17.2501 270.549 17.6184 270.549 18.2629C270.549 18.9688 270.549 19.3064 269.935 19.3064C269.29 19.3064 268.646 19.2757 268.001 19.2757C267.418 19.2757 267.173 19.5519 267.173 20.1044V20.5034C267.173 21.3014 267.265 22.0993 267.265 22.6825C267.265 23.4191 266.774 23.3884 265.484 23.3884C264.564 23.3884 264.134 23.3884 263.981 23.0201C263.858 22.8052 263.766 22.6518 263.49 22.6518H259.5C258.916 22.6518 258.702 22.8666 258.671 23.4498C258.702 23.7567 258.702 24.5547 258.702 24.8616C258.702 27.8387 255.54 27.9 253.3 27.9C252.441 27.9 251.428 28.0535 251.428 25.6289C251.428 25.1992 251.551 24.923 252.011 24.923C252.41 24.923 252.993 25.0457 253.73 25.0457C255.264 25.0457 255.387 24.6467 255.448 23.4498C255.387 22.8666 255.172 22.6518 254.589 22.6518H250.077C248.85 22.6518 247.591 22.7132 246.333 22.7132C245.627 22.7132 245.596 22.4676 245.596 21.6083C245.596 20.7489 245.627 20.5341 246.333 20.5341C247.591 20.5341 248.85 20.5648 250.077 20.5648H254.865C255.264 20.5648 255.448 20.4113 255.448 20.0123V19.8282C255.448 19.4292 255.264 19.245 254.865 19.245H247.96C246.671 19.245 245.351 19.3064 244.031 19.3064C243.417 19.3064 243.448 18.9074 243.448 18.2629C243.448 17.6184 243.417 17.2501 244.062 17.2501C245.351 17.2501 246.671 17.2808 247.96 17.2808H254.865C255.264 17.2808 255.448 17.1273 255.448 16.7283V16.5748C255.448 16.1759 255.264 15.9917 254.865 15.9917H248.543C247.775 15.9917 247.008 16.0531 246.241 16.0531C245.688 16.0531 245.688 15.7769 245.688 14.9482C245.688 14.1502 245.688 13.874 246.21 13.874C246.977 13.874 247.775 13.9354 248.543 13.9354H254.865C255.264 13.9354 255.448 13.7512 255.448 13.3522V13.1988C255.448 12.7998 255.264 12.6156 254.865 12.6156H252.318C251.397 12.6156 250.476 12.6463 249.556 12.6463C248.85 12.6463 247.806 12.5849 247.806 11.6642C247.806 11.3573 247.868 11.081 247.868 10.5593V8.90194C247.868 8.38019 247.806 8.10396 247.806 7.79705C247.806 6.84561 248.85 6.78422 249.556 6.78422C250.476 6.78422 251.397 6.84561 252.318 6.84561H254.865C255.264 6.84561 255.448 6.66146 255.448 6.26247V6.07832C255.448 5.64863 255.264 5.49518 254.865 5.49518H248.604C247.346 5.49518 246.087 5.55656 244.798 5.55656C244.123 5.55656 244.123 5.21895 244.123 4.35959C244.123 3.50022 244.123 3.19331 244.798 3.19331C246.057 3.19331 247.346 3.25469 248.604 3.25469H254.589C255.172 3.25469 255.387 3.03985 255.448 2.42601C255.418 1.99633 255.387 1.56665 255.326 1.13697C255.326 1.04489 255.295 0.922127 255.295 0.860743C255.295 0.492443 255.54 0.431061 255.847 0.431061C256.246 0.431061 258.026 0.615209 258.517 0.676594C258.824 0.707285 259.346 0.707284 259.346 1.07558C259.346 1.25973 259.193 1.35181 258.978 1.50527C258.671 1.7508 258.671 2.02702 258.671 2.39532C258.671 3.00915 258.916 3.25469 259.5 3.25469H265.454C266.743 3.25469 268.001 3.19331 269.26 3.19331C269.965 3.19331 269.935 3.53091 269.935 4.35959C269.935 5.18826 269.965 5.55656 269.26 5.55656C268.001 5.55656 266.712 5.49518 265.454 5.49518H259.223C258.824 5.49518 258.64 5.64863 258.64 6.07832V6.26247C258.64 6.66146 258.794 6.84561 259.223 6.84561H261.771C262.692 6.84561 263.612 6.78422 264.533 6.78422C265.239 6.78422 266.282 6.84561 266.282 7.79705C266.282 8.10396 266.221 8.38019 266.221 8.90194V10.5593C266.221 11.081 266.282 11.3573 266.282 11.6642C266.282 12.5849 265.27 12.6463 264.564 12.6463C263.643 12.6463 262.722 12.6156 261.771 12.6156H259.223C258.824 12.6156 258.64 12.7691 258.64 13.1988V13.3522C258.64 13.7512 258.794 13.9354 259.223 13.9354H263.367C264.195 13.9354 265.024 13.874 265.853 13.874C266.743 13.874 267.234 14.1502 267.234 15.1016C267.234 15.562 267.173 16.0224 267.173 16.4521Z" fill="#4EA8E8"/>
<path d="M230.097 23.3884C228.532 25.4754 225.8 26.8258 223.376 27.5624C223.038 27.6545 222.424 27.808 222.056 27.808C221.166 27.808 220.491 25.9051 220.491 25.414C220.491 24.9844 220.89 24.9537 221.227 24.8923C223.621 24.4319 226.353 23.4191 227.887 21.4548C227.949 21.3321 228.01 21.2707 228.01 21.1479C228.01 20.8717 227.734 20.7796 227.488 20.7489H226.568C225.248 20.7489 223.959 20.841 222.67 20.841C221.841 20.841 221.841 20.5341 221.841 19.5212C221.841 18.5084 221.841 18.2629 222.67 18.2629C223.959 18.2629 225.248 18.3243 226.568 18.3243H228.317C228.869 18.3243 229.176 18.1094 229.238 17.5263C229.238 17.1273 229.176 16.7283 229.729 16.7283C230.036 16.7283 231.693 16.9125 232.092 16.9738C232.307 17.0045 232.951 17.0659 232.951 17.3421C232.951 17.557 232.675 17.7104 232.522 17.8025C232.399 17.8946 232.276 17.9867 232.276 18.1401C232.276 18.2629 232.368 18.2936 232.491 18.3243H235.223C236.512 18.3243 237.801 18.2629 239.09 18.2629C239.949 18.2629 239.918 18.5084 239.918 19.5212C239.918 20.5341 239.949 20.841 239.12 20.841C237.831 20.841 236.512 20.7489 235.223 20.7489H233.043C232.798 20.7796 232.583 20.841 232.583 21.1172C232.583 21.24 232.644 21.3321 232.706 21.3934C234.578 23.3884 237.187 24.5854 239.796 25.2913C240.103 25.3833 240.317 25.4754 240.317 25.813C240.317 26.4882 239.581 28.0228 238.813 28.0228C238.261 28.0228 236.972 27.4397 236.42 27.1941C234.332 26.212 232.644 25.0764 231.079 23.3577C230.926 23.2042 230.803 23.0815 230.588 23.0815C230.373 23.0815 230.22 23.2349 230.097 23.3884ZM219.754 9.8227C220.675 11.48 221.473 12.7691 222.731 14.1809C222.915 14.3957 223.161 14.6413 223.161 14.8561C223.161 15.3472 222.117 16.8204 221.626 16.8204C221.104 16.8204 220.245 15.071 220 14.6413C219.969 14.5799 219.907 14.5185 219.815 14.5185C219.693 14.5185 219.631 14.6106 219.631 14.7334V22.7746C219.631 24.1864 219.693 25.5982 219.693 27.01C219.693 27.9307 219.416 27.9614 218.219 27.9614C216.992 27.9614 216.685 27.9307 216.685 27.0407C216.685 25.5982 216.746 24.1864 216.746 22.7746V16.6976C216.746 16.5749 216.685 16.5442 216.654 16.5442C216.593 16.5442 216.531 16.5749 216.501 16.6362C216.01 18.2629 215.365 19.8589 214.598 21.3627C214.414 21.731 214.26 22.0073 213.953 22.0073C213.401 22.0073 212.081 20.7182 212.081 20.1351C212.081 19.8589 212.357 19.4292 212.511 19.1836C214.107 16.3907 215.457 12.7691 216.194 9.63855C216.224 9.57716 216.224 9.48509 216.224 9.42371C216.224 8.99403 215.918 8.84057 215.549 8.84057C214.721 8.80987 213.83 8.90195 213.462 8.90195C212.787 8.90195 212.818 8.47227 212.818 7.45944C212.818 6.38524 212.787 5.95555 213.462 5.95555C213.892 5.95555 214.659 6.01694 215.519 6.01694H215.918C216.531 6.01694 216.746 5.77141 216.746 5.15757V2.94778C216.746 2.27256 216.716 1.59735 216.654 1.01421C216.654 0.922132 216.623 0.830055 216.623 0.73798C216.623 0.400373 216.838 0.338989 217.145 0.338989C217.483 0.338989 219.324 0.523141 219.754 0.553832C220 0.584523 220.429 0.615214 220.429 0.952823C220.429 1.16766 220.245 1.25974 220 1.4132C219.662 1.59735 219.631 2.08841 219.631 3.03985V5.15757C219.631 5.74071 219.846 5.98625 220.429 6.01694C220.982 6.01694 221.534 5.95555 222.117 5.95555C222.792 5.95555 222.762 6.38524 222.762 7.45944C222.762 8.47227 222.792 8.90195 222.117 8.90195C221.933 8.90195 220.705 8.84057 220.368 8.84057C219.938 8.87126 219.662 9.02472 219.631 9.48509C219.631 9.63855 219.693 9.69993 219.754 9.8227ZM226.752 13.2908V13.6285C226.752 13.9661 226.967 14.2116 227.335 14.2116H234.363C234.731 14.2116 234.946 13.9661 234.946 13.6285V13.2908C234.946 12.9225 234.731 12.7077 234.363 12.7077H227.335C226.967 12.7077 226.752 12.9225 226.752 13.2908ZM234.363 9.30094H227.335C226.967 9.30094 226.752 9.54647 226.752 9.88408V10.0989C226.752 10.4672 226.967 10.6821 227.335 10.6821H234.363C234.731 10.6821 234.946 10.4672 234.946 10.0989V9.88408C234.946 9.54647 234.731 9.30094 234.363 9.30094ZM230.097 7.02976H231.632C232.43 7.02976 232.338 6.56939 232.368 5.89417C232.338 5.31103 232.123 5.09619 231.54 5.09619H230.281C229.698 5.09619 229.453 5.31103 229.453 5.89417V6.20109C229.453 6.72285 229.483 7.02976 230.097 7.02976ZM226.322 6.23178V5.8021C226.322 5.34172 226.169 5.12688 225.677 5.09619C224.818 5.12688 223.928 5.15757 223.069 5.15757C222.24 5.15757 222.271 4.85066 222.271 3.92991C222.271 2.97847 222.271 2.67155 223.069 2.67155C223.928 2.67155 224.757 2.76363 225.585 2.73294C226.138 2.73294 226.322 2.45671 226.353 1.93495C226.353 1.62804 226.353 1.35181 226.291 1.0449C226.291 0.983513 226.261 0.860747 226.261 0.799365C226.261 0.461756 226.475 0.400374 226.752 0.400374C227.273 0.400374 228.808 0.523141 229.36 0.584524C229.667 0.615215 230.128 0.615215 230.128 1.01421C230.128 1.16766 229.944 1.25974 229.79 1.38251C229.545 1.53596 229.422 1.81219 229.422 2.08841C229.422 2.57948 229.821 2.73294 230.25 2.73294H231.57C232.153 2.73294 232.399 2.4874 232.399 1.87357C232.399 1.59735 232.368 1.32112 232.338 1.0449C232.338 0.952822 232.307 0.860747 232.307 0.768672C232.307 0.461756 232.644 0.400374 232.89 0.400374C233.228 0.400374 234.977 0.553832 235.407 0.584524C235.683 0.615215 236.205 0.645907 236.205 0.952823C236.205 1.16766 236.021 1.25974 235.836 1.38251C235.591 1.53596 235.468 1.81219 235.468 2.08841C235.468 2.54879 235.836 2.73294 236.235 2.73294C237.125 2.76363 237.985 2.67155 238.875 2.67155C239.734 2.67155 239.673 3.00916 239.673 3.92991C239.673 4.85066 239.734 5.15757 238.875 5.15757C237.985 5.15757 237.064 5.12688 236.143 5.09619C235.714 5.12688 235.499 5.34172 235.499 5.7714V6.26247C235.499 6.78423 235.714 6.96838 236.205 6.96838H236.542C237.555 6.96838 237.893 7.33668 237.893 8.3495C237.893 8.99402 237.862 9.60786 237.862 10.2217V13.2908C237.862 13.9047 237.893 14.5185 237.893 15.1323C237.893 16.1145 237.616 16.5442 236.604 16.5442C235.928 16.5442 235.253 16.4828 234.578 16.4828H227.089C226.445 16.4828 225.8 16.5442 225.125 16.5442C224.143 16.5442 223.805 16.1759 223.805 15.1937C223.805 14.5492 223.836 13.9354 223.836 13.2908V10.2217C223.836 9.60786 223.805 8.96333 223.805 8.31881C223.805 7.39806 224.112 6.96838 225.094 6.96838H225.616C226.23 6.96838 226.322 6.72285 226.322 6.23178Z" fill="#4EA8E8"/>
<path d="M200.142 20.1965C199.835 20.2885 199.835 20.3499 199.743 20.5955C199.006 23.0201 197.564 24.7388 195.477 26.0893C194.771 26.5496 192.377 27.808 191.61 27.808C190.812 27.808 189.86 26.0586 189.86 25.721C189.86 25.322 190.321 25.2299 191.18 24.9537C193.175 24.3091 195.078 23.1736 196.244 21.3321C196.766 20.5341 196.919 19.9509 197.134 18.9995C197.226 18.5391 197.257 18.447 197.472 18.447C197.84 18.447 199.375 19.0302 199.804 19.1836C200.203 19.3371 200.602 19.4292 200.602 19.7361C200.602 20.0123 200.357 20.1351 200.142 20.1965ZM186.208 15.6541C186.208 15.6234 186.239 15.562 186.239 15.5007C186.239 15.0403 185.87 14.8561 185.471 14.8561C184.612 14.8254 183.753 14.9175 182.924 14.9175C182.095 14.9175 182.126 14.5185 182.126 13.4443C182.126 12.3701 182.095 11.9711 182.924 11.9711C183.845 11.9711 184.766 12.0632 185.686 12.0325C186.269 12.0325 186.484 11.8177 186.546 11.2038C186.576 10.9276 186.576 10.6514 186.576 10.3752V9.05541C186.576 8.50296 186.362 8.25743 185.778 8.22674C185.257 8.22674 184.09 8.28812 183.599 8.28812C182.801 8.28812 182.832 7.82775 182.832 6.78424C182.832 5.71003 182.801 5.31104 183.63 5.31104C184.274 5.31104 185.103 5.34173 185.778 5.37242C186.362 5.34173 186.576 5.06551 186.576 4.51306V3.19332C186.576 2.48741 186.576 1.8122 186.484 1.10629C186.454 1.01421 186.454 0.922139 186.454 0.830064C186.454 0.431073 186.761 0.36969 187.067 0.36969C187.558 0.36969 189.492 0.492455 189.983 0.553839C190.167 0.584531 190.474 0.645914 190.474 0.922139C190.474 1.13698 190.29 1.22905 190.075 1.35182C189.676 1.56666 189.646 1.87358 189.646 2.8864V4.51306C189.646 5.12689 189.891 5.37242 190.505 5.37242C191.272 5.40311 192.039 5.31104 192.837 5.31104C193.666 5.31104 193.605 5.74072 193.605 6.78424C193.605 7.82775 193.635 8.28812 192.837 8.28812C192.039 8.28812 191.272 8.19605 190.505 8.22674C189.891 8.22674 189.646 8.44158 189.646 9.05541V11.2038C189.646 11.787 189.922 12.0325 190.505 12.0325C191.456 12.0632 192.408 11.9711 193.359 11.9711C194.188 11.9711 194.157 12.4008 194.157 13.4443C194.157 14.4878 194.188 14.9175 193.359 14.9175C192.531 14.9175 191.702 14.8561 190.842 14.8561C190.566 14.8868 190.321 14.9789 190.321 15.2858C190.321 15.4086 190.351 15.47 190.413 15.5927C191.426 17.2808 192.623 18.8153 194.096 20.1658C194.249 20.3192 194.556 20.5648 194.556 20.8103C194.556 21.3934 193.236 22.6825 192.623 22.6825C191.855 22.6825 189.738 19.4906 189.308 18.754C189.247 18.6619 189.154 18.5698 189.001 18.5698C188.848 18.5698 188.755 18.6926 188.694 18.8153C187.804 21.7004 186.484 24.4933 184.367 26.6724C184.152 26.8872 183.906 27.1635 183.599 27.1635C183.016 27.1635 181.635 25.8744 181.635 25.2606C181.635 25.015 181.881 24.7695 182.065 24.6161C184.489 22.0687 185.717 19.1223 186.208 15.6541ZM203.794 13.1988H199.221C198.7 13.2602 198.423 13.5057 198.362 14.0581V14.5799C198.423 15.1017 198.7 15.3779 199.221 15.4393H203.794C204.316 15.3779 204.592 15.1017 204.654 14.5799V14.0581C204.592 13.5057 204.316 13.2602 203.794 13.1988ZM203.794 8.56435H199.221C198.7 8.62573 198.423 8.90196 198.362 9.42371V9.88409C198.423 10.4058 198.7 10.7128 199.221 10.7128H203.794C204.316 10.7128 204.592 10.4058 204.654 9.88409V9.42371C204.592 8.90196 204.316 8.62573 203.794 8.56435ZM199.221 6.13971H203.794C204.316 6.07833 204.592 5.8021 204.654 5.28035V4.88135C204.592 4.3596 204.316 4.05268 203.794 4.05268H199.221C198.7 4.05268 198.423 4.3596 198.362 4.88135V5.28035C198.423 5.8021 198.7 6.07833 199.221 6.13971ZM205.114 18.1401C204.531 18.1708 204.316 18.4164 204.316 18.9688V23.6032C204.316 24.3091 204.531 24.3398 205.145 24.3398H205.574C206.311 24.3398 206.403 24.1557 206.802 21.639C206.864 21.24 206.925 20.9638 207.385 20.9638C207.876 20.9638 209.503 21.2707 209.503 22.1914C209.503 23.0815 208.889 25.1071 208.552 25.9665C207.968 27.3783 207.17 27.3783 205.544 27.3783H204.316C202.812 27.3783 201.216 27.2862 201.216 25.3527C201.216 24.6774 201.247 24.0329 201.247 23.3577V18.9688C201.247 18.3857 200.971 18.1094 200.388 18.1094H198.546C197.902 18.1094 197.257 18.1708 196.613 18.1708C195.569 18.1708 195.231 17.8025 195.231 16.759C195.231 16.0224 195.293 15.2858 195.293 14.5492V4.81997C195.293 4.08337 195.231 3.34678 195.231 2.61018C195.231 1.59735 195.569 1.19836 196.582 1.19836C197.226 1.19836 197.902 1.25975 198.546 1.25975H204.439C205.083 1.25975 205.728 1.19836 206.372 1.19836C207.385 1.19836 207.723 1.59735 207.723 2.61018C207.723 3.34678 207.692 4.08337 207.692 4.81997V14.5492C207.692 15.2858 207.723 16.0224 207.723 16.759C207.723 17.7718 207.385 18.1708 206.372 18.1708C205.943 18.1708 205.544 18.1401 205.114 18.1401Z" fill="#4EA8E8"/>
<path d="M163.373 21.4241V3.86853C163.373 2.97847 163.312 2.02703 163.251 1.29043C163.251 1.19836 163.22 1.07559 163.22 0.983515C163.22 0.615215 163.496 0.553833 163.803 0.553833C164.264 0.553833 166.074 0.70729 166.627 0.768672C166.903 0.799366 167.455 0.799366 167.455 1.13697C167.455 1.35182 167.271 1.44389 167.057 1.59735C166.719 1.84288 166.688 2.36464 166.688 3.40815V21.1479C166.688 22.1607 166.75 23.1735 166.75 24.2171C166.75 25.5061 166.443 26.611 165.215 27.2248C164.079 27.808 162.422 27.8694 161.164 27.8694C160.151 27.8694 159.844 27.8387 159.537 27.1021C159.353 26.611 159.169 25.7823 159.169 25.2606C159.169 24.8309 159.261 24.524 159.752 24.524C160.059 24.524 160.826 24.6467 161.593 24.6467C163.496 24.6467 163.373 23.8795 163.373 21.4241ZM178.689 18.846C178.689 19.5826 177.031 20.7796 176.264 20.7796C175.834 20.7796 175.712 20.4727 175.466 20.0123C174.023 17.3114 171.537 13.4136 169.543 11.1424C169.389 10.9583 169.266 10.8048 169.266 10.5593C169.266 9.8227 170.862 8.7178 171.476 8.7178C171.814 8.7178 171.998 8.96333 172.213 9.20887C173.379 10.5593 174.422 12.0325 175.466 13.5057C175.988 14.273 178.689 18.2015 178.689 18.846ZM161.072 10.2524C161.072 10.4979 160.795 10.59 160.611 10.6514C160.12 10.8048 160.12 10.8969 159.875 11.4494C158.586 14.5492 156.744 17.6798 154.565 20.2272C154.35 20.4727 154.074 20.8103 153.706 20.8103C153.092 20.8103 151.281 19.6747 151.281 18.9995C151.281 18.6926 151.619 18.4163 151.803 18.2015C154.135 15.7462 156.253 12.3394 157.327 9.11679C157.389 8.90195 157.481 8.68711 157.726 8.68711C158.002 8.68711 158.831 9.05541 159.107 9.17817C159.384 9.30094 159.598 9.39301 159.813 9.4544C160.795 9.85339 161.072 9.97616 161.072 10.2524Z" fill="#4EA8E8"/>
<path d="M138.329 21.0865C138.329 20.2885 136.948 20.2578 136.365 20.2578C135.659 20.2578 134.155 20.5034 134.155 21.4548C134.155 22.4369 135.628 22.7745 136.396 22.7745C137.562 22.7745 138.329 22.3449 138.329 21.0865ZM137.715 2.4874C138.237 2.4874 140.508 2.88639 141.122 3.03984C141.276 3.07054 141.429 3.13192 141.429 3.31607C141.429 3.59229 141.245 3.65368 141.091 3.9299C140.907 4.23682 140.754 4.75857 140.754 6.109V6.96837C140.754 7.39805 140.938 7.76635 141.398 7.76635C141.92 7.76635 143.915 7.18321 144.467 6.99906C144.59 6.96837 144.805 6.90699 144.928 6.90699C145.542 6.90699 145.757 9.02471 145.757 9.48508C145.757 10.0682 145.542 10.2831 141.92 10.7741C141.245 10.8662 140.877 10.989 140.877 11.7563C140.877 12.3701 141.091 17.0659 141.122 17.8639C141.183 18.6619 141.49 18.7233 142.166 19.0609C143.393 19.6747 144.437 20.3499 145.48 21.2093C145.849 21.5162 146.278 21.8538 146.278 22.3756C146.278 23.0815 145.204 24.4933 144.498 24.4933C144.161 24.4933 143.884 24.2477 143.639 24.0329C143.301 23.6953 141.767 22.3449 141.368 22.3449C141.061 22.3449 140.969 22.5904 140.907 22.8359C140.355 24.8002 138.298 25.414 136.457 25.414C134.002 25.414 131.331 24.2477 131.331 21.4241C131.331 18.6619 133.756 17.557 136.15 17.557C136.549 17.557 136.948 17.5877 137.347 17.649H137.562C137.992 17.649 138.176 17.4035 138.176 17.0045C138.176 16.2372 138.022 13.3215 137.992 12.4315C137.961 12.1246 138.022 11.2652 137.255 11.2652C137.009 11.2652 134.83 11.388 133.603 11.388H133.204C132.436 11.388 131.147 11.3573 130.871 11.1424C130.595 10.9583 130.564 9.20886 130.564 8.80987C130.564 8.41087 130.595 8.04258 131.055 8.04258C131.424 8.04258 134.155 8.34949 135.751 8.34949H136.242C136.979 8.34949 137.685 8.28811 137.685 7.61289C137.685 6.96837 137.439 3.99128 137.316 3.22399C137.316 3.13192 137.286 3.00915 137.286 2.91708C137.286 2.64085 137.408 2.4874 137.715 2.4874ZM127.955 3.50022C128.354 3.68437 128.723 3.86852 128.907 3.9299C129.152 4.02197 129.705 4.23682 129.705 4.54373C129.705 4.72788 129.582 4.78927 129.429 4.85065C128.723 5.18826 128.539 5.46448 128.17 6.41592C127.127 8.99402 126.482 12.9532 126.482 15.7462C126.482 16.2372 126.574 19.1529 127.157 19.1529C127.372 19.1529 127.526 18.7539 127.833 18.048C127.986 17.7104 128.293 16.6976 128.661 16.6976C128.999 16.6976 129.981 17.3114 129.981 17.6797C129.981 18.1094 128.477 21.4855 128.477 23.2656C128.477 23.7567 128.539 24.2477 128.539 24.7388C128.539 25.9358 126.359 26.3041 126.206 26.3041C125.684 26.3041 125.439 25.7209 125.224 25.2913C123.843 22.3449 123.413 19.0916 123.413 15.8382C123.413 12.8612 123.781 10.1296 124.487 7.24459C124.825 5.89416 125.255 4.57442 125.592 3.22399C125.623 3.00915 125.715 2.70224 125.991 2.70224C126.206 2.70224 127.157 3.13192 127.955 3.50022Z" fill="#4EA8E8"/>
<path d="M114.605 1.84287C113.684 1.84287 112.978 2.57947 112.978 3.46953C112.978 4.39028 113.684 5.12688 114.605 5.12688C115.525 5.12688 116.262 4.39028 116.262 3.46953C116.262 2.57947 115.525 1.84287 114.605 1.84287ZM114.605 0.431061C116.293 0.431061 117.674 1.81218 117.674 3.46953C117.674 5.15757 116.293 6.53869 114.605 6.53869C112.916 6.53869 111.566 5.15757 111.566 3.46953C111.566 1.78149 112.916 0.431061 114.605 0.431061ZM110.277 13.9354C110.983 13.9354 113.039 15.9917 113.622 16.5442C114.113 17.0352 116.323 19.1836 116.323 19.7668C116.323 20.4113 114.697 21.8845 114.206 21.8845C113.899 21.8845 113.653 21.5469 113.469 21.3014C111.934 19.4292 110.768 18.1401 108.896 16.6055C108.681 16.4521 108.374 16.2065 108.374 15.9303C108.374 15.4699 109.632 13.9354 110.277 13.9354ZM98.2152 14.9482C98.4914 15.1016 99.3815 15.5313 99.3815 15.8689C99.3815 16.0224 99.1667 16.1145 99.0439 16.1759C98.5221 16.3293 98.5221 16.36 98.0924 16.8818C97.3865 17.7411 93.6729 22.0686 92.7828 22.0686C92.261 22.0686 90.6037 20.5954 90.6037 20.0123C90.6037 19.7054 91.0641 19.4292 91.3096 19.245C92.8442 18.1094 94.5936 16.2679 95.545 14.6106C95.6678 14.3957 95.852 13.9967 96.1282 13.9967C96.4351 13.9967 97.8469 14.764 98.2152 14.9482ZM96.2816 8.25742H101.07C101.714 8.25742 101.929 7.79705 101.929 7.2446V6.81491C101.929 5.61794 101.96 4.42097 101.806 3.224C101.806 3.10123 101.775 2.97846 101.775 2.8557C101.775 2.4874 102.021 2.42601 102.328 2.42601C102.85 2.42601 103.862 2.61016 104.446 2.67155C105.152 2.76362 105.857 2.79431 105.857 3.13192C105.857 3.31607 105.735 3.43884 105.612 3.53091C105.213 3.9299 105.182 4.14474 105.182 5.58725V7.2446C105.182 7.98119 105.581 8.25742 106.042 8.25742H110.86C112.18 8.25742 113.53 8.19604 114.881 8.19604C115.679 8.19604 115.648 8.62572 115.648 9.97615C115.648 11.081 115.617 11.48 114.819 11.48C113.5 11.48 112.18 11.4187 110.86 11.4187H106.103C105.612 11.4187 105.182 11.8176 105.182 12.3394V19.5212C105.182 20.1351 105.213 20.7182 105.213 21.332C105.213 22.9894 105.213 24.4319 103.494 25.2913C102.666 25.6903 101.131 26.1813 100.179 26.1813C99.6884 26.1813 99.4736 25.8744 99.0746 25.1071C98.8904 24.7388 98.4914 23.8488 98.4914 23.4498C98.4914 22.9587 99.1974 22.9894 99.5656 22.9587C102.052 22.7746 101.929 21.8231 101.929 19.6133V12.3394C101.929 11.8176 101.53 11.4187 101.008 11.4187H96.2816C94.9926 11.4187 93.7035 11.48 92.4145 11.48C91.6165 11.48 91.6165 10.9583 91.6165 9.94546C91.6165 8.6871 91.5858 8.19604 92.3838 8.19604C93.1818 8.19604 95.0233 8.25742 96.2816 8.25742Z" fill="#4EA8E8"/>
<path d="M64.2703 9.05541H65.0069C65.498 9.05541 66.0504 8.87126 66.0504 8.28812V6.20109C66.0504 4.48236 65.9276 2.8557 65.9276 2.82501C65.9276 2.61017 66.0197 2.5181 66.2346 2.5181C67.0018 2.5181 67.5236 2.57948 68.5057 2.67155C69.273 2.73294 69.9175 2.82501 69.9175 3.10124C69.9175 3.224 69.7948 3.34677 69.7334 3.40815C69.3344 3.89922 69.3651 4.14475 69.3651 6.13971V8.25743C69.3651 8.68711 69.7027 9.05541 70.1631 9.05541H75.5648C75.9945 9.05541 76.3321 8.77918 76.3321 8.16535C76.3321 7.06045 76.2707 3.86853 76.2093 2.94778C76.2093 2.82501 76.1786 2.70225 76.1786 2.57948C76.1786 2.36464 76.3628 2.21118 76.5776 2.21118C77.0073 2.21118 78.726 2.39533 79.2171 2.42602C79.7389 2.48741 80.1685 2.48741 80.1685 2.76363C80.1685 2.91709 80.0458 3.03985 79.8309 3.25469C79.6775 3.43884 79.6468 4.78928 79.6468 5.83279V6.99907C79.6468 7.30599 79.6775 7.6129 79.6775 7.91982V8.10397C79.6775 8.7178 79.9537 9.05541 80.5675 9.05541H81.3962C82.3476 9.05541 84.3733 8.99403 85.0178 8.99403C85.5703 8.99403 85.7851 9.23956 85.7851 10.4365C85.7851 11.9711 85.693 12.2473 84.9257 12.2473C83.7288 12.2473 82.5625 12.186 81.3962 12.186H80.5675C79.6161 12.186 79.6161 12.8305 79.6161 13.2295C79.524 18.5698 79.0023 22.2835 74.2144 25.4447C73.7233 25.7823 71.667 27.01 71.1452 27.01C70.6848 27.01 68.9047 25.2606 68.9047 24.7695C68.9047 24.524 69.1809 24.3705 69.3958 24.2784C75.2272 21.8538 76.3014 19.3064 76.3014 13.1681C76.3014 12.6463 76.0866 12.186 75.5034 12.186H70.1631C69.7334 12.186 69.3651 12.5236 69.3651 12.9532V15.8689C69.3651 16.7283 69.4265 17.557 69.4265 18.4163C69.4265 19.7668 69.273 19.644 67.4315 19.644C66.3573 19.644 65.989 19.6747 65.989 18.8767C65.989 17.8946 66.0504 16.9125 66.0504 15.9303V12.9839C66.0504 12.5236 65.6514 12.186 65.2217 12.186H64.2703C63.0733 12.186 61.8457 12.278 60.8328 12.278C60.0655 12.278 60.0349 11.6335 60.0349 10.8662C60.0349 9.39302 60.0655 8.99403 60.8021 8.99403C61.6922 8.99403 63.0733 9.05541 64.2703 9.05541Z" fill="#4EA8E8"/>
<path d="M42.9703 5.92486H48.5869C49.2007 5.92486 49.9373 5.89417 50.4591 5.7714C50.5512 5.74071 50.6739 5.71002 50.766 5.71002C51.2878 5.71002 52.362 7.30599 52.362 7.79705C52.362 7.9812 52.2699 8.10397 52.1778 8.25743C51.8095 8.80987 51.6561 9.14748 51.4105 9.76131C50.5512 11.7256 49.569 13.6285 48.4948 15.47C48.3721 15.6541 48.28 15.8383 48.28 16.0838C48.28 16.4828 48.5562 16.6669 48.8324 16.8818C49.2007 17.158 50.5512 18.0787 50.5512 18.4777C50.5512 18.9995 49.17 20.8103 48.5869 20.8103C48.4028 20.8103 48.2493 20.6875 48.1265 20.5648C47.6968 20.1965 47.2979 19.8895 46.8682 19.5212C46.684 19.3678 46.4692 19.2143 46.193 19.2143C45.7633 19.2143 45.4257 19.644 45.1494 19.9509C43.2466 22.0686 40.9447 23.8181 38.4587 25.1378C37.7835 25.5061 35.3895 26.7031 34.745 26.7031C33.947 26.7031 32.5352 24.7388 32.5352 24.3091C32.5352 23.9408 33.0569 23.8488 33.8549 23.6032C37.0469 22.5904 40.3309 20.5341 42.6327 18.0787C42.8476 17.8639 43.0931 17.6184 43.0931 17.3115C43.0931 17.0045 42.9396 16.8204 42.7248 16.6669C42.0189 16.2066 40.4229 15.3779 39.6556 15.0096C39.3487 14.8868 38.7349 14.672 38.7349 14.3344C38.7349 13.9047 39.9319 12.0325 40.6071 12.0325C41.1288 12.0325 43.9525 13.6591 44.5663 14.0274C44.7505 14.1195 44.9346 14.2116 45.1494 14.2116C45.7326 14.2116 46.0088 13.6285 46.8375 12.0018C46.8682 11.9097 46.9296 11.7563 47.0216 11.5721C47.3285 10.9276 47.8196 9.85339 47.8196 9.54647C47.8196 8.90195 47.0216 8.93264 46.5613 8.93264H40.6992C39.9626 8.93264 39.7477 9.17817 39.3487 9.73062C38.3359 11.1424 36.5865 13.2295 35.3588 14.4571C35.1133 14.7027 34.745 15.0403 34.3767 15.0403C33.8242 15.0403 31.8293 13.7512 31.8293 13.2295C31.8293 12.9839 32.1055 12.7691 32.2897 12.6463C35.3588 10.2831 39.0418 5.28034 40.3002 1.62804C40.3922 1.38251 40.515 0.860748 40.8526 0.860748C41.0981 0.860748 41.712 1.16766 42.5713 1.59735C42.8476 1.72011 44.3822 2.39533 44.3822 2.64086C44.3822 2.82501 44.2287 2.91709 44.0752 2.97847C43.6149 3.16262 43.5842 3.25469 43.1545 3.99129C43.0317 4.20613 42.8783 4.48236 42.6634 4.81997C42.5713 5.00411 42.4179 5.24965 42.4179 5.46449C42.4179 5.77141 42.6941 5.89417 42.9703 5.92486Z" fill="#4EA8E8"/>
<path d="M7.76707 4.97341H16.1152C16.6062 4.97341 17.128 4.97341 17.4349 4.91203C17.6191 4.91203 17.926 4.85065 18.1101 4.85065C18.7547 4.85065 20.0744 6.53868 20.0744 6.93768C20.0744 7.09113 19.7368 7.5822 19.3992 8.13465C19.215 8.41087 19.0309 8.71779 18.9081 8.93263C17.6805 10.989 16.4528 12.9225 14.9182 14.764C14.7648 14.9482 14.6727 15.1016 14.6727 15.3472C14.6727 15.7155 14.8568 15.8996 15.1331 16.0838C16.8211 17.1887 18.7854 18.6926 20.3199 20.043C21.0565 20.6875 21.8238 21.3934 22.5297 22.13C22.6525 22.2528 22.7446 22.3756 22.7446 22.5597C22.7446 23.2042 21.0565 25.015 20.412 25.015C20.0744 25.015 19.8596 24.8002 19.6447 24.5547C17.4349 21.9152 15.5934 20.442 12.8619 18.4777C12.6163 18.2936 12.4322 18.2015 12.156 18.2015C11.757 18.2015 11.4808 18.5084 11.2352 18.7233C8.96404 20.841 6.32456 22.6825 3.56232 24.0943C3.28609 24.2477 2.48811 24.6774 2.21189 24.6774C1.56736 24.6774 0.155548 22.6211 0.155548 22.0686C0.155548 21.7003 0.523847 21.5469 0.800072 21.4548C6.23249 19.3678 11.3887 14.672 14.4885 9.82269C14.642 9.57716 15.0103 9.0554 15.0103 8.77917C15.0103 8.3188 14.5806 8.25742 14.1202 8.25742H7.76707C6.44733 8.25742 5.12759 8.3188 3.80785 8.3188C2.97918 8.3188 3.04056 7.85843 3.04056 6.44661C3.04056 5.3724 3.00987 4.91203 3.77716 4.91203C5.0969 4.91203 6.41664 4.97341 7.76707 4.97341Z" fill="#4EA8E8"/>
</svg>
