<svg id="icon_calendaer" xmlns="http://www.w3.org/2000/svg" width="17.007" height="17.493" viewBox="0 0 17.007 17.493">
  <path id="パス_2860" data-name="パス 2860" d="M18.56,6.75H16.738V7.843a.366.366,0,0,1-.364.364h-.729a.366.366,0,0,1-.364-.364V6.75h-6.8V7.843a.366.366,0,0,1-.364.364H7.384a.366.366,0,0,1-.364-.364V6.75H5.2A1.828,1.828,0,0,0,3.375,8.572V20.963A1.828,1.828,0,0,0,5.2,22.785H18.56a1.828,1.828,0,0,0,1.822-1.822V8.572A1.828,1.828,0,0,0,18.56,6.75Zm.364,13.667a.914.914,0,0,1-.911.911H5.744a.914.914,0,0,1-.911-.911v-8.2a.366.366,0,0,1,.364-.364H18.56a.366.366,0,0,1,.364.364Z" transform="translate(-3.375 -5.292)" fill="#9a9a9a"/>
  <path id="パス_2861" data-name="パス 2861" d="M10.458,4.864a.366.366,0,0,0-.364-.364H9.364A.366.366,0,0,0,9,4.864V5.958h1.458Z" transform="translate(-5.356 -4.5)" fill="#9a9a9a"/>
  <path id="パス_2862" data-name="パス 2862" d="M26.208,4.864a.366.366,0,0,0-.364-.364h-.729a.366.366,0,0,0-.364.364V5.958h1.458Z" transform="translate(-12.845 -4.5)" fill="#9a9a9a"/>
</svg>
