<svg width="17" height="17" viewBox="0 0 17 17" fill="none" xmlns="http://www.w3.org/2000/svg">
<path d="M4.98943 5.85135C4.49685 5.85135 4.09753 6.25067 4.09753 6.74324C4.09753 7.23582 4.49685 7.63513 4.98943 7.63513H12.1246C12.6171 7.63513 13.0164 7.23582 13.0164 6.74324C13.0164 6.25067 12.6171 5.85135 12.1246 5.85135H4.98943Z" fill="white"/>
<path d="M4.98943 9.41885C4.49685 9.41885 4.09753 9.81817 4.09753 10.3108C4.09753 10.8034 4.49685 11.2027 4.98943 11.2027H12.1246C12.6171 11.2027 13.0164 10.8034 13.0164 10.3108C13.0164 9.81817 12.6171 9.41885 12.1246 9.41885H4.98943Z" fill="white"/>
<path fill-rule="evenodd" clip-rule="evenodd" d="M8.55699 0.5C4.12376 0.5 0.52995 4.09381 0.52995 8.52701C0.52995 9.80362 0.828566 11.0125 1.3602 12.0858L0.25137 14.4619C-0.0594781 15.128 0.0701207 15.9166 0.577802 16.4482C1.08547 16.9798 1.86727 17.1454 2.54698 16.8656L5.14635 15.7953C6.18232 16.2822 7.33894 16.554 8.55699 16.554C12.9901 16.554 16.584 12.9602 16.584 8.52701C16.584 4.09381 12.9901 0.5 8.55699 0.5ZM2.31372 8.52701C2.31372 5.07897 5.10892 2.28378 8.55699 2.28378C12.005 2.28378 14.8002 5.07897 14.8002 8.52701C14.8002 11.9751 12.005 14.7702 8.55699 14.7702C7.48751 14.7702 6.48336 14.5021 5.60541 14.0301C5.37011 13.9036 5.0905 13.8892 4.84347 13.9909L1.86781 15.2162L3.1647 12.4371C3.28716 12.1747 3.2746 11.8691 3.131 11.6177C2.61111 10.7072 2.31372 9.65314 2.31372 8.52701Z" fill="white"/>
</svg>
