<svg xmlns="http://www.w3.org/2000/svg" width="25" height="25" viewBox="0 0 25 25">
  <g id="icon_search" transform="translate(-3 -3)">
    <path id="パス_2986" data-name="パス 2986" d="M13.708,24.415A10.708,10.708,0,0,1,6.136,6.136,10.708,10.708,0,0,1,21.279,21.279,10.638,10.638,0,0,1,13.708,24.415ZM13.708,6a7.708,7.708,0,1,0,7.708,7.708A7.716,7.716,0,0,0,13.708,6Z" fill="#76c6ff"/>
    <path id="パス_2987" data-name="パス 2987" d="M30.925,32.425a1.5,1.5,0,0,1-1.061-.439l-5.95-5.95a1.5,1.5,0,0,1,2.121-2.121l5.95,5.95a1.5,1.5,0,0,1-1.061,2.561Z" transform="translate(-4.425 -4.425)" fill="#76c6ff"/>
  </g>
</svg>
