<svg width="14" height="17" viewBox="0 0 14 17" fill="none" xmlns="http://www.w3.org/2000/svg">
<path d="M4.83289 7.8363C4.37263 7.8363 3.99951 8.20941 3.99951 8.66967C3.99951 9.12993 4.37263 9.50305 4.83289 9.50305H9.83313C10.2933 9.50305 10.6665 9.12993 10.6665 8.66967C10.6665 8.20941 10.2933 7.8363 9.83313 7.8363H4.83289Z" fill="white"/>
<path d="M3.99951 12.0032C3.99951 11.5429 4.37263 11.1698 4.83289 11.1698H9.83313C10.2933 11.1698 10.6665 11.5429 10.6665 12.0032C10.6665 12.4635 10.2933 12.8365 9.83313 12.8365H4.83289C4.37263 12.8365 3.99951 12.4635 3.99951 12.0032Z" fill="white"/>
<path fill-rule="evenodd" clip-rule="evenodd" d="M3.16613 0.335938C1.78536 0.335938 0.666016 1.45528 0.666016 2.83606V14.5033C0.666016 15.884 1.78536 17.0034 3.16613 17.0034H11.4999C12.8807 17.0034 14 15.884 14 14.5033V6.02656C14 5.36349 13.7366 4.72757 13.2677 4.25871L10.0772 1.0682C9.60834 0.599338 8.97242 0.335938 8.30935 0.335938H3.16613ZM2.33276 2.83606C2.33276 2.3758 2.70588 2.00268 3.16613 2.00268H8.16637V5.33618C8.16637 5.79644 8.53948 6.16954 8.99974 6.16954H12.3332V14.5033C12.3332 14.9636 11.9602 15.3366 11.4999 15.3366H3.16613C2.70588 15.3366 2.33276 14.9636 2.33276 14.5033V2.83606ZM11.1546 4.5028L9.83311 3.18125V4.5028H11.1546Z" fill="white"/>
</svg>
