<svg xmlns="http://www.w3.org/2000/svg" xmlns:xlink="http://www.w3.org/1999/xlink" width="22" height="22" viewBox="0 0 22 22">
  <defs>
    <clipPath id="clip-path">
      <rect id="長方形_4653" data-name="長方形 4653" width="22" height="22" fill="#626262"/>
    </clipPath>
  </defs>
  <g id="icon_account" transform="translate(-35.519 -677.263)">
    <g id="グループ_4308" data-name="グループ 4308" transform="translate(35.519 677.263)">
      <g id="グループ_4307" data-name="グループ 4307" transform="translate(0 0)" clip-path="url(#clip-path)">
        <path id="パス_2837" data-name="パス 2837" d="M22.2,12.211a11.192,11.192,0,0,0,0-2.166c-1.317-.212-2.769-.565-2.913-1.1s.938-1.572,1.973-2.414a11.052,11.052,0,0,0-1.084-1.874c-1.246.475-2.681.9-3.076.5s.026-1.83.5-3.076A11.045,11.045,0,0,0,15.729.993c-.842,1.035-1.875,2.117-2.414,1.973s-.892-1.6-1.1-2.913a11.192,11.192,0,0,0-2.166,0c-.212,1.317-.565,2.769-1.1,2.913S7.369,2.029,6.527.993A11.045,11.045,0,0,0,4.652,2.077c.475,1.246.9,2.681.5,3.076s-1.83-.026-3.076-.5A11.05,11.05,0,0,0,.993,6.527C2.028,7.369,3.111,8.4,2.966,8.941s-1.6.892-2.913,1.1a11.2,11.2,0,0,0,0,2.166c1.317.212,2.769.565,2.913,1.1S2.028,14.887.993,15.729A11.048,11.048,0,0,0,2.077,17.6c1.246-.475,2.681-.9,3.076-.5s-.026,1.829-.5,3.076a11.05,11.05,0,0,0,1.874,1.084c.842-1.035,1.875-2.117,2.414-1.973s.892,1.6,1.1,2.913a11.193,11.193,0,0,0,2.166,0c.212-1.317.565-2.769,1.1-2.913s1.572.938,2.414,1.973A11.051,11.051,0,0,0,17.6,20.179c-.475-1.246-.9-2.681-.5-3.076s1.829.026,3.076.5a11.05,11.05,0,0,0,1.084-1.874c-1.035-.842-2.117-1.875-1.973-2.414s1.6-.892,2.913-1.1m-9,.991a2.933,2.933,0,1,1,0-4.147,2.933,2.933,0,0,1,0,4.147" transform="translate(0.169 0.653)" fill="#626262"/>
      </g>
    </g>
  </g>
</svg>
