<svg width="122" height="39" viewBox="0 0 122 39" fill="none" xmlns="http://www.w3.org/2000/svg">
<mask id="mask0_57_127" style="mask-type:luminance" maskUnits="userSpaceOnUse" x="0" y="33" width="53" height="6">
<path d="M0 33.1635H52.4737V39H0V33.1635Z" fill="white"/>
</mask>
<g mask="url(#mask0_57_127)">
<path d="M0 33.1635H52.4715V39H0V33.1635Z" fill="#3D73FF"/>
</g>
<mask id="mask1_57_127" style="mask-type:luminance" maskUnits="userSpaceOnUse" x="59" y="0" width="53" height="6">
<path d="M59.3032 0H111.779V5.83433H59.3032V0Z" fill="white"/>
</mask>
<g mask="url(#mask1_57_127)">
<path d="M59.3032 0H111.777V5.83433H59.3032V0Z" fill="#3D73FF"/>
</g>
<path d="M63.1696 37.4584C62.0795 37.4584 61.1417 37.2775 60.3539 36.92C59.5639 36.5559 58.9549 36.0418 58.5268 35.3754C58.0965 34.7112 57.8825 33.9322 57.8825 33.0364H60.7864C60.7864 33.6608 61.0004 34.1463 61.4307 34.4927C61.8588 34.8414 62.4325 35.0135 63.1519 35.0135C63.7742 35.0135 64.2663 34.8943 64.6259 34.6516C64.9834 34.4111 65.1644 34.0735 65.1644 33.6366C65.1644 33.1776 64.9459 32.8069 64.5112 32.5244C64.0809 32.2376 63.4035 31.9926 62.4811 31.7918C60.9563 31.4696 59.8265 30.9776 59.0917 30.3178C58.3613 29.6602 57.9972 28.804 57.9972 27.7493C57.9972 26.5555 58.4297 25.6132 59.2947 24.9248C60.1641 24.2363 61.3535 23.8921 62.8606 23.8921C63.8889 23.8921 64.7804 24.0686 65.5351 24.4217C66.2942 24.7747 66.8811 25.2734 67.3004 25.9133C67.7174 26.5555 67.9271 27.3146 67.9271 28.1906H65.0761C65.0761 27.608 64.8819 27.1491 64.4935 26.8137C64.1096 26.4782 63.5778 26.3105 62.8959 26.3105C62.2715 26.3105 61.7794 26.4341 61.4219 26.6813C61.0622 26.924 60.8835 27.2594 60.8835 27.6875C60.8835 28.0891 61.0799 28.4267 61.4749 28.7025C61.8743 28.9739 62.5716 29.2277 63.5668 29.4616C65.1908 29.8456 66.3604 30.3597 67.0797 31.0063C67.8035 31.655 68.1654 32.4935 68.1654 33.5218C68.1654 34.7531 67.7196 35.7174 66.8326 36.4169C65.9433 37.112 64.723 37.4584 63.1696 37.4584Z" fill="#3D73FF"/>
<path d="M73.028 37.1936L78.2091 24.148H81.113L86.2942 37.1936H83.1255L82.2517 34.9429H77.0705L76.1967 37.1936H73.028ZM77.8384 32.6127H81.5102L79.6655 27.8375L77.8384 32.6127Z" fill="#3D73FF"/>
<path d="M91.8791 37.1936V24.148H96.9897C98.0422 24.148 98.9536 24.3422 99.7259 24.7306C100.496 25.1145 101.096 25.6618 101.527 26.3723C101.955 27.0784 102.171 27.9081 102.171 28.8614C102.171 29.8103 101.955 30.6355 101.527 31.3417C101.096 32.0478 100.496 32.595 99.7259 32.9834C98.9536 33.3673 98.0422 33.5571 96.9897 33.5571H94.8448V37.1936H91.8791ZM94.8272 31.0062H96.7425C97.5126 31.0062 98.1062 30.8253 98.5255 30.459C98.9425 30.0949 99.1522 29.5675 99.1522 28.8791C99.1522 28.1972 98.9425 27.6698 98.5255 27.2991C98.1062 26.9284 97.5126 26.743 96.7425 26.743H94.8272V31.0062Z" fill="#3D73FF"/>
<path d="M114.312 37.4584C112.957 37.4584 111.755 37.1716 110.702 36.5934C109.654 36.0109 108.835 35.2121 108.248 34.1926C107.659 33.1754 107.366 32.0014 107.366 30.6708C107.366 29.3425 107.659 28.1685 108.248 27.1491C108.835 26.1318 109.654 25.3352 110.702 24.7571C111.755 24.1811 112.957 23.8921 114.312 23.8921C115.676 23.8921 116.881 24.1811 117.922 24.7571C118.968 25.3352 119.789 26.1318 120.385 27.1491C120.985 28.1685 121.285 29.3425 121.285 30.6708C121.285 32.0014 120.985 33.1754 120.385 34.1926C119.789 35.2121 118.968 36.0109 117.922 36.5934C116.881 37.1716 115.676 37.4584 114.312 37.4584ZM110.384 30.6708C110.384 31.4542 110.552 32.1449 110.888 32.7451C111.223 33.3409 111.684 33.8043 112.273 34.1397C112.86 34.4751 113.54 34.6428 114.312 34.6428C115.093 34.6428 115.78 34.4751 116.369 34.1397C116.962 33.8043 117.424 33.3409 117.755 32.7451C118.083 32.1449 118.249 31.4542 118.249 30.6708C118.249 29.8897 118.083 29.2012 117.755 28.6054C117.424 28.0119 116.962 27.5463 116.369 27.2108C115.78 26.8754 115.093 26.7077 114.312 26.7077C113.54 26.7077 112.86 26.8754 112.273 27.2108C111.684 27.5463 111.223 28.0119 110.888 28.6054C110.552 29.2012 110.384 29.8897 110.384 30.6708Z" fill="#3D73FF"/>
<path d="M7.60432 14.6074C6.51424 14.6074 5.57642 14.4265 4.78866 14.069C3.99868 13.7049 3.38965 13.1908 2.96157 12.5244C2.53127 11.8602 2.31723 11.0812 2.31723 10.1854H5.22116C5.22116 10.8098 5.4352 11.2953 5.86549 11.6417C6.29358 11.9904 6.8673 12.1625 7.58666 12.1625C8.20893 12.1625 8.70101 12.0433 9.06069 11.8006C9.41817 11.5601 9.59911 11.2225 9.59911 10.7856C9.59911 10.3266 9.38066 9.95586 8.94595 9.67342C8.51566 9.38655 7.83822 9.14162 6.91585 8.94081C5.39107 8.61865 4.26127 8.12657 3.52646 7.46679C2.79607 6.80921 2.43198 5.95304 2.43198 4.89827C2.43198 3.70448 2.86447 2.76225 3.72947 2.07378C4.59889 1.38531 5.78826 1.04108 7.29539 1.04108C8.32368 1.04108 9.21516 1.21761 9.96983 1.57067C10.7289 1.92373 11.3159 2.42243 11.7351 3.06235C12.1522 3.70448 12.3618 4.46356 12.3618 5.33959H9.51085C9.51085 4.75704 9.31666 4.29806 8.9283 3.96266C8.54434 3.62725 8.01254 3.45954 7.3307 3.45954C6.70622 3.45954 6.21414 3.58312 5.85667 3.83026C5.49699 4.07299 5.31825 4.40839 5.31825 4.83648C5.31825 5.23809 5.51464 5.5757 5.90963 5.85153C6.30903 6.12295 7.00632 6.37671 8.00151 6.61061C9.62559 6.99457 10.7951 7.50871 11.5145 8.15525C12.2382 8.804 12.6001 9.64252 12.6001 10.6708C12.6001 11.9021 12.1544 12.8664 11.2673 13.5659C10.3781 14.261 9.15779 14.6074 7.60432 14.6074Z" fill="#3D73FF"/>
<path d="M21.9907 14.3426V4.07738H17.8511V1.29703H29.0872V4.07738H24.9564V14.3426H21.9907Z" fill="#3D73FF"/>
<path d="M33.6712 14.3426L38.8524 1.29703H41.7563L46.9375 14.3426H43.7687L42.8949 12.0919H37.7138L36.8399 14.3426H33.6712ZM38.4817 9.76166H42.1535L40.3087 4.98651L38.4817 9.76166Z" fill="#3D73FF"/>
</svg>
