<svg width="37" height="37" viewBox="0 0 37 37" fill="none" xmlns="http://www.w3.org/2000/svg">
<path d="M30.3227 3.83691H8.90434C7.43183 3.83691 6.22705 5.0417 6.22705 6.5142V27.9325C6.22705 29.405 7.43183 30.6098 8.90434 30.6098H30.3227C31.7952 30.6098 33 29.405 33 27.9325V6.5142C33 5.0417 31.7952 3.83691 30.3227 3.83691ZM14.2589 26.5939H10.243V14.5461H14.2589V26.5939ZM12.251 12.2704C10.9123 12.2704 9.84139 11.1995 9.84139 9.86082C9.84139 8.52217 10.9123 7.45126 12.251 7.45126C13.5896 7.45126 14.6605 8.52217 14.6605 9.86082C14.6605 11.1995 13.5896 12.2704 12.251 12.2704ZM28.984 26.5939H24.9681V19.4991C24.9681 18.4282 24.031 17.4911 22.9601 17.4911C21.8892 17.4911 20.9522 18.4282 20.9522 19.4991V26.5939H16.9362V14.5461H20.9522V16.1525C21.6215 15.0815 23.094 14.2783 24.2988 14.2783C26.8422 14.2783 28.984 16.4202 28.984 18.9636V26.5939Z" fill="white"/>
</svg>
