<svg width="37" height="37" viewBox="0 0 37 37" fill="none" xmlns="http://www.w3.org/2000/svg">
<path d="M19 3C10.7313 3 4 8.54544 4 15.3606C4 21.4646 9.3375 26.5788 16.5437 27.551C17.0325 27.6557 17.6975 27.8788 17.8663 28.3C18.0163 28.682 17.965 29.2721 17.9137 29.6706L17.7088 30.9643C17.6525 31.3463 17.4087 32.4685 19.02 31.7826C20.6337 31.0992 27.665 26.6078 30.815 22.9323C32.97 20.5366 34 18.0816 34 15.3606C34 8.54544 27.2687 3 19 3ZM13.1287 19.4131H10.1462C9.715 19.4131 9.35875 19.0513 9.35875 18.615V12.5614C9.35875 12.1239 9.715 11.762 10.1462 11.762C10.5812 11.762 10.9337 12.1239 10.9337 12.5614V17.8156H13.1287C13.5637 17.8156 13.915 18.1749 13.915 18.615C13.915 19.0513 13.5625 19.4131 13.1287 19.4131ZM16.2113 18.615C16.2113 19.0513 15.8587 19.4131 15.4225 19.4131C14.9912 19.4131 14.6387 19.0513 14.6387 18.615V12.5614C14.6387 12.1239 14.9912 11.762 15.4262 11.762C15.8587 11.762 16.2113 12.1239 16.2113 12.5614V18.615ZM23.3875 18.615C23.3875 18.958 23.17 19.2618 22.8475 19.3715C22.7675 19.398 22.6812 19.4106 22.5987 19.4106C22.335 19.4106 22.11 19.2959 21.9613 19.0929L18.9075 14.884V18.6137C18.9075 19.05 18.5588 19.4119 18.1188 19.4119C17.6863 19.4119 17.3362 19.05 17.3362 18.6137V12.5614C17.3362 12.2184 17.5525 11.9146 17.8737 11.8061C17.9487 11.7771 18.0438 11.7645 18.1163 11.7645C18.36 11.7645 18.585 11.8969 18.735 12.0873L21.8125 16.3126V12.5614C21.8125 12.1239 22.165 11.762 22.6 11.762C23.0313 11.762 23.3875 12.1239 23.3875 12.5614V18.615ZM28.2062 14.7882C28.6425 14.7882 28.9938 15.15 28.9938 15.5888C28.9938 16.0264 28.6425 16.3882 28.2062 16.3882H26.0125V17.8156H28.2062C28.6425 17.8156 28.9938 18.1749 28.9938 18.615C28.9938 19.0513 28.6425 19.4131 28.2062 19.4131H25.2238C24.7925 19.4131 24.44 19.0513 24.44 18.615V12.5614C24.44 12.1239 24.7925 11.762 25.2275 11.762H28.21C28.6425 11.762 28.9938 12.1239 28.9938 12.5614C28.9938 13.004 28.6425 13.3608 28.2062 13.3608H26.0125V14.7882H28.2062Z" fill="white"/>
</svg>
