<svg width="37" height="37" viewBox="0 0 37 37" fill="none" xmlns="http://www.w3.org/2000/svg">
<path d="M32.9422 11.3694C32.5899 10.0597 31.5573 9.02727 30.2477 8.6746C27.8554 8.02002 18.2857 8.02002 18.2857 8.02002C18.2857 8.02002 8.71642 8.02002 6.32405 8.64979C5.0397 9.00208 3.98188 10.0599 3.62958 11.3694C3 13.7616 3 18.7227 3 18.7227C3 18.7227 3 23.7088 3.62958 26.0759C3.98225 27.3855 5.01451 28.4179 6.32424 28.7706C8.74161 29.4254 18.2861 29.4254 18.2861 29.4254C18.2861 29.4254 27.8554 29.4254 30.2477 28.7956C31.5574 28.4431 32.5899 27.4107 32.9426 26.1011C33.572 23.7088 33.572 18.7479 33.572 18.7479C33.572 18.7479 33.5971 13.7616 32.9422 11.3694ZM15.2389 23.3059V14.1395L23.1966 18.7227L15.2389 23.3059Z" fill="white"/>
</svg>
