<svg width="37" height="37" viewBox="0 0 37 37" fill="none" xmlns="http://www.w3.org/2000/svg">
<path d="M10.3803 7.75002C13.7546 10.2919 17.3847 15.4452 18.717 18.2106V25.5148C18.717 25.3594 18.6572 25.5351 18.5285 25.9136C17.8331 27.9629 15.1169 35.9612 8.90583 29.5671C5.63543 26.2006 7.14944 22.834 13.1025 21.8177C9.69687 22.399 5.86814 21.4382 4.81771 17.6716C4.5151 16.5881 4 9.91388 4 9.01246C4 4.4971 7.94554 5.91637 10.3803 7.75002ZM27.0537 7.75002C23.6794 10.2919 20.0494 15.4452 18.717 18.2106V25.5148C18.717 25.3594 18.7768 25.5351 18.9056 25.9136C19.601 27.9629 22.3172 35.9612 28.5282 29.5671C31.7986 26.2006 30.2846 22.834 24.3316 21.8177C27.7372 22.399 31.5659 21.4382 32.6163 17.6716C32.9189 16.5881 33.434 9.91388 33.434 9.01246C33.434 4.4971 29.489 5.91637 27.0537 7.75002Z" fill="white"/>
</svg>
