<svg width="1920" height="541" viewBox="0 0 1920 541" fill="none" xmlns="http://www.w3.org/2000/svg">
<g clip-path="url(#clip0_4_2)">
<path d="M1920 0H0V541H1920V0Z" fill="#60B5FF"/>
<mask id="mask0_4_2" style="mask-type:luminance" maskUnits="userSpaceOnUse" x="1160" y="-19" width="774" height="568">
<path d="M1934 -19H1160V549H1934V-19Z" fill="white"/>
</mask>
<g mask="url(#mask0_4_2)">
<g opacity="0.078">
<path d="M1817.97 -53.5382L1580.01 140.896C1579.44 141.354 1578.97 141.926 1578.64 142.576C1578.3 143.225 1578.1 143.938 1578.06 144.668C1578.01 145.398 1578.12 146.13 1578.37 146.816C1578.62 147.503 1579.01 148.13 1579.52 148.657L1579.87 149.038C1580.93 150.149 1582.37 150.826 1583.9 150.935C1585.43 151.045 1586.95 150.579 1588.15 149.629L1826.1 -44.8063C1826.67 -45.2648 1827.14 -45.8371 1827.48 -46.4866C1827.82 -47.1362 1828.01 -47.8488 1828.06 -48.5791C1828.11 -49.3094 1828 -50.0414 1827.75 -50.7284C1827.5 -51.4154 1827.1 -52.0423 1826.6 -52.5693L1826.24 -52.9484C1825.18 -54.0601 1823.75 -54.7368 1822.22 -54.8462C1820.69 -54.9556 1819.17 -54.4899 1817.96 -53.54L1817.97 -53.5382Z" fill="url(#paint0_linear_4_2)"/>
<path d="M1790.06 187.693L1397.27 501.996C1352.76 537.617 1349 601.107 1388.92 643.09C1428.84 685.074 1497.92 690.283 1542.43 654.663L1935.22 340.369C1979.73 304.747 1983.49 241.257 1943.57 199.273C1903.65 157.288 1834.57 152.08 1790.06 187.701L1790.06 187.693Z" fill="url(#paint1_linear_4_2)"/>
<path d="M1569.01 -74.6058L1371.38 91.9819C1366.08 96.3916 1361.72 101.83 1358.57 107.968C1355.43 114.107 1353.55 120.819 1353.07 127.7C1352.59 134.582 1353.5 141.49 1355.76 148.008C1358.02 154.527 1361.57 160.52 1366.21 165.629C1385.76 187.257 1420.07 189.506 1442.47 170.627L1640.09 4.04508C1645.4 -0.364673 1649.76 -5.80273 1652.9 -11.9414C1656.05 -18.0801 1657.92 -24.7924 1658.41 -31.6737C1658.89 -38.5551 1657.97 -45.4631 1655.72 -51.9815C1653.46 -58.4999 1649.9 -64.4938 1645.27 -69.602C1625.72 -91.2295 1591.4 -93.4795 1569.01 -74.6003L1569.01 -74.6058Z" fill="url(#paint2_linear_4_2)"/>
</g>
</g>
<mask id="mask1_4_2" style="mask-type:luminance" maskUnits="userSpaceOnUse" x="-365" y="-62" width="667" height="665">
<path d="M-365 603L302 603L302 -62L-365 -62L-365 603Z" fill="white"/>
</mask>
<g mask="url(#mask1_4_2)">
<g opacity="0.103">
<path d="M-116.969 509.538L120.988 315.104C121.558 314.646 122.026 314.074 122.363 313.424C122.7 312.775 122.897 312.062 122.944 311.332C122.99 310.602 122.884 309.87 122.632 309.184C122.38 308.497 121.988 307.87 121.48 307.343L121.129 306.962C120.07 305.851 118.634 305.174 117.103 305.065C115.571 304.955 114.054 305.421 112.848 306.371L-125.103 500.806C-125.673 501.265 -126.142 501.837 -126.479 502.487C-126.816 503.136 -127.014 503.849 -127.06 504.579C-127.106 505.309 -127 506.041 -126.748 506.728C-126.496 507.415 -126.104 508.042 -125.596 508.569L-125.244 508.948C-124.185 510.06 -122.749 510.737 -121.218 510.846C-119.686 510.956 -118.169 510.49 -116.963 509.54L-116.969 509.538Z" fill="url(#paint3_linear_4_2)"/>
<path d="M-146.092 432.318L246.7 118.015C291.21 82.394 294.97 18.9043 255.048 -23.0789C215.126 -65.0633 146.05 -70.2722 101.537 -34.6519L-291.253 279.642C-335.765 315.264 -339.518 378.754 -299.601 420.738C-259.679 462.723 -190.602 467.931 -146.09 432.31L-146.092 432.318Z" fill="url(#paint4_linear_4_2)"/>
<path d="M72.9158 565.706L270.543 399.119C275.848 394.709 280.205 389.271 283.352 383.132C286.499 376.994 288.371 370.282 288.855 363.4C289.338 356.519 288.424 349.611 286.166 343.092C283.908 336.574 280.355 330.58 275.719 325.472C256.169 303.843 221.852 301.594 199.456 320.474L1.83039 487.056C-3.47441 491.465 -7.83157 496.903 -10.9785 503.042C-14.1254 509.181 -15.997 515.893 -16.4805 522.774C-16.9639 529.656 -16.0493 536.564 -13.7916 543.082C-11.5339 549.601 -7.9799 555.594 -3.34378 560.703C16.2062 582.33 50.5232 584.58 72.9183 565.701L72.9158 565.706Z" fill="url(#paint5_linear_4_2)"/>
</g>
</g>
</g>
<defs>
<linearGradient id="paint0_linear_4_2" x1="1795.61" y1="72.8587" x2="1610.51" y2="23.2306" gradientUnits="userSpaceOnUse">
<stop stop-color="white"/>
<stop offset="1" stop-color="#BEE6FF"/>
</linearGradient>
<linearGradient id="paint1_linear_4_2" x1="1915.19" y1="487.927" x2="1417.3" y2="354.436" gradientUnits="userSpaceOnUse">
<stop stop-color="#49B2F4"/>
<stop offset="1" stop-color="#BEE6FF"/>
</linearGradient>
<linearGradient id="paint2_linear_4_2" x1="1629.14" y1="81.0996" x2="1382.34" y2="14.9277" gradientUnits="userSpaceOnUse">
<stop stop-color="white"/>
<stop offset="1" stop-color="#BEE6FF"/>
</linearGradient>
<linearGradient id="paint3_linear_4_2" x1="-94.6077" y1="383.141" x2="90.4918" y2="432.769" gradientUnits="userSpaceOnUse">
<stop stop-color="white"/>
<stop offset="1" stop-color="#BEE6FF"/>
</linearGradient>
<linearGradient id="paint4_linear_4_2" x1="-271.22" y1="132.084" x2="226.667" y2="265.575" gradientUnits="userSpaceOnUse">
<stop stop-color="white"/>
<stop offset="1" stop-color="#BEE6FF"/>
</linearGradient>
<linearGradient id="paint5_linear_4_2" x1="12.7855" y1="410.001" x2="259.589" y2="476.173" gradientUnits="userSpaceOnUse">
<stop stop-color="white"/>
<stop offset="1" stop-color="#BEE6FF"/>
</linearGradient>
<clipPath id="clip0_4_2">
<rect width="1920" height="541" fill="white"/>
</clipPath>
</defs>
</svg>
