<svg xmlns="http://www.w3.org/2000/svg" xmlns:xlink="http://www.w3.org/1999/xlink" width="722.048" height="223.61" viewBox="0 0 722.048 223.61">
  <defs>
    <clipPath id="clip-path">
      <ellipse id="楕円形_1" data-name="楕円形 1" cx="69" cy="69.5" rx="69" ry="69.5" transform="translate(0.211 -0.422)" fill="#fff" stroke="#707070" stroke-width="1"/>
    </clipPath>
    <clipPath id="clip-path-2">
      <circle id="楕円形_1-2" data-name="楕円形 1" cx="69" cy="69" r="69" transform="translate(0.404 0.073)" fill="#fff" stroke="#707070" stroke-width="1"/>
    </clipPath>
    <clipPath id="clip-path-3">
      <circle id="楕円形_4" data-name="楕円形 4" cx="69.5" cy="69.5" r="69.5" transform="translate(-0.028 -0.174)" fill="#fff" stroke="#707070" stroke-width="1"/>
    </clipPath>
  </defs>
  <g id="fig1" transform="translate(-330 -2252.455)">
    <path id="パス_892" data-name="パス 892" d="M-54.224,1.168V-2.544A13.529,13.529,0,0,1-55.688-.968,12.787,12.787,0,0,1-57.3.3a6.188,6.188,0,0,0-.392-.5Q-57.936-.48-58.16-.7V.768H-62.8V-3.824h4.64v2.688a11.16,11.16,0,0,0,1.152-.84q.592-.488,1.144-1.04a10.553,10.553,0,0,0,.952-1.08H-57.76V-5.584h3.536v-.928h-3.024v-6.48H-49.5v6.48H-52.56v.928h3.92V-4.1h-3.232a10.3,10.3,0,0,0,1.064,1.128,14.934,14.934,0,0,0,1.28,1.056,11.788,11.788,0,0,0,1.24.808,2.462,2.462,0,0,0-.384.36q-.224.248-.44.52t-.344.464a13.586,13.586,0,0,1-1.608-1.248,13.345,13.345,0,0,1-1.5-1.568V1.168Zm-9.12-10.32v-1.472h5.632v1.472Zm.784-2.24v-1.52h4.144v1.52Zm-.016,6.752V-6.128h4.16V-4.64Zm0-2.256V-8.368h4.16V-6.9Zm1.44,6.208h1.3v-1.68h-1.3ZM-52.56-7.92h1.376V-9.056H-52.56Zm0-2.5h1.376v-1.136H-52.56Zm-3.008,2.5h1.344V-9.056h-1.344Zm0-2.5h1.344v-1.136h-1.344Zm9.312,11.5q-.32-.176-.776-.376a3.8,3.8,0,0,0-.792-.264,8.018,8.018,0,0,0,.792-1.632,14.2,14.2,0,0,0,.552-1.928,9.588,9.588,0,0,0,.224-1.768l1.648.24a16.119,16.119,0,0,1-.24,1.648q.192.208.384.392t.4.36V-5.392h-3.12V-6.9h7.04v1.5H-42.4v1.1h2.016v1.456H-42.4V-1.3a9.21,9.21,0,0,0,1.28.352,10.915,10.915,0,0,0,1.584.192q-.176-.272-.456-.632a3.142,3.142,0,0,0-.5-.536,6.988,6.988,0,0,0,.76-.392q.424-.248.84-.544t.736-.568H-39.6v-7.232h1.84q.064-.208.144-.456t.144-.456h-2.72v-1.408h7.264v1.408h-2.736q-.064.208-.136.456t-.152.456h2.528v7.232h-1.44a12.544,12.544,0,0,0,1.1.8,8.375,8.375,0,0,0,1.128.64,4.846,4.846,0,0,0-.5.568q-.28.36-.456.632.336-.016.592-.024t.384-.024a5.222,5.222,0,0,0-.176.52q-.1.328-.176.664t-.112.56h-5.056A17.59,17.59,0,0,1-41.128.688a8.531,8.531,0,0,1-2.288-.712,7.17,7.17,0,0,1-1.832-1.288q-.192.64-.44,1.248A8.892,8.892,0,0,1-46.256,1.088ZM-46.368-7.6v-5.376h5.6V-7.6Zm8.224,6.9q.592,0,1.328-.008t1.48-.024q.744-.016,1.352-.032-.368-.224-.8-.52T-35.6-1.9q-.384-.32-.64-.576l.944-.944h-2.448l.928.944a6.394,6.394,0,0,1-.648.584q-.408.328-.864.632t-.84.528q.24.016.5.024T-38.144-.7Zm.24-4.032h2.8v-.816h-2.8Zm0-1.9h2.8v-.816h-2.8Zm0-1.92h2.8v-.8h-2.8Zm-6.784-.3h2.224v-.848h-2.224Zm0-2h2.224V-11.7h-2.224ZM-22.784.848A10.07,10.07,0,0,1-25.152.592a3.646,3.646,0,0,1-1.664-.824,1.951,1.951,0,0,1-.608-1.5,2.311,2.311,0,0,1,.464-1.4A4.679,4.679,0,0,1-25.68-4.28a12.056,12.056,0,0,1,1.856-.952V-5.36a1.084,1.084,0,0,0-.28-.824,1.124,1.124,0,0,0-.712-.3,3.3,3.3,0,0,0-1.408.208,3.774,3.774,0,0,0-1.328.928q-.192.192-.5.488t-.608.584q-.3.288-.528.48l-1.392-1.376a10.637,10.637,0,0,0,2.112-1.856,12.872,12.872,0,0,0,1.68-2.384l-1.632.056q-.736.024-1.1.008l-.064-1.84q.544.048,1.512.048t2.1-.048a7.181,7.181,0,0,0,.416-1.984l1.9.1a7.678,7.678,0,0,1-.32,1.76q1.184-.1,2.2-.216a10.034,10.034,0,0,0,1.56-.28l.112,1.776q-.448.08-1.168.168t-1.592.168q-.872.08-1.784.144-.208.448-.472.9t-.552.872a3.463,3.463,0,0,1,1.3-.256,2.542,2.542,0,0,1,1.592.5A2.369,2.369,0,0,1-21.968-5.9q.9-.3,1.832-.552t1.816-.456l.544,1.76q-1.12.16-2.176.392t-1.968.52v2.128h-1.888V-3.52a5.98,5.98,0,0,0-1.28.792,1.1,1.1,0,0,0-.48.776q0,.544.656.76a6.859,6.859,0,0,0,2,.216,11.735,11.735,0,0,0,1.224-.072q.68-.072,1.36-.192t1.192-.264q-.032.208-.056.6t-.024.776q0,.384.016.576a13.408,13.408,0,0,1-1.76.3A17.275,17.275,0,0,1-22.784.848Zm9.44-.192V-11.328h3.184q.144-.368.3-.816t.272-.832a3.44,3.44,0,0,0,.136-.528l2.336.224a7.948,7.948,0,0,1-.36.872q-.264.568-.52,1.08h5.36V.656Zm2-1.7h6.7V-2.8h-6.7Zm0-3.424h6.7v-1.76h-6.7Zm0-3.408h6.7v-1.76h-6.7ZM1.792.784V-9.888h5.2v-3.6h2v3.6h5.184V.784ZM3.84-.944H6.992V-3.76H3.84Zm5.152,0h3.152V-3.76H8.992ZM3.84-5.52H6.992V-8.144H3.84Zm5.152,0h3.152V-8.144H8.992ZM18.4.112q-.112-.656-.176-1.608t-.088-2.08q-.024-1.128,0-2.328t.1-2.344q.072-1.144.192-2.12a16.22,16.22,0,0,1,.28-1.664l1.872.384a9.983,9.983,0,0,0-.3,1.5q-.128.92-.208,2.016t-.1,2.248q-.024,1.152.008,2.24T20.08-1.68a10.654,10.654,0,0,0,.208,1.424Zm6.8-.864q-2.768-.08-3.136-1.808A3.461,3.461,0,0,1,22-3.52a4.745,4.745,0,0,1,.24-1.168l1.68.416a1.769,1.769,0,0,0-.12.544,1.23,1.23,0,0,0,.056.432q.208.576,1.7.624A14.173,14.173,0,0,0,27.1-2.728q.824-.072,1.616-.216a13.187,13.187,0,0,0,1.384-.32q-.032.224-.072.608t-.056.776q-.016.392,0,.648a13.676,13.676,0,0,1-1.608.3q-.856.112-1.68.152T25.2-.752ZM22.8-8.56l-.112-1.968a13.561,13.561,0,0,0,1.488.1q.88.016,1.832-.024t1.824-.144a9.935,9.935,0,0,0,1.448-.264L29.2-8.928q-.64.112-1.488.2t-1.752.136q-.9.048-1.728.056T22.8-8.56ZM39.072,1.168A5.366,5.366,0,0,0,38.72.352a3.227,3.227,0,0,0-.48-.72V.816H33.36V-3.792h4.88V-.4a9.547,9.547,0,0,0,1.776-.672,10.023,10.023,0,0,0,1.536-.944,9.642,9.642,0,0,1-.944-1.48,9.03,9.03,0,0,1-.64-1.592H38.8v-1.6h1.04a8.158,8.158,0,0,0-.688-.568,5.783,5.783,0,0,0-.784-.5,5.391,5.391,0,0,0,.832-.856,2.85,2.85,0,0,0,.472-.992,5.578,5.578,0,0,0,.152-1.416v-1.952H44.9v3.584a.289.289,0,0,0,.072.224.473.473,0,0,0,.3.064h.288a.441.441,0,0,0,.408-.24,2.969,2.969,0,0,0,.168-1.1,4.6,4.6,0,0,0,.76.256q.488.128.856.192a6.017,6.017,0,0,1-.28,1.656,1.4,1.4,0,0,1-.624.8,2.312,2.312,0,0,1-1.08.216H44.72a2.5,2.5,0,0,1-1.28-.232.95.95,0,0,1-.352-.856v-2.976H41.632v.5a6.469,6.469,0,0,1-.408,2.336,5.228,5.228,0,0,1-1.368,1.872H45.84l.7.7A11.536,11.536,0,0,1,44.16-2a8.3,8.3,0,0,0,1.576.9,8.194,8.194,0,0,0,1.8.552,5.532,5.532,0,0,0-.544.808,6.3,6.3,0,0,0-.416.84,9.42,9.42,0,0,1-2.064-.72A8.557,8.557,0,0,1,42.8-.72a10.9,10.9,0,0,1-1.736,1.1A11.056,11.056,0,0,1,39.072,1.168ZM32.656-9.12v-1.456H38.7V-9.12Zm.784-2.24v-1.5h4.64v1.5Zm-.016,6.752V-6.08H38.08v1.472Zm0-2.256V-8.336H38.08v1.472ZM34.992-.656h1.616V-2.32H34.992ZM42.864-3.2A7.086,7.086,0,0,0,44.1-5.088H41.744A5.745,5.745,0,0,0,42.864-3.2Zm6.944,4.272a3.758,3.758,0,0,0-.44-.464,6.108,6.108,0,0,0-.584-.472,3.208,3.208,0,0,0-.56-.328A9.129,9.129,0,0,0,49.88-1.816,12.531,12.531,0,0,0,51.232-3.9a9.7,9.7,0,0,0,.832-2.168L54-5.44a13.479,13.479,0,0,1-.8,2,4.185,4.185,0,0,0,1.856,1.888V-7.008H51.392V-8.7h9.216v1.7H57.056v1.856h4.3V-3.44h-4.3V-.976q.464.064.976.1t1.088.032q.7,0,1.5-.016t1.552-.072q.76-.056,1.336-.136-.064.176-.16.56T63.176.28a6.391,6.391,0,0,0-.088.648q-.608,0-1.32.008l-1.4.016Q59.68.96,59.12.96A15.177,15.177,0,0,1,55.968.68a6.114,6.114,0,0,1-2.184-.888A5.922,5.922,0,0,1,52.24-1.776,15.028,15.028,0,0,1,49.808,1.072Zm-.848-8.96v-3.68h5.952v-1.888h2.08v1.888h6.032v3.6h-1.9V-9.984H50.864v2.1Z" transform="translate(397 2427.455)" fill="#000205"/>
    <path id="パス_890" data-name="パス 890" d="M-55.144,0l4.272-11.2h1.632L-44.968,0h-2.1l-.864-2.464h-4.3L-53.1,0Zm3.52-4.176h3.1l-1.536-4.368ZM-43.672,0V-11.2h1.84V0Zm4.7,1.216A5.391,5.391,0,0,0-39.3.44a5.608,5.608,0,0,0-.464-.776A10.379,10.379,0,0,0-37.424-.88a3.342,3.342,0,0,0,1.4-.952,3.164,3.164,0,0,0,.656-1.48H-38.92V-5.024h3.664v-1.5h-1.232v-.848a13.592,13.592,0,0,1-2.9,1.936,3.75,3.75,0,0,0-.288-.432,6.025,6.025,0,0,0-.416-.5A1.919,1.919,0,0,0-40.5-6.72a10.088,10.088,0,0,0,1.464-.792,13.179,13.179,0,0,0,1.368-1.016q-.368-.384-.848-.816a7.178,7.178,0,0,0-.848-.672l1.1-1.088a8.614,8.614,0,0,1,.88.648q.5.408.9.776.368-.416.672-.816a6.852,6.852,0,0,0,.512-.768h-3.552v-1.5h5.168l.848.576a10.909,10.909,0,0,1-1.12,2.032,14.31,14.31,0,0,1-1.552,1.872h5.76a14.118,14.118,0,0,1-1.768-2.08,12.368,12.368,0,0,1-1.3-2.384l1.488-.592a11.181,11.181,0,0,0,1.024,1.792q.3-.224.648-.52t.656-.592q.312-.3.488-.488l1.168,1.056q-.24.256-.592.584t-.712.64q-.36.312-.664.536.16.176.336.352l.352.352q.3-.224.68-.552t.72-.656q.344-.328.536-.552l1.184,1.056q-.224.24-.552.56t-.68.624q-.352.3-.656.544a9.935,9.935,0,0,0,2.48,1.36,4.649,4.649,0,0,0-.656.712,4.585,4.585,0,0,0-.512.792,14.282,14.282,0,0,1-2.7-1.7v.912h-1.424v1.5h3.648v1.712h-3.648V-1.12A.4.4,0,0,0-30.1-.8a.766.766,0,0,0,.464.1h1.36a1.219,1.219,0,0,0,.616-.128.858.858,0,0,0,.336-.5,6.772,6.772,0,0,0,.216-1.08,4.883,4.883,0,0,0,.84.432q.5.208.856.32A8.671,8.671,0,0,1-25.92,0a1.523,1.523,0,0,1-.7.784A2.773,2.773,0,0,1-27.8.992h-2.576A2.179,2.179,0,0,1-31.656.7,1.1,1.1,0,0,1-32.04-.24V-3.312h-1.52A4.762,4.762,0,0,1-35.176-.264,7.675,7.675,0,0,1-38.968,1.216Zm5.488-6.24h1.44v-1.5h-1.44Zm12.08,6.08V-5.792h9.44V1.056Zm-2.672-7.728V-8.32h4q-.16-.4-.368-.832a6.359,6.359,0,0,0-.432-.768l1.888-.56h-4.08v-1.568h5.328v-1.5h2.112v1.5h5.264v1.568h-4.16l1.888.48a6.926,6.926,0,0,1-.272.752q-.192.464-.416.928h3.984v1.648Zm6.144-1.648h2.48q.256-.5.52-1.128a9.379,9.379,0,0,0,.376-1.032h-4.3a6.866,6.866,0,0,1,.312.648q.168.392.336.792T-17.928-8.32Zm-1.44,7.84h5.392V-1.664h-5.392Zm0-2.608h5.392V-4.24h-5.392ZM-4.952.368a5.9,5.9,0,0,0-.272-.6Q-5.4-.576-5.608-.9a2.983,2.983,0,0,0-.384-.5A7.287,7.287,0,0,0-2.64-2.928,4.239,4.239,0,0,0-1.288-5.744q-1.392.016-2.656.048L-6.1-5.64q-.888.024-1.16.056l-.128-1.84q.176.016.744.024t1.416,0q.848-.008,1.872-.024l2.112-.032V-9.664a32.166,32.166,0,0,1-3.536.32,4.232,4.232,0,0,0-.128-.6q-.1-.344-.216-.68a3.248,3.248,0,0,0-.232-.528q1.04.016,2.208-.08T-.808-11.5Q.36-11.68,1.4-11.944a13.149,13.149,0,0,0,1.808-.584L3.96-10.9a13.5,13.5,0,0,1-1.464.48Q1.672-10.192.76-10v2.5Q2.008-7.536,3.1-7.568t1.84-.072q.752-.04.96-.072v1.92q-.24-.016-1-.016T3.048-5.8q-1.088.008-2.32.024a6.153,6.153,0,0,1-1.616,3.9A8.847,8.847,0,0,1-4.952.368ZM10.488-1.44v-1.6q.4.032,1.488.048t2.608.016v-3.04q-1.008,0-1.84.008t-1.088.04V-7.552q.368.032,1.352.04t2.408.008q1.376,0,2.36-.016t1.3-.032v1.584q-.256-.032-1.008-.04t-1.888-.008v3.04q1.456-.016,2.52-.032t1.368-.032v1.6q-.384-.032-1.624-.048t-3.1-.016q-1.04,0-2.064.008L11.5-1.48Q10.744-1.472,10.488-1.44ZM28.52.208a5.432,5.432,0,0,0-.384-.776,3.354,3.354,0,0,0-.5-.68,9.246,9.246,0,0,0,4.472-2.336,7.666,7.666,0,0,0,2.1-4.56l1.552.256a10.249,10.249,0,0,1-1.336,3.9A8.385,8.385,0,0,1,31.952-1.4,13.315,13.315,0,0,1,28.52.208ZM27.528-4.7a5.383,5.383,0,0,0-.208-.816q-.16-.5-.36-.976a5.284,5.284,0,0,0-.36-.736l1.456-.528a5.472,5.472,0,0,1,.352.768q.192.5.36,1t.248.856Zm2.736-.608a4.93,4.93,0,0,0-.176-.824q-.144-.5-.32-.992a4.056,4.056,0,0,0-.336-.744l1.456-.48a8.207,8.207,0,0,1,.328.784q.184.5.336,1a8.028,8.028,0,0,1,.216.856ZM42.872.608a3.856,3.856,0,0,0-.336-.56q-.224-.32-.472-.632a3.482,3.482,0,0,0-.456-.488,17.166,17.166,0,0,0,3.608-1.88,16.425,16.425,0,0,0,2.976-2.6,13.456,13.456,0,0,0,2.1-3.1q-.672.032-1.432.072T47.48-8.52q-.624.024-.928.024a16.24,16.24,0,0,1-1.72,1.912,15.464,15.464,0,0,1-1.976,1.592,5.392,5.392,0,0,0-.408-.432q-.264-.256-.544-.512a3.331,3.331,0,0,0-.52-.4,11.408,11.408,0,0,0,2.24-1.72A14.383,14.383,0,0,0,45.5-10.3a11.077,11.077,0,0,0,1.248-2.392l1.856.656q-.192.448-.4.88t-.448.848q.688-.016,1.5-.04t1.48-.064q.672-.04.96-.088l1.2.688a15.385,15.385,0,0,1-2.216,4.272,18.232,18.232,0,0,1-3.456,3.568A19.252,19.252,0,0,1,42.872.608Z" transform="translate(944 2431.455)" fill="#000205"/>
    <path id="パス_889" data-name="パス 889" d="M-119.144,0l4.272-11.2h1.632L-108.968,0h-2.1l-.864-2.464h-4.3L-117.1,0Zm3.52-4.176h3.1l-1.536-4.368ZM-107.672,0V-11.2h1.84V0Zm5.552.416a3.281,3.281,0,0,0-.448-.352q-.3-.208-.624-.384a2.748,2.748,0,0,0-.544-.24,10.594,10.594,0,0,0,1.3-1.752,22.674,22.674,0,0,0,1.184-2.248,25.316,25.316,0,0,0,.992-2.5q-.816.1-1.576.224t-1.256.256q-.016-.208-.08-.56t-.144-.7a2.45,2.45,0,0,0-.16-.5q.368-.032.96-.088t1.312-.128q.72-.072,1.44-.12.288-1.008.472-1.976a16.441,16.441,0,0,0,.248-1.8l1.888.336q-.08.736-.256,1.576t-.432,1.72q.32-.016.576-.024t.448-.008a3.081,3.081,0,0,1,1.144.2,1.637,1.637,0,0,1,.808.7,3.02,3.02,0,0,1,.352,1.392,9.92,9.92,0,0,1-.208,2.264,13.8,13.8,0,0,1-.728,2.7A2.943,2.943,0,0,1-96.472-.208a2.772,2.772,0,0,1-1.552.4A3.783,3.783,0,0,1-99.7-.16q.016-.384,0-.928a4.789,4.789,0,0,0-.1-.9,3.876,3.876,0,0,0,1.568.352,1.055,1.055,0,0,0,.664-.216,2.053,2.053,0,0,0,.536-.864,12.038,12.038,0,0,0,.512-1.912,6.729,6.729,0,0,0,.192-1.736.963.963,0,0,0-.3-.744,1.1,1.1,0,0,0-.64-.176q-.448,0-1.072.048-.5,1.488-1.128,2.928t-1.312,2.664A15.487,15.487,0,0,1-102.12.416Zm11.664-4.16a11.326,11.326,0,0,0-.7-1.024q-.448-.592-.976-1.192t-1.024-1.1a6.441,6.441,0,0,0-.864-.76l1.408-1.184a10.337,10.337,0,0,1,.9.776q.512.488,1.056,1.064t1.008,1.136a8.9,8.9,0,0,1,.72.976Zm.72-6.592a7.774,7.774,0,0,0-1.064-.808,7.924,7.924,0,0,0-1.112-.616l.672-.912q.272.128.7.384t.848.536a6.582,6.582,0,0,1,.664.488ZM-90.824-8.8a7.327,7.327,0,0,0-1.048-.816,9.026,9.026,0,0,0-1.112-.64l.672-.9a7.16,7.16,0,0,1,.7.392q.424.264.84.544a6.987,6.987,0,0,1,.656.488Zm9.2,10.144a5.716,5.716,0,0,0-.464-.832,5.514,5.514,0,0,0-.592-.768,9.072,9.072,0,0,0,2.24-1.056,8.155,8.155,0,0,0,1.664-1.456A10.173,10.173,0,0,1-80.28-6.4a10.445,10.445,0,0,1-.784,1.216,3.85,3.85,0,0,0-.752-.48,7.6,7.6,0,0,0-.9-.4q.144-.176.28-.36t.264-.392h-3.568v3.952a.428.428,0,0,0,.112.328.719.719,0,0,0,.464.1h1.408a.881.881,0,0,0,.824-.36,3.678,3.678,0,0,0,.312-1.384,5.211,5.211,0,0,0,.52.216q.328.12.672.224t.584.168a8.136,8.136,0,0,1-.44,1.824,1.636,1.636,0,0,1-.728.88,2.651,2.651,0,0,1-1.216.24H-85.88a2.163,2.163,0,0,1-1.3-.3,1.138,1.138,0,0,1-.376-.952L-87.576-8.5h3.936v-2.256h-4.1v-1.712h5.968v4.992a14.622,14.622,0,0,0,.856-1.936,20.59,20.59,0,0,0,.632-2.08,14.7,14.7,0,0,0,.352-1.936l1.84.24a19.893,19.893,0,0,1-.56,2.768h5.008V-8.7h-1.232a17.535,17.535,0,0,1-.544,3.2,10.58,10.58,0,0,1-1.12,2.656,11.066,11.066,0,0,0,1.552,1.312A18.6,18.6,0,0,0-73.112-.384a5.191,5.191,0,0,0-.464.456,6.108,6.108,0,0,0-.472.584,5.129,5.129,0,0,0-.344.544,13.9,13.9,0,0,1-3.264-2.544A10.944,10.944,0,0,1-81.624,1.344Zm3.9-5.728a9.386,9.386,0,0,0,.728-2.064A12.428,12.428,0,0,0-76.7-8.7h-2.176a10.072,10.072,0,0,0,.32,2.344A7.515,7.515,0,0,0-77.72-4.384Zm5.744.688V-5.1h3.2q-.112-.32-.24-.64t-.24-.56H-71.7V-7.712h6.064v-.656h-4.608V-9.68h4.608v-.656h-5.84v-1.408h3.888q-.192-.384-.408-.784a7.9,7.9,0,0,0-.424-.7l1.648-.336a10.358,10.358,0,0,1,.544.888q.288.52.48.936h2.24q.24-.416.52-.952a7.761,7.761,0,0,0,.392-.84l1.792.448q-.128.256-.344.616t-.44.728h3.664v1.408h-5.824v.656h4.32v1.312h-4.32v.656h6.016V-6.3h-2.352l-.216.576q-.12.32-.248.624h3.072V-3.7Zm2.512,4.832V-3.1h9.536v4.24Zm1.888-1.424h5.76V-1.664h-5.76ZM-63.752-5.1h1.344q.128-.3.256-.624t.208-.576h-1.808Zm-3.184,0h1.3V-6.3H-67.4q.112.256.232.576T-66.936-5.1ZM-50.984.016a5.9,5.9,0,0,0-.12-.6q-.088-.36-.2-.72a2.774,2.774,0,0,0-.256-.6,3.5,3.5,0,0,0,1.44-.2.746.746,0,0,0,.384-.728V-7.376q-.736,0-1.528.008l-1.5.016q-.712.008-1.224.024t-.72.032v-1.84q.32.016,1.1.032t1.8.024q1.024.008,2.08.008v-2.9h2v2.9q.8,0,1.608-.008t1.512-.024q.7-.016,1.216-.024t.7-.008V-7.3q-.288-.032-1.056-.048t-1.808-.024q-1.04-.008-2.176-.008v4.928a2.815,2.815,0,0,1-.28,1.328A1.776,1.776,0,0,1-49-.32,6.641,6.641,0,0,1-50.984.016ZM-54.248-1.7a3.86,3.86,0,0,0-.4-.472q-.256-.264-.528-.512a3.351,3.351,0,0,0-.48-.376,7.04,7.04,0,0,0,1.184-.912A11.392,11.392,0,0,0-53.408-5.12a7.939,7.939,0,0,0,.792-1.168l1.6.912A9.42,9.42,0,0,1-51.9-4.008a12.729,12.729,0,0,1-1.144,1.3A9.5,9.5,0,0,1-54.248-1.7Zm10.672-.112a8.554,8.554,0,0,0-.8-1.176q-.512-.648-1.072-1.264a8.471,8.471,0,0,0-1.056-1l1.328-1.072a11.117,11.117,0,0,1,1.152.992q.608.592,1.152,1.208a11.285,11.285,0,0,1,.88,1.112,3.892,3.892,0,0,0-.552.328q-.312.216-.592.448A3.4,3.4,0,0,0-43.576-1.808Zm.032-8.256a1.513,1.513,0,0,1-1.12-.472,1.553,1.553,0,0,1-.464-1.128,1.526,1.526,0,0,1,.464-1.12,1.526,1.526,0,0,1,1.12-.464,1.526,1.526,0,0,1,1.12.464,1.526,1.526,0,0,1,.464,1.12,1.553,1.553,0,0,1-.464,1.128A1.513,1.513,0,0,1-43.544-10.064Zm0-.688a.889.889,0,0,0,.64-.264.868.868,0,0,0,.272-.648A.85.85,0,0,0-42.9-12.3a.889.889,0,0,0-.64-.264.889.889,0,0,0-.64.264.85.85,0,0,0-.272.632.868.868,0,0,0,.272.648A.889.889,0,0,0-43.544-10.752ZM-32.952.256V-6.672q-1.216.832-2.488,1.544a27.66,27.66,0,0,1-2.488,1.24,5.612,5.612,0,0,0-.352-.56q-.224-.32-.472-.624a2.733,2.733,0,0,0-.488-.48,20.975,20.975,0,0,0,2.88-1.3,27.919,27.919,0,0,0,2.872-1.776,24.119,24.119,0,0,0,2.536-2.048A12.8,12.8,0,0,0-29.08-12.8l1.664,1.136a16.259,16.259,0,0,1-1.592,1.8,25.522,25.522,0,0,1-1.944,1.72v8.4Zm11.9-.7-1.088-1.968a12.293,12.293,0,0,0,2.392-.792,24.044,24.044,0,0,0,2.52-1.3,25.355,25.355,0,0,0,2.4-1.6A22.961,22.961,0,0,0-12.768-7.84a12.4,12.4,0,0,0,1.5-1.68,5.528,5.528,0,0,0,.216.672q.152.4.328.776a6.093,6.093,0,0,0,.3.584,15.035,15.035,0,0,1-1.96,2.04,25,25,0,0,1-2.6,1.984A28.341,28.341,0,0,1-17.96-1.728,21.52,21.52,0,0,1-21.048-.448ZM-19.336-7.5a5.744,5.744,0,0,0-.584-.528q-.376-.3-.832-.64t-.888-.616a5.827,5.827,0,0,0-.752-.424l1.28-1.616q.32.176.752.448t.888.592q.456.32.856.632a7.082,7.082,0,0,1,.64.552ZM-2.52.5V-12.4H-.568v4.848l.72-1.024q.384.272,1.016.68t1.352.832q.72.424,1.392.776a10.8,10.8,0,0,0,1.136.528,3.832,3.832,0,0,0-.44.5,7.84,7.84,0,0,0-.456.672Q3.944-4.24,3.816-4q-.384-.208-.952-.536t-1.2-.728q-.632-.4-1.216-.792T-.568-6.768V.5ZM16.52.848A10.07,10.07,0,0,1,14.152.592a3.646,3.646,0,0,1-1.664-.824,1.951,1.951,0,0,1-.608-1.5,2.311,2.311,0,0,1,.464-1.4,4.679,4.679,0,0,1,1.28-1.152,12.056,12.056,0,0,1,1.856-.952V-5.36a1.084,1.084,0,0,0-.28-.824,1.124,1.124,0,0,0-.712-.3,3.3,3.3,0,0,0-1.408.208,3.774,3.774,0,0,0-1.328.928q-.192.192-.5.488t-.608.584q-.3.288-.528.48L8.728-5.168A10.637,10.637,0,0,0,10.84-7.024a12.872,12.872,0,0,0,1.68-2.384l-1.632.056q-.736.024-1.1.008l-.064-1.84q.544.048,1.512.048t2.1-.048a7.181,7.181,0,0,0,.416-1.984l1.9.1a7.678,7.678,0,0,1-.32,1.76q1.184-.1,2.2-.216a10.034,10.034,0,0,0,1.56-.28l.112,1.776q-.448.08-1.168.168T16.448-9.7q-.872.08-1.784.144-.208.448-.472.9t-.552.872a3.463,3.463,0,0,1,1.3-.256,2.542,2.542,0,0,1,1.592.5A2.369,2.369,0,0,1,17.336-5.9q.9-.3,1.832-.552t1.816-.456l.544,1.76q-1.12.16-2.176.392t-1.968.52v2.128H15.5V-3.52a5.98,5.98,0,0,0-1.28.792,1.1,1.1,0,0,0-.48.776q0,.544.656.76a6.859,6.859,0,0,0,2,.216,11.735,11.735,0,0,0,1.224-.072q.68-.072,1.36-.192T20.168-1.5q-.032.208-.056.6t-.024.776q0,.384.016.576a13.408,13.408,0,0,1-1.76.3A17.275,17.275,0,0,1,16.52.848ZM25.96.656V-11.328h3.184q.144-.368.3-.816t.272-.832a3.44,3.44,0,0,0,.136-.528l2.336.224a7.948,7.948,0,0,1-.36.872q-.264.568-.52,1.08h5.36V.656Zm2-1.7h6.7V-2.8h-6.7Zm0-3.424h6.7v-1.76h-6.7Zm0-3.408h6.7v-1.76h-6.7ZM47.832,1.392a3.985,3.985,0,0,0-.64-.624,3.972,3.972,0,0,0-.768-.512,5.042,5.042,0,0,0,.512-.344A3.6,3.6,0,0,0,47.384-.5q-.544.1-1.312.208T44.44-.08q-.864.1-1.7.184t-1.52.144Q40.536.3,40.1.336l-.24-1.616q.528-.016,1.448-.072l1.96-.12V-2.4h-3.12V-3.648h3.12v-.624h-2.9V-9.008h2.9v-.576H39.864v-1.344h3.408v-.544q-.72.048-1.384.08t-1.176.032a4.233,4.233,0,0,0-.16-.7,4.415,4.415,0,0,0-.256-.68q.624.016,1.536-.032t1.9-.144q.992-.1,1.856-.232a10.718,10.718,0,0,0,1.392-.3l.832,1.312a9.817,9.817,0,0,1-1.224.264q-.744.12-1.592.216v.72h3.408v.992H49.72V-13.36h1.792v3.424h2.7q0,.128,0,.5t-.008.8q-.008.432-.008.768,0,1.888-.048,3.392t-.144,2.464a5.521,5.521,0,0,1-.416,1.888,1.852,1.852,0,0,1-.9.936,3.5,3.5,0,0,1-1.456.264h-.96q-.064-.464-.192-1T49.88-.72H50.9a1.758,1.758,0,0,0,.64-.1.772.772,0,0,0,.392-.432,4,4,0,0,0,.248-1.04q.1-.8.168-2.184t.088-3.016V-8.08H51.5a17.585,17.585,0,0,1-1.04,5.832A8.164,8.164,0,0,1,47.832,1.392ZM47.72-.864a7.817,7.817,0,0,0,1.416-2.9A17.839,17.839,0,0,0,49.7-8.08H48.248v-1.5H45v.576h2.88v4.736H45v.624h2.832V-2.4H45v.784q.9-.08,1.632-.168t1.088-.152ZM42.056-5.392h1.216v-.752H42.056Zm2.944,0h1.216v-.752H45Zm-2.944-1.76h1.216V-7.9H42.056Zm2.944,0h1.216V-7.9H45ZM58.216-2,58.1-4.032q.336.016,1.064.024l1.672.016q.944.008,1.944,0l1.9-.016q.9-.008,1.5-.024V-8q-.5,0-1.336.008l-1.832.016q-.992.008-1.96.024t-1.728.04q-.76.024-1.128.056l-.064-2.016q.384.032,1.168.048t1.792.016q1.008,0,2.088-.008l2.088-.016q1.008-.008,1.784-.024t1.16-.032V-2.16q-.9,0-2.04.008t-2.368.024q-1.224.016-2.344.04l-1.976.04Q58.632-2.032,58.216-2ZM74.44.112A9.431,9.431,0,0,0,73.856-.7a4.5,4.5,0,0,0-.7-.736,15.815,15.815,0,0,0,3.224-2.016,19.3,19.3,0,0,0,2.728-2.672q-.736-.56-1.424-1.008a10.517,10.517,0,0,0-1.232-.7L77.608-9.2a11.72,11.72,0,0,1,1.264.688q.672.416,1.36.9A15.934,15.934,0,0,0,81.456-9.76a14.214,14.214,0,0,0,.824-2.176l1.872.64A19.627,19.627,0,0,1,81.784-6.48q.72.576,1.36,1.144a13.948,13.948,0,0,1,1.088,1.064,6.843,6.843,0,0,0-.5.488q-.28.3-.536.592t-.416.52a13.909,13.909,0,0,0-.952-1.056Q81.256-4.3,80.6-4.88a20.663,20.663,0,0,1-2.816,2.816A17.635,17.635,0,0,1,74.44.112Zm16.512-.56L89.864-2.416a12.293,12.293,0,0,0,2.392-.792,24.044,24.044,0,0,0,2.52-1.3,25.355,25.355,0,0,0,2.4-1.6A22.962,22.962,0,0,0,99.232-7.84a12.4,12.4,0,0,0,1.5-1.68,5.527,5.527,0,0,0,.216.672q.152.4.328.776a6.093,6.093,0,0,0,.3.584,15.035,15.035,0,0,1-1.96,2.04,25,25,0,0,1-2.6,1.984A28.341,28.341,0,0,1,94.04-1.728,21.52,21.52,0,0,1,90.952-.448ZM92.664-7.5a5.744,5.744,0,0,0-.584-.528q-.376-.3-.832-.64t-.888-.616a5.827,5.827,0,0,0-.752-.424l1.28-1.616q.32.176.752.448t.888.592q.456.32.856.632a7.081,7.081,0,0,1,.64.552ZM109.48.5V-12.4h1.952v4.848l.72-1.024q.384.272,1.016.68t1.352.832q.72.424,1.392.776a10.8,10.8,0,0,0,1.136.528,3.832,3.832,0,0,0-.44.5,7.84,7.84,0,0,0-.456.672q-.208.344-.336.584-.384-.208-.952-.536t-1.2-.728q-.632-.4-1.216-.792t-1.016-.712V.5ZM-51.63,15.99-55,12.62l-3.37,3.36-.42-.42,3.37-3.36-3.37-3.36.43-.42L-55,11.78l3.37-3.36.42.42-3.37,3.36,3.38,3.36Zm-.46-3.01a.751.751,0,0,1-.55-.23.751.751,0,0,1-.23-.55.746.746,0,0,1,.23-.555.759.759,0,0,1,.55-.225.771.771,0,0,1,.56.225.746.746,0,0,1,.23.555.751.751,0,0,1-.23.55A.762.762,0,0,1-52.09,12.98Zm-5.84,0a.746.746,0,0,1-.555-.23.759.759,0,0,1-.225-.55.754.754,0,0,1,.225-.555.754.754,0,0,1,.555-.225.759.759,0,0,1,.55.225.746.746,0,0,1,.23.555.751.751,0,0,1-.23.55A.751.751,0,0,1-57.93,12.98Zm2.92-2.9a.751.751,0,0,1-.55-.23.751.751,0,0,1-.23-.55.751.751,0,0,1,.23-.55.751.751,0,0,1,.55-.23.751.751,0,0,1,.55.23.751.751,0,0,1,.23.55.751.751,0,0,1-.23.55A.751.751,0,0,1-55.01,10.08Zm0,5.85a.751.751,0,0,1-.55-.23.751.751,0,0,1-.23-.55.751.751,0,0,1,.23-.55.751.751,0,0,1,.55-.23.751.751,0,0,1,.55.23.751.751,0,0,1,.23.55.751.751,0,0,1-.23.55A.751.751,0,0,1-55.01,15.93Zm6.77-.07q-.13-.22-.345-.53a2.383,2.383,0,0,0-.435-.49,10.42,10.42,0,0,0,1.5-.82,11.842,11.842,0,0,0,1.435-1.1,12.061,12.061,0,0,0,1.25-1.3,9.029,9.029,0,0,0,.955-1.4q-.49.03-1.075.07t-1.16.075q-.575.035-1.04.07l-.715.055-.14-1.27q.25,0,.75-.01t1.12-.035q.62-.025,1.235-.055t1.11-.075Q-43.3,9-43.06,8.96l.81.52a8.265,8.265,0,0,1-.62,1.375,10.638,10.638,0,0,1-.86,1.3q.35.27.745.61t.775.7q.38.36.7.69t.53.59a4.016,4.016,0,0,0-.53.415q-.28.255-.49.485a7.821,7.821,0,0,0-.49-.615q-.3-.345-.645-.7t-.695-.69q-.35-.335-.66-.6a13.28,13.28,0,0,1-1.8,1.61A13.137,13.137,0,0,1-48.24,15.86Zm10.22.63a5.467,5.467,0,0,0-.32-.585,2.352,2.352,0,0,0-.36-.465,10.094,10.094,0,0,0,2.1-1.05,10.084,10.084,0,0,0,1.8-1.49q-.3-.2-.59-.37a5.647,5.647,0,0,0-.56-.29l.69-.92a10.4,10.4,0,0,1,1.22.67q.26-.37.49-.755a6.446,6.446,0,0,0,.4-.785l-.9.045q-.485.025-.9.04l-.66.025a10.3,10.3,0,0,1-.99,1.275,9.058,9.058,0,0,1-1.22,1.115,5.767,5.767,0,0,0-.42-.46,2.177,2.177,0,0,0-.46-.37A7.968,7.968,0,0,0-37.4,10.93a9.088,9.088,0,0,0,1.07-1.47,7.291,7.291,0,0,0,.685-1.53l1.15.36q-.11.31-.24.615t-.28.6q.44-.01.955-.025t.965-.04q.45-.025.69-.055l.78.42a10.755,10.755,0,0,1-.62,1.515,11.581,11.581,0,0,1-.8,1.355q.38.28.715.565a5.421,5.421,0,0,1,.555.535,2.414,2.414,0,0,0-.315.28q-.175.18-.33.37a3.742,3.742,0,0,0-.245.33,10.632,10.632,0,0,0-1.17-1.11,10.266,10.266,0,0,1-1.9,1.64A12.4,12.4,0,0,1-38.02,16.49Zm10.3-.77-.68-1.23a7.683,7.683,0,0,0,1.495-.495,15.027,15.027,0,0,0,1.575-.81,15.847,15.847,0,0,0,1.5-1A14.351,14.351,0,0,0-22.545,11.1a7.747,7.747,0,0,0,.935-1.05,3.455,3.455,0,0,0,.135.42q.1.25.2.485a3.808,3.808,0,0,0,.19.365,9.4,9.4,0,0,1-1.225,1.275,15.625,15.625,0,0,1-1.625,1.24,17.713,17.713,0,0,1-1.86,1.085A13.45,13.45,0,0,1-27.72,15.72Zm1.07-4.41a3.59,3.59,0,0,0-.365-.33q-.235-.19-.52-.4t-.555-.385a3.642,3.642,0,0,0-.47-.265l.8-1.01q.2.11.47.28t.555.37q.285.2.535.4a4.426,4.426,0,0,1,.4.345Zm8.53,5.22a4.611,4.611,0,0,0-.325-.6,2.428,2.428,0,0,0-.355-.455,10.7,10.7,0,0,0,2.1-1.06,9.707,9.707,0,0,0,1.79-1.49,6.7,6.7,0,0,0-1.15-.66l.7-.92a10.4,10.4,0,0,1,1.22.67q.26-.37.485-.755a8.329,8.329,0,0,0,.4-.785l-.9.045q-.485.025-.9.04l-.66.025a10.026,10.026,0,0,1-1,1.275A9.662,9.662,0,0,1-17.93,12.98q-.17-.2-.43-.46a2.177,2.177,0,0,0-.46-.37,7.614,7.614,0,0,0,1.32-1.19,9.508,9.508,0,0,0,1.07-1.47,6.783,6.783,0,0,0,.68-1.53l1.16.37q-.11.3-.24.6t-.28.6q.44-.01.95-.025t.965-.04q.455-.025.695-.055l.77.42a9.984,9.984,0,0,1-.61,1.515,10.781,10.781,0,0,1-.81,1.355q.38.28.715.565a5.421,5.421,0,0,1,.555.535,2.977,2.977,0,0,0-.305.28q-.175.18-.335.37a2.707,2.707,0,0,0-.25.34,6.973,6.973,0,0,0-.52-.545q-.3-.285-.64-.565a10.471,10.471,0,0,1-1.9,1.63A12.852,12.852,0,0,1-18.12,16.53Zm6.71-6.68a5.085,5.085,0,0,0-.495-.68,6.481,6.481,0,0,0-.545-.58l.55-.43a3.957,3.957,0,0,1,.35.355q.21.235.41.475a4.419,4.419,0,0,1,.31.41Zm.92-.75a5.013,5.013,0,0,0-.5-.665,6.25,6.25,0,0,0-.56-.575l.55-.43a4.76,4.76,0,0,1,.355.35q.215.23.415.47a4.42,4.42,0,0,1,.31.41Zm1.41,3.75q.01-.14.01-.38v-.48q0-.24-.01-.38.19.01.675.02t1.16.02q.675.01,1.445.015t1.54.005q.77,0,1.455-.01t1.185-.02q.5-.01.71-.03-.01.13-.015.37t0,.485q0,.245.005.375-.25-.01-.735-.02l-1.13-.02q-.645-.01-1.37-.01H-5.62q-.74,0-1.41.01l-1.2.02Q-8.77,12.83-9.08,12.85ZM3.86,16.31V8.25H5.08v3.03l.45-.64q.24.18.635.43t.845.515q.45.265.87.485a6.748,6.748,0,0,0,.71.33,2.4,2.4,0,0,0-.275.315q-.155.2-.29.42a3.491,3.491,0,0,0-.2.365q-.24-.12-.6-.33t-.75-.455q-.395-.245-.76-.5t-.635-.45v4.54ZM8.66,9.7a4.856,4.856,0,0,0-.495-.675A5.858,5.858,0,0,0,7.61,8.45l.56-.43a3.957,3.957,0,0,1,.35.355q.21.235.41.475a4.42,4.42,0,0,1,.31.41Zm-.92.73a5.324,5.324,0,0,0-.49-.68,5.289,5.289,0,0,0-.55-.58l.56-.43q.14.13.35.365t.4.475a4.891,4.891,0,0,1,.3.41Zm4.89,5.58a2.988,2.988,0,0,0-.195-.34q-.135-.21-.29-.42a2,2,0,0,0-.3-.33A8.7,8.7,0,0,0,15,13.195a6.246,6.246,0,0,0,1.79-2.815q-.47.01-1.065.03l-1.225.04-1.2.04-1.005.035q-.43.015-.63.025l-.08-1.34q.29.02.765.03t1.045.01q.57,0,1.18-.005t1.175-.02q.565-.015,1.025-.035t.73-.05l.81.43a8.726,8.726,0,0,1-1.115,2.865,8.278,8.278,0,0,1-1.94,2.17A8.826,8.826,0,0,1,12.63,16.01ZM19,9.54a1.007,1.007,0,0,1-1-1,.946.946,0,0,1,.3-.7.97.97,0,0,1,.7-.29.99.99,0,0,1,.99.99.97.97,0,0,1-.29.705A.946.946,0,0,1,19,9.54Zm0-.43a.539.539,0,0,0,.4-.165.551.551,0,0,0,.165-.405A.563.563,0,0,0,19,7.98a.551.551,0,0,0-.4.165.539.539,0,0,0-.165.395.563.563,0,0,0,.57.57Zm3.96,7.3q-.06-.14-.165-.34t-.235-.4a2.489,2.489,0,0,0-.25-.33,8.067,8.067,0,0,0,2.9-1.455,6,6,0,0,0,1.75-2.305q-.5.02-1.135.05l-1.29.06q-.655.03-1.24.06t-1.01.055q-.425.025-.585.045l-.1-1.25q.26.01.74.01t1.08-.01q.6-.01,1.24-.03t1.245-.045q.605-.025,1.085-.06t.74-.065l.68.41a7.806,7.806,0,0,1-1.85,3.425A8.424,8.424,0,0,1,22.96,16.41Zm-.29-6.9V8.31q.38.03.99.04t1.41.01q.77,0,1.38-.02l.98-.03v1.2q-.38-.03-.955-.04T25.07,9.46q-.45,0-.915.005t-.86.015Q22.9,9.49,22.67,9.51Zm9.61,6.21-.68-1.23a7.683,7.683,0,0,0,1.5-.495,15.027,15.027,0,0,0,1.575-.81,15.847,15.847,0,0,0,1.5-1A14.351,14.351,0,0,0,37.455,11.1a7.747,7.747,0,0,0,.935-1.05,3.455,3.455,0,0,0,.135.42q.1.25.2.485a3.808,3.808,0,0,0,.19.365,9.4,9.4,0,0,1-1.225,1.275,15.625,15.625,0,0,1-1.625,1.24,17.713,17.713,0,0,1-1.86,1.085A13.45,13.45,0,0,1,32.28,15.72Zm1.07-4.41a3.59,3.59,0,0,0-.365-.33q-.235-.19-.52-.4t-.555-.385a3.642,3.642,0,0,0-.47-.265l.8-1.01q.2.11.47.28t.555.37q.285.2.535.4a4.426,4.426,0,0,1,.4.345Zm12.42,4.78a1.923,1.923,0,0,0-.15-.38,3.26,3.26,0,0,0-.255-.425,2.155,2.155,0,0,0-.285-.335,3.762,3.762,0,0,0,2.085-.895,2.311,2.311,0,0,0,.755-1.615,2.465,2.465,0,0,0-.27-1.32,2.6,2.6,0,0,0-2.02-1.37,14.023,14.023,0,0,1-.3,1.9,9.95,9.95,0,0,1-.6,1.82,5.249,5.249,0,0,1-.915,1.44,1.515,1.515,0,0,1-.795.51,1.426,1.426,0,0,1-.815-.11,1.946,1.946,0,0,1-.74-.57,2.757,2.757,0,0,1-.49-.925,3.229,3.229,0,0,1-.14-1.145A4.139,4.139,0,0,1,42.29,9.7a4.378,4.378,0,0,1,1.47-.83,4.707,4.707,0,0,1,1.77-.23,3.98,3.98,0,0,1,1.43.34,3.735,3.735,0,0,1,1.955,2.04,3.462,3.462,0,0,1,.225,1.51,3.449,3.449,0,0,1-.96,2.3A4.658,4.658,0,0,1,45.77,16.09Zm-3.25-2.02a.385.385,0,0,0,.23.08.346.346,0,0,0,.24-.12,3.529,3.529,0,0,0,.665-1.02,8.291,8.291,0,0,0,.51-1.49,9.912,9.912,0,0,0,.265-1.69,3.1,3.1,0,0,0-2.07,1.595,3.177,3.177,0,0,0-.35,1.305,1.884,1.884,0,0,0,.125.815A1.234,1.234,0,0,0,42.52,14.07Zm12.61,2.54a2.48,2.48,0,0,0-.465-.365,3.179,3.179,0,0,0-.535-.285,5.858,5.858,0,0,0,1.285-1.225,7.276,7.276,0,0,0,.945-1.585,8.72,8.72,0,0,0-.87-.215q-.44-.085-.86-.125a9.623,9.623,0,0,1-.535.9,4.7,4.7,0,0,1-.555.685,2.345,2.345,0,0,1-.915.6,1.928,1.928,0,0,1-.95.1,1.271,1.271,0,0,1-.745-.385,1.166,1.166,0,0,1-.29-.83,1.668,1.668,0,0,1,.38-1.06,2.6,2.6,0,0,1,1.1-.77,5.055,5.055,0,0,1,1.775-.31q.27-.57.52-1.21t.45-1.27q-.37.1-.775.195t-.76.165q-.355.07-.585.1l-.32-1.15q.26-.01.67-.06t.865-.13q.455-.08.86-.17a4.99,4.99,0,0,0,.645-.18l.84.45q-.17.7-.48,1.59a18.848,18.848,0,0,1-.71,1.75q.38.05.775.13t.805.19a6.578,6.578,0,0,0,.14-.695,6,6,0,0,0,.06-.685l1.19.29a7.713,7.713,0,0,1-.24,1.42q.4.13.785.28t.735.32a2.592,2.592,0,0,0-.22.32,3.757,3.757,0,0,0-.215.415q-.1.215-.155.375-.31-.17-.635-.335a6.955,6.955,0,0,0-.665-.3,8.4,8.4,0,0,1-.99,1.715A6.312,6.312,0,0,1,55.13,16.61Zm-3.44-2.88a.278.278,0,0,0,.17.2.557.557,0,0,0,.375.025,1.077,1.077,0,0,0,.485-.3,3.048,3.048,0,0,0,.3-.36,5.442,5.442,0,0,0,.32-.5,2.927,2.927,0,0,0-1.27.365Q51.65,13.44,51.69,13.73Z" transform="translate(935 2459.455)" fill="gray"/>
    <path id="パス_891" data-name="パス 891" d="M-45.344.656V-11.328h3.184q.144-.368.3-.816t.272-.832a3.44,3.44,0,0,0,.136-.528l2.336.224a7.948,7.948,0,0,1-.36.872q-.264.568-.52,1.08h5.36V.656Zm2-1.7h6.7V-2.8h-6.7Zm0-3.424h6.7v-1.76h-6.7Zm0-3.408h6.7v-1.76h-6.7Zm13.792,9.04A5,5,0,0,0-29.96.344a3.677,3.677,0,0,0-.616-.808,6.381,6.381,0,0,0,3.232-1.912A5.684,5.684,0,0,0-25.984-5.5H-28.4V-6.928q-.512.48-1.032.888a11.853,11.853,0,0,1-1.032.728,6.309,6.309,0,0,0-.616-.768,7.708,7.708,0,0,0-.776-.752,10.145,10.145,0,0,0,1.832-1.3,12.529,12.529,0,0,0,1.68-1.8,8.862,8.862,0,0,0,1.176-2l1.824.912a11.246,11.246,0,0,1-1.12,1.9,14.3,14.3,0,0,1-1.472,1.728h7.792a10.28,10.28,0,0,1-1.512-1.792,6.91,6.91,0,0,1-.936-2.064h-2.64v-1.808h4.208A6.043,6.043,0,0,0-19.5-9.768,10.451,10.451,0,0,0-16.112-7.28a5.515,5.515,0,0,0-.488.528q-.264.32-.5.648a6.852,6.852,0,0,0-.376.584q-.5-.256-.968-.56t-.936-.656q-.016,1.008-.088,2.12t-.192,2.1a10.477,10.477,0,0,1-.3,1.592A2.442,2.442,0,0,1-20.968.632a3.8,3.8,0,0,1-1.944.424h-1.28q-.032-.272-.1-.648t-.152-.736a3.83,3.83,0,0,0-.184-.584H-23.2a1.765,1.765,0,0,0,.936-.192,1.328,1.328,0,0,0,.472-.736A6.352,6.352,0,0,0-21.576-2.9q.088-.664.136-1.376t.048-1.224h-2.656a7.721,7.721,0,0,1-1.56,4.088A7.7,7.7,0,0,1-29.552,1.168ZM-13.6.112q-.112-.656-.176-1.608t-.088-2.08q-.024-1.128,0-2.328t.1-2.344q.072-1.144.192-2.12a16.22,16.22,0,0,1,.28-1.664l1.872.384a9.983,9.983,0,0,0-.3,1.5q-.128.92-.208,2.016t-.1,2.248q-.024,1.152.008,2.24t.112,1.968a10.654,10.654,0,0,0,.208,1.424Zm6.8-.864Q-9.568-.832-9.936-2.56A3.461,3.461,0,0,1-10-3.52a4.745,4.745,0,0,1,.24-1.168l1.68.416a1.769,1.769,0,0,0-.12.544,1.23,1.23,0,0,0,.056.432q.208.576,1.7.624A14.173,14.173,0,0,0-4.9-2.728q.824-.072,1.616-.216A13.187,13.187,0,0,0-1.9-3.264q-.032.224-.072.608t-.056.776q-.016.392,0,.648a13.676,13.676,0,0,1-1.608.3q-.856.112-1.68.152T-6.8-.752ZM-9.2-8.56l-.112-1.968a13.561,13.561,0,0,0,1.488.1q.88.016,1.832-.024t1.824-.144a9.935,9.935,0,0,0,1.448-.264L-2.8-8.928q-.64.112-1.488.2t-1.752.136q-.9.048-1.728.056T-9.2-8.56ZM1.3-5.936a6.115,6.115,0,0,0-.528-.856A4.077,4.077,0,0,0,.128-7.5,13.8,13.8,0,0,0,2.216-8.6a17.857,17.857,0,0,0,2-1.472,15.146,15.146,0,0,0,1.712-1.7,10.392,10.392,0,0,0,1.24-1.768l1.776.24a10.1,10.1,0,0,0,1.28,1.616,15.606,15.606,0,0,0,1.7,1.52,17.317,17.317,0,0,0,1.936,1.3,14.279,14.279,0,0,0,2,.968q-.144.192-.36.52t-.424.664a6.153,6.153,0,0,0-.336.608q-.656-.32-1.344-.728T12.032-7.7v1.28h-8.1V-7.584q-.656.48-1.328.9T1.3-5.936ZM3.28,1.056V-5.072h9.44V1.056ZM5.248-.64H10.72V-3.36H5.248Zm-.56-7.52h6.72A17.82,17.82,0,0,1,9.5-9.816,11.478,11.478,0,0,1,8-11.632a10.835,10.835,0,0,1-1.416,1.76A20.253,20.253,0,0,1,4.688-8.16ZM23.04-.3a7.044,7.044,0,0,0-.32-.856,4.108,4.108,0,0,0-.432-.776,10.917,10.917,0,0,0,3.72-.8A1.842,1.842,0,0,0,27.3-4.5q-.048-1.648-2.416-1.552a9.376,9.376,0,0,0-1.288.144q-.744.128-1.536.32t-1.5.4a11.819,11.819,0,0,0-1.176.4,2.747,2.747,0,0,0-.1-.264q-.1-.248-.232-.576L18.816-6.2a.988.988,0,0,0-.112-.248q.48-.1,1.28-.264T21.7-7.056q.912-.176,1.752-.312a11.021,11.021,0,0,1,1.384-.152,4.5,4.5,0,0,1,3.072.744A2.9,2.9,0,0,1,28.976-4.56a3.032,3.032,0,0,1-.688,2.16A4.879,4.879,0,0,1,26.2-1.04,14.913,14.913,0,0,1,23.04-.3ZM35.2.736A6.013,6.013,0,0,0,34.288.28a6.345,6.345,0,0,0-.976-.328,11.169,11.169,0,0,0,.864-1.512q.448-.92.9-2.048t.864-2.352q.416-1.224.752-2.408-.912.08-1.72.112t-1.336,0l-.176-1.92a15.108,15.108,0,0,0,1.656.048q1-.016,2.072-.112.208-.832.328-1.536a11.577,11.577,0,0,0,.152-1.248l2,.272q-.064.464-.192,1.032T39.184-10.5q.656-.112,1.232-.248a9.114,9.114,0,0,0,.976-.28l.288,1.792q-.5.16-1.288.328t-1.72.3q-.352,1.264-.784,2.6t-.9,2.6q-.464,1.264-.92,2.328T35.2.736ZM46.048.064a13.055,13.055,0,0,1-3.256.128,8.915,8.915,0,0,1-2.656-.624,4.129,4.129,0,0,1-1.688-1.2l.976-1.44A4.043,4.043,0,0,0,41-2.136a8.15,8.15,0,0,0,2.384.416,13.268,13.268,0,0,0,2.984-.248A4.484,4.484,0,0,0,46.12-.96,5.792,5.792,0,0,0,46.048.064ZM45.568-5.6a10.013,10.013,0,0,0-1.216-.312q-.688-.136-1.448-.216t-1.488-.1q-.728-.024-1.32.008l.24-1.872a12.845,12.845,0,0,1,1.352.008q.776.04,1.616.12t1.6.2q.76.12,1.3.248ZM-52.944,25.168V18.656q-.64.08-1.216.144t-1.008.1l-.224-1.616q.208,0,.464-.008t.56-.024A17.872,17.872,0,0,0-53.136,15.6q-.512-.416-1.152-.864t-1.216-.784l.864-1.312q.144.08.288.176t.3.192q.224-.368.472-.816t.456-.888q.208-.44.32-.728l1.5.592q-.352.64-.776,1.368t-.792,1.288a3.959,3.959,0,0,1,.328.232q.152.12.3.216.4-.608.72-1.168t.512-.912l1.408.688V11.9h3.728V10.64h1.648V11.9h3.52v1.44h-3.52v.768h3.056v5.536h-2.688a11.249,11.249,0,0,0,1.816,1.9,16.31,16.31,0,0,0,1.976,1.432,3.868,3.868,0,0,0-.552.576,5.467,5.467,0,0,0-.472.672,14.056,14.056,0,0,1-1.608-1.24,13.492,13.492,0,0,1-1.528-1.592v3.76h-1.648V21.44a14.435,14.435,0,0,1-1.6,1.688A13.506,13.506,0,0,1-49.2,24.464a4.793,4.793,0,0,0-.472-.64,4.484,4.484,0,0,0-.568-.576,9.513,9.513,0,0,0,1.368-.912,13.7,13.7,0,0,0,1.384-1.256,10.577,10.577,0,0,0,1.168-1.432h-2.56v-1.04q-.272.112-.56.256a5.49,5.49,0,0,0-.512.288l-.136-.408q-.072-.216-.168-.44l-1.056.144v6.72ZM-48.88,17.6V14.112h3.008v-.768H-49.6v-.368q-.32.576-.784,1.3t-.992,1.456q-.528.736-1.024,1.392l.816-.064q.4-.032.752-.064-.112-.24-.224-.456t-.208-.392l1.312-.64a9.992,9.992,0,0,1,.56.992Q-49.1,17.072-48.88,17.6Zm-5.312,5.984q-.3-.128-.72-.264a3.55,3.55,0,0,0-.736-.168,6.62,6.62,0,0,0,.5-1.088q.24-.656.424-1.36a11.211,11.211,0,0,0,.264-1.28l1.408.272a10.073,10.073,0,0,1-.248,1.312q-.184.736-.416,1.424A8.348,8.348,0,0,1-54.192,23.584Zm3.92-.928q-.128-.368-.3-.944t-.336-1.184q-.16-.608-.256-1.056l1.392-.352q.1.4.264.952t.36,1.088q.192.536.336.9a6.513,6.513,0,0,0-.744.256A6.853,6.853,0,0,0-50.272,22.656Zm6.048-4.288h1.44v-.88h-1.44Zm0-2.1h1.44v-.88h-1.44Zm-3.056,2.1h1.408v-.88H-47.28Zm0-2.1h1.408v-.88H-47.28Zm10.128,8.848V18.48h3.776q.08-.208.184-.448l.2-.464a2.541,2.541,0,0,1-1.312.3h-1.04a6.594,6.594,0,0,0-.144-.864,4.9,4.9,0,0,0-.24-.8h.944a.817.817,0,0,0,.456-.1.467.467,0,0,0,.136-.4V12.4h-2.864q.416.288.84.624a6.427,6.427,0,0,1,.68.608q-.1.1-.288.3t-.376.416q-.184.216-.312.376.56-.192,1.056-.376t.832-.328v1.6q-.288.144-.8.344l-1.112.432q-.6.232-1.176.432l-.992.344-.464-1.616q.5-.128,1.168-.344l1.36-.44q-.224-.224-.552-.5t-.664-.536a5.813,5.813,0,0,0-.576-.408l.832-.928h-1.5V10.9h6.688v5.392a1.871,1.871,0,0,1-.112.7l1.632.272a5.482,5.482,0,0,1-.216.592q-.136.32-.28.624h4.528v6.64Zm8.9-7.248a6.594,6.594,0,0,0-.144-.864,4.9,4.9,0,0,0-.24-.8h.992a.817.817,0,0,0,.456-.1.467.467,0,0,0,.136-.4V12.4h-2.976q.416.288.84.624a6.427,6.427,0,0,1,.68.608q-.16.144-.448.464t-.48.56l1.08-.4q.52-.192.872-.352v1.6q-.288.144-.76.344t-1.032.424q-.56.224-1.1.416t-.96.336l-.464-1.616q.432-.128,1-.3t1.144-.368q-.224-.224-.552-.5t-.648-.52q-.32-.248-.56-.408l.832-.912h-1.264V10.9h6.608v5.392q0,1.584-1.92,1.584Zm-6.96,5.776h6.432V22.5h-6.432Zm0-2.56h6.432V19.952h-6.432Zm12.816,4.16q-.112-.224-.3-.528t-.416-.608a2.467,2.467,0,0,0-.448-.48,8.747,8.747,0,0,0,4.3-3.216,10.329,10.329,0,0,0,1.592-5.6h-5.68V13.04h6.08V10.608h2.1V13.04h6.128v1.776h-6.592q-.016.432-.048.848t-.08.832h5.136q-.016.784-.088,1.712t-.192,1.848q-.12.92-.264,1.7a9.7,9.7,0,0,1-.3,1.256,3.761,3.761,0,0,1-.656,1.28,1.961,1.961,0,0,1-.952.616,5,5,0,0,1-1.4.168H-16.08a5.6,5.6,0,0,0-.088-.664q-.072-.392-.16-.768a3.18,3.18,0,0,0-.184-.584H-14.9a1.879,1.879,0,0,0,.976-.2,1.228,1.228,0,0,0,.48-.712,7.885,7.885,0,0,0,.272-1.112q.128-.7.224-1.44a10.258,10.258,0,0,0,.1-1.288h-3.3a10.032,10.032,0,0,1-2.168,4.112A11.346,11.346,0,0,1-22.4,25.248Zm28.3-.16q-.16-.352-.416-.792t-.56-.92q-.512.144-1.3.3t-1.72.336q-.928.176-1.864.328t-1.768.272q-.832.12-1.424.184L-3.6,22.912q.432-.016.984-.056t1.176-.1q.256-.528.568-1.224T-.248,20.1q.312-.728.536-1.336h-3.84V17.056h4.3V15.04H-2.7v-1.7H.752V10.7h2v2.64H6.528v1.7H2.752v2.016H7.2v1.712H2.464q-.224.544-.512,1.208T1.36,21.288q-.3.648-.576,1.176.864-.128,1.688-.264t1.512-.28q-.3-.416-.584-.784a8.019,8.019,0,0,0-.52-.624L4.352,19.5a14.128,14.128,0,0,1,1.1,1.312q.592.784,1.152,1.624a12.936,12.936,0,0,1,.912,1.576,5.366,5.366,0,0,0-.832.472A7.1,7.1,0,0,0,5.9,25.088Zm-11.6-.016L-7.328,23.9a11.047,11.047,0,0,0,.752-1.136q.384-.656.744-1.368t.656-1.4a11.082,11.082,0,0,0,.456-1.232,3.484,3.484,0,0,0,.408.368q.28.224.584.432t.512.336q-.176.56-.464,1.256t-.64,1.416q-.352.72-.7,1.368T-5.7,25.072Zm.88-7.328a8.889,8.889,0,0,0-.792-.608q-.5-.352-1.048-.68a7.782,7.782,0,0,0-.96-.5l.944-1.536q.7.336,1.528.808a9.854,9.854,0,0,1,1.384.936,5.138,5.138,0,0,0-.344.456q-.216.312-.416.632T-4.816,17.744Zm.752-3.664a7.1,7.1,0,0,0-.776-.608q-.5-.352-1.056-.672a8.886,8.886,0,0,0-.968-.5l.976-1.5a8.549,8.549,0,0,1,.992.5q.56.32,1.088.656a7.967,7.967,0,0,1,.832.592q-.128.144-.352.448t-.432.608Q-3.968,13.9-4.064,14.08ZM19.664,24.624a7.124,7.124,0,0,1-2.944-.976,5.617,5.617,0,0,1-2.152-7.232,6.1,6.1,0,0,1,1.656-2.128q-1.28.208-2.552.448t-2.3.448q-1.032.208-1.592.352l-.432-2.064q.528-.032,1.464-.144t2.112-.28q1.176-.168,2.432-.368t2.432-.408q1.176-.208,2.112-.408t1.464-.36l.512,1.952q-.256.016-.616.064t-.808.112a4.779,4.779,0,0,0-1.68.544,5.453,5.453,0,0,0-1.432,1.12,5.348,5.348,0,0,0-1,1.568,4.885,4.885,0,0,0-.368,1.9,3.273,3.273,0,0,0,.624,2.048,4.093,4.093,0,0,0,1.7,1.272,8.92,8.92,0,0,0,2.424.616,3.342,3.342,0,0,0-.464.6,5.9,5.9,0,0,0-.384.72A3,3,0,0,0,19.664,24.624Zm2.784-7.344a7.354,7.354,0,0,0-.808-1.056,8.275,8.275,0,0,0-.92-.9l.864-.72a5.865,5.865,0,0,1,.584.56q.344.368.68.744a5.525,5.525,0,0,1,.512.648ZM21.008,18.5a7.14,7.14,0,0,0-.8-1.072,9.144,9.144,0,0,0-.912-.912l.88-.7a5.375,5.375,0,0,1,.576.56q.336.368.664.752a8.137,8.137,0,0,1,.5.64Zm6.288,6.56V18.208h9.44v6.848Zm-2.672-7.728V15.68h4q-.16-.4-.368-.832a6.359,6.359,0,0,0-.432-.768l1.888-.56h-4.08V11.952H30.96v-1.5h2.112v1.5h5.264V13.52h-4.16l1.888.48a6.925,6.925,0,0,1-.272.752q-.192.464-.416.928H39.36v1.648Zm6.144-1.648h2.48q.256-.5.52-1.128a9.38,9.38,0,0,0,.376-1.032h-4.3a6.866,6.866,0,0,1,.312.648q.168.392.336.792T30.768,15.68Zm-1.44,7.84H34.72V22.336H29.328Zm0-2.608H34.72V19.76H29.328ZM47.184,15.76V14.288h2.432v-.88H46.5v1.44H40.48V13.376h5.856v-1.44h3.28v-1.28h1.856v1.28h3.5v1.472h-3.5v.88h2.672V15.76Zm-.128,9.456a5.54,5.54,0,0,0-.424-.544,5.764,5.764,0,0,0-.536-.544v.64h-4.96V20.176H46.1V23.76a3.873,3.873,0,0,0,2.192-2.888,11.758,11.758,0,0,0,.192-2.264h1.7a13.066,13.066,0,0,1-.288,2.952,5.422,5.422,0,0,1-.968,2.1A6.142,6.142,0,0,1,47.056,25.216Zm-.7-5.776V16.528h8.672V19.44H53.3V18.016H48.112V19.44Zm5.936,5.52a1.883,1.883,0,0,1-1.12-.256,1.04,1.04,0,0,1-.336-.88V18.608H52.56V22.9a.351.351,0,0,0,.088.28.614.614,0,0,0,.36.072h.416a.511.511,0,0,0,.328-.1.8.8,0,0,0,.2-.424,9.189,9.189,0,0,0,.16-1.048,5.449,5.449,0,0,0,.768.312,8.792,8.792,0,0,0,.848.248,7.075,7.075,0,0,1-.36,1.68,1.493,1.493,0,0,1-.648.816,2.372,2.372,0,0,1-1.12.224ZM41.248,12.608v-1.52h4.544v1.52Zm0,6.752V17.872h4.544V19.36Zm0-2.256V15.632h4.544V17.1Zm1.6,6.208h1.536v-1.68H42.848Z" transform="translate(662 2431.455)" fill="#000205"/>
    <g id="グループ_529" data-name="グループ 529" transform="translate(329.789 2237.281)">
      <g id="グループ_24" data-name="グループ 24" transform="translate(0 15.596)">
        <ellipse id="楕円形_2" data-name="楕円形 2" cx="68" cy="69" rx="68" ry="69" transform="translate(1.211 0.578)" fill="#d5edff"/>
        <g id="マスクグループ_1" data-name="マスクグループ 1" transform="translate(0 0)" clip-path="url(#clip-path)">
          <g id="c" transform="translate(-27.706 10.806)">
            <g id="d" transform="translate(0 0)">
              <path id="パス_1" data-name="パス 1" d="M180.763,63.43a4.123,4.123,0,0,1,3.3-.965,3.893,3.893,0,0,1,2.8,1.861,5.5,5.5,0,0,1,.576,2.214,16.494,16.494,0,0,1-1.682,8.743,10.483,10.483,0,0,1-2.711,3.558,6.945,6.945,0,0,1-3.232,1.457l-.553.085c-.265.992-.563,1.829-.709,2.273-.941,2.556-6.214,11.405-12.848,14.624-.016,2.233-.06,4.79.719,6.722,1.332,3.286,8.5,7.427,9,7.642,0,0-3.9,14.987-22.427,14.987-23.564,0-22.6-15.565-22.6-15.565.494-.215,6.546-3.778,7.878-7.064.885-2.193.705-5.2.719-7.615a25.664,25.664,0,0,1-6.2-5.494,28.046,28.046,0,0,1-5.345-10.434l-1.054-.162a6.947,6.947,0,0,1-3.232-1.457,10.478,10.478,0,0,1-2.711-3.558,16.494,16.494,0,0,1-1.682-8.743,5.5,5.5,0,0,1,.576-2.214,3.892,3.892,0,0,1,2.8-1.861,4.123,4.123,0,0,1,3.3.965s2.62-24.571,27.785-24.571,27.543,24.571,27.543,24.571Z" transform="translate(-57.603 -18.856)" fill="#fce0cd"/>
              <path id="パス_2" data-name="パス 2" d="M186.116,25.95a22.168,22.168,0,0,0-.909-2.97c-1.368-3.494-3.462-7.526-7.706-9.855l-4.979-3.744C167.556,1.158,158.4-.45,150.6.1c-9.267.648-15.872,3.137-21.895,10.211-8.776,10.308-9.022,23.944-5.706,33.353a1.706,1.706,0,0,1,.245-.051,4.09,4.09,0,0,1,3.274.958l4.346-4.728c1.817-2.583,6.97-8.989,10.886-9.771,2.8-.56,5.785.047,8.689-.07,5.265-.212,9.62-2.706,14.291-4.525.622-.242,1.249-.473,1.885-.684a2.562,2.562,0,0,1,1.108-.182,1.966,1.966,0,0,1,1.117.646c5.423,5.292,10.515,12.9,11.434,20.831.838-.763,1.673-1.517,1.673-1.517a4.092,4.092,0,0,1,3.274-.958,2.894,2.894,0,0,1,.364.077,35.335,35.335,0,0,0,.535-17.735Z" transform="translate(-58.731 0)" fill="#645d5c"/>
              <path id="パス_3" data-name="パス 3" d="M66.331,261.33c.026-.695.046-1.307.072-1.817-.153-9.033-.527-21.264-1.073-33.758l-.26.34-.857,1.12A108.858,108.858,0,0,1,53.887,238.65a15.775,15.775,0,0,1-12.049,3.728c-6.365-1.032-9.149-7.086-11.748-12.994-3.738-8.5-6.395-17.636-9.052-26.124,5.324-1.158,13.8-5.042,19.126-7.845,2.1,5.172,3.958,9.781,6.079,14.749,3.82-9.9,4.8-15.31,8.549-25.094a13.719,13.719,0,0,1,2.544-4.873,13.762,13.762,0,0,1,4.558-2.921c5.114-2.311,17.365-7,23.564-9.779a21.76,21.76,0,0,1,4.968-7.323A41.381,41.381,0,0,0,102.37,168.5c.247.112.523.249.6.509a.957.957,0,0,1-.138.674,8.245,8.245,0,0,1-.655.926l5.4-.007a8.074,8.074,0,0,1-.651-.919.958.958,0,0,1-.138-.674c.08-.259.355-.4.6-.509a41.381,41.381,0,0,0,11.944-8.324,21.4,21.4,0,0,1,4.756,6.845c5.437,2.176,19.3,7.508,24.526,10.032a15.433,15.433,0,0,1,4.789,2.9,15.861,15.861,0,0,1,2.849,5.255c3.776,9.858,5.361,19.538,7.42,30.291H147.086c-.637,15.76-1.226,33.14-1.47,45.121-.005.242-.005.479-.01.71Z" transform="translate(-10.209 -77.727)" fill="#fff"/>
              <path id="パス_4" data-name="パス 4" d="M176.043,270.231a107.472,107.472,0,0,0,7.6-9.36c.7-1.014,1.29-1.561,1.356-2.32a17.754,17.754,0,0,0-.173-2.963c-1.448-16.27-3.594-41.7-6.36-65.443a10.349,10.349,0,0,1,.642-2.832c.4-1.222,1.231-4.028.792-3.031-.445-.539-.885-1.073-1.3-1.58-.724-.885-1.368-1.685-1.82-2.271l-5.4.007c-.451.586-1.093,1.383-1.814,2.265-.289.354-.591.721-.9,1.094.235,1.26.687,2.6.983,3.865.054.251.116.493.179.743a6.887,6.887,0,0,1,.269,1.648c-2.009,21.858-4.59,48.875-6.4,67.571a4.214,4.214,0,0,0,.165,2.119,9.95,9.95,0,0,0,1.1,1.672,76.345,76.345,0,0,0,7.516,8.9,3.053,3.053,0,0,0,1.682.875,2.574,2.574,0,0,0,1.843-.914l.039-.044Z" transform="translate(-79.412 -87.557)" fill="#65a0d4"/>
              <path id="パス_5" data-name="パス 5" d="M201.969,181.069a45.986,45.986,0,0,0,6.265-8.191c.893-1.425,1.752-2.872,2.626-4.309a2.959,2.959,0,0,0,.652-1.414,2.707,2.707,0,0,0-.488-1.22,24.043,24.043,0,0,0-1.491-2.356,1.271,1.271,0,0,0-1.69-.443,1.246,1.246,0,0,0-.443,1.69,24.934,24.934,0,0,1,1.81,2.953v-1.247c-2.729,4.448-5.27,9.067-8.988,12.79a1.236,1.236,0,0,0,1.747,1.747h0Z" transform="translate(-96.985 -79.083)" fill="#d9d9d9"/>
              <path id="パス_6" data-name="パス 6" d="M156.657,179.705c-3.717-3.724-6.259-8.342-8.988-12.79v1.247a25.788,25.788,0,0,1,1.56-2.6c.9-1.315-1.239-2.552-2.134-1.247a24.448,24.448,0,0,0-1.347,2.2,1.666,1.666,0,0,0-.276,1.5,7.864,7.864,0,0,0,.665,1.136c.872,1.437,1.731,2.881,2.627,4.3a45.413,45.413,0,0,0,6.144,8,1.236,1.236,0,0,0,1.747-1.747h0Z" transform="translate(-70.55 -79.467)" fill="#d9d9d9"/>
              <path id="パス_7" data-name="パス 7" d="M98.415,196.578c1.245,9.758,1.821,19.613,2.383,29.43q1.007,17.6,1.533,35.224.137,4.4.246,8.8c.067,2.788.167,5.575.064,8.362-.059,1.59,2.413,1.588,2.471,0,.185-5.04-.1-10.118-.249-15.159q-.257-8.617-.617-17.231c-.479-11.527-1.059-23.055-1.934-34.559-.377-4.964-.8-9.93-1.427-14.868a1.276,1.276,0,0,0-1.235-1.235,1.243,1.243,0,0,0-1.235,1.235h0Z" transform="translate(-47.754 -94.793)" fill="#d9d9d9"/>
              <path id="パス_8" data-name="パス 8" d="M263.112,277.964c.093-5.679.267-11.357.443-17.033q.3-9.662.667-19.323.357-9.506.77-19.01.35-8.025.759-16.047c.178-3.387.345-6.779.625-10.16.02-.235.04-.469.062-.7a1.245,1.245,0,0,0-1.235-1.235,1.262,1.262,0,0,0-1.235,1.235c-.286,3.073-.433,6.161-.6,9.243q-.418,7.736-.749,15.477-.417,9.393-.774,18.788-.373,9.722-.687,19.447-.275,8.594-.475,17.192-.023,1.065-.04,2.13a1.236,1.236,0,0,0,2.471,0Z" transform="translate(-126.48 -94.36)" fill="#d9d9d9"/>
              <path id="パス_9" data-name="パス 9" d="M20.329,161.6c-1.153-4.563-4.392-15.948-5.584-17.469C13.891,143.039,12.878,142.2,11,143c-1.61.687-1.349,2.546-1.045,4.082.335,1.692,2.33,9.675,3.5,13.823a3.193,3.193,0,0,0-3.619-.82A2.433,2.433,0,0,0,8.2,162.544s.112.617.276,1.5a3.1,3.1,0,0,0-2.989.016c-1.1.59-2.215,2.172-1.671,3.313l.729,1.529-.228-.187c-1.4-1.152-3.835-.443-4.23,1.094a5.073,5.073,0,0,0,.865,3.649l.25.409.128.395a30.318,30.318,0,0,0,5.218,9.967c1.2,1.391,2.6,2.772,3.689,4.264s1.365,3.15,1.9,4.936l.237.79c2.823-1.043,10.768-4.012,15-6.026l-.15-.423a18.826,18.826,0,0,1-.6-6.039,41.116,41.116,0,0,1,1.833-5.378,9.959,9.959,0,0,0,.767-4.5,13.279,13.279,0,0,0-1.946-6.071,3.528,3.528,0,0,0-.949-.9.87.87,0,0,0-.133-.08c-1.549-.949-3.586-.954-5.341-.879-.089-.455-.147-.746-.147-.746-.062-.314-.192-.865-.374-1.586Z" transform="translate(-0.001 -69.238)" fill="#fce0cd"/>
              <path id="パス_10" data-name="パス 10" d="M35.38,192.357a18.515,18.515,0,0,0-.521-2.2,4.947,4.947,0,0,0-.827-1.991,3.455,3.455,0,0,0-1.675-1.1,6.961,6.961,0,0,0-1.092-.22c-.2-.03-.409-.056-.613-.083l-.065-.009c-.061-.008-.121-.018-.181-.028-.129-.024-.258-.045-.385-.08l-.1-.029q-.2-.072.023.012c-.1-.062-.108-.065-.032-.008s.067.053-.019-.027q.156.215-.029-.061-.069-.11-.127-.227a1.291,1.291,0,0,1-.141-.6,1.791,1.791,0,0,1,.171-.6c.031-.067.247-.542.306-.539s-.4.278-.1.128c.039-.019.308-.142.127-.071a3.884,3.884,0,0,1,.455-.136,12.241,12.241,0,0,1,2.03-.274,1.266,1.266,0,0,0,1.235-1.235,1.245,1.245,0,0,0-1.235-1.235c-1.49.116-3.637.146-4.6,1.507a4.032,4.032,0,0,0-.007,4.9c1.016,1.305,2.548.813,3.843,1.352-.216-.09.322.218.12.063a1.488,1.488,0,0,1,.262.262c-.155-.2.131.344.044.1a5.4,5.4,0,0,1,.141.569c.2.842.484,1.66.6,2.521a1.243,1.243,0,0,0,1.52.863,1.268,1.268,0,0,0,.863-1.52h0Z" transform="translate(-13.179 -88.19)" fill="#efc0a0"/>
              <path id="パス_11" data-name="パス 11" d="M8.544,202.789c.015.05.022.105.039.154-.109-.316-.024-.241-.024-.084,0,.056-.025.274.008.034s0-.014-.013.039a1.322,1.322,0,0,1-.121.382l.074-.178c-.018.039-.037.078-.056.116-.029.058-.06.116-.093.172-.066.114-.146.218-.215.33.179-.291.1-.123.032-.045-.042.049-.084.1-.129.144-.086.091-.178.172-.271.255-.168.149.238-.16.063-.051-.055.034-.108.071-.165.1s-.241.112-.017.016.021-.015-.034,0-.121.032-.183.045c-.286.059.279-.016.039,0-.136.009-.27.019-.406.016s-.57-.075-.16,0a6.572,6.572,0,0,1-.823-.21c-.233-.076.24.119.038.017-.061-.031-.124-.06-.184-.093a2.993,2.993,0,0,1-.389-.254,1.24,1.24,0,0,0-.952-.125,1.236,1.236,0,0,0-.863,1.52,1.455,1.455,0,0,0,.568.738,4.76,4.76,0,0,0,2.346.842,3.754,3.754,0,0,0,2.314-.411c1.308-.77,2.421-2.593,1.959-4.134a1.236,1.236,0,1,0-2.382.657h0Z" transform="translate(-1.792 -97.644)" fill="#efc0a0"/>
              <path id="パス_12" data-name="パス 12" d="M7.042,193.612c.57.957,1.243,1.834,1.86,2.758.586.878,1.164,1.759,1.821,2.587a4.114,4.114,0,0,0,2.488,1.6,4.053,4.053,0,0,0,3.7-.9,4.221,4.221,0,0,0,1.047-4.254,1.237,1.237,0,0,0-2.383.657,1.971,1.971,0,0,1,.1.94c.024-.216-.047.169-.061.216s-.034.113-.055.168q.079-.175-.013.018a3.908,3.908,0,0,1-.231.372c.165-.22-.109.1-.148.136-.055.051-.291.208-.048.051-.041.027-.394.221-.158.12a1.894,1.894,0,0,1-1.4.016,2.9,2.9,0,0,1-.344-.116c.223.1-.125-.093-.162-.1q-.149-.105.1.08c-.036-.03-.071-.062-.106-.095-.063-.068-.132-.131-.2-.2s-.139-.155-.206-.235c-.033-.04-.293-.37-.115-.137-.153-.2-.3-.405-.446-.611-.315-.447-.617-.9-.919-1.358-.661-.994-1.385-1.937-2-2.964a1.236,1.236,0,0,0-2.134,1.247h0Z" transform="translate(-3.329 -93.06)" fill="#efc0a0"/>
              <path id="パス_13" data-name="パス 13" d="M24.2,189.679c.01.174.007.344,0,.518,0,.253.051-.108-.022.144-.031.108-.06.216-.091.324q-.076.2,0,0c-.03.063-.063.124-.1.184s-.211.3-.037.083a2.576,2.576,0,0,1-.2.219q-.069.068-.144.131.168-.124.06-.046c-.1.048-.186.123-.282.175-.077.041-.312.1-.045.03-.1.028-.2.069-.308.1s-.4.033-.073.025c-.105,0-.2.011-.31.005.275.016-.076-.035-.147-.06l.045.016c-.065-.033-.13-.07-.192-.109-.025-.015-.289-.227-.112-.073-.1-.087-.2-.178-.291-.273s-.177-.2-.266-.295c-.173-.192.08.129-.077-.1-.132-.189-.26-.377-.38-.574-.347-.567-.692-1.135-1.049-1.7-.7-1.1-1.43-2.193-2.074-3.331a1.236,1.236,0,0,0-2.134,1.247c.774,1.367,1.663,2.665,2.494,4a9.422,9.422,0,0,0,2.595,3.2,3.491,3.491,0,0,0,3.816-.119,4.122,4.122,0,0,0,1.786-3.721,1.263,1.263,0,0,0-1.235-1.235,1.247,1.247,0,0,0-1.235,1.235h0Z" transform="translate(-7.677 -89.518)" fill="#efc0a0"/>
              <path id="パス_14" data-name="パス 14" d="M108.509,171.346c-6.657,3.083-13.579,5.616-20.361,8.431-3.6,1.5-7.845,2.849-10.047,6.293a16.768,16.768,0,0,0-1.444,3.127c-.461,1.214-.922,2.428-1.364,3.649-.812,2.245-1.567,4.511-2.29,6.786-1.617,5.089-3.18,10.185-5.087,15.175a1.245,1.245,0,0,0,.863,1.52,1.263,1.263,0,0,0,1.52-.863c1.683-4.4,3.114-8.888,4.523-13.386a136.236,136.236,0,0,1,4.626-13.256,8.193,8.193,0,0,1,1.787-2.715,11.342,11.342,0,0,1,2.91-1.9c1.352-.668,2.816-1.275,4.1-1.813,3.513-1.468,7.051-2.876,10.58-4.306,3.661-1.483,7.342-2.946,10.927-4.606a1.246,1.246,0,0,0,.443-1.69,1.264,1.264,0,0,0-1.69-.443h0Z" transform="translate(-32.928 -83.076)" fill="#d9d9d9"/>
              <path id="パス_15" data-name="パス 15" d="M49.444,249.126c-3.272-7.247-6.264-14.61-9.258-21.974a1.259,1.259,0,0,0-1.815-.738q-4.64,2.438-9.468,4.5a53.969,53.969,0,0,1-9.363,3.222,1.246,1.246,0,0,0-.863,1.52c1.842,5.888,3.607,11.8,5.688,17.612,1.066,2.973,2.218,5.915,3.488,8.807a54.426,54.426,0,0,0,3.169,6.416,17.347,17.347,0,0,0,4.556,5.17,11.821,11.821,0,0,0,6.824,2.161,17.129,17.129,0,0,0,7.829-1.957,21.541,21.541,0,0,0,5.517-4.341,116.54,116.54,0,0,0,9.218-10.738,1.243,1.243,0,0,0-.443-1.69,1.267,1.267,0,0,0-1.69.443l-.466.609-.3.386-.086.113c.18-.23.037-.052-.063.073q-.887,1.111-1.8,2.2c-1.507,1.806-3.05,3.585-4.65,5.31a30.038,30.038,0,0,1-4.6,4.374,15.318,15.318,0,0,1-6.785,2.654,10.091,10.091,0,0,1-6.345-1.135,12.832,12.832,0,0,1-4.206-4.27,43.986,43.986,0,0,1-3.132-6.078q-1.736-3.9-3.2-7.917C24.92,247.648,23.034,241.307,21.06,235l-.863,1.52a56.493,56.493,0,0,0,9.763-3.39q4.92-2.088,9.658-4.58l-1.815-.738c3.075,7.563,6.148,15.123,9.507,22.565a1.245,1.245,0,0,0,1.69.443,1.266,1.266,0,0,0,.443-1.69h0Z" transform="translate(-9.041 -109.791)" fill="#d9d9d9"/>
              <path id="パス_16" data-name="パス 16" d="M218.457,172.962c6.746,2.725,13.6,5.3,20.275,8.121,1.383.583,2.828,1.205,4.212,1.857,2.039.96,4.3,1.8,5.614,3.739a30.217,30.217,0,0,1,3.14,7.428c.881,2.634,1.639,5.308,2.311,8,1.543,6.188,2.639,12.475,3.837,18.735a1.247,1.247,0,0,0,1.52.863,1.261,1.261,0,0,0,.863-1.52c-1.1-5.733-2.11-11.486-3.456-17.167-.657-2.772-1.4-5.525-2.258-8.24a55.255,55.255,0,0,0-2.965-7.86,10.646,10.646,0,0,0-2.351-3.255,13.976,13.976,0,0,0-3.365-2.082c-1.5-.711-3-1.409-4.522-2.066-3.779-1.631-7.6-3.16-11.428-4.679-3.588-1.425-7.19-2.814-10.769-4.259a1.243,1.243,0,0,0-1.52.863,1.265,1.265,0,0,0,.863,1.52h0Z" transform="translate(-105.568 -82.745)" fill="#d9d9d9"/>
              <g id="e" transform="translate(99.379 131.928)">
                <path id="パス_17" data-name="パス 17" d="M246.425,285.387c2.738-2.439,13.327-11.789,15.65-14.112a16.383,16.383,0,0,0-9.921-4.3,33.514,33.514,0,0,0-11.235.6c-3.715.928-8.527,3.222-11.1,6.179-3.154-3.009-7.824-4.338-12.054-4.478a31.024,31.024,0,0,0-12.519,2.247,13.685,13.685,0,0,0-7.639,6.585c2.478,2.167,14.132,10.153,16.711,12.2l32.113-4.923Z" transform="translate(-195.268 -261.383)" fill="#3f88c9"/>
                <path id="パス_18" data-name="パス 18" d="M194.83,266.456a17.248,17.248,0,0,0-1.762,1.94,33.381,33.381,0,0,0,3.023,2.793l.3.22a14.06,14.06,0,0,1,6.653-4.964,31.024,31.024,0,0,1,12.519-2.247c4.23.139,8.9,1.469,12.054,4.478,2.578-2.957,7.39-5.251,11.1-6.179a33.512,33.512,0,0,1,11.235-.6,18.165,18.165,0,0,1,6.484,1.85l.085-.084c.657-.624,1.971-1.939,3.089-3.122-4.042-3.056-6.308-3.513-11.074-3.976a34.54,34.54,0,0,0-11.294.414c-3.546.886-8.094,2.365-10.613,5.168a20.658,20.658,0,0,0-11.07-3.274,31.024,31.024,0,0,0-12.519,2.247,22.363,22.363,0,0,0-5.142,2.74,35.523,35.523,0,0,0-3.068,2.6Z" transform="translate(-193.068 -256.301)" fill="#fff"/>
                <path id="パス_19" data-name="パス 19" d="M250.205,288.033q-.225-.182-.453-.358c-1.944-1.5-3.354-1.737-5.351-.62l-1.072.931c-.817-.867-1.51-1.585-1.806-1.842a3.337,3.337,0,0,0-3.2-.72c-1.263.47-1.791,1.16-1.791,2.218l-.12.9c-.67-.708-1.272-1.319-1.733-1.731-.389-.349-2.287-1.284-3.55-.335a2.05,2.05,0,0,0-.641,2.941,3.9,3.9,0,0,1,.185.352l-.283-.148a2.874,2.874,0,0,0-4.065,1.465,4.123,4.123,0,0,0,.325,2.7c.818,1.582,4.393,5.549,6.323,7.588,4.421,3.127,11.475.949,17.126-.364a7.459,7.459,0,0,0,2.239-.963c2.114-1.467,3.2-3.27,4.928-5.177a13.441,13.441,0,0,0,1.939-2.349,4.975,4.975,0,0,0,.712-3.486,2.625,2.625,0,0,0-.988-1.567,3.178,3.178,0,0,0-2.9.091,14.412,14.412,0,0,0-3.839,2.323,17.882,17.882,0,0,0-1.986-1.844Z" transform="translate(-209.159 -270.358)" fill="#fce0cd"/>
                <path id="パス_20" data-name="パス 20" d="M263.94,293.581c-.485-.453-.928-.956-1.381-1.441-.732-.783-1.461-1.569-2.194-2.352a1.245,1.245,0,0,0-1.747,0,1.261,1.261,0,0,0,0,1.747q1.1,1.174,2.194,2.352c.453.484.9.987,1.381,1.441a1.235,1.235,0,1,0,1.747-1.747Z" transform="translate(-224.706 -272.377)" fill="#efc0a0"/>
                <path id="パス_21" data-name="パス 21" d="M233.692,294.866a88.388,88.388,0,0,0,6.124,6.97,1.235,1.235,0,0,0,1.747-1.747,88.3,88.3,0,0,1-6.124-6.97,1.239,1.239,0,0,0-1.747,0,1.27,1.27,0,0,0,0,1.747Z" transform="translate(-212.612 -273.993)" fill="#efc0a0"/>
                <path id="パス_22" data-name="パス 22" d="M251.277,295.666c-1.552-1.681-3.058-3.4-4.616-5.08a1.245,1.245,0,0,0-1.747,0,1.262,1.262,0,0,0,0,1.747c1.558,1.675,3.064,3.4,4.616,5.08a1.245,1.245,0,0,0,1.747,0,1.262,1.262,0,0,0,0-1.747Z" transform="translate(-218.057 -272.764)" fill="#efc0a0"/>
              </g>
              <g id="f" transform="translate(80.687 44.474)">
                <path id="パス_23" data-name="パス 23" d="M175.314,127.3a10.9,10.9,0,0,0,5.25,1.212,8.512,8.512,0,0,0,5.269-1.542,1.242,1.242,0,0,0,0-1.747,1.267,1.267,0,0,0-1.747,0c.366-.285.05-.045-.044.015s-.217.132-.329.191c-.078.041-.465.2-.156.084-.151.057-.3.116-.454.165a7.8,7.8,0,0,1-2.709.362,8.116,8.116,0,0,1-2.585-.348c-.166-.05-.328-.109-.493-.166-.053-.019-.1-.046-.159-.062.3.089.089.04.008,0q-.306-.144-.6-.3a1.263,1.263,0,0,0-1.69.443,1.249,1.249,0,0,0,.443,1.69Z" transform="translate(-165.467 -105.071)" fill="#efc0a0"/>
                <path id="パス_24" data-name="パス 24" d="M184.129,103.912a24.907,24.907,0,0,1,.588,2.691l-.044-.328a1.628,1.628,0,0,1,.01.371l.044-.328a.927.927,0,0,1-.041.167l.125-.295a.627.627,0,0,1-.059.108l.193-.25a.583.583,0,0,1-.088.086l.25-.193a1.752,1.752,0,0,1-.213.113l.295-.125a1.564,1.564,0,0,1-.359.105l.328-.044a1.448,1.448,0,0,1-.337,0l.328.044c-.127-.018-.252-.048-.379-.066a1.366,1.366,0,0,0-.952.125,1.235,1.235,0,0,0-.443,1.69,1.183,1.183,0,0,0,.738.568c.276.037.545.108.826.12a2.621,2.621,0,0,0,1.2-.283,1.7,1.7,0,0,0,.953-1.126,2.886,2.886,0,0,0-.013-1.229c-.146-.867-.347-1.726-.57-2.576a1.236,1.236,0,1,0-2.382.657h0Z" transform="translate(-169.593 -94.137)" fill="#efc0a0"/>
                <path id="パス_25" data-name="パス 25" d="M156.926,88.6c-.449,1.46-.156,4.819,2.61,5.1,3.656-.022,3.85-4.082,2.619-5.992C161.148,86.145,158.185,85.495,156.926,88.6Z" transform="translate(-156.755 -86.402)" fill="#645d5c"/>
                <path id="パス_26" data-name="パス 26" d="M208.392,88.6c.449,1.46.156,4.819-2.609,5.1-3.656-.022-3.851-4.083-2.62-5.992C204.17,86.145,207.133,85.495,208.392,88.6Z" transform="translate(-178.944 -86.402)" fill="#645d5c"/>
              </g>
            </g>
          </g>
        </g>
      </g>
    </g>
    <g id="グループ_531" data-name="グループ 531" transform="translate(874.596 2237.785)">
      <g id="グループ_24-2" data-name="グループ 24" transform="translate(0 15.596)">
        <ellipse id="楕円形_2-2" data-name="楕円形 2" cx="68" cy="68.5" rx="68" ry="68.5" transform="translate(1.404 1.073)" fill="#d5edff"/>
        <g id="マスクグループ_1-2" data-name="マスクグループ 1" transform="translate(0 0)" clip-path="url(#clip-path-2)">
          <g id="c-2" data-name="c" transform="translate(-27.706 10.806)">
            <g id="d-2" data-name="d" transform="translate(0 0)">
              <path id="パス_1-2" data-name="パス 1" d="M180.763,63.43a4.123,4.123,0,0,1,3.3-.965,3.893,3.893,0,0,1,2.8,1.861,5.5,5.5,0,0,1,.576,2.214,16.494,16.494,0,0,1-1.682,8.743,10.483,10.483,0,0,1-2.711,3.558,6.945,6.945,0,0,1-3.232,1.457l-.553.085c-.265.992-.563,1.829-.709,2.273-.941,2.556-6.214,11.405-12.848,14.624-.016,2.233-.06,4.79.719,6.722,1.332,3.286,8.5,7.427,9,7.642,0,0-3.9,14.987-22.427,14.987-23.564,0-22.6-15.565-22.6-15.565.494-.215,6.546-3.778,7.878-7.064.885-2.193.705-5.2.719-7.615a25.664,25.664,0,0,1-6.2-5.494,28.046,28.046,0,0,1-5.345-10.434l-1.054-.162a6.947,6.947,0,0,1-3.232-1.457,10.478,10.478,0,0,1-2.711-3.558,16.494,16.494,0,0,1-1.682-8.743,5.5,5.5,0,0,1,.576-2.214,3.892,3.892,0,0,1,2.8-1.861,4.123,4.123,0,0,1,3.3.965s2.62-24.571,27.785-24.571,27.543,24.571,27.543,24.571Z" transform="translate(-57.603 -18.856)" fill="#fce0cd"/>
              <path id="パス_2-2" data-name="パス 2" d="M186.116,25.95a22.168,22.168,0,0,0-.909-2.97c-1.368-3.494-3.462-7.526-7.706-9.855l-4.979-3.744C167.556,1.158,158.4-.45,150.6.1c-9.267.648-15.872,3.137-21.895,10.211-8.776,10.308-9.022,23.944-5.706,33.353a1.706,1.706,0,0,1,.245-.051,4.09,4.09,0,0,1,3.274.958l4.346-4.728c1.817-2.583,6.97-8.989,10.886-9.771,2.8-.56,5.785.047,8.689-.07,5.265-.212,9.62-2.706,14.291-4.525.622-.242,1.249-.473,1.885-.684a2.562,2.562,0,0,1,1.108-.182,1.966,1.966,0,0,1,1.117.646c5.423,5.292,10.515,12.9,11.434,20.831.838-.763,1.673-1.517,1.673-1.517a4.092,4.092,0,0,1,3.274-.958,2.894,2.894,0,0,1,.364.077,35.335,35.335,0,0,0,.535-17.735Z" transform="translate(-58.731 0)" fill="#645d5c"/>
              <path id="パス_3-2" data-name="パス 3" d="M66.331,261.33c.026-.695.046-1.307.072-1.817-.153-9.033-.527-21.264-1.073-33.758l-.26.34-.857,1.12A108.858,108.858,0,0,1,53.887,238.65a15.775,15.775,0,0,1-12.049,3.728c-6.365-1.032-9.149-7.086-11.748-12.994-3.738-8.5-6.395-17.636-9.052-26.124,5.324-1.158,13.8-5.042,19.126-7.845,2.1,5.172,3.958,9.781,6.079,14.749,3.82-9.9,4.8-15.31,8.549-25.094a13.719,13.719,0,0,1,2.544-4.873,13.762,13.762,0,0,1,4.558-2.921c5.114-2.311,17.365-7,23.564-9.779a21.76,21.76,0,0,1,4.968-7.323A41.381,41.381,0,0,0,102.37,168.5c.247.112.523.249.6.509a.957.957,0,0,1-.138.674,8.245,8.245,0,0,1-.655.926l5.4-.007a8.074,8.074,0,0,1-.651-.919.958.958,0,0,1-.138-.674c.08-.259.355-.4.6-.509a41.381,41.381,0,0,0,11.944-8.324,21.4,21.4,0,0,1,4.756,6.845c5.437,2.176,19.3,7.508,24.526,10.032a15.433,15.433,0,0,1,4.789,2.9,15.861,15.861,0,0,1,2.849,5.255c3.776,9.858,5.361,19.538,7.42,30.291H147.086c-.637,15.76-1.226,33.14-1.47,45.121-.005.242-.005.479-.01.71Z" transform="translate(-10.209 -77.727)" fill="#fff"/>
              <path id="パス_4-2" data-name="パス 4" d="M176.043,270.231a107.472,107.472,0,0,0,7.6-9.36c.7-1.014,1.29-1.561,1.356-2.32a17.754,17.754,0,0,0-.173-2.963c-1.448-16.27-3.594-41.7-6.36-65.443a10.349,10.349,0,0,1,.642-2.832c.4-1.222,1.231-4.028.792-3.031-.445-.539-.885-1.073-1.3-1.58-.724-.885-1.368-1.685-1.82-2.271l-5.4.007c-.451.586-1.093,1.383-1.814,2.265-.289.354-.591.721-.9,1.094.235,1.26.687,2.6.983,3.865.054.251.116.493.179.743a6.887,6.887,0,0,1,.269,1.648c-2.009,21.858-4.59,48.875-6.4,67.571a4.214,4.214,0,0,0,.165,2.119,9.95,9.95,0,0,0,1.1,1.672,76.345,76.345,0,0,0,7.516,8.9,3.053,3.053,0,0,0,1.682.875,2.574,2.574,0,0,0,1.843-.914l.039-.044Z" transform="translate(-79.412 -87.557)" fill="#65a0d4"/>
              <path id="パス_5-2" data-name="パス 5" d="M201.969,181.069a45.986,45.986,0,0,0,6.265-8.191c.893-1.425,1.752-2.872,2.626-4.309a2.959,2.959,0,0,0,.652-1.414,2.707,2.707,0,0,0-.488-1.22,24.043,24.043,0,0,0-1.491-2.356,1.271,1.271,0,0,0-1.69-.443,1.246,1.246,0,0,0-.443,1.69,24.934,24.934,0,0,1,1.81,2.953v-1.247c-2.729,4.448-5.27,9.067-8.988,12.79a1.236,1.236,0,0,0,1.747,1.747h0Z" transform="translate(-96.985 -79.083)" fill="#d9d9d9"/>
              <path id="パス_6-2" data-name="パス 6" d="M156.657,179.705c-3.717-3.724-6.259-8.342-8.988-12.79v1.247a25.788,25.788,0,0,1,1.56-2.6c.9-1.315-1.239-2.552-2.134-1.247a24.448,24.448,0,0,0-1.347,2.2,1.666,1.666,0,0,0-.276,1.5,7.864,7.864,0,0,0,.665,1.136c.872,1.437,1.731,2.881,2.627,4.3a45.413,45.413,0,0,0,6.144,8,1.236,1.236,0,0,0,1.747-1.747h0Z" transform="translate(-70.55 -79.467)" fill="#d9d9d9"/>
              <path id="パス_7-2" data-name="パス 7" d="M98.415,196.578c1.245,9.758,1.821,19.613,2.383,29.43q1.007,17.6,1.533,35.224.137,4.4.246,8.8c.067,2.788.167,5.575.064,8.362-.059,1.59,2.413,1.588,2.471,0,.185-5.04-.1-10.118-.249-15.159q-.257-8.617-.617-17.231c-.479-11.527-1.059-23.055-1.934-34.559-.377-4.964-.8-9.93-1.427-14.868a1.276,1.276,0,0,0-1.235-1.235,1.243,1.243,0,0,0-1.235,1.235h0Z" transform="translate(-47.754 -94.793)" fill="#d9d9d9"/>
              <path id="パス_8-2" data-name="パス 8" d="M263.112,277.964c.093-5.679.267-11.357.443-17.033q.3-9.662.667-19.323.357-9.506.77-19.01.35-8.025.759-16.047c.178-3.387.345-6.779.625-10.16.02-.235.04-.469.062-.7a1.245,1.245,0,0,0-1.235-1.235,1.262,1.262,0,0,0-1.235,1.235c-.286,3.073-.433,6.161-.6,9.243q-.418,7.736-.749,15.477-.417,9.393-.774,18.788-.373,9.722-.687,19.447-.275,8.594-.475,17.192-.023,1.065-.04,2.13a1.236,1.236,0,0,0,2.471,0Z" transform="translate(-126.48 -94.36)" fill="#d9d9d9"/>
              <path id="パス_9-2" data-name="パス 9" d="M20.329,161.6c-1.153-4.563-4.392-15.948-5.584-17.469C13.891,143.039,12.878,142.2,11,143c-1.61.687-1.349,2.546-1.045,4.082.335,1.692,2.33,9.675,3.5,13.823a3.193,3.193,0,0,0-3.619-.82A2.433,2.433,0,0,0,8.2,162.544s.112.617.276,1.5a3.1,3.1,0,0,0-2.989.016c-1.1.59-2.215,2.172-1.671,3.313l.729,1.529-.228-.187c-1.4-1.152-3.835-.443-4.23,1.094a5.073,5.073,0,0,0,.865,3.649l.25.409.128.395a30.318,30.318,0,0,0,5.218,9.967c1.2,1.391,2.6,2.772,3.689,4.264s1.365,3.15,1.9,4.936l.237.79c2.823-1.043,10.768-4.012,15-6.026l-.15-.423a18.826,18.826,0,0,1-.6-6.039,41.116,41.116,0,0,1,1.833-5.378,9.959,9.959,0,0,0,.767-4.5,13.279,13.279,0,0,0-1.946-6.071,3.528,3.528,0,0,0-.949-.9.87.87,0,0,0-.133-.08c-1.549-.949-3.586-.954-5.341-.879-.089-.455-.147-.746-.147-.746-.062-.314-.192-.865-.374-1.586Z" transform="translate(-0.001 -69.238)" fill="#fce0cd"/>
              <path id="パス_10-2" data-name="パス 10" d="M35.38,192.357a18.515,18.515,0,0,0-.521-2.2,4.947,4.947,0,0,0-.827-1.991,3.455,3.455,0,0,0-1.675-1.1,6.961,6.961,0,0,0-1.092-.22c-.2-.03-.409-.056-.613-.083l-.065-.009c-.061-.008-.121-.018-.181-.028-.129-.024-.258-.045-.385-.08l-.1-.029q-.2-.072.023.012c-.1-.062-.108-.065-.032-.008s.067.053-.019-.027q.156.215-.029-.061-.069-.11-.127-.227a1.291,1.291,0,0,1-.141-.6,1.791,1.791,0,0,1,.171-.6c.031-.067.247-.542.306-.539s-.4.278-.1.128c.039-.019.308-.142.127-.071a3.884,3.884,0,0,1,.455-.136,12.241,12.241,0,0,1,2.03-.274,1.266,1.266,0,0,0,1.235-1.235,1.245,1.245,0,0,0-1.235-1.235c-1.49.116-3.637.146-4.6,1.507a4.032,4.032,0,0,0-.007,4.9c1.016,1.305,2.548.813,3.843,1.352-.216-.09.322.218.12.063a1.488,1.488,0,0,1,.262.262c-.155-.2.131.344.044.1a5.4,5.4,0,0,1,.141.569c.2.842.484,1.66.6,2.521a1.243,1.243,0,0,0,1.52.863,1.268,1.268,0,0,0,.863-1.52h0Z" transform="translate(-13.179 -88.19)" fill="#efc0a0"/>
              <path id="パス_11-2" data-name="パス 11" d="M8.544,202.789c.015.05.022.105.039.154-.109-.316-.024-.241-.024-.084,0,.056-.025.274.008.034s0-.014-.013.039a1.322,1.322,0,0,1-.121.382l.074-.178c-.018.039-.037.078-.056.116-.029.058-.06.116-.093.172-.066.114-.146.218-.215.33.179-.291.1-.123.032-.045-.042.049-.084.1-.129.144-.086.091-.178.172-.271.255-.168.149.238-.16.063-.051-.055.034-.108.071-.165.1s-.241.112-.017.016.021-.015-.034,0-.121.032-.183.045c-.286.059.279-.016.039,0-.136.009-.27.019-.406.016s-.57-.075-.16,0a6.572,6.572,0,0,1-.823-.21c-.233-.076.24.119.038.017-.061-.031-.124-.06-.184-.093a2.993,2.993,0,0,1-.389-.254,1.24,1.24,0,0,0-.952-.125,1.236,1.236,0,0,0-.863,1.52,1.455,1.455,0,0,0,.568.738,4.76,4.76,0,0,0,2.346.842,3.754,3.754,0,0,0,2.314-.411c1.308-.77,2.421-2.593,1.959-4.134a1.236,1.236,0,1,0-2.382.657h0Z" transform="translate(-1.792 -97.644)" fill="#efc0a0"/>
              <path id="パス_12-2" data-name="パス 12" d="M7.042,193.612c.57.957,1.243,1.834,1.86,2.758.586.878,1.164,1.759,1.821,2.587a4.114,4.114,0,0,0,2.488,1.6,4.053,4.053,0,0,0,3.7-.9,4.221,4.221,0,0,0,1.047-4.254,1.237,1.237,0,0,0-2.383.657,1.971,1.971,0,0,1,.1.94c.024-.216-.047.169-.061.216s-.034.113-.055.168q.079-.175-.013.018a3.908,3.908,0,0,1-.231.372c.165-.22-.109.1-.148.136-.055.051-.291.208-.048.051-.041.027-.394.221-.158.12a1.894,1.894,0,0,1-1.4.016,2.9,2.9,0,0,1-.344-.116c.223.1-.125-.093-.162-.1q-.149-.105.1.08c-.036-.03-.071-.062-.106-.095-.063-.068-.132-.131-.2-.2s-.139-.155-.206-.235c-.033-.04-.293-.37-.115-.137-.153-.2-.3-.405-.446-.611-.315-.447-.617-.9-.919-1.358-.661-.994-1.385-1.937-2-2.964a1.236,1.236,0,0,0-2.134,1.247h0Z" transform="translate(-3.329 -93.06)" fill="#efc0a0"/>
              <path id="パス_13-2" data-name="パス 13" d="M24.2,189.679c.01.174.007.344,0,.518,0,.253.051-.108-.022.144-.031.108-.06.216-.091.324q-.076.2,0,0c-.03.063-.063.124-.1.184s-.211.3-.037.083a2.576,2.576,0,0,1-.2.219q-.069.068-.144.131.168-.124.06-.046c-.1.048-.186.123-.282.175-.077.041-.312.1-.045.03-.1.028-.2.069-.308.1s-.4.033-.073.025c-.105,0-.2.011-.31.005.275.016-.076-.035-.147-.06l.045.016c-.065-.033-.13-.07-.192-.109-.025-.015-.289-.227-.112-.073-.1-.087-.2-.178-.291-.273s-.177-.2-.266-.295c-.173-.192.08.129-.077-.1-.132-.189-.26-.377-.38-.574-.347-.567-.692-1.135-1.049-1.7-.7-1.1-1.43-2.193-2.074-3.331a1.236,1.236,0,0,0-2.134,1.247c.774,1.367,1.663,2.665,2.494,4a9.422,9.422,0,0,0,2.595,3.2,3.491,3.491,0,0,0,3.816-.119,4.122,4.122,0,0,0,1.786-3.721,1.263,1.263,0,0,0-1.235-1.235,1.247,1.247,0,0,0-1.235,1.235h0Z" transform="translate(-7.677 -89.518)" fill="#efc0a0"/>
              <path id="パス_14-2" data-name="パス 14" d="M108.509,171.346c-6.657,3.083-13.579,5.616-20.361,8.431-3.6,1.5-7.845,2.849-10.047,6.293a16.768,16.768,0,0,0-1.444,3.127c-.461,1.214-.922,2.428-1.364,3.649-.812,2.245-1.567,4.511-2.29,6.786-1.617,5.089-3.18,10.185-5.087,15.175a1.245,1.245,0,0,0,.863,1.52,1.263,1.263,0,0,0,1.52-.863c1.683-4.4,3.114-8.888,4.523-13.386a136.236,136.236,0,0,1,4.626-13.256,8.193,8.193,0,0,1,1.787-2.715,11.342,11.342,0,0,1,2.91-1.9c1.352-.668,2.816-1.275,4.1-1.813,3.513-1.468,7.051-2.876,10.58-4.306,3.661-1.483,7.342-2.946,10.927-4.606a1.246,1.246,0,0,0,.443-1.69,1.264,1.264,0,0,0-1.69-.443h0Z" transform="translate(-32.928 -83.076)" fill="#d9d9d9"/>
              <path id="パス_15-2" data-name="パス 15" d="M49.444,249.126c-3.272-7.247-6.264-14.61-9.258-21.974a1.259,1.259,0,0,0-1.815-.738q-4.64,2.438-9.468,4.5a53.969,53.969,0,0,1-9.363,3.222,1.246,1.246,0,0,0-.863,1.52c1.842,5.888,3.607,11.8,5.688,17.612,1.066,2.973,2.218,5.915,3.488,8.807a54.426,54.426,0,0,0,3.169,6.416,17.347,17.347,0,0,0,4.556,5.17,11.821,11.821,0,0,0,6.824,2.161,17.129,17.129,0,0,0,7.829-1.957,21.541,21.541,0,0,0,5.517-4.341,116.54,116.54,0,0,0,9.218-10.738,1.243,1.243,0,0,0-.443-1.69,1.267,1.267,0,0,0-1.69.443l-.466.609-.3.386-.086.113c.18-.23.037-.052-.063.073q-.887,1.111-1.8,2.2c-1.507,1.806-3.05,3.585-4.65,5.31a30.038,30.038,0,0,1-4.6,4.374,15.318,15.318,0,0,1-6.785,2.654,10.091,10.091,0,0,1-6.345-1.135,12.832,12.832,0,0,1-4.206-4.27,43.986,43.986,0,0,1-3.132-6.078q-1.736-3.9-3.2-7.917C24.92,247.648,23.034,241.307,21.06,235l-.863,1.52a56.493,56.493,0,0,0,9.763-3.39q4.92-2.088,9.658-4.58l-1.815-.738c3.075,7.563,6.148,15.123,9.507,22.565a1.245,1.245,0,0,0,1.69.443,1.266,1.266,0,0,0,.443-1.69h0Z" transform="translate(-9.041 -109.791)" fill="#d9d9d9"/>
              <path id="パス_16-2" data-name="パス 16" d="M218.457,172.962c6.746,2.725,13.6,5.3,20.275,8.121,1.383.583,2.828,1.205,4.212,1.857,2.039.96,4.3,1.8,5.614,3.739a30.217,30.217,0,0,1,3.14,7.428c.881,2.634,1.639,5.308,2.311,8,1.543,6.188,2.639,12.475,3.837,18.735a1.247,1.247,0,0,0,1.52.863,1.261,1.261,0,0,0,.863-1.52c-1.1-5.733-2.11-11.486-3.456-17.167-.657-2.772-1.4-5.525-2.258-8.24a55.255,55.255,0,0,0-2.965-7.86,10.646,10.646,0,0,0-2.351-3.255,13.976,13.976,0,0,0-3.365-2.082c-1.5-.711-3-1.409-4.522-2.066-3.779-1.631-7.6-3.16-11.428-4.679-3.588-1.425-7.19-2.814-10.769-4.259a1.243,1.243,0,0,0-1.52.863,1.265,1.265,0,0,0,.863,1.52h0Z" transform="translate(-105.568 -82.745)" fill="#d9d9d9"/>
              <g id="e-2" data-name="e" transform="translate(99.379 131.928)">
                <path id="パス_17-2" data-name="パス 17" d="M246.425,285.387c2.738-2.439,13.327-11.789,15.65-14.112a16.383,16.383,0,0,0-9.921-4.3,33.514,33.514,0,0,0-11.235.6c-3.715.928-8.527,3.222-11.1,6.179-3.154-3.009-7.824-4.338-12.054-4.478a31.024,31.024,0,0,0-12.519,2.247,13.685,13.685,0,0,0-7.639,6.585c2.478,2.167,14.132,10.153,16.711,12.2l32.113-4.923Z" transform="translate(-195.268 -261.383)" fill="#3f88c9"/>
                <path id="パス_18-2" data-name="パス 18" d="M194.83,266.456a17.248,17.248,0,0,0-1.762,1.94,33.381,33.381,0,0,0,3.023,2.793l.3.22a14.06,14.06,0,0,1,6.653-4.964,31.024,31.024,0,0,1,12.519-2.247c4.23.139,8.9,1.469,12.054,4.478,2.578-2.957,7.39-5.251,11.1-6.179a33.512,33.512,0,0,1,11.235-.6,18.165,18.165,0,0,1,6.484,1.85l.085-.084c.657-.624,1.971-1.939,3.089-3.122-4.042-3.056-6.308-3.513-11.074-3.976a34.54,34.54,0,0,0-11.294.414c-3.546.886-8.094,2.365-10.613,5.168a20.658,20.658,0,0,0-11.07-3.274,31.024,31.024,0,0,0-12.519,2.247,22.363,22.363,0,0,0-5.142,2.74,35.523,35.523,0,0,0-3.068,2.6Z" transform="translate(-193.068 -256.301)" fill="#fff"/>
                <path id="パス_19-2" data-name="パス 19" d="M250.205,288.033q-.225-.182-.453-.358c-1.944-1.5-3.354-1.737-5.351-.62l-1.072.931c-.817-.867-1.51-1.585-1.806-1.842a3.337,3.337,0,0,0-3.2-.72c-1.263.47-1.791,1.16-1.791,2.218l-.12.9c-.67-.708-1.272-1.319-1.733-1.731-.389-.349-2.287-1.284-3.55-.335a2.05,2.05,0,0,0-.641,2.941,3.9,3.9,0,0,1,.185.352l-.283-.148a2.874,2.874,0,0,0-4.065,1.465,4.123,4.123,0,0,0,.325,2.7c.818,1.582,4.393,5.549,6.323,7.588,4.421,3.127,11.475.949,17.126-.364a7.459,7.459,0,0,0,2.239-.963c2.114-1.467,3.2-3.27,4.928-5.177a13.441,13.441,0,0,0,1.939-2.349,4.975,4.975,0,0,0,.712-3.486,2.625,2.625,0,0,0-.988-1.567,3.178,3.178,0,0,0-2.9.091,14.412,14.412,0,0,0-3.839,2.323,17.882,17.882,0,0,0-1.986-1.844Z" transform="translate(-209.159 -270.358)" fill="#fce0cd"/>
                <path id="パス_20-2" data-name="パス 20" d="M263.94,293.581c-.485-.453-.928-.956-1.381-1.441-.732-.783-1.461-1.569-2.194-2.352a1.245,1.245,0,0,0-1.747,0,1.261,1.261,0,0,0,0,1.747q1.1,1.174,2.194,2.352c.453.484.9.987,1.381,1.441a1.235,1.235,0,1,0,1.747-1.747Z" transform="translate(-224.706 -272.377)" fill="#efc0a0"/>
                <path id="パス_21-2" data-name="パス 21" d="M233.692,294.866a88.388,88.388,0,0,0,6.124,6.97,1.235,1.235,0,0,0,1.747-1.747,88.3,88.3,0,0,1-6.124-6.97,1.239,1.239,0,0,0-1.747,0,1.27,1.27,0,0,0,0,1.747Z" transform="translate(-212.612 -273.993)" fill="#efc0a0"/>
                <path id="パス_22-2" data-name="パス 22" d="M251.277,295.666c-1.552-1.681-3.058-3.4-4.616-5.08a1.245,1.245,0,0,0-1.747,0,1.262,1.262,0,0,0,0,1.747c1.558,1.675,3.064,3.4,4.616,5.08a1.245,1.245,0,0,0,1.747,0,1.262,1.262,0,0,0,0-1.747Z" transform="translate(-218.057 -272.764)" fill="#efc0a0"/>
              </g>
              <g id="f-2" data-name="f" transform="translate(80.687 44.474)">
                <path id="パス_23-2" data-name="パス 23" d="M175.314,127.3a10.9,10.9,0,0,0,5.25,1.212,8.512,8.512,0,0,0,5.269-1.542,1.242,1.242,0,0,0,0-1.747,1.267,1.267,0,0,0-1.747,0c.366-.285.05-.045-.044.015s-.217.132-.329.191c-.078.041-.465.2-.156.084-.151.057-.3.116-.454.165a7.8,7.8,0,0,1-2.709.362,8.116,8.116,0,0,1-2.585-.348c-.166-.05-.328-.109-.493-.166-.053-.019-.1-.046-.159-.062.3.089.089.04.008,0q-.306-.144-.6-.3a1.263,1.263,0,0,0-1.69.443,1.249,1.249,0,0,0,.443,1.69Z" transform="translate(-165.467 -105.071)" fill="#efc0a0"/>
                <path id="パス_24-2" data-name="パス 24" d="M184.129,103.912a24.907,24.907,0,0,1,.588,2.691l-.044-.328a1.628,1.628,0,0,1,.01.371l.044-.328a.927.927,0,0,1-.041.167l.125-.295a.627.627,0,0,1-.059.108l.193-.25a.583.583,0,0,1-.088.086l.25-.193a1.752,1.752,0,0,1-.213.113l.295-.125a1.564,1.564,0,0,1-.359.105l.328-.044a1.448,1.448,0,0,1-.337,0l.328.044c-.127-.018-.252-.048-.379-.066a1.366,1.366,0,0,0-.952.125,1.235,1.235,0,0,0-.443,1.69,1.183,1.183,0,0,0,.738.568c.276.037.545.108.826.12a2.621,2.621,0,0,0,1.2-.283,1.7,1.7,0,0,0,.953-1.126,2.886,2.886,0,0,0-.013-1.229c-.146-.867-.347-1.726-.57-2.576a1.236,1.236,0,1,0-2.382.657h0Z" transform="translate(-169.593 -94.137)" fill="#efc0a0"/>
                <path id="パス_25-2" data-name="パス 25" d="M156.926,88.6c-.449,1.46-.156,4.819,2.61,5.1,3.656-.022,3.85-4.082,2.619-5.992C161.148,86.145,158.185,85.495,156.926,88.6Z" transform="translate(-156.755 -86.402)" fill="#645d5c"/>
                <path id="パス_26-2" data-name="パス 26" d="M208.392,88.6c.449,1.46.156,4.819-2.609,5.1-3.656-.022-3.851-4.083-2.62-5.992C204.17,86.145,207.133,85.495,208.392,88.6Z" transform="translate(-178.944 -86.402)" fill="#645d5c"/>
              </g>
            </g>
          </g>
        </g>
      </g>
    </g>
    <g id="グループ_530" data-name="グループ 530" transform="translate(593.028 2237.033)">
      <g id="グループ_23" data-name="グループ 23" transform="translate(0 15.596)">
        <circle id="楕円形_3" data-name="楕円形 3" cx="69" cy="69" r="69" transform="translate(-0.028 -0.174)" fill="#fff7cb"/>
        <g id="マスクグループ_2" data-name="マスクグループ 2" transform="translate(0 0)" clip-path="url(#clip-path-3)">
          <g id="c-3" data-name="c" transform="translate(11.801 20.85)">
            <g id="d-3" data-name="d" transform="translate(0 0)">
              <path id="パス_53" data-name="パス 53" d="M112.616,128.76c-.511-.174-8.883-4.091-9.057-4.154-2.645-.954-2.542-2.657-2.875-4.558a36.041,36.041,0,0,1-.531-4.333c6.875-2.918,12.411-12.178,13.375-14.794.145-.439.439-1.266.7-2.247.352-.062.551-.093.551-.093a6.891,6.891,0,0,0,3.206-1.445,10.4,10.4,0,0,0,2.689-3.529,16.363,16.363,0,0,0,1.668-8.673,5.454,5.454,0,0,0-.572-2.2A3.862,3.862,0,0,0,119,80.89a4.089,4.089,0,0,0-3.272.958s2.849-22.916-27.544-22.916c-28.579,0-27.345,22.916-27.345,22.916a4.09,4.09,0,0,0-3.272-.958,3.861,3.861,0,0,0-2.777,1.846,5.463,5.463,0,0,0-.572,2.2,16.363,16.363,0,0,0,1.668,8.673,10.4,10.4,0,0,0,2.689,3.529,6.893,6.893,0,0,0,3.206,1.445l1.045.159a27.822,27.822,0,0,0,5.3,10.352,23.96,23.96,0,0,0,7.955,6.432,35.989,35.989,0,0,1-.542,4.522c-.333,1.9-.229,3.605-2.876,4.561-.175.063-8.546,3.979-9.056,4.152,0,0,.169,14.575,24.106,14.575s24.9-14.575,24.9-14.575Z" transform="translate(-32.708 -35.593)" fill="#fce0cd"/>
              <path id="パス_54" data-name="パス 54" d="M111.374,260.73c-1.009-2.088-1.867-4.25-3.026-6.264-1.027-1.783-2.918-6.059-6.77-9.474a64.836,64.836,0,0,0-14.7-9.036c-1.383-.644-2.942-1.392-4.516-2.115l-.052.037a44.242,44.242,0,0,1-50.494.021l-.07-.05c-1.567.72-3.119,1.465-4.5,2.106a64.846,64.846,0,0,0-14.7,9.036c-3.852,3.416-5.744,7.692-6.77,9.474-1.16,2.014-2.018,4.176-3.026,6.264Z" transform="translate(-1.664 -141.234)" fill="#fff"/>
              <path id="パス_55" data-name="パス 55" d="M191.112,27.019c1.609,1.782,4.828,3.032,8.4,3.048a15.018,15.018,0,0,0,9.454-3.132,3.238,3.238,0,0,0,.933-1.1.979.979,0,0,0,.1-.493c-.006-.07-.064-.337-.152-.352-2.192-.4-3.081-2.47-3.3-4.674s.045-4.552-.282-6.751a19.95,19.95,0,0,0-2.236-7.155C200.639.979,197.034.29,194.1.03a10.836,10.836,0,0,0-8.327,3.232,8.658,8.658,0,0,0-1.98,7.315Z" transform="translate(-110.914 0)" fill="#645d5c"/>
              <path id="パス_56" data-name="パス 56" d="M118.357,54.16a4.09,4.09,0,0,1,3.272-.958,3.908,3.908,0,0,1,.929.259,43.279,43.279,0,0,0,.709-9.9,31.919,31.919,0,0,0-4.5-15.32,30.071,30.071,0,0,0-4.141-5.3c-.63-.645-1.588-1.587-2.24-2.161a37.22,37.22,0,0,0-5.448-3.657,31.918,31.918,0,0,0-4.758-2.159A33.519,33.519,0,0,0,90.9,13.091a31.947,31.947,0,0,0-19.11,5.952A31.158,31.158,0,0,0,58.535,43.561a39.719,39.719,0,0,0,.2,5.043,37.372,37.372,0,0,0,.826,4.747A3.984,3.984,0,0,1,60.2,53.2a4.089,4.089,0,0,1,3.272.958c8.73-2,18.7-7.709,20.779-8.669,7.861-1.781,15.395-5.373,19.95-10.977a53.287,53.287,0,0,0,3.712,9.732c1.649,2.764,6.429,8.984,10.448,9.913" transform="translate(-35.342 -7.907)" fill="#645d5c"/>
              <path id="パス_57" data-name="パス 57" d="M14.449,251.466a30.842,30.842,0,0,0-7.5,6.745,53.389,53.389,0,0,0-3.974,6.565c-1.07,1.922-1.894,3.965-2.846,5.944a1.139,1.139,0,0,0,.4,1.517,1.119,1.119,0,0,0,1.517-.4c.82-1.7,1.545-3.455,2.414-5.137.534-1.034,1.11-2.052,1.668-3.074a26.731,26.731,0,0,1,5.411-7.186,36.565,36.565,0,0,1,4.027-3.062,1.137,1.137,0,0,0,.4-1.517,1.12,1.12,0,0,0-1.517-.4h0Z" transform="translate(0 -151.785)" fill="#d9d9d9"/>
              <path id="パス_58" data-name="パス 58" d="M239.74,253.452a27.468,27.468,0,0,1,6.891,6.23,54.871,54.871,0,0,1,3.83,6.417c1.027,1.874,1.832,3.86,2.758,5.784a1.119,1.119,0,0,0,1.517.4,1.133,1.133,0,0,0,.4-1.517c-2.7-5.612-5.2-11.733-9.97-15.962a41.929,41.929,0,0,0-4.3-3.264,1.109,1.109,0,1,0-1.119,1.915h0Z" transform="translate(-144.467 -151.828)" fill="#d9d9d9"/>
              <path id="パス_59" data-name="パス 59" d="M173.322,245.346c3.015-1.4,13.686-8.9,13.434-9.286-.9-1.366-10.294-5.468-16.854-8.589-3.6-1.713-6.127-3.281-6.762-3.588-4.485,7.358-12.042,20.262-16.619,27.833,4.906,1.006,13.113,0,26.8-6.37Z" transform="translate(-88.495 -135.22)" fill="#5394cf"/>
              <path id="パス_60" data-name="パス 60" d="M46,245.346c-3.015-1.4-13.686-8.9-13.434-9.286.9-1.366,10.294-5.468,16.854-8.589,3.6-1.713,6.127-3.281,6.762-3.588,4.485,7.358,12.042,20.262,16.619,27.833-4.906,1.006-13.113,0-26.8-6.37Z" transform="translate(-19.667 -135.22)" fill="#5394cf"/>
              <path id="パス_61" data-name="パス 61" d="M154.028,259.5a55.01,55.01,0,0,0,14.818-4.646,79.316,79.316,0,0,0,12.264-6.8,27.83,27.83,0,0,0,4.071-3.209,1.11,1.11,0,0,0-1.568-1.568,16.682,16.682,0,0,1-1.377,1.219q-.2.16-.4.317c.154-.12.01-.008-.06.045l-.259.195q-.517.386-1.045.754c-1.693,1.186-3.453,2.276-5.246,3.3a77.087,77.087,0,0,1-13.637,6.248,44.9,44.9,0,0,1-8.149,2,1.116,1.116,0,0,0-.775,1.364,1.139,1.139,0,0,0,1.364.775h0Z" transform="translate(-92.184 -146.737)" fill="#fff"/>
              <path id="パス_62" data-name="パス 62" d="M77.113,257.364a53.135,53.135,0,0,1-14.357-4.453A79.6,79.6,0,0,1,50.65,246.2q-.62-.422-1.227-.863-.27-.2-.536-.4l-.254-.193c.171.131-.024-.019-.087-.069a17.62,17.62,0,0,1-1.607-1.4,1.11,1.11,0,0,0-1.568,1.568,25.954,25.954,0,0,0,3.506,2.817c1.7,1.2,3.47,2.295,5.272,3.331a80.382,80.382,0,0,0,14.082,6.456,45.1,45.1,0,0,0,8.292,2.05,1.147,1.147,0,0,0,1.364-.775,1.116,1.116,0,0,0-.775-1.364h0Z" transform="translate(-27.206 -146.737)" fill="#fff"/>
              <path id="パス_63" data-name="パス 63" d="M123.976,279.1c.221,2,.92,5.427,1.2,7.387a24.534,24.534,0,0,0,5.814,1.52,16.718,16.718,0,0,0,5.155-1.608,44.452,44.452,0,0,0,1.154-7.3c-.426-.111-12.247,0-13.319,0Z" transform="translate(-74.878 -168.541)" fill="#f2635f"/>
              <path id="パス_64" data-name="パス 64" d="M104.283,78.859a1.558,1.558,0,0,1,.042-1.5,1.792,1.792,0,0,1,.823-.487l1.8-.663a2.077,2.077,0,0,1,2.36.67,42.891,42.891,0,0,1,4.285,6.73,2.064,2.064,0,0,1-.812,2.726,19.984,19.984,0,0,1-2.739,1.3,2.069,2.069,0,0,1-2.64-1.162l-3-7.315c-.038-.094-.077-.192-.112-.291Z" transform="translate(-62.881 -45.949)" fill="#4d4544"/>
              <g id="e-3" data-name="e" transform="translate(41.038 46.463)">
                <path id="パス_65" data-name="パス 65" d="M127.61,169.414a10.7,10.7,0,0,0,5.15,1.187,8.323,8.323,0,0,0,5.144-1.495,1.115,1.115,0,0,0,0-1.568,1.137,1.137,0,0,0-1.568,0c.32-.249.014-.019-.067.034-.106.068-.215.131-.327.189-.065.034-.428.2-.183.1q-.222.09-.451.164a8.279,8.279,0,0,1-2.719.363,8.638,8.638,0,0,1-2.6-.35c-.165-.049-.326-.108-.489-.164-.053-.019-.1-.042-.158-.061.27.1.031.013-.02-.01-.2-.095-.4-.194-.6-.3a1.133,1.133,0,0,0-1.517.4,1.121,1.121,0,0,0,.4,1.517h0Z" transform="translate(-117.782 -147.462)" fill="#efc0a0"/>
                <path id="パス_66" data-name="パス 66" d="M138.937,139.581a24.7,24.7,0,0,1,.583,2.669l-.04-.295a1.593,1.593,0,0,1,.01.368l.04-.295a.91.91,0,0,1-.04.166l.112-.265a.647.647,0,0,1-.059.107l.173-.225a.56.56,0,0,1-.087.086l.225-.173a1.681,1.681,0,0,1-.211.112l.265-.112a1.531,1.531,0,0,1-.356.1l.295-.04a1.408,1.408,0,0,1-.334,0l.295.04c-.126-.017-.25-.048-.376-.065a1.228,1.228,0,0,0-.855.112,1.109,1.109,0,0,0-.4,1.517,1.062,1.062,0,0,0,.663.51c.264.036.52.1.788.115a2.468,2.468,0,0,0,1.133-.265,1.58,1.58,0,0,0,.892-1.047,2.734,2.734,0,0,0-.013-1.157c-.145-.86-.344-1.712-.565-2.556a1.109,1.109,0,0,0-2.139.589h0Z" transform="translate(-124.404 -129.914)" fill="#efc0a0"/>
                <path id="パス_67" data-name="パス 67" d="M103.794,119.5c-.446,1.449-.155,4.78,2.589,5.064,3.627-.022,3.82-4.05,2.6-5.944C107.982,117.068,105.043,116.423,103.794,119.5Z" transform="translate(-103.624 -117.323)" fill="#645d5c"/>
                <path id="パス_68" data-name="パス 68" d="M168.448,119.5c.446,1.449.155,4.78-2.589,5.064-3.627-.022-3.82-4.05-2.6-5.944C164.26,117.069,167.2,116.424,168.448,119.5Z" transform="translate(-139.235 -117.323)" fill="#645d5c"/>
              </g>
            </g>
          </g>
        </g>
      </g>
    </g>
    <path id="合体_5" data-name="合体 5" d="M74.5-1172.54v-6.3H2a2,2,0,0,1-2-2v-25a2,2,0,0,1,2-2H74.5v-7.3a2,2,0,0,1,3.387-1.441l22.117,21.3a2,2,0,0,1,0,2.881l-22.117,21.3a1.96,1.96,0,0,1-1.373.564A2,2,0,0,1,74.5-1172.54Z" transform="translate(487 3519.348)" fill="#e5f4ff"/>
    <path id="合体_18" data-name="合体 18" d="M74.5-1172.54v-6.3H2a2,2,0,0,1-2-2v-25a2,2,0,0,1,2-2H74.5v-7.3a2,2,0,0,1,3.387-1.441l22.117,21.3a2,2,0,0,1,0,2.881l-22.117,21.3a1.96,1.96,0,0,1-1.373.564A2,2,0,0,1,74.5-1172.54Z" transform="translate(759 3497.335)" fill="#fff7cb"/>
    <path id="合体_19" data-name="合体 19" d="M80.5-1170.412v-6.425H-.534a2,2,0,0,1-2-2v-29a2,2,0,0,1,2-2H80.5v-7.425a2,2,0,0,1,3.359-1.468l25.319,23.424a2,2,0,0,1,0,2.937l-25.319,23.424a1.962,1.962,0,0,1-1.346.536A2,2,0,0,1,80.5-1170.412Z" transform="translate(851.616 1169.662) rotate(180)" fill="#e5f4ff"/>
    <g id="グループ_938" data-name="グループ 938" transform="translate(0.274 -174.545)">
      <rect id="長方形_320" data-name="長方形 320" width="57.453" height="20" rx="10" transform="translate(633 2555)" fill="#f88f00"/>
      <path id="パス_895" data-name="パス 895" d="M-13.846.406v-1.5h5.474V-3.7h-3.542V-5.222h3.542v-2.17H-11.3q-.392.658-.805,1.246a10.721,10.721,0,0,1-.805,1.022,2.522,2.522,0,0,0-.413-.315q-.273-.175-.56-.336a2.977,2.977,0,0,0-.5-.231A6.76,6.76,0,0,0-13.5-7.049a15.266,15.266,0,0,0,.9-1.456q.434-.791.763-1.547a6.572,6.572,0,0,0,.441-1.33l1.61.532a10.1,10.1,0,0,1-.728,1.96h2.142v-2.772h1.764V-8.89h4.55v1.5h-4.55v2.17h3.5V-3.7h-3.5v2.6h5.054v1.5ZM5.782.952A2.627,2.627,0,0,0,5.229.539,5.354,5.354,0,0,0,4.592.224V.938H3V-4.256q-.49.462-.966.84a3.645,3.645,0,0,0-.322-.371Q1.5-4,1.267-4.207A2.674,2.674,0,0,0,.84-4.522a8.526,8.526,0,0,0,.945-.8Q2.3-5.81,2.793-6.384T3.71-7.546a7.622,7.622,0,0,0,.658-1.078L5.782-7.9a12.256,12.256,0,0,1-1.19,1.862V.028A7.642,7.642,0,0,0,5.5-1.4a9.879,9.879,0,0,0,.672-1.764A9.115,9.115,0,0,0,6.5-5.11l1.5.224q-.056.49-.133.973t-.189.959a3.911,3.911,0,0,0,1.2,1.4V-5.782H5.488V-7.224H8.876v-1.47H6.09v-1.414H8.876v-1.568h1.666v1.568h2.8v1.414h-2.8v1.47h3.486v1.442H10.542V-4.41h2.842v1.47H10.542V-.882a8.3,8.3,0,0,0,.938.119q.49.035,1.05.035.462,0,.889-.014T14.238-.8a3.082,3.082,0,0,0-.161.434q-.091.294-.161.616A3.743,3.743,0,0,0,13.832.8h-1.3A12.961,12.961,0,0,1,10.157.609,4.728,4.728,0,0,1,8.428-.056a4.468,4.468,0,0,1-1.274-1.3,10.291,10.291,0,0,1-.6,1.225A7.125,7.125,0,0,1,5.782.952ZM2.2-7.616A4.357,4.357,0,0,0,1.659-8.2a4.719,4.719,0,0,0-.637-.518A11.466,11.466,0,0,0,2.24-9.611a12.386,12.386,0,0,0,1.134-1.064,7.4,7.4,0,0,0,.84-1.057l1.288.91a9.478,9.478,0,0,1-.994,1.239A13.734,13.734,0,0,1,3.332-8.47,12.43,12.43,0,0,1,2.2-7.616Z" transform="translate(662 2571)" fill="#fff"/>
    </g>
    <g id="グループ_939" data-name="グループ 939" transform="translate(282 -174.545)">
      <rect id="長方形_320-2" data-name="長方形 320" width="57.453" height="20" rx="10" transform="translate(633 2555)" fill="#49b2f4"/>
      <text id="先生" transform="translate(662 2571)" fill="#fff" font-size="14" font-family="ZenKakuGothicNew-Bold, Zen Kaku Gothic New" font-weight="700" letter-spacing="0.1em"><tspan x="-14.7" y="0">先生</tspan></text>
    </g>
    <g id="グループ_940" data-name="グループ 940" transform="translate(-263 -174.545)">
      <rect id="長方形_320-3" data-name="長方形 320" width="57.453" height="20" rx="10" transform="translate(633 2555)" fill="#49b2f4"/>
      <path id="パス_893" data-name="パス 893" d="M-13.09,1.148A5.329,5.329,0,0,0-13.5.364a3.931,3.931,0,0,0-.56-.742,6.2,6.2,0,0,0,2.282-.9,3.708,3.708,0,0,0,1.281-1.484,5.365,5.365,0,0,0,.469-2.03h-3.934V-6.342h5.53V-8.064h-2.646a8.669,8.669,0,0,1-1.078,1.456,5.631,5.631,0,0,0-.728-.5,5.475,5.475,0,0,0-.784-.385,6.613,6.613,0,0,0,.707-.854,11.581,11.581,0,0,0,.672-1.071,10.472,10.472,0,0,0,.546-1.134,7.111,7.111,0,0,0,.343-1.043l1.666.49a14.173,14.173,0,0,1-.546,1.5h1.848v-2.17h1.792V-9.6H-2.66v1.54H-6.636v1.722h5.222v1.554H-5.488v3.6a.38.38,0,0,0,.1.3A.663.663,0,0,0-4.97-.8h1.12A1.222,1.222,0,0,0-3.269-.91a.787.787,0,0,0,.322-.462A6.128,6.128,0,0,0-2.73-2.408a4.68,4.68,0,0,0,.483.217q.3.119.623.224t.546.161a5.842,5.842,0,0,1-.4,1.575,1.65,1.65,0,0,1-.7.805A2.36,2.36,0,0,1-3.3.812H-5.628A2.079,2.079,0,0,1-6.846.546,1.021,1.021,0,0,1-7.2-.322V-4.788h-1.12A6.369,6.369,0,0,1-9.555-1.064,6.632,6.632,0,0,1-13.09,1.148ZM1.554.406v-1.5H7.028V-3.7H3.486V-5.222H7.028v-2.17H4.1Q3.71-6.734,3.3-6.146a10.722,10.722,0,0,1-.805,1.022,2.522,2.522,0,0,0-.413-.315q-.273-.175-.56-.336a2.977,2.977,0,0,0-.5-.231A6.76,6.76,0,0,0,1.9-7.049a15.266,15.266,0,0,0,.9-1.456q.434-.791.763-1.547A6.572,6.572,0,0,0,4-11.382l1.61.532a10.1,10.1,0,0,1-.728,1.96H7.028v-2.772H8.792V-8.89h4.55v1.5H8.792v2.17h3.5V-3.7h-3.5v2.6h5.054v1.5Z" transform="translate(662 2571)" fill="#fff"/>
    </g>
    <path id="パス_894" data-name="パス 894" d="M-4.668.876V-1.908a10.147,10.147,0,0,1-1.1,1.182A9.59,9.59,0,0,1-6.972.228a4.641,4.641,0,0,0-.294-.372Q-7.452-.36-7.62-.528v1.1H-11.1V-2.868h3.48V-.852a8.37,8.37,0,0,0,.864-.63q.444-.366.858-.78a7.914,7.914,0,0,0,.714-.81H-7.32V-4.188h2.652v-.7H-6.936v-4.86h5.808v4.86H-3.42v.7H-.48v1.116H-2.9a7.724,7.724,0,0,0,.8.846,11.2,11.2,0,0,0,.96.792,8.841,8.841,0,0,0,.93.606A1.846,1.846,0,0,0-.5-.558q-.168.186-.33.39T-1.092.18A10.189,10.189,0,0,1-2.3-.756,10.009,10.009,0,0,1-3.42-1.932V.876Zm-6.84-7.74v-1.1h4.224v1.1Zm.588-1.68v-1.14h3.108v1.14Zm-.012,5.064V-4.6h3.12V-3.48Zm0-1.692v-1.1h3.12v1.1Zm1.08,4.656h.972v-1.26h-.972ZM-3.42-5.94h1.032v-.852H-3.42Zm0-1.872h1.032v-.852H-3.42ZM-5.676-5.94h1.008v-.852H-5.676Zm0-1.872h1.008v-.852H-5.676ZM1.308.816Q1.068.684.726.534a2.853,2.853,0,0,0-.594-.2A6.014,6.014,0,0,0,.726-.888,10.653,10.653,0,0,0,1.14-2.334,7.191,7.191,0,0,0,1.308-3.66l1.236.18a12.089,12.089,0,0,1-.18,1.236q.144.156.288.294t.3.27V-4.044H.612V-5.172h5.28v1.128H4.2v.828H5.712v1.092H4.2V-.972a6.907,6.907,0,0,0,.96.264,8.186,8.186,0,0,0,1.188.144q-.132-.2-.342-.474a2.357,2.357,0,0,0-.378-.4,5.241,5.241,0,0,0,.57-.294q.318-.186.63-.408t.552-.426H6.3V-7.992H7.68q.048-.156.108-.342T7.9-8.676H5.856V-9.732H11.3v1.056H9.252q-.048.156-.1.342t-.114.342h1.9v5.424H9.852a9.409,9.409,0,0,0,.822.6,6.282,6.282,0,0,0,.846.48,3.635,3.635,0,0,0-.378.426q-.21.27-.342.474.252-.012.444-.018t.288-.018a3.917,3.917,0,0,0-.132.39q-.072.246-.132.5t-.084.42H7.392A13.193,13.193,0,0,1,5.154.516,6.4,6.4,0,0,1,3.438-.018,5.378,5.378,0,0,1,2.064-.984q-.144.48-.33.936A6.669,6.669,0,0,1,1.308.816ZM1.224-5.7V-9.732h4.2V-5.7ZM7.392-.528q.444,0,1-.006T9.5-.552l1.014-.024q-.276-.168-.6-.39T9.3-1.428q-.288-.24-.48-.432l.708-.708H7.692l.7.708a4.8,4.8,0,0,1-.486.438q-.306.246-.648.474t-.63.4Q6.8-.54,7-.534T7.392-.528Zm.18-3.024h2.1v-.612h-2.1Zm0-1.428h2.1v-.612h-2.1Zm0-1.44h2.1v-.6h-2.1ZM2.484-6.648H4.152v-.636H2.484Zm0-1.5H4.152v-.624H2.484Z" transform="translate(527.884 2331.848)" fill="#49b2f4"/>
    <path id="パス_897" data-name="パス 897" d="M-7.212.936A3.339,3.339,0,0,0-7.734.552,4.128,4.128,0,0,0-8.328.24a4.413,4.413,0,0,0,.594-.726,7.435,7.435,0,0,0,.546-.972,9.3,9.3,0,0,0,.432-1.086A5.519,5.519,0,0,0-6.516-3.6l1.308.288a6.2,6.2,0,0,1-.132.648q-.084.324-.18.636a3.024,3.024,0,0,0,.816.864V-3.888H-7.152V-5.124H-.66v1.236H-3.348v.876H-1.1v1.188H-3.348V-.636a5.253,5.253,0,0,0,.888.072A15.177,15.177,0,0,0-.444-.66,4.283,4.283,0,0,0-.6-.006Q-.672.408-.7.708H-2.46A5.367,5.367,0,0,1-4.548.348,3.5,3.5,0,0,1-6-.816,6.879,6.879,0,0,1-7.212.936Zm-3.72-.084A4.514,4.514,0,0,0-10.992.4Q-11.04.12-11.1-.15a2.6,2.6,0,0,0-.12-.414h.78A.574.574,0,0,0-10.1-.642.369.369,0,0,0-10-.948v-1.92q-.456.18-.834.312t-.546.18L-11.7-3.828q.288-.06.744-.2T-10-4.32V-6.456h-1.512v-1.32H-10v-2.268h1.38v2.268h1.068v1.32H-8.616v1.668q.4-.144.7-.258a3.118,3.118,0,0,0,.45-.2v1.332q-.156.084-.462.216t-.69.288V-.336A1.089,1.089,0,0,1-8.97.57a1.706,1.706,0,0,1-1.074.282ZM-6.8-5.676V-9.792H-1.3v4.116ZM-5.436-6.7h2.772V-7.26H-5.436Zm0-1.512h2.772V-8.76H-5.436ZM1.056.4V-3.912H2.532v2.9H5.244V-4.6H1.44V-9.012H2.976v3.036H5.244V-9.912h1.5v3.936H8.988V-9.012h1.548V-4.6H6.744v3.588H9.456v-2.9h1.488V.4Z" transform="translate(798.569 2309.498)" fill="#f88f00"/>
    <path id="パス_896" data-name="パス 896" d="M-4.56.864V-3.12H-7.152V-4.38H-4.56v-1a4.712,4.712,0,0,0-.618.288q-.354.192-.558.324A8.562,8.562,0,0,0-6.264-5.85q-.336-.594-.648-1.062V-6.8h-4.512v-1.14h4.512v.5l.876-.48a8.309,8.309,0,0,1,.5.732q.282.456.552.93a8.776,8.776,0,0,1,.426.834v-3h-2.2v-1.2h5.9v1.2h-2.34v2.856q.228-.312.48-.72t.48-.834a7.91,7.91,0,0,0,.372-.786L-.7-7.344q-.156.348-.42.828t-.558.942q-.294.462-.522.762a3.8,3.8,0,0,0-.48-.306,5.1,5.1,0,0,0-.516-.258v1H-.54v1.26H-3.192V.864Zm-6.42-.24V-2.928h3.648V.624Zm.108-5.784V-6.228H-7.5V-5.16Zm0-3.36V-9.588H-7.5V-8.52Zm0,5V-4.572H-7.5v1.056Zm1.128,3h1.188V-1.8H-9.744ZM1.752.828V-5.28q-.168.264-.33.5a4.766,4.766,0,0,1-.33.426A1.708,1.708,0,0,0,.8-4.674Q.6-4.848.4-5.01a3.091,3.091,0,0,0-.348-.246A8.247,8.247,0,0,0,.774-6.3q.366-.612.69-1.284T2.034-8.9A8.947,8.947,0,0,0,2.4-10.056l1.344.312a3.941,3.941,0,0,1-.108.408h7.752V-7.98H8.94v1.656h2.076V.48h-7.2v-6.8H5.892V-7.98H3.612v-1.3q-.1.336-.228.7t-.3.744V.828ZM5.1-.924h.792V-4.932H5.1Zm1.92,0h.792V-4.932H7.02Zm1.92,0h.792V-4.932H8.94Zm-1.92-5.4h.792V-7.98H7.02ZM-38.736,14.964a4.052,4.052,0,0,0-.228-.408q-.156-.252-.342-.5a2.4,2.4,0,0,0-.354-.4,10.711,10.711,0,0,0,3.774-2.076A7.428,7.428,0,0,0-33.732,8.2q-.564.012-1.284.036l-1.47.048-1.44.048q-.69.024-1.206.048l-.756.036-.1-1.62q.348.024.912.036t1.254.012q.69,0,1.416-.006t1.41-.024q.684-.018,1.236-.042t.876-.048l.972.5a10.75,10.75,0,0,1-1.344,3.438,9.794,9.794,0,0,1-2.328,2.6A10.889,10.889,0,0,1-38.736,14.964Zm14.556.36V11.5a17.548,17.548,0,0,1-2.76,1.524,6.25,6.25,0,0,0-.336-.558A1.91,1.91,0,0,0-27.684,12a11.321,11.321,0,0,0,1.62-.72,14.813,14.813,0,0,0,1.6-1A13.858,13.858,0,0,0-23.04,9.126a8.122,8.122,0,0,0,1.068-1.194l.96.732a10.756,10.756,0,0,1-.9,1q-.5.5-1.068.954v4.7Zm7.284-4.1q.012-.168.012-.456v-.576q0-.288-.012-.456.228.012.81.024t1.392.024q.81.012,1.734.018t1.848.006q.924,0,1.746-.012t1.422-.024q.6-.012.852-.036-.012.156-.018.444t0,.582q.006.294.006.45-.3-.012-.882-.024t-1.356-.024q-.774-.012-1.644-.012h-1.758q-.888,0-1.692.012l-1.446.024Q-16.524,11.2-16.9,11.22Zm15.528,4.152V5.7H.1V9.336l.54-.768q.288.216.762.516T2.412,9.7q.54.318,1.044.582a8.1,8.1,0,0,0,.852.4,2.874,2.874,0,0,0-.33.378q-.186.246-.348.5A4.189,4.189,0,0,0,3.384,12q-.288-.144-.714-.4t-.9-.546q-.474-.294-.912-.594T.1,9.924v5.448ZM4.392,7.44A5.827,5.827,0,0,0,3.8,6.63a7.03,7.03,0,0,0-.666-.69L3.8,5.424a4.749,4.749,0,0,1,.42.426q.252.282.492.57a5.3,5.3,0,0,1,.372.492Zm-1.1.876A6.389,6.389,0,0,0,2.7,7.5a6.346,6.346,0,0,0-.66-.7l.672-.516q.168.156.42.438t.486.57a5.87,5.87,0,0,1,.366.492Zm4.5,5.112a5.457,5.457,0,0,0-.57-.558,5.663,5.663,0,0,0-.678-.51,7.879,7.879,0,0,0,1.452-1.314A8.915,8.915,0,0,0,9.108,9.438a7.015,7.015,0,0,0,.648-1.614l1.44.492a10.047,10.047,0,0,1-.75,1.878,10.286,10.286,0,0,1-1.158,1.77A8.947,8.947,0,0,1,7.788,13.428Zm8.064-.336a11.311,11.311,0,0,0-.534-1.158q-.33-.63-.732-1.254T13.77,9.516a6.572,6.572,0,0,0-.786-.876l1.176-.816a9.006,9.006,0,0,1,.87.9q.45.528.888,1.134t.8,1.218a13.227,13.227,0,0,1,.63,1.176q-.3.144-.726.372A8.077,8.077,0,0,0,15.852,13.092Zm-.288-5.16a5.769,5.769,0,0,0-.606-.8,6.722,6.722,0,0,0-.678-.678l.66-.528a4.031,4.031,0,0,1,.432.42q.252.276.5.558a4.456,4.456,0,0,1,.378.486Zm1.08-.912a5.278,5.278,0,0,0-.606-.786,7.664,7.664,0,0,0-.69-.678l.66-.528a4.4,4.4,0,0,1,.438.42q.258.276.5.558a5.5,5.5,0,0,1,.378.474Zm5.268,8.136a4.074,4.074,0,0,0-.288-.582,2.516,2.516,0,0,0-.372-.51,6.934,6.934,0,0,0,3.354-1.752,5.75,5.75,0,0,0,1.578-3.42l1.164.192a7.687,7.687,0,0,1-1,2.928,6.289,6.289,0,0,1-1.86,1.938A9.986,9.986,0,0,1,21.912,15.156Zm-.744-3.684a4.037,4.037,0,0,0-.156-.612q-.12-.372-.27-.732a3.963,3.963,0,0,0-.27-.552l1.092-.4a4.1,4.1,0,0,1,.264.576q.144.372.27.75t.186.642Zm2.052-.456a3.7,3.7,0,0,0-.132-.618q-.108-.378-.24-.744A3.042,3.042,0,0,0,22.6,9.1l1.092-.36a6.155,6.155,0,0,1,.246.588q.138.372.252.75a6.021,6.021,0,0,1,.162.642Zm9.456,4.44a2.892,2.892,0,0,0-.252-.42q-.168-.24-.354-.474a2.611,2.611,0,0,0-.342-.366,12.874,12.874,0,0,0,2.706-1.41,12.319,12.319,0,0,0,2.232-1.95,10.092,10.092,0,0,0,1.578-2.328l-1.074.054q-.57.03-1.038.048t-.7.018a12.18,12.18,0,0,1-1.29,1.434,11.6,11.6,0,0,1-1.482,1.194,4.044,4.044,0,0,0-.306-.324q-.2-.192-.408-.384a2.5,2.5,0,0,0-.39-.3,8.556,8.556,0,0,0,1.68-1.29,10.787,10.787,0,0,0,1.4-1.68,8.308,8.308,0,0,0,.936-1.794l1.392.492q-.144.336-.3.66t-.336.636q.516-.012,1.122-.03t1.11-.048q.5-.03.72-.066l.9.516a11.539,11.539,0,0,1-1.662,3.2,13.674,13.674,0,0,1-2.592,2.676A14.439,14.439,0,0,1,32.676,15.456Z" transform="translate(808 2360.455)" fill="#49b2f4"/>
  </g>
</svg>
