<svg xmlns="http://www.w3.org/2000/svg" xmlns:xlink="http://www.w3.org/1999/xlink" width="441.26" height="223.61" viewBox="0 0 441.26 223.61">
  <defs>
    <clipPath id="clip-path">
      <ellipse id="楕円形_1" data-name="楕円形 1" cx="69.5" cy="69" rx="69.5" ry="69" transform="translate(-0.009 0.156)" fill="#fff" stroke="#707070" stroke-width="1"/>
    </clipPath>
    <clipPath id="clip-path-2">
      <ellipse id="楕円形_4" data-name="楕円形 4" cx="70" cy="69.5" rx="70" ry="69.5" transform="translate(-0.431 0)" fill="#fff" stroke="#707070" stroke-width="1"/>
    </clipPath>
  </defs>
  <g id="fig2" transform="translate(-1173.856 -2252.455)">
    <path id="パス_898" data-name="パス 898" d="M-87.024.464V-1.248h6.256V-4.224h-4.048V-5.968h4.048v-2.48h-3.344q-.448.752-.92,1.424a12.253,12.253,0,0,1-.92,1.168,2.882,2.882,0,0,0-.472-.36q-.312-.2-.64-.384a3.4,3.4,0,0,0-.568-.264,7.725,7.725,0,0,0,1-1.192A17.445,17.445,0,0,0-85.6-9.72q.5-.9.872-1.768a7.511,7.511,0,0,0,.5-1.52l1.84.608a11.543,11.543,0,0,1-.832,2.24h2.448v-3.168h2.016v3.168h5.2v1.712h-5.2v2.48h4v1.744h-4v2.976h5.776V.464Zm20.832.624a3,3,0,0,0-.632-.472,6.118,6.118,0,0,0-.728-.36v.816h-1.824V-4.864q-.56.528-1.1.96a4.166,4.166,0,0,0-.368-.424q-.24-.248-.5-.48a3.057,3.057,0,0,0-.488-.36,9.745,9.745,0,0,0,1.08-.912q.584-.56,1.152-1.216t1.048-1.328a8.711,8.711,0,0,0,.752-1.232l1.616.832A14.006,14.006,0,0,1-67.552-6.9V.032A8.733,8.733,0,0,0-66.512-1.6a11.29,11.29,0,0,0,.768-2.016,10.418,10.418,0,0,0,.368-2.224l1.712.256q-.064.56-.152,1.112t-.216,1.1a4.47,4.47,0,0,0,1.376,1.6V-6.608h-3.872V-8.256h3.872v-1.68H-65.84v-1.616h3.184v-1.792h1.9v1.792h3.2v1.616h-3.2v1.68h3.984v1.648h-3.984V-5.04H-57.5v1.68h-3.248v2.352a9.483,9.483,0,0,0,1.072.136q.56.04,1.2.04.528,0,1.016-.016t.936-.064a3.523,3.523,0,0,0-.184.5q-.1.336-.184.7a4.278,4.278,0,0,0-.1.624H-58.48A14.813,14.813,0,0,1-61.192.7a5.4,5.4,0,0,1-1.976-.76,5.106,5.106,0,0,1-1.456-1.488,11.762,11.762,0,0,1-.688,1.4A8.144,8.144,0,0,1-66.192,1.088Zm-4.1-9.792a4.979,4.979,0,0,0-.616-.672,5.393,5.393,0,0,0-.728-.592,13.1,13.1,0,0,0,1.392-1.016,14.157,14.157,0,0,0,1.3-1.216,8.459,8.459,0,0,0,.96-1.208l1.472,1.04a10.831,10.831,0,0,1-1.136,1.416A15.7,15.7,0,0,1-68.992-9.68,14.206,14.206,0,0,1-70.288-8.7ZM-53.424.416a3.281,3.281,0,0,0-.448-.352q-.3-.208-.624-.384a2.748,2.748,0,0,0-.544-.24,10.6,10.6,0,0,0,1.3-1.752A22.673,22.673,0,0,0-52.56-4.56a25.314,25.314,0,0,0,.992-2.5q-.816.1-1.576.224t-1.256.256q-.016-.208-.08-.56t-.144-.7a2.449,2.449,0,0,0-.16-.5q.368-.032.96-.088t1.312-.128q.72-.072,1.44-.12.288-1.008.472-1.976a16.44,16.44,0,0,0,.248-1.8l1.888.336q-.08.736-.256,1.576t-.432,1.72q.32-.016.576-.024t.448-.008a3.081,3.081,0,0,1,1.144.2,1.637,1.637,0,0,1,.808.7,3.02,3.02,0,0,1,.352,1.392,9.92,9.92,0,0,1-.208,2.264,13.8,13.8,0,0,1-.728,2.7A2.943,2.943,0,0,1-47.776-.208a2.772,2.772,0,0,1-1.552.4,3.783,3.783,0,0,1-1.68-.352q.016-.384,0-.928a4.789,4.789,0,0,0-.1-.9,3.876,3.876,0,0,0,1.568.352,1.055,1.055,0,0,0,.664-.216,2.053,2.053,0,0,0,.536-.864,12.037,12.037,0,0,0,.512-1.912,6.729,6.729,0,0,0,.192-1.736.963.963,0,0,0-.3-.744,1.1,1.1,0,0,0-.64-.176q-.448,0-1.072.048-.5,1.488-1.128,2.928T-52.088-1.64A15.487,15.487,0,0,1-53.424.416Zm11.664-4.16a11.328,11.328,0,0,0-.7-1.024q-.448-.592-.976-1.192t-1.024-1.1a6.442,6.442,0,0,0-.864-.76l1.408-1.184a10.338,10.338,0,0,1,.9.776q.512.488,1.056,1.064t1.008,1.136a8.9,8.9,0,0,1,.72.976Zm.72-6.592a7.774,7.774,0,0,0-1.064-.808,7.924,7.924,0,0,0-1.112-.616l.672-.912q.272.128.7.384t.848.536a6.581,6.581,0,0,1,.664.488ZM-42.128-8.8a7.327,7.327,0,0,0-1.048-.816,9.026,9.026,0,0,0-1.112-.64l.672-.9a7.16,7.16,0,0,1,.7.392q.424.264.84.544a6.986,6.986,0,0,1,.656.488Zm2.912,4.624v-1.2h6.32v-.592h-4.656v-1.12H-32.9V-7.68h-4.656v-1.2H-32.9v-.576h-6.4v-1.232h6.4v-.592h-4.64v-1.232h4.64v-.96h1.824v.96h4.384v1.824h1.92v1.232h-1.92V-7.68h-4.384v.592h4.384v1.12h-4.384v.592h6.288v1.2Zm2.032,5.3V-3.648h10.32V1.12Zm1.936-1.184h6.512V-.72h-6.512Zm0-1.728h6.512v-.656h-6.512Zm4.176-8.9h2.656v-.592h-2.656Zm0,1.808h2.656v-.576h-2.656Zm13.728,7.264a2.448,2.448,0,0,1-1.5.36,1.808,1.808,0,0,1-1.248-.9,10.569,10.569,0,0,1-.912-1.808,17.546,17.546,0,0,1-.712-2.208,20.02,20.02,0,0,1-.448-2.336A15.192,15.192,0,0,1-22.3-10.7l1.952.016A10.481,10.481,0,0,0-20.3-8.976,16.666,16.666,0,0,0-20-7.1a14.54,14.54,0,0,0,.5,1.752A7.169,7.169,0,0,0-18.88-4a.817.817,0,0,0,.488.44.76.76,0,0,0,.568-.136,4.836,4.836,0,0,0,.808-.7,7.4,7.4,0,0,0,.712-.864,2.774,2.774,0,0,0,.264.544q.184.3.4.592a4.389,4.389,0,0,0,.392.464,7.732,7.732,0,0,1-.984,1.184A5.465,5.465,0,0,1-17.344-1.616ZM-11.3-4.608a10.645,10.645,0,0,0-.5-1.152q-.336-.688-.768-1.432t-.864-1.376a6.284,6.284,0,0,0-.8-.984l1.536-.976A9.092,9.092,0,0,1-11.8-9.456q.488.672.96,1.432T-10-6.552a8.268,8.268,0,0,1,.528,1.208,5.222,5.222,0,0,0-1,.3A4.327,4.327,0,0,0-11.3-4.608ZM-4.8.736A6.013,6.013,0,0,0-5.712.28a6.345,6.345,0,0,0-.976-.328A11.17,11.17,0,0,0-5.824-1.56q.448-.92.9-2.048t.864-2.352q.416-1.224.752-2.408-.912.08-1.72.112t-1.336,0l-.176-1.92a15.108,15.108,0,0,0,1.656.048q1-.016,2.072-.112.208-.832.328-1.536a11.576,11.576,0,0,0,.152-1.248l2,.272q-.064.464-.192,1.032T-.816-10.5q.656-.112,1.232-.248a9.114,9.114,0,0,0,.976-.28L1.68-9.232q-.5.16-1.288.328t-1.72.3q-.352,1.264-.784,2.6t-.9,2.6q-.464,1.264-.92,2.328T-4.8.736ZM6.048.064A13.055,13.055,0,0,1,2.792.192,8.915,8.915,0,0,1,.136-.432a4.129,4.129,0,0,1-1.688-1.2l.976-1.44A4.043,4.043,0,0,0,1-2.136a8.15,8.15,0,0,0,2.384.416,13.268,13.268,0,0,0,2.984-.248A4.484,4.484,0,0,0,6.12-.96,5.793,5.793,0,0,0,6.048.064ZM5.568-5.6a10.013,10.013,0,0,0-1.216-.312Q3.664-6.048,2.9-6.128t-1.488-.1Q.688-6.256.1-6.224L.336-8.1a12.845,12.845,0,0,1,1.352.008q.776.04,1.616.12t1.6.2q.76.12,1.3.248ZM9.52,1.328Q9.376.9,9.16.392a3.713,3.713,0,0,0-.424-.776A11.908,11.908,0,0,0,12.7-1.512a4.354,4.354,0,0,0,1.976-1.944H8.816v-1.6h2.192v-3.5h4.064V-10H16.9v1.44h4.048v3.5H23.2v1.6H17.248a6.459,6.459,0,0,0,2.384,2,10.807,10.807,0,0,0,3.712.992q-.112.208-.264.536t-.3.664q-.144.336-.224.576a13.081,13.081,0,0,1-2.512-.7A9.877,9.877,0,0,1,17.816-.592,7.313,7.313,0,0,1,16.1-2.336,6.749,6.749,0,0,1,13.7-.128,13.5,13.5,0,0,1,9.52,1.328Zm3.1-10.752V-10.56H8.912v-1.616h3.712v-1.2h1.808v1.2h3.1v-1.2H19.36v1.2h3.7v1.616h-3.7v1.136H17.536V-10.56h-3.1v1.136ZM16.88-5.056h2.176V-7.024H16.9v1.832A.712.712,0,0,1,16.88-5.056Zm-3.952,0h2.128a.712.712,0,0,0,.016-.136V-7.024H12.928ZM25.44,1.3A4.844,4.844,0,0,0,25.024.36,4.282,4.282,0,0,0,24.4-.528a13.087,13.087,0,0,0,6.288-2.8,13.464,13.464,0,0,1-1.624-2.536,21.342,21.342,0,0,1-1.24-3.144h-3.04V-10.72H30.96V-13.5h2.08v2.784h6.128v1.712h-2.88a20.234,20.234,0,0,1-1.224,3.144,13,13,0,0,1-1.608,2.5,11.646,11.646,0,0,0,2.776,1.72,14.87,14.87,0,0,0,3.4,1.032,4.459,4.459,0,0,0-.44.576,7.48,7.48,0,0,0-.416.712,4.075,4.075,0,0,0-.264.616A22.21,22.21,0,0,1,34.872-.08a13.073,13.073,0,0,1-2.824-1.856A13.515,13.515,0,0,1,29.176-.1,23.686,23.686,0,0,1,25.44,1.3Zm6.624-6.048A10.951,10.951,0,0,0,34.1-9.008h-4.16A10.408,10.408,0,0,0,32.064-4.752ZM51.664.624A7.124,7.124,0,0,1,48.72-.352a5.633,5.633,0,0,1-1.992-2.032,5.645,5.645,0,0,1-.712-2.848,5.6,5.6,0,0,1,.552-2.352,6.1,6.1,0,0,1,1.656-2.128q-1.28.208-2.552.448t-2.3.448q-1.032.208-1.592.352l-.432-2.064q.528-.032,1.464-.144t2.112-.28q1.176-.168,2.432-.368t2.432-.408q1.176-.208,2.112-.408t1.464-.36l.512,1.952q-.256.016-.616.064t-.808.112a4.779,4.779,0,0,0-1.68.544A5.453,5.453,0,0,0,49.336-8.7a5.348,5.348,0,0,0-1,1.568,4.885,4.885,0,0,0-.368,1.9,3.273,3.273,0,0,0,.624,2.048,4.093,4.093,0,0,0,1.7,1.272A8.92,8.92,0,0,0,52.72-1.3a3.342,3.342,0,0,0-.464.6,5.9,5.9,0,0,0-.384.72A3,3,0,0,0,51.664.624ZM54.448-6.72a7.354,7.354,0,0,0-.808-1.056,8.275,8.275,0,0,0-.92-.9l.864-.72a5.865,5.865,0,0,1,.584.56q.344.368.68.744a5.526,5.526,0,0,1,.512.648ZM53.008-5.5a7.14,7.14,0,0,0-.8-1.072,9.144,9.144,0,0,0-.912-.912l.88-.7a5.374,5.374,0,0,1,.576.56q.336.368.664.752a8.137,8.137,0,0,1,.5.64ZM59.3,1.056V-5.792h9.44V1.056ZM56.624-6.672V-8.32h4q-.16-.4-.368-.832a6.359,6.359,0,0,0-.432-.768l1.888-.56h-4.08v-1.568H62.96v-1.5h2.112v1.5h5.264v1.568h-4.16l1.888.48a6.927,6.927,0,0,1-.272.752q-.192.464-.416.928H71.36v1.648ZM62.768-8.32h2.48q.256-.5.52-1.128a9.379,9.379,0,0,0,.376-1.032h-4.3a6.865,6.865,0,0,1,.312.648q.168.392.336.792T62.768-8.32ZM61.328-.48H66.72V-1.664H61.328Zm0-2.608H66.72V-4.24H61.328ZM79.184-8.24V-9.712h2.432v-.88H78.5v1.44H72.48v-1.472h5.856v-1.44h3.28v-1.28h1.856v1.28h3.5v1.472h-3.5v.88h2.672V-8.24Zm-.128,9.456a5.539,5.539,0,0,0-.424-.544A5.765,5.765,0,0,0,78.1.128v.64h-4.96V-3.824H78.1V-.24a4.214,4.214,0,0,0,1.488-1.216,4.187,4.187,0,0,0,.7-1.672,11.758,11.758,0,0,0,.192-2.264h1.7a13.066,13.066,0,0,1-.288,2.952,5.422,5.422,0,0,1-.968,2.1A6.143,6.143,0,0,1,79.056,1.216Zm-.7-5.776V-7.472h8.672V-4.56H85.3V-5.984H80.112V-4.56ZM84.288.96A1.883,1.883,0,0,1,83.168.7a1.04,1.04,0,0,1-.336-.88V-5.392H84.56V-1.1a.351.351,0,0,0,.088.28.614.614,0,0,0,.36.072h.416a.511.511,0,0,0,.328-.1.8.8,0,0,0,.2-.424,9.191,9.191,0,0,0,.16-1.048,5.449,5.449,0,0,0,.768.312,8.792,8.792,0,0,0,.848.248,7.075,7.075,0,0,1-.36,1.68,1.493,1.493,0,0,1-.648.816A2.372,2.372,0,0,1,85.6.96ZM73.248-11.392v-1.52h4.544v1.52Zm0,6.752V-6.128h4.544V-4.64Zm0-2.256V-8.368h4.544V-6.9Zm1.6,6.208h1.536v-1.68H74.848Z" transform="translate(1265 2431.455)" fill="#000205"/>
    <path id="パス_899" data-name="パス 899" d="M-95.144,0l4.272-11.2h1.632L-84.968,0h-2.1l-.864-2.464h-4.3L-93.1,0Zm3.52-4.176h3.1l-1.536-4.368ZM-83.672,0V-11.2h1.84V0Zm5.552.416a3.281,3.281,0,0,0-.448-.352q-.3-.208-.624-.384a2.748,2.748,0,0,0-.544-.24,10.594,10.594,0,0,0,1.3-1.752A22.674,22.674,0,0,0-77.256-4.56a25.316,25.316,0,0,0,.992-2.5q-.816.1-1.576.224t-1.256.256q-.016-.208-.08-.56t-.144-.7a2.45,2.45,0,0,0-.16-.5q.368-.032.96-.088t1.312-.128q.72-.072,1.44-.12.288-1.008.472-1.976a16.441,16.441,0,0,0,.248-1.8l1.888.336q-.08.736-.256,1.576t-.432,1.72q.32-.016.576-.024t.448-.008a3.081,3.081,0,0,1,1.144.2,1.637,1.637,0,0,1,.808.7,3.02,3.02,0,0,1,.352,1.392,9.92,9.92,0,0,1-.208,2.264,13.8,13.8,0,0,1-.728,2.7A2.943,2.943,0,0,1-72.472-.208a2.772,2.772,0,0,1-1.552.4A3.783,3.783,0,0,1-75.7-.16q.016-.384,0-.928a4.789,4.789,0,0,0-.1-.9,3.876,3.876,0,0,0,1.568.352,1.055,1.055,0,0,0,.664-.216,2.053,2.053,0,0,0,.536-.864,12.038,12.038,0,0,0,.512-1.912,6.729,6.729,0,0,0,.192-1.736.963.963,0,0,0-.3-.744,1.1,1.1,0,0,0-.64-.176q-.448,0-1.072.048-.5,1.488-1.128,2.928T-76.784-1.64A15.487,15.487,0,0,1-78.12.416Zm11.664-4.16a11.326,11.326,0,0,0-.7-1.024q-.448-.592-.976-1.192t-1.024-1.1a6.441,6.441,0,0,0-.864-.76l1.408-1.184a10.337,10.337,0,0,1,.9.776q.512.488,1.056,1.064t1.008,1.136a8.9,8.9,0,0,1,.72.976Zm.72-6.592a7.774,7.774,0,0,0-1.064-.808,7.924,7.924,0,0,0-1.112-.616l.672-.912q.272.128.7.384t.848.536a6.582,6.582,0,0,1,.664.488ZM-66.824-8.8a7.327,7.327,0,0,0-1.048-.816,9.026,9.026,0,0,0-1.112-.64l.672-.9a7.16,7.16,0,0,1,.7.392q.424.264.84.544a6.987,6.987,0,0,1,.656.488Zm3.568,10.1A4.844,4.844,0,0,0-63.672.36,4.282,4.282,0,0,0-64.3-.528a13.087,13.087,0,0,0,6.288-2.8,13.464,13.464,0,0,1-1.624-2.536,21.342,21.342,0,0,1-1.24-3.144h-3.04V-10.72h6.176V-13.5h2.08v2.784h6.128v1.712h-2.88a20.234,20.234,0,0,1-1.224,3.144,13,13,0,0,1-1.608,2.5,11.646,11.646,0,0,0,2.776,1.72,14.87,14.87,0,0,0,3.4,1.032,4.459,4.459,0,0,0-.44.576A7.48,7.48,0,0,0-49.92.68a4.075,4.075,0,0,0-.264.616A22.21,22.21,0,0,1-53.824-.08a13.073,13.073,0,0,1-2.824-1.856A13.515,13.515,0,0,1-59.52-.1,23.686,23.686,0,0,1-63.256,1.3Zm6.624-6.048A10.951,10.951,0,0,0-54.6-9.008h-4.16A10.408,10.408,0,0,0-56.632-4.752Zm21.84,5.84q-.16-.352-.416-.792t-.56-.92q-.512.144-1.3.3t-1.72.336q-.928.176-1.864.328t-1.768.272q-.832.12-1.424.184L-44.3-1.088q.432-.016.984-.056t1.176-.1q.256-.528.568-1.224t.624-1.424q.312-.728.536-1.336h-3.84V-6.944h4.3V-8.96H-43.4v-1.7h3.456V-13.3h2v2.64h3.776v1.7h-3.776v2.016H-33.5v1.712h-4.736q-.224.544-.512,1.208t-.592,1.312q-.3.648-.576,1.176.864-.128,1.688-.264t1.512-.28q-.3-.416-.584-.784a8.019,8.019,0,0,0-.52-.624L-36.344-4.5a14.128,14.128,0,0,1,1.1,1.312q.592.784,1.152,1.624A12.937,12.937,0,0,1-33.176.016a5.366,5.366,0,0,0-.832.472A7.1,7.1,0,0,0-34.792,1.088Zm-11.6-.016L-48.024-.1a11.047,11.047,0,0,0,.752-1.136q.384-.656.744-1.368t.656-1.4a11.082,11.082,0,0,0,.456-1.232,3.484,3.484,0,0,0,.408.368q.28.224.584.432t.512.336q-.176.56-.464,1.256t-.64,1.416q-.352.72-.7,1.368T-46.392,1.072Zm.88-7.328a8.889,8.889,0,0,0-.792-.608q-.5-.352-1.048-.68a7.782,7.782,0,0,0-.96-.5l.944-1.536q.7.336,1.528.808a9.854,9.854,0,0,1,1.384.936,5.138,5.138,0,0,0-.344.456q-.216.312-.416.632T-45.512-6.256Zm.752-3.664a7.1,7.1,0,0,0-.776-.608q-.5-.352-1.056-.672a8.886,8.886,0,0,0-.968-.5l.976-1.5a8.549,8.549,0,0,1,.992.5q.56.32,1.088.656a7.967,7.967,0,0,1,.832.592q-.128.144-.352.448t-.432.608Q-44.664-10.1-44.76-9.92ZM-23.464.144a3.077,3.077,0,0,0-.24-.608,5.216,5.216,0,0,0-.408-.68,3.448,3.448,0,0,0-.456-.536,6.019,6.019,0,0,0,3.336-1.432A3.7,3.7,0,0,0-20.024-5.7a3.944,3.944,0,0,0-.432-2.112,4.128,4.128,0,0,0-1.352-1.5A4.122,4.122,0,0,0-23.688-10a22.437,22.437,0,0,1-.48,3.04,15.92,15.92,0,0,1-.952,2.912,8.4,8.4,0,0,1-1.464,2.3,2.424,2.424,0,0,1-1.272.816,2.282,2.282,0,0,1-1.3-.176,3.113,3.113,0,0,1-1.184-.912,4.41,4.41,0,0,1-.784-1.48,5.166,5.166,0,0,1-.224-1.832,6.672,6.672,0,0,1,.688-2.664,6.7,6.7,0,0,1,1.632-2.088,7,7,0,0,1,2.352-1.328,7.531,7.531,0,0,1,2.832-.368,6.368,6.368,0,0,1,2.288.544,5.967,5.967,0,0,1,1.88,1.32,5.956,5.956,0,0,1,1.248,1.944,5.539,5.539,0,0,1,.36,2.416A5.518,5.518,0,0,1-19.608-1.88,7.453,7.453,0,0,1-23.464.144Zm-5.2-3.232a.617.617,0,0,0,.368.128.553.553,0,0,0,.384-.192,5.646,5.646,0,0,0,1.064-1.632,13.266,13.266,0,0,0,.816-2.384,15.859,15.859,0,0,0,.424-2.7,4.937,4.937,0,0,0-1.96.928A4.955,4.955,0,0,0-28.92-7.32a5.083,5.083,0,0,0-.56,2.088,3.014,3.014,0,0,0,.2,1.3A1.975,1.975,0,0,0-28.664-3.088Zm17.008-.928a5.516,5.516,0,0,0-.576-.68,6.379,6.379,0,0,0-.688-.616,8.635,8.635,0,0,0,1.936-1.3A8.775,8.775,0,0,0-9.592-8.192h-2.672V-9.808h3.488a5.633,5.633,0,0,0,.224-.592q.1-.3.16-.608-1.408.1-2.784.1a8.33,8.33,0,0,0-.168-.864,6.13,6.13,0,0,0-.248-.816q.9.048,1.976.032t2.184-.12q1.1-.1,2.088-.264a10.527,10.527,0,0,0,1.688-.4l.944,1.536q-.784.192-1.784.352t-2.088.288q-.064.352-.16.7t-.208.664H-1.64v1.616H-4.872a10.737,10.737,0,0,0,1.8,1.512A10.51,10.51,0,0,0-1-5.568a4.889,4.889,0,0,0-.576.68,6.554,6.554,0,0,0-.512.808A11.748,11.748,0,0,1-4.76-5.816,9.808,9.808,0,0,1-6.808-8.192h-.816a9.588,9.588,0,0,1-1.7,2.376A11.152,11.152,0,0,1-11.656-4.016Zm1.712,5.264a5.33,5.33,0,0,0-.08-.608q-.064-.352-.144-.688a2.968,2.968,0,0,0-.176-.544H-9.5a.806.806,0,0,0,.464-.1A.477.477,0,0,0-8.888-1.1V-5.632H-7.08V-.384A1.5,1.5,0,0,1-7.568.856a2.336,2.336,0,0,1-1.48.392ZM-14.52.976l-1.664-1.04a11.925,11.925,0,0,0,.72-1.168q.368-.672.7-1.408t.608-1.44a11.522,11.522,0,0,0,.416-1.264,8.8,8.8,0,0,0,.752.584,8.591,8.591,0,0,0,.784.5q-.16.56-.432,1.264t-.592,1.432q-.32.728-.656,1.392T-14.52.976ZM-11.08.32A5.023,5.023,0,0,0-11.832-.1a6.583,6.583,0,0,0-.848-.336,9.7,9.7,0,0,0,.672-1.136q.336-.656.624-1.352a11.218,11.218,0,0,0,.448-1.272l1.584.5a10.164,10.164,0,0,1-.424,1.352q-.28.728-.616,1.432A9.964,9.964,0,0,1-11.08.32ZM-2.808.16Q-3-.432-3.288-1.1t-.624-1.312A9.982,9.982,0,0,0-4.6-3.552l1.424-.736a12.994,12.994,0,0,1,1.128,1.8,13.994,13.994,0,0,1,.824,1.9,7.374,7.374,0,0,0-.808.32A4.913,4.913,0,0,0-2.808.16Zm-2.8.208q-.112-.5-.3-1.16T-6.32-2.128A9.966,9.966,0,0,0-6.76-3.28l1.472-.48a12.968,12.968,0,0,1,.544,1.216q.256.656.464,1.272T-3.944-.16a6.5,6.5,0,0,0-.84.224Q-5.272.224-5.608.368ZM-13.48-6.256a5.72,5.72,0,0,0-.752-.608q-.48-.336-1-.656a7.113,7.113,0,0,0-.936-.5l.96-1.52a10.5,10.5,0,0,1,.936.48q.5.288,1,.608a9.37,9.37,0,0,1,.848.608,5.138,5.138,0,0,0-.344.456q-.216.312-.416.624A5.808,5.808,0,0,0-13.48-6.256Zm.544-3.616a6.712,6.712,0,0,0-.736-.616q-.464-.344-.976-.664a6.747,6.747,0,0,0-.928-.5l.992-1.472a10.212,10.212,0,0,1,.912.488q.528.312,1.032.648a7.335,7.335,0,0,1,.808.608q-.128.144-.344.432t-.432.584Q-12.824-10.064-12.936-9.872ZM.68,1.136V-9.04H3.256v-4.416H5.144V-9.04H7.832V-.56a1.548,1.548,0,0,1-.5,1.28,2.428,2.428,0,0,1-1.536.4H4.584A5.524,5.524,0,0,0,4.5.488Q4.44.128,4.352-.224a3.27,3.27,0,0,0-.184-.56h1.12a.842.842,0,0,0,.48-.1.5.5,0,0,0,.144-.424V-2.336H2.552V1.136ZM10.408,1.1a5.07,5.07,0,0,0-.08-.6q-.064-.344-.144-.68a2.968,2.968,0,0,0-.176-.544h1.36a.806.806,0,0,0,.464-.1.477.477,0,0,0,.144-.408V-13.264h1.808V-.512A1.485,1.485,0,0,1,13.3.72a2.336,2.336,0,0,1-1.472.384ZM8.92-2.48v-9.36h1.792v9.36ZM6.84-9.168a8.314,8.314,0,0,0-.784-.408,4.216,4.216,0,0,0-.864-.312,7.517,7.517,0,0,0,.544-.952q.288-.584.552-1.2A9.179,9.179,0,0,0,6.68-13.1l1.76.576a11.352,11.352,0,0,1-.432,1.136q-.272.624-.576,1.216A9.037,9.037,0,0,1,6.84-9.168ZM1.56-9.2a9.276,9.276,0,0,0-.472-.968q-.3-.536-.624-1.056a8.635,8.635,0,0,0-.632-.888l1.5-.88A7.242,7.242,0,0,1,2-12.12q.344.52.656,1.072a9.38,9.38,0,0,1,.5,1.016q-.352.144-.816.384T1.56-9.2Zm.992,2.88h3.36V-7.408H2.552Zm0,2.528h3.36V-4.864H2.552ZM24.52.848A10.07,10.07,0,0,1,22.152.592a3.646,3.646,0,0,1-1.664-.824,1.951,1.951,0,0,1-.608-1.5,2.311,2.311,0,0,1,.464-1.4,4.679,4.679,0,0,1,1.28-1.152,12.056,12.056,0,0,1,1.856-.952V-5.36a1.084,1.084,0,0,0-.28-.824,1.124,1.124,0,0,0-.712-.3,3.3,3.3,0,0,0-1.408.208,3.774,3.774,0,0,0-1.328.928q-.192.192-.5.488t-.608.584q-.3.288-.528.48L16.728-5.168A10.637,10.637,0,0,0,18.84-7.024a12.872,12.872,0,0,0,1.68-2.384l-1.632.056q-.736.024-1.1.008l-.064-1.84q.544.048,1.512.048t2.1-.048a7.181,7.181,0,0,0,.416-1.984l1.9.1a7.678,7.678,0,0,1-.32,1.76q1.184-.1,2.2-.216a10.034,10.034,0,0,0,1.56-.28l.112,1.776q-.448.08-1.168.168T24.448-9.7q-.872.08-1.784.144-.208.448-.472.9t-.552.872a3.463,3.463,0,0,1,1.3-.256,2.542,2.542,0,0,1,1.592.5A2.369,2.369,0,0,1,25.336-5.9q.9-.3,1.832-.552t1.816-.456l.544,1.76q-1.12.16-2.176.392t-1.968.52v2.128H23.5V-3.52a5.98,5.98,0,0,0-1.28.792,1.1,1.1,0,0,0-.48.776q0,.544.656.76a6.859,6.859,0,0,0,2,.216,11.735,11.735,0,0,0,1.224-.072q.68-.072,1.36-.192T28.168-1.5q-.032.208-.056.6t-.024.776q0,.384.016.576a13.408,13.408,0,0,1-1.76.3A17.275,17.275,0,0,1,24.52.848ZM37.56.784A7.5,7.5,0,0,0,36.984,0a3.74,3.74,0,0,0-.736-.7A7.146,7.146,0,0,0,39.5-3.16a7.148,7.148,0,0,0,1.112-3.992h-2.8v3.184H35.9V-7.136q-.784,0-1.512.008l-1.28.016q-.552.008-.792.024v-1.92q.176,0,.712.016t1.3.024q.76.008,1.576.024,0-.736-.008-1.424t-.024-1.224q-.016-.536-.048-.776H37.88q-.016.24-.032.784t-.024,1.24q-.008.7-.008,1.416h2.8q0-.56-.016-1.28t-.032-1.4q-.016-.68-.032-1.08h2v3.744q.784-.016,1.512-.024l1.3-.016q.568-.008.84-.024v1.92q-.256-.016-.824-.024l-1.3-.016q-.736-.008-1.52-.008a8.914,8.914,0,0,1-1.3,4.84A8.962,8.962,0,0,1,37.56.784ZM53.016.016a5.9,5.9,0,0,0-.12-.6q-.088-.36-.2-.72a2.774,2.774,0,0,0-.256-.6,3.5,3.5,0,0,0,1.44-.2.746.746,0,0,0,.384-.728V-7.376q-.736,0-1.528.008l-1.5.016q-.712.008-1.224.024t-.72.032v-1.84q.32.016,1.1.032t1.8.024q1.024.008,2.08.008v-2.9h2v2.9q.8,0,1.608-.008T59.384-9.1q.7-.016,1.216-.024t.7-.008V-7.3q-.288-.032-1.056-.048T58.44-7.368q-1.04-.008-2.176-.008v4.928a2.815,2.815,0,0,1-.28,1.328A1.776,1.776,0,0,1,55-.32,6.641,6.641,0,0,1,53.016.016ZM49.752-1.7a3.86,3.86,0,0,0-.4-.472q-.256-.264-.528-.512a3.351,3.351,0,0,0-.48-.376,7.04,7.04,0,0,0,1.184-.912A11.392,11.392,0,0,0,50.592-5.12a7.939,7.939,0,0,0,.792-1.168l1.6.912A9.42,9.42,0,0,1,52.1-4.008a12.729,12.729,0,0,1-1.144,1.3A9.5,9.5,0,0,1,49.752-1.7Zm10.672-.112a8.554,8.554,0,0,0-.8-1.176q-.512-.648-1.072-1.264a8.471,8.471,0,0,0-1.056-1L58.824-6.32a11.117,11.117,0,0,1,1.152.992q.608.592,1.152,1.208a11.285,11.285,0,0,1,.88,1.112,3.892,3.892,0,0,0-.552.328q-.312.216-.592.448A3.4,3.4,0,0,0,60.424-1.808Zm.032-8.256a1.513,1.513,0,0,1-1.12-.472,1.553,1.553,0,0,1-.464-1.128,1.526,1.526,0,0,1,.464-1.12,1.526,1.526,0,0,1,1.12-.464,1.526,1.526,0,0,1,1.12.464,1.526,1.526,0,0,1,.464,1.12,1.553,1.553,0,0,1-.464,1.128A1.513,1.513,0,0,1,60.456-10.064Zm0-.688a.889.889,0,0,0,.64-.264.868.868,0,0,0,.272-.648A.85.85,0,0,0,61.1-12.3a.889.889,0,0,0-.64-.264.889.889,0,0,0-.64.264.85.85,0,0,0-.272.632.868.868,0,0,0,.272.648A.889.889,0,0,0,60.456-10.752Zm4.32,5.712q.016-.224.016-.608v-.768q0-.384-.016-.608.3.016,1.08.032t1.856.032q1.08.016,2.312.024t2.464.008q1.232,0,2.328-.016t1.9-.032q.8-.016,1.136-.048-.016.208-.024.592t0,.776q.008.392.008.6-.4-.016-1.176-.032T74.848-5.12q-1.032-.016-2.192-.016H70.312q-1.184,0-2.256.016t-1.928.032Q65.272-5.072,64.776-5.04ZM85.48.5V-12.4h1.952v4.848l.72-1.024q.384.272,1.016.68t1.352.832q.72.424,1.392.776a10.8,10.8,0,0,0,1.136.528,3.832,3.832,0,0,0-.44.5,7.84,7.84,0,0,0-.456.672q-.208.344-.336.584-.384-.208-.952-.536t-1.2-.728q-.632-.4-1.216-.792t-1.016-.712V.5Z" transform="translate(1269 2459.455)" fill="#000205"/>
    <g id="グループ_586" data-name="グループ 586" transform="translate(1476.125 2236.703)">
      <g id="グループ_24" data-name="グループ 24" transform="translate(0 15.596)">
        <circle id="楕円形_2" data-name="楕円形 2" cx="68.5" cy="68.5" r="68.5" transform="translate(0.991 1.156)" fill="#d5edff"/>
        <g id="マスクグループ_1" data-name="マスクグループ 1" transform="translate(0 0)" clip-path="url(#clip-path)">
          <g id="c" transform="translate(-27.706 10.806)">
            <g id="d" transform="translate(0 0)">
              <path id="パス_1" data-name="パス 1" d="M180.763,63.43a4.123,4.123,0,0,1,3.3-.965,3.893,3.893,0,0,1,2.8,1.861,5.5,5.5,0,0,1,.576,2.214,16.494,16.494,0,0,1-1.682,8.743,10.483,10.483,0,0,1-2.711,3.558,6.945,6.945,0,0,1-3.232,1.457l-.553.085c-.265.992-.563,1.829-.709,2.273-.941,2.556-6.214,11.405-12.848,14.624-.016,2.233-.06,4.79.719,6.722,1.332,3.286,8.5,7.427,9,7.642,0,0-3.9,14.987-22.427,14.987-23.564,0-22.6-15.565-22.6-15.565.494-.215,6.546-3.778,7.878-7.064.885-2.193.705-5.2.719-7.615a25.664,25.664,0,0,1-6.2-5.494,28.046,28.046,0,0,1-5.345-10.434l-1.054-.162a6.947,6.947,0,0,1-3.232-1.457,10.478,10.478,0,0,1-2.711-3.558,16.494,16.494,0,0,1-1.682-8.743,5.5,5.5,0,0,1,.576-2.214,3.892,3.892,0,0,1,2.8-1.861,4.123,4.123,0,0,1,3.3.965s2.62-24.571,27.785-24.571,27.543,24.571,27.543,24.571Z" transform="translate(-57.603 -18.856)" fill="#fce0cd"/>
              <path id="パス_2" data-name="パス 2" d="M186.116,25.95a22.168,22.168,0,0,0-.909-2.97c-1.368-3.494-3.462-7.526-7.706-9.855l-4.979-3.744C167.556,1.158,158.4-.45,150.6.1c-9.267.648-15.872,3.137-21.895,10.211-8.776,10.308-9.022,23.944-5.706,33.353a1.706,1.706,0,0,1,.245-.051,4.09,4.09,0,0,1,3.274.958l4.346-4.728c1.817-2.583,6.97-8.989,10.886-9.771,2.8-.56,5.785.047,8.689-.07,5.265-.212,9.62-2.706,14.291-4.525.622-.242,1.249-.473,1.885-.684a2.562,2.562,0,0,1,1.108-.182,1.966,1.966,0,0,1,1.117.646c5.423,5.292,10.515,12.9,11.434,20.831.838-.763,1.673-1.517,1.673-1.517a4.092,4.092,0,0,1,3.274-.958,2.894,2.894,0,0,1,.364.077,35.335,35.335,0,0,0,.535-17.735Z" transform="translate(-58.731 0)" fill="#645d5c"/>
              <path id="パス_3" data-name="パス 3" d="M66.331,261.33c.026-.695.046-1.307.072-1.817-.153-9.033-.527-21.264-1.073-33.758l-.26.34-.857,1.12A108.858,108.858,0,0,1,53.887,238.65a15.775,15.775,0,0,1-12.049,3.728c-6.365-1.032-9.149-7.086-11.748-12.994-3.738-8.5-6.395-17.636-9.052-26.124,5.324-1.158,13.8-5.042,19.126-7.845,2.1,5.172,3.958,9.781,6.079,14.749,3.82-9.9,4.8-15.31,8.549-25.094a13.719,13.719,0,0,1,2.544-4.873,13.762,13.762,0,0,1,4.558-2.921c5.114-2.311,17.365-7,23.564-9.779a21.76,21.76,0,0,1,4.968-7.323A41.381,41.381,0,0,0,102.37,168.5c.247.112.523.249.6.509a.957.957,0,0,1-.138.674,8.245,8.245,0,0,1-.655.926l5.4-.007a8.074,8.074,0,0,1-.651-.919.958.958,0,0,1-.138-.674c.08-.259.355-.4.6-.509a41.381,41.381,0,0,0,11.944-8.324,21.4,21.4,0,0,1,4.756,6.845c5.437,2.176,19.3,7.508,24.526,10.032a15.433,15.433,0,0,1,4.789,2.9,15.861,15.861,0,0,1,2.849,5.255c3.776,9.858,5.361,19.538,7.42,30.291H147.086c-.637,15.76-1.226,33.14-1.47,45.121-.005.242-.005.479-.01.71Z" transform="translate(-10.209 -77.727)" fill="#fff"/>
              <path id="パス_4" data-name="パス 4" d="M176.043,270.231a107.472,107.472,0,0,0,7.6-9.36c.7-1.014,1.29-1.561,1.356-2.32a17.754,17.754,0,0,0-.173-2.963c-1.448-16.27-3.594-41.7-6.36-65.443a10.349,10.349,0,0,1,.642-2.832c.4-1.222,1.231-4.028.792-3.031-.445-.539-.885-1.073-1.3-1.58-.724-.885-1.368-1.685-1.82-2.271l-5.4.007c-.451.586-1.093,1.383-1.814,2.265-.289.354-.591.721-.9,1.094.235,1.26.687,2.6.983,3.865.054.251.116.493.179.743a6.887,6.887,0,0,1,.269,1.648c-2.009,21.858-4.59,48.875-6.4,67.571a4.214,4.214,0,0,0,.165,2.119,9.95,9.95,0,0,0,1.1,1.672,76.345,76.345,0,0,0,7.516,8.9,3.053,3.053,0,0,0,1.682.875,2.574,2.574,0,0,0,1.843-.914l.039-.044Z" transform="translate(-79.412 -87.557)" fill="#65a0d4"/>
              <path id="パス_5" data-name="パス 5" d="M201.969,181.069a45.986,45.986,0,0,0,6.265-8.191c.893-1.425,1.752-2.872,2.626-4.309a2.959,2.959,0,0,0,.652-1.414,2.707,2.707,0,0,0-.488-1.22,24.043,24.043,0,0,0-1.491-2.356,1.271,1.271,0,0,0-1.69-.443,1.246,1.246,0,0,0-.443,1.69,24.934,24.934,0,0,1,1.81,2.953v-1.247c-2.729,4.448-5.27,9.067-8.988,12.79a1.236,1.236,0,0,0,1.747,1.747h0Z" transform="translate(-96.985 -79.083)" fill="#d9d9d9"/>
              <path id="パス_6" data-name="パス 6" d="M156.657,179.705c-3.717-3.724-6.259-8.342-8.988-12.79v1.247a25.788,25.788,0,0,1,1.56-2.6c.9-1.315-1.239-2.552-2.134-1.247a24.448,24.448,0,0,0-1.347,2.2,1.666,1.666,0,0,0-.276,1.5,7.864,7.864,0,0,0,.665,1.136c.872,1.437,1.731,2.881,2.627,4.3a45.413,45.413,0,0,0,6.144,8,1.236,1.236,0,0,0,1.747-1.747h0Z" transform="translate(-70.55 -79.467)" fill="#d9d9d9"/>
              <path id="パス_7" data-name="パス 7" d="M98.415,196.578c1.245,9.758,1.821,19.613,2.383,29.43q1.007,17.6,1.533,35.224.137,4.4.246,8.8c.067,2.788.167,5.575.064,8.362-.059,1.59,2.413,1.588,2.471,0,.185-5.04-.1-10.118-.249-15.159q-.257-8.617-.617-17.231c-.479-11.527-1.059-23.055-1.934-34.559-.377-4.964-.8-9.93-1.427-14.868a1.276,1.276,0,0,0-1.235-1.235,1.243,1.243,0,0,0-1.235,1.235h0Z" transform="translate(-47.754 -94.793)" fill="#d9d9d9"/>
              <path id="パス_8" data-name="パス 8" d="M263.112,277.964c.093-5.679.267-11.357.443-17.033q.3-9.662.667-19.323.357-9.506.77-19.01.35-8.025.759-16.047c.178-3.387.345-6.779.625-10.16.02-.235.04-.469.062-.7a1.245,1.245,0,0,0-1.235-1.235,1.262,1.262,0,0,0-1.235,1.235c-.286,3.073-.433,6.161-.6,9.243q-.418,7.736-.749,15.477-.417,9.393-.774,18.788-.373,9.722-.687,19.447-.275,8.594-.475,17.192-.023,1.065-.04,2.13a1.236,1.236,0,0,0,2.471,0Z" transform="translate(-126.48 -94.36)" fill="#d9d9d9"/>
              <path id="パス_9" data-name="パス 9" d="M20.329,161.6c-1.153-4.563-4.392-15.948-5.584-17.469C13.891,143.039,12.878,142.2,11,143c-1.61.687-1.349,2.546-1.045,4.082.335,1.692,2.33,9.675,3.5,13.823a3.193,3.193,0,0,0-3.619-.82A2.433,2.433,0,0,0,8.2,162.544s.112.617.276,1.5a3.1,3.1,0,0,0-2.989.016c-1.1.59-2.215,2.172-1.671,3.313l.729,1.529-.228-.187c-1.4-1.152-3.835-.443-4.23,1.094a5.073,5.073,0,0,0,.865,3.649l.25.409.128.395a30.318,30.318,0,0,0,5.218,9.967c1.2,1.391,2.6,2.772,3.689,4.264s1.365,3.15,1.9,4.936l.237.79c2.823-1.043,10.768-4.012,15-6.026l-.15-.423a18.826,18.826,0,0,1-.6-6.039,41.116,41.116,0,0,1,1.833-5.378,9.959,9.959,0,0,0,.767-4.5,13.279,13.279,0,0,0-1.946-6.071,3.528,3.528,0,0,0-.949-.9.87.87,0,0,0-.133-.08c-1.549-.949-3.586-.954-5.341-.879-.089-.455-.147-.746-.147-.746-.062-.314-.192-.865-.374-1.586Z" transform="translate(-0.001 -69.238)" fill="#fce0cd"/>
              <path id="パス_10" data-name="パス 10" d="M35.38,192.357a18.515,18.515,0,0,0-.521-2.2,4.947,4.947,0,0,0-.827-1.991,3.455,3.455,0,0,0-1.675-1.1,6.961,6.961,0,0,0-1.092-.22c-.2-.03-.409-.056-.613-.083l-.065-.009c-.061-.008-.121-.018-.181-.028-.129-.024-.258-.045-.385-.08l-.1-.029q-.2-.072.023.012c-.1-.062-.108-.065-.032-.008s.067.053-.019-.027q.156.215-.029-.061-.069-.11-.127-.227a1.291,1.291,0,0,1-.141-.6,1.791,1.791,0,0,1,.171-.6c.031-.067.247-.542.306-.539s-.4.278-.1.128c.039-.019.308-.142.127-.071a3.884,3.884,0,0,1,.455-.136,12.241,12.241,0,0,1,2.03-.274,1.266,1.266,0,0,0,1.235-1.235,1.245,1.245,0,0,0-1.235-1.235c-1.49.116-3.637.146-4.6,1.507a4.032,4.032,0,0,0-.007,4.9c1.016,1.305,2.548.813,3.843,1.352-.216-.09.322.218.12.063a1.488,1.488,0,0,1,.262.262c-.155-.2.131.344.044.1a5.4,5.4,0,0,1,.141.569c.2.842.484,1.66.6,2.521a1.243,1.243,0,0,0,1.52.863,1.268,1.268,0,0,0,.863-1.52h0Z" transform="translate(-13.179 -88.19)" fill="#efc0a0"/>
              <path id="パス_11" data-name="パス 11" d="M8.544,202.789c.015.05.022.105.039.154-.109-.316-.024-.241-.024-.084,0,.056-.025.274.008.034s0-.014-.013.039a1.322,1.322,0,0,1-.121.382l.074-.178c-.018.039-.037.078-.056.116-.029.058-.06.116-.093.172-.066.114-.146.218-.215.33.179-.291.1-.123.032-.045-.042.049-.084.1-.129.144-.086.091-.178.172-.271.255-.168.149.238-.16.063-.051-.055.034-.108.071-.165.1s-.241.112-.017.016.021-.015-.034,0-.121.032-.183.045c-.286.059.279-.016.039,0-.136.009-.27.019-.406.016s-.57-.075-.16,0a6.572,6.572,0,0,1-.823-.21c-.233-.076.24.119.038.017-.061-.031-.124-.06-.184-.093a2.993,2.993,0,0,1-.389-.254,1.24,1.24,0,0,0-.952-.125,1.236,1.236,0,0,0-.863,1.52,1.455,1.455,0,0,0,.568.738,4.76,4.76,0,0,0,2.346.842,3.754,3.754,0,0,0,2.314-.411c1.308-.77,2.421-2.593,1.959-4.134a1.236,1.236,0,1,0-2.382.657h0Z" transform="translate(-1.792 -97.644)" fill="#efc0a0"/>
              <path id="パス_12" data-name="パス 12" d="M7.042,193.612c.57.957,1.243,1.834,1.86,2.758.586.878,1.164,1.759,1.821,2.587a4.114,4.114,0,0,0,2.488,1.6,4.053,4.053,0,0,0,3.7-.9,4.221,4.221,0,0,0,1.047-4.254,1.237,1.237,0,0,0-2.383.657,1.971,1.971,0,0,1,.1.94c.024-.216-.047.169-.061.216s-.034.113-.055.168q.079-.175-.013.018a3.908,3.908,0,0,1-.231.372c.165-.22-.109.1-.148.136-.055.051-.291.208-.048.051-.041.027-.394.221-.158.12a1.894,1.894,0,0,1-1.4.016,2.9,2.9,0,0,1-.344-.116c.223.1-.125-.093-.162-.1q-.149-.105.1.08c-.036-.03-.071-.062-.106-.095-.063-.068-.132-.131-.2-.2s-.139-.155-.206-.235c-.033-.04-.293-.37-.115-.137-.153-.2-.3-.405-.446-.611-.315-.447-.617-.9-.919-1.358-.661-.994-1.385-1.937-2-2.964a1.236,1.236,0,0,0-2.134,1.247h0Z" transform="translate(-3.329 -93.06)" fill="#efc0a0"/>
              <path id="パス_13" data-name="パス 13" d="M24.2,189.679c.01.174.007.344,0,.518,0,.253.051-.108-.022.144-.031.108-.06.216-.091.324q-.076.2,0,0c-.03.063-.063.124-.1.184s-.211.3-.037.083a2.576,2.576,0,0,1-.2.219q-.069.068-.144.131.168-.124.06-.046c-.1.048-.186.123-.282.175-.077.041-.312.1-.045.03-.1.028-.2.069-.308.1s-.4.033-.073.025c-.105,0-.2.011-.31.005.275.016-.076-.035-.147-.06l.045.016c-.065-.033-.13-.07-.192-.109-.025-.015-.289-.227-.112-.073-.1-.087-.2-.178-.291-.273s-.177-.2-.266-.295c-.173-.192.08.129-.077-.1-.132-.189-.26-.377-.38-.574-.347-.567-.692-1.135-1.049-1.7-.7-1.1-1.43-2.193-2.074-3.331a1.236,1.236,0,0,0-2.134,1.247c.774,1.367,1.663,2.665,2.494,4a9.422,9.422,0,0,0,2.595,3.2,3.491,3.491,0,0,0,3.816-.119,4.122,4.122,0,0,0,1.786-3.721,1.263,1.263,0,0,0-1.235-1.235,1.247,1.247,0,0,0-1.235,1.235h0Z" transform="translate(-7.677 -89.518)" fill="#efc0a0"/>
              <path id="パス_14" data-name="パス 14" d="M108.509,171.346c-6.657,3.083-13.579,5.616-20.361,8.431-3.6,1.5-7.845,2.849-10.047,6.293a16.768,16.768,0,0,0-1.444,3.127c-.461,1.214-.922,2.428-1.364,3.649-.812,2.245-1.567,4.511-2.29,6.786-1.617,5.089-3.18,10.185-5.087,15.175a1.245,1.245,0,0,0,.863,1.52,1.263,1.263,0,0,0,1.52-.863c1.683-4.4,3.114-8.888,4.523-13.386a136.236,136.236,0,0,1,4.626-13.256,8.193,8.193,0,0,1,1.787-2.715,11.342,11.342,0,0,1,2.91-1.9c1.352-.668,2.816-1.275,4.1-1.813,3.513-1.468,7.051-2.876,10.58-4.306,3.661-1.483,7.342-2.946,10.927-4.606a1.246,1.246,0,0,0,.443-1.69,1.264,1.264,0,0,0-1.69-.443h0Z" transform="translate(-32.928 -83.076)" fill="#d9d9d9"/>
              <path id="パス_15" data-name="パス 15" d="M49.444,249.126c-3.272-7.247-6.264-14.61-9.258-21.974a1.259,1.259,0,0,0-1.815-.738q-4.64,2.438-9.468,4.5a53.969,53.969,0,0,1-9.363,3.222,1.246,1.246,0,0,0-.863,1.52c1.842,5.888,3.607,11.8,5.688,17.612,1.066,2.973,2.218,5.915,3.488,8.807a54.426,54.426,0,0,0,3.169,6.416,17.347,17.347,0,0,0,4.556,5.17,11.821,11.821,0,0,0,6.824,2.161,17.129,17.129,0,0,0,7.829-1.957,21.541,21.541,0,0,0,5.517-4.341,116.54,116.54,0,0,0,9.218-10.738,1.243,1.243,0,0,0-.443-1.69,1.267,1.267,0,0,0-1.69.443l-.466.609-.3.386-.086.113c.18-.23.037-.052-.063.073q-.887,1.111-1.8,2.2c-1.507,1.806-3.05,3.585-4.65,5.31a30.038,30.038,0,0,1-4.6,4.374,15.318,15.318,0,0,1-6.785,2.654,10.091,10.091,0,0,1-6.345-1.135,12.832,12.832,0,0,1-4.206-4.27,43.986,43.986,0,0,1-3.132-6.078q-1.736-3.9-3.2-7.917C24.92,247.648,23.034,241.307,21.06,235l-.863,1.52a56.493,56.493,0,0,0,9.763-3.39q4.92-2.088,9.658-4.58l-1.815-.738c3.075,7.563,6.148,15.123,9.507,22.565a1.245,1.245,0,0,0,1.69.443,1.266,1.266,0,0,0,.443-1.69h0Z" transform="translate(-9.041 -109.791)" fill="#d9d9d9"/>
              <path id="パス_16" data-name="パス 16" d="M218.457,172.962c6.746,2.725,13.6,5.3,20.275,8.121,1.383.583,2.828,1.205,4.212,1.857,2.039.96,4.3,1.8,5.614,3.739a30.217,30.217,0,0,1,3.14,7.428c.881,2.634,1.639,5.308,2.311,8,1.543,6.188,2.639,12.475,3.837,18.735a1.247,1.247,0,0,0,1.52.863,1.261,1.261,0,0,0,.863-1.52c-1.1-5.733-2.11-11.486-3.456-17.167-.657-2.772-1.4-5.525-2.258-8.24a55.255,55.255,0,0,0-2.965-7.86,10.646,10.646,0,0,0-2.351-3.255,13.976,13.976,0,0,0-3.365-2.082c-1.5-.711-3-1.409-4.522-2.066-3.779-1.631-7.6-3.16-11.428-4.679-3.588-1.425-7.19-2.814-10.769-4.259a1.243,1.243,0,0,0-1.52.863,1.265,1.265,0,0,0,.863,1.52h0Z" transform="translate(-105.568 -82.745)" fill="#d9d9d9"/>
              <g id="e" transform="translate(99.379 131.928)">
                <path id="パス_17" data-name="パス 17" d="M246.425,285.387c2.738-2.439,13.327-11.789,15.65-14.112a16.383,16.383,0,0,0-9.921-4.3,33.514,33.514,0,0,0-11.235.6c-3.715.928-8.527,3.222-11.1,6.179-3.154-3.009-7.824-4.338-12.054-4.478a31.024,31.024,0,0,0-12.519,2.247,13.685,13.685,0,0,0-7.639,6.585c2.478,2.167,14.132,10.153,16.711,12.2l32.113-4.923Z" transform="translate(-195.268 -261.383)" fill="#3f88c9"/>
                <path id="パス_18" data-name="パス 18" d="M194.83,266.456a17.248,17.248,0,0,0-1.762,1.94,33.381,33.381,0,0,0,3.023,2.793l.3.22a14.06,14.06,0,0,1,6.653-4.964,31.024,31.024,0,0,1,12.519-2.247c4.23.139,8.9,1.469,12.054,4.478,2.578-2.957,7.39-5.251,11.1-6.179a33.512,33.512,0,0,1,11.235-.6,18.165,18.165,0,0,1,6.484,1.85l.085-.084c.657-.624,1.971-1.939,3.089-3.122-4.042-3.056-6.308-3.513-11.074-3.976a34.54,34.54,0,0,0-11.294.414c-3.546.886-8.094,2.365-10.613,5.168a20.658,20.658,0,0,0-11.07-3.274,31.024,31.024,0,0,0-12.519,2.247,22.363,22.363,0,0,0-5.142,2.74,35.523,35.523,0,0,0-3.068,2.6Z" transform="translate(-193.068 -256.301)" fill="#fff"/>
                <path id="パス_19" data-name="パス 19" d="M250.205,288.033q-.225-.182-.453-.358c-1.944-1.5-3.354-1.737-5.351-.62l-1.072.931c-.817-.867-1.51-1.585-1.806-1.842a3.337,3.337,0,0,0-3.2-.72c-1.263.47-1.791,1.16-1.791,2.218l-.12.9c-.67-.708-1.272-1.319-1.733-1.731-.389-.349-2.287-1.284-3.55-.335a2.05,2.05,0,0,0-.641,2.941,3.9,3.9,0,0,1,.185.352l-.283-.148a2.874,2.874,0,0,0-4.065,1.465,4.123,4.123,0,0,0,.325,2.7c.818,1.582,4.393,5.549,6.323,7.588,4.421,3.127,11.475.949,17.126-.364a7.459,7.459,0,0,0,2.239-.963c2.114-1.467,3.2-3.27,4.928-5.177a13.441,13.441,0,0,0,1.939-2.349,4.975,4.975,0,0,0,.712-3.486,2.625,2.625,0,0,0-.988-1.567,3.178,3.178,0,0,0-2.9.091,14.412,14.412,0,0,0-3.839,2.323,17.882,17.882,0,0,0-1.986-1.844Z" transform="translate(-209.159 -270.358)" fill="#fce0cd"/>
                <path id="パス_20" data-name="パス 20" d="M263.94,293.581c-.485-.453-.928-.956-1.381-1.441-.732-.783-1.461-1.569-2.194-2.352a1.245,1.245,0,0,0-1.747,0,1.261,1.261,0,0,0,0,1.747q1.1,1.174,2.194,2.352c.453.484.9.987,1.381,1.441a1.235,1.235,0,1,0,1.747-1.747Z" transform="translate(-224.706 -272.377)" fill="#efc0a0"/>
                <path id="パス_21" data-name="パス 21" d="M233.692,294.866a88.388,88.388,0,0,0,6.124,6.97,1.235,1.235,0,0,0,1.747-1.747,88.3,88.3,0,0,1-6.124-6.97,1.239,1.239,0,0,0-1.747,0,1.27,1.27,0,0,0,0,1.747Z" transform="translate(-212.612 -273.993)" fill="#efc0a0"/>
                <path id="パス_22" data-name="パス 22" d="M251.277,295.666c-1.552-1.681-3.058-3.4-4.616-5.08a1.245,1.245,0,0,0-1.747,0,1.262,1.262,0,0,0,0,1.747c1.558,1.675,3.064,3.4,4.616,5.08a1.245,1.245,0,0,0,1.747,0,1.262,1.262,0,0,0,0-1.747Z" transform="translate(-218.057 -272.764)" fill="#efc0a0"/>
              </g>
              <g id="f" transform="translate(80.687 44.474)">
                <path id="パス_23" data-name="パス 23" d="M175.314,127.3a10.9,10.9,0,0,0,5.25,1.212,8.512,8.512,0,0,0,5.269-1.542,1.242,1.242,0,0,0,0-1.747,1.267,1.267,0,0,0-1.747,0c.366-.285.05-.045-.044.015s-.217.132-.329.191c-.078.041-.465.2-.156.084-.151.057-.3.116-.454.165a7.8,7.8,0,0,1-2.709.362,8.116,8.116,0,0,1-2.585-.348c-.166-.05-.328-.109-.493-.166-.053-.019-.1-.046-.159-.062.3.089.089.04.008,0q-.306-.144-.6-.3a1.263,1.263,0,0,0-1.69.443,1.249,1.249,0,0,0,.443,1.69Z" transform="translate(-165.467 -105.071)" fill="#efc0a0"/>
                <path id="パス_24" data-name="パス 24" d="M184.129,103.912a24.907,24.907,0,0,1,.588,2.691l-.044-.328a1.628,1.628,0,0,1,.01.371l.044-.328a.927.927,0,0,1-.041.167l.125-.295a.627.627,0,0,1-.059.108l.193-.25a.583.583,0,0,1-.088.086l.25-.193a1.752,1.752,0,0,1-.213.113l.295-.125a1.564,1.564,0,0,1-.359.105l.328-.044a1.448,1.448,0,0,1-.337,0l.328.044c-.127-.018-.252-.048-.379-.066a1.366,1.366,0,0,0-.952.125,1.235,1.235,0,0,0-.443,1.69,1.183,1.183,0,0,0,.738.568c.276.037.545.108.826.12a2.621,2.621,0,0,0,1.2-.283,1.7,1.7,0,0,0,.953-1.126,2.886,2.886,0,0,0-.013-1.229c-.146-.867-.347-1.726-.57-2.576a1.236,1.236,0,1,0-2.382.657h0Z" transform="translate(-169.593 -94.137)" fill="#efc0a0"/>
                <path id="パス_25" data-name="パス 25" d="M156.926,88.6c-.449,1.46-.156,4.819,2.61,5.1,3.656-.022,3.85-4.082,2.619-5.992C161.148,86.145,158.185,85.495,156.926,88.6Z" transform="translate(-156.755 -86.402)" fill="#645d5c"/>
                <path id="パス_26" data-name="パス 26" d="M208.392,88.6c.449,1.46.156,4.819-2.609,5.1-3.656-.022-3.851-4.083-2.62-5.992C204.17,86.145,207.133,85.495,208.392,88.6Z" transform="translate(-178.944 -86.402)" fill="#645d5c"/>
              </g>
            </g>
          </g>
        </g>
      </g>
    </g>
    <g id="グループ_590" data-name="グループ 590" transform="translate(1189.431 2236.859)">
      <g id="グループ_23" data-name="グループ 23" transform="translate(0 15.596)">
        <circle id="楕円形_3" data-name="楕円形 3" cx="69" cy="69" r="69" transform="translate(-0.431 0)" fill="#fff7cb"/>
        <g id="マスクグループ_2" data-name="マスクグループ 2" transform="translate(0 0)" clip-path="url(#clip-path-2)">
          <g id="c-2" data-name="c" transform="translate(11.801 20.85)">
            <g id="d-2" data-name="d" transform="translate(0 0)">
              <path id="パス_53" data-name="パス 53" d="M112.616,128.76c-.511-.174-8.883-4.091-9.057-4.154-2.645-.954-2.542-2.657-2.875-4.558a36.041,36.041,0,0,1-.531-4.333c6.875-2.918,12.411-12.178,13.375-14.794.145-.439.439-1.266.7-2.247.352-.062.551-.093.551-.093a6.891,6.891,0,0,0,3.206-1.445,10.4,10.4,0,0,0,2.689-3.529,16.363,16.363,0,0,0,1.668-8.673,5.454,5.454,0,0,0-.572-2.2A3.862,3.862,0,0,0,119,80.89a4.089,4.089,0,0,0-3.272.958s2.849-22.916-27.544-22.916c-28.579,0-27.345,22.916-27.345,22.916a4.09,4.09,0,0,0-3.272-.958,3.861,3.861,0,0,0-2.777,1.846,5.463,5.463,0,0,0-.572,2.2,16.363,16.363,0,0,0,1.668,8.673,10.4,10.4,0,0,0,2.689,3.529,6.893,6.893,0,0,0,3.206,1.445l1.045.159a27.822,27.822,0,0,0,5.3,10.352,23.96,23.96,0,0,0,7.955,6.432,35.989,35.989,0,0,1-.542,4.522c-.333,1.9-.229,3.605-2.876,4.561-.175.063-8.546,3.979-9.056,4.152,0,0,.169,14.575,24.106,14.575s24.9-14.575,24.9-14.575Z" transform="translate(-32.708 -35.593)" fill="#fce0cd"/>
              <path id="パス_54" data-name="パス 54" d="M111.374,260.73c-1.009-2.088-1.867-4.25-3.026-6.264-1.027-1.783-2.918-6.059-6.77-9.474a64.836,64.836,0,0,0-14.7-9.036c-1.383-.644-2.942-1.392-4.516-2.115l-.052.037a44.242,44.242,0,0,1-50.494.021l-.07-.05c-1.567.72-3.119,1.465-4.5,2.106a64.846,64.846,0,0,0-14.7,9.036c-3.852,3.416-5.744,7.692-6.77,9.474-1.16,2.014-2.018,4.176-3.026,6.264Z" transform="translate(-1.664 -141.234)" fill="#fff"/>
              <path id="パス_55" data-name="パス 55" d="M191.112,27.019c1.609,1.782,4.828,3.032,8.4,3.048a15.018,15.018,0,0,0,9.454-3.132,3.238,3.238,0,0,0,.933-1.1.979.979,0,0,0,.1-.493c-.006-.07-.064-.337-.152-.352-2.192-.4-3.081-2.47-3.3-4.674s.045-4.552-.282-6.751a19.95,19.95,0,0,0-2.236-7.155C200.639.979,197.034.29,194.1.03a10.836,10.836,0,0,0-8.327,3.232,8.658,8.658,0,0,0-1.98,7.315Z" transform="translate(-110.914 0)" fill="#645d5c"/>
              <path id="パス_56" data-name="パス 56" d="M118.357,54.16a4.09,4.09,0,0,1,3.272-.958,3.908,3.908,0,0,1,.929.259,43.279,43.279,0,0,0,.709-9.9,31.919,31.919,0,0,0-4.5-15.32,30.071,30.071,0,0,0-4.141-5.3c-.63-.645-1.588-1.587-2.24-2.161a37.22,37.22,0,0,0-5.448-3.657,31.918,31.918,0,0,0-4.758-2.159A33.519,33.519,0,0,0,90.9,13.091a31.947,31.947,0,0,0-19.11,5.952A31.158,31.158,0,0,0,58.535,43.561a39.719,39.719,0,0,0,.2,5.043,37.372,37.372,0,0,0,.826,4.747A3.984,3.984,0,0,1,60.2,53.2a4.089,4.089,0,0,1,3.272.958c8.73-2,18.7-7.709,20.779-8.669,7.861-1.781,15.395-5.373,19.95-10.977a53.287,53.287,0,0,0,3.712,9.732c1.649,2.764,6.429,8.984,10.448,9.913" transform="translate(-35.342 -7.907)" fill="#645d5c"/>
              <path id="パス_57" data-name="パス 57" d="M14.449,251.466a30.842,30.842,0,0,0-7.5,6.745,53.389,53.389,0,0,0-3.974,6.565c-1.07,1.922-1.894,3.965-2.846,5.944a1.139,1.139,0,0,0,.4,1.517,1.119,1.119,0,0,0,1.517-.4c.82-1.7,1.545-3.455,2.414-5.137.534-1.034,1.11-2.052,1.668-3.074a26.731,26.731,0,0,1,5.411-7.186,36.565,36.565,0,0,1,4.027-3.062,1.137,1.137,0,0,0,.4-1.517,1.12,1.12,0,0,0-1.517-.4h0Z" transform="translate(0 -151.785)" fill="#d9d9d9"/>
              <path id="パス_58" data-name="パス 58" d="M239.74,253.452a27.468,27.468,0,0,1,6.891,6.23,54.871,54.871,0,0,1,3.83,6.417c1.027,1.874,1.832,3.86,2.758,5.784a1.119,1.119,0,0,0,1.517.4,1.133,1.133,0,0,0,.4-1.517c-2.7-5.612-5.2-11.733-9.97-15.962a41.929,41.929,0,0,0-4.3-3.264,1.109,1.109,0,1,0-1.119,1.915h0Z" transform="translate(-144.467 -151.828)" fill="#d9d9d9"/>
              <path id="パス_59" data-name="パス 59" d="M173.322,245.346c3.015-1.4,13.686-8.9,13.434-9.286-.9-1.366-10.294-5.468-16.854-8.589-3.6-1.713-6.127-3.281-6.762-3.588-4.485,7.358-12.042,20.262-16.619,27.833,4.906,1.006,13.113,0,26.8-6.37Z" transform="translate(-88.495 -135.22)" fill="#5394cf"/>
              <path id="パス_60" data-name="パス 60" d="M46,245.346c-3.015-1.4-13.686-8.9-13.434-9.286.9-1.366,10.294-5.468,16.854-8.589,3.6-1.713,6.127-3.281,6.762-3.588,4.485,7.358,12.042,20.262,16.619,27.833-4.906,1.006-13.113,0-26.8-6.37Z" transform="translate(-19.667 -135.22)" fill="#5394cf"/>
              <path id="パス_61" data-name="パス 61" d="M154.028,259.5a55.01,55.01,0,0,0,14.818-4.646,79.316,79.316,0,0,0,12.264-6.8,27.83,27.83,0,0,0,4.071-3.209,1.11,1.11,0,0,0-1.568-1.568,16.682,16.682,0,0,1-1.377,1.219q-.2.16-.4.317c.154-.12.01-.008-.06.045l-.259.195q-.517.386-1.045.754c-1.693,1.186-3.453,2.276-5.246,3.3a77.087,77.087,0,0,1-13.637,6.248,44.9,44.9,0,0,1-8.149,2,1.116,1.116,0,0,0-.775,1.364,1.139,1.139,0,0,0,1.364.775h0Z" transform="translate(-92.184 -146.737)" fill="#fff"/>
              <path id="パス_62" data-name="パス 62" d="M77.113,257.364a53.135,53.135,0,0,1-14.357-4.453A79.6,79.6,0,0,1,50.65,246.2q-.62-.422-1.227-.863-.27-.2-.536-.4l-.254-.193c.171.131-.024-.019-.087-.069a17.62,17.62,0,0,1-1.607-1.4,1.11,1.11,0,0,0-1.568,1.568,25.954,25.954,0,0,0,3.506,2.817c1.7,1.2,3.47,2.295,5.272,3.331a80.382,80.382,0,0,0,14.082,6.456,45.1,45.1,0,0,0,8.292,2.05,1.147,1.147,0,0,0,1.364-.775,1.116,1.116,0,0,0-.775-1.364h0Z" transform="translate(-27.206 -146.737)" fill="#fff"/>
              <path id="パス_63" data-name="パス 63" d="M123.976,279.1c.221,2,.92,5.427,1.2,7.387a24.534,24.534,0,0,0,5.814,1.52,16.718,16.718,0,0,0,5.155-1.608,44.452,44.452,0,0,0,1.154-7.3c-.426-.111-12.247,0-13.319,0Z" transform="translate(-74.878 -168.541)" fill="#f2635f"/>
              <path id="パス_64" data-name="パス 64" d="M104.283,78.859a1.558,1.558,0,0,1,.042-1.5,1.792,1.792,0,0,1,.823-.487l1.8-.663a2.077,2.077,0,0,1,2.36.67,42.891,42.891,0,0,1,4.285,6.73,2.064,2.064,0,0,1-.812,2.726,19.984,19.984,0,0,1-2.739,1.3,2.069,2.069,0,0,1-2.64-1.162l-3-7.315c-.038-.094-.077-.192-.112-.291Z" transform="translate(-62.881 -45.949)" fill="#4d4544"/>
              <g id="e-2" data-name="e" transform="translate(41.038 46.463)">
                <path id="パス_65" data-name="パス 65" d="M127.61,169.414a10.7,10.7,0,0,0,5.15,1.187,8.323,8.323,0,0,0,5.144-1.495,1.115,1.115,0,0,0,0-1.568,1.137,1.137,0,0,0-1.568,0c.32-.249.014-.019-.067.034-.106.068-.215.131-.327.189-.065.034-.428.2-.183.1q-.222.09-.451.164a8.279,8.279,0,0,1-2.719.363,8.638,8.638,0,0,1-2.6-.35c-.165-.049-.326-.108-.489-.164-.053-.019-.1-.042-.158-.061.27.1.031.013-.02-.01-.2-.095-.4-.194-.6-.3a1.133,1.133,0,0,0-1.517.4,1.121,1.121,0,0,0,.4,1.517h0Z" transform="translate(-117.782 -147.462)" fill="#efc0a0"/>
                <path id="パス_66" data-name="パス 66" d="M138.937,139.581a24.7,24.7,0,0,1,.583,2.669l-.04-.295a1.593,1.593,0,0,1,.01.368l.04-.295a.91.91,0,0,1-.04.166l.112-.265a.647.647,0,0,1-.059.107l.173-.225a.56.56,0,0,1-.087.086l.225-.173a1.681,1.681,0,0,1-.211.112l.265-.112a1.531,1.531,0,0,1-.356.1l.295-.04a1.408,1.408,0,0,1-.334,0l.295.04c-.126-.017-.25-.048-.376-.065a1.228,1.228,0,0,0-.855.112,1.109,1.109,0,0,0-.4,1.517,1.062,1.062,0,0,0,.663.51c.264.036.52.1.788.115a2.468,2.468,0,0,0,1.133-.265,1.58,1.58,0,0,0,.892-1.047,2.734,2.734,0,0,0-.013-1.157c-.145-.86-.344-1.712-.565-2.556a1.109,1.109,0,0,0-2.139.589h0Z" transform="translate(-124.404 -129.914)" fill="#efc0a0"/>
                <path id="パス_67" data-name="パス 67" d="M103.794,119.5c-.446,1.449-.155,4.78,2.589,5.064,3.627-.022,3.82-4.05,2.6-5.944C107.982,117.068,105.043,116.423,103.794,119.5Z" transform="translate(-103.624 -117.323)" fill="#645d5c"/>
                <path id="パス_68" data-name="パス 68" d="M168.448,119.5c.446,1.449.155,4.78-2.589,5.064-3.627-.022-3.82-4.05-2.6-5.944C164.26,117.069,167.2,116.424,168.448,119.5Z" transform="translate(-139.235 -117.323)" fill="#645d5c"/>
              </g>
            </g>
          </g>
        </g>
      </g>
    </g>
    <path id="パス_900" data-name="パス 900" d="M-51.63-.01-55-3.38-58.37-.02l-.42-.42,3.37-3.36-3.37-3.36.43-.42L-55-4.22l3.37-3.36.42.42L-54.58-3.8-51.2-.44Zm-.46-3.01a.751.751,0,0,1-.55-.23.751.751,0,0,1-.23-.55.746.746,0,0,1,.23-.555.759.759,0,0,1,.55-.225.771.771,0,0,1,.56.225.746.746,0,0,1,.23.555.751.751,0,0,1-.23.55A.762.762,0,0,1-52.09-3.02Zm-5.84,0a.746.746,0,0,1-.555-.23.759.759,0,0,1-.225-.55.754.754,0,0,1,.225-.555.754.754,0,0,1,.555-.225.759.759,0,0,1,.55.225.746.746,0,0,1,.23.555.751.751,0,0,1-.23.55A.751.751,0,0,1-57.93-3.02Zm2.92-2.9a.751.751,0,0,1-.55-.23.751.751,0,0,1-.23-.55.751.751,0,0,1,.23-.55.751.751,0,0,1,.55-.23.751.751,0,0,1,.55.23.751.751,0,0,1,.23.55.751.751,0,0,1-.23.55A.751.751,0,0,1-55.01-5.92Zm0,5.85a.751.751,0,0,1-.55-.23.751.751,0,0,1-.23-.55.751.751,0,0,1,.23-.55.751.751,0,0,1,.55-.23.751.751,0,0,1,.55.23.751.751,0,0,1,.23.55.751.751,0,0,1-.23.55A.751.751,0,0,1-55.01-.07Zm6.77-.07q-.13-.22-.345-.53a2.383,2.383,0,0,0-.435-.49,10.42,10.42,0,0,0,1.5-.82,11.842,11.842,0,0,0,1.435-1.105,12.061,12.061,0,0,0,1.25-1.3A9.029,9.029,0,0,0-43.88-5.78q-.49.03-1.075.07t-1.16.075q-.575.035-1.04.07l-.715.055-.14-1.27q.25,0,.75-.01t1.12-.035q.62-.025,1.235-.055t1.11-.075Q-43.3-7-43.06-7.04l.81.52a8.265,8.265,0,0,1-.62,1.375,10.639,10.639,0,0,1-.86,1.3q.35.27.745.61t.775.7q.38.36.7.69t.53.59a4.016,4.016,0,0,0-.53.415q-.28.255-.49.485a7.821,7.821,0,0,0-.49-.615q-.3-.345-.645-.7t-.695-.69q-.35-.335-.66-.6a13.28,13.28,0,0,1-1.8,1.61A13.137,13.137,0,0,1-48.24-.14Zm10.22.63A5.467,5.467,0,0,0-38.34-.1,2.352,2.352,0,0,0-38.7-.56a10.094,10.094,0,0,0,2.1-1.05A10.084,10.084,0,0,0-34.8-3.1q-.3-.2-.59-.37a5.647,5.647,0,0,0-.56-.29l.69-.92a10.4,10.4,0,0,1,1.22.67q.26-.37.49-.755a6.447,6.447,0,0,0,.4-.785l-.9.045q-.485.025-.9.04l-.66.025a10.3,10.3,0,0,1-.99,1.275A9.059,9.059,0,0,1-37.83-3.05a5.767,5.767,0,0,0-.42-.46,2.177,2.177,0,0,0-.46-.37A7.968,7.968,0,0,0-37.4-5.07a9.088,9.088,0,0,0,1.07-1.47,7.291,7.291,0,0,0,.685-1.53l1.15.36q-.11.31-.24.615t-.28.595q.44-.01.955-.025t.965-.04q.45-.025.69-.055l.78.42a10.755,10.755,0,0,1-.62,1.515,11.581,11.581,0,0,1-.8,1.355q.38.28.715.565a5.422,5.422,0,0,1,.555.535,2.414,2.414,0,0,0-.315.28q-.175.18-.33.37a3.742,3.742,0,0,0-.245.33,10.632,10.632,0,0,0-1.17-1.11,10.266,10.266,0,0,1-1.9,1.64A12.4,12.4,0,0,1-38.02.49Zm10.3-.77-.68-1.23a7.683,7.683,0,0,0,1.495-.5,15.027,15.027,0,0,0,1.575-.81,15.847,15.847,0,0,0,1.5-1A14.351,14.351,0,0,0-22.545-4.9a7.747,7.747,0,0,0,.935-1.05,3.455,3.455,0,0,0,.135.42q.1.25.2.485a3.808,3.808,0,0,0,.19.365,9.4,9.4,0,0,1-1.225,1.275,15.625,15.625,0,0,1-1.625,1.24A17.713,17.713,0,0,1-25.79-1.08,13.45,13.45,0,0,1-27.72-.28Zm1.07-4.41a3.59,3.59,0,0,0-.365-.33q-.235-.19-.52-.4t-.555-.385a3.642,3.642,0,0,0-.47-.265l.8-1.01q.2.11.47.28t.555.37q.285.2.535.4a4.426,4.426,0,0,1,.4.345ZM-18.12.53a4.612,4.612,0,0,0-.325-.6A2.428,2.428,0,0,0-18.8-.52a10.7,10.7,0,0,0,2.1-1.06,9.707,9.707,0,0,0,1.79-1.49,6.7,6.7,0,0,0-1.15-.66l.7-.92a10.4,10.4,0,0,1,1.22.67q.26-.37.485-.755a8.33,8.33,0,0,0,.4-.785l-.9.045q-.485.025-.9.04l-.66.025a10.026,10.026,0,0,1-1,1.275A9.662,9.662,0,0,1-17.93-3.02q-.17-.2-.43-.46a2.177,2.177,0,0,0-.46-.37A7.614,7.614,0,0,0-17.5-5.04a9.508,9.508,0,0,0,1.07-1.47,6.784,6.784,0,0,0,.68-1.53l1.16.37q-.11.3-.24.6t-.28.6q.44-.01.95-.025t.965-.04q.455-.025.695-.055l.77.42a9.984,9.984,0,0,1-.61,1.515A10.781,10.781,0,0,1-13.15-3.3q.38.28.715.565a5.421,5.421,0,0,1,.555.535,2.977,2.977,0,0,0-.305.28q-.175.18-.335.37a2.707,2.707,0,0,0-.25.34,6.973,6.973,0,0,0-.52-.545q-.3-.285-.64-.565a10.471,10.471,0,0,1-1.9,1.63A12.852,12.852,0,0,1-18.12.53Zm6.71-6.68a5.085,5.085,0,0,0-.495-.68,6.481,6.481,0,0,0-.545-.58l.55-.43a3.957,3.957,0,0,1,.35.355q.21.235.41.475a4.42,4.42,0,0,1,.31.41Zm.92-.75a5.013,5.013,0,0,0-.5-.665,6.25,6.25,0,0,0-.56-.575l.55-.43a4.76,4.76,0,0,1,.355.35q.215.23.415.47a4.42,4.42,0,0,1,.31.41Zm1.41,3.75q.01-.14.01-.38v-.48q0-.24-.01-.38.19.01.675.02t1.16.02q.675.01,1.445.015t1.54,0q.77,0,1.455-.01t1.185-.02q.5-.01.71-.03-.01.13-.015.37t0,.485q0,.245.005.375-.25-.01-.735-.02l-1.13-.02q-.645-.01-1.37-.01H-5.62q-.74,0-1.41.01l-1.2.02Q-8.77-3.17-9.08-3.15ZM3.86.31V-7.75H5.08v3.03l.45-.64q.24.17.635.425t.845.52q.45.265.87.485a6.748,6.748,0,0,0,.71.33,2.4,2.4,0,0,0-.275.315,4.9,4.9,0,0,0-.285.42q-.13.215-.21.365-.24-.13-.6-.335t-.75-.455q-.395-.25-.76-.495T5.08-4.23V.31Zm8.77-.3a2.988,2.988,0,0,0-.195-.34q-.135-.21-.29-.42a2,2,0,0,0-.3-.33A8.7,8.7,0,0,0,15-2.805,6.246,6.246,0,0,0,16.79-5.62q-.47.01-1.065.03L14.5-5.55l-1.2.04-1.005.035q-.43.015-.63.025l-.08-1.34q.29.02.765.03t1.045.01q.57,0,1.18-.005t1.175-.02q.565-.015,1.025-.035t.73-.05l.81.43a8.726,8.726,0,0,1-1.115,2.865,8.278,8.278,0,0,1-1.94,2.17A8.826,8.826,0,0,1,12.63.01ZM19-6.46a.962.962,0,0,1-.7-.3A.962.962,0,0,1,18-7.46a.946.946,0,0,1,.3-.7.97.97,0,0,1,.7-.29.954.954,0,0,1,.7.29.954.954,0,0,1,.29.7.97.97,0,0,1-.29.705A.946.946,0,0,1,19-6.46Zm0-.43a.539.539,0,0,0,.4-.165.551.551,0,0,0,.165-.405.539.539,0,0,0-.165-.395A.539.539,0,0,0,19-8.02a.551.551,0,0,0-.4.165.539.539,0,0,0-.165.395.551.551,0,0,0,.165.405A.551.551,0,0,0,19-6.89ZM22.96.41Q22.9.27,22.8.07t-.235-.4a2.489,2.489,0,0,0-.25-.33,8.067,8.067,0,0,0,2.9-1.455A6,6,0,0,0,26.96-4.42q-.5.02-1.135.05l-1.29.06q-.655.03-1.24.06t-1.01.055q-.425.025-.585.045L21.6-5.4q.26.01.74.01t1.08-.01q.6-.01,1.24-.03t1.245-.045q.605-.025,1.085-.06t.74-.065l.68.41a7.806,7.806,0,0,1-1.85,3.425A8.424,8.424,0,0,1,22.96.41Zm-.29-6.9v-1.2q.38.03.99.04t1.41.01q.77,0,1.38-.02l.98-.03v1.2q-.38-.03-.955-.04T25.07-6.54q-.45,0-.915.005t-.86.015Q22.9-6.51,22.67-6.49ZM32.28-.28,31.6-1.51a7.683,7.683,0,0,0,1.5-.5,15.027,15.027,0,0,0,1.575-.81,15.847,15.847,0,0,0,1.5-1A14.351,14.351,0,0,0,37.455-4.9a7.747,7.747,0,0,0,.935-1.05,3.455,3.455,0,0,0,.135.42q.1.25.2.485a3.808,3.808,0,0,0,.19.365,9.4,9.4,0,0,1-1.225,1.275,15.625,15.625,0,0,1-1.625,1.24A17.713,17.713,0,0,1,34.21-1.08,13.45,13.45,0,0,1,32.28-.28Zm1.07-4.41a3.59,3.59,0,0,0-.365-.33q-.235-.19-.52-.4t-.555-.385a3.642,3.642,0,0,0-.47-.265l.8-1.01q.2.11.47.28t.555.37q.285.2.535.4a4.426,4.426,0,0,1,.4.345ZM45.77.09a1.923,1.923,0,0,0-.15-.38,3.26,3.26,0,0,0-.255-.425,2.155,2.155,0,0,0-.285-.335,3.762,3.762,0,0,0,2.085-.9A2.311,2.311,0,0,0,47.92-3.56a2.465,2.465,0,0,0-.27-1.32,2.58,2.58,0,0,0-.845-.94,2.577,2.577,0,0,0-1.175-.43,14.023,14.023,0,0,1-.3,1.9,9.95,9.95,0,0,1-.6,1.82,5.249,5.249,0,0,1-.915,1.44,1.515,1.515,0,0,1-.795.51,1.426,1.426,0,0,1-.815-.11,1.946,1.946,0,0,1-.74-.57,2.757,2.757,0,0,1-.49-.925,3.229,3.229,0,0,1-.14-1.145A4.17,4.17,0,0,1,41.27-5,4.184,4.184,0,0,1,42.29-6.3a4.378,4.378,0,0,1,1.47-.83,4.707,4.707,0,0,1,1.77-.23,3.98,3.98,0,0,1,1.43.34,3.729,3.729,0,0,1,1.175.825,3.722,3.722,0,0,1,.78,1.215,3.462,3.462,0,0,1,.225,1.51,3.449,3.449,0,0,1-.96,2.295A4.658,4.658,0,0,1,45.77.09ZM42.52-1.93a.385.385,0,0,0,.23.08.346.346,0,0,0,.24-.12,3.529,3.529,0,0,0,.665-1.02,8.291,8.291,0,0,0,.51-1.49,9.912,9.912,0,0,0,.265-1.69,3.086,3.086,0,0,0-1.225.58,3.1,3.1,0,0,0-.845,1.015,3.177,3.177,0,0,0-.35,1.305,1.884,1.884,0,0,0,.125.815A1.234,1.234,0,0,0,42.52-1.93ZM55.13.61a2.48,2.48,0,0,0-.465-.365A3.179,3.179,0,0,0,54.13-.04a5.858,5.858,0,0,0,1.285-1.225A7.276,7.276,0,0,0,56.36-2.85a8.72,8.72,0,0,0-.87-.215q-.44-.085-.86-.125A9.623,9.623,0,0,1,54.1-2.3a4.7,4.7,0,0,1-.555.685,2.345,2.345,0,0,1-.915.6,1.928,1.928,0,0,1-.95.095A1.271,1.271,0,0,1,50.93-1.3a1.166,1.166,0,0,1-.29-.83,1.668,1.668,0,0,1,.38-1.06,2.6,2.6,0,0,1,1.1-.77A5.055,5.055,0,0,1,53.9-4.27q.27-.57.52-1.21t.45-1.27q-.37.1-.775.195t-.76.165q-.355.07-.585.1l-.32-1.15q.26-.01.67-.06t.865-.13q.455-.08.86-.17a4.99,4.99,0,0,0,.645-.18l.84.45q-.17.7-.48,1.59a18.848,18.848,0,0,1-.71,1.75q.38.05.775.13t.805.19a6.578,6.578,0,0,0,.14-.695,6,6,0,0,0,.06-.685l1.19.29a7.713,7.713,0,0,1-.24,1.42q.4.13.785.28t.735.32a2.592,2.592,0,0,0-.22.32,3.757,3.757,0,0,0-.215.415q-.1.215-.155.375-.31-.17-.635-.335a6.955,6.955,0,0,0-.665-.295,8.4,8.4,0,0,1-.99,1.715A6.312,6.312,0,0,1,55.13.61ZM51.69-2.27a.278.278,0,0,0,.17.205.557.557,0,0,0,.375.025,1.077,1.077,0,0,0,.485-.3,3.048,3.048,0,0,0,.3-.36,5.442,5.442,0,0,0,.32-.5,2.927,2.927,0,0,0-1.27.365Q51.65-2.56,51.69-2.27Z" transform="translate(1269 2475.455)" fill="gray"/>
    <path id="合体_22" data-name="合体 22" d="M74.5-1172.54v-6.3H2a2,2,0,0,1-2-2v-25a2,2,0,0,1,2-2H74.5v-7.3a2,2,0,0,1,3.387-1.441l22.117,21.3a2,2,0,0,1,0,2.881l-22.117,21.3a1.96,1.96,0,0,1-1.373.564A2,2,0,0,1,74.5-1172.54Z" transform="translate(1356 3519.348)" fill="#fff7cb"/>
    <g id="グループ_767" data-name="グループ 767" transform="translate(597 -174.545)">
      <rect id="長方形_320" data-name="長方形 320" width="57.453" height="20" rx="10" transform="translate(633 2555)" fill="#f88f00"/>
      <path id="パス_901" data-name="パス 901" d="M-13.846.406v-1.5h5.474V-3.7h-3.542V-5.222h3.542v-2.17H-11.3q-.392.658-.805,1.246a10.721,10.721,0,0,1-.805,1.022,2.522,2.522,0,0,0-.413-.315q-.273-.175-.56-.336a2.977,2.977,0,0,0-.5-.231A6.76,6.76,0,0,0-13.5-7.049a15.266,15.266,0,0,0,.9-1.456q.434-.791.763-1.547a6.572,6.572,0,0,0,.441-1.33l1.61.532a10.1,10.1,0,0,1-.728,1.96h2.142v-2.772h1.764V-8.89h4.55v1.5h-4.55v2.17h3.5V-3.7h-3.5v2.6h5.054v1.5ZM5.782.952A2.627,2.627,0,0,0,5.229.539,5.354,5.354,0,0,0,4.592.224V.938H3V-4.256q-.49.462-.966.84a3.645,3.645,0,0,0-.322-.371Q1.5-4,1.267-4.207A2.674,2.674,0,0,0,.84-4.522a8.526,8.526,0,0,0,.945-.8Q2.3-5.81,2.793-6.384T3.71-7.546a7.622,7.622,0,0,0,.658-1.078L5.782-7.9a12.256,12.256,0,0,1-1.19,1.862V.028A7.642,7.642,0,0,0,5.5-1.4a9.879,9.879,0,0,0,.672-1.764A9.115,9.115,0,0,0,6.5-5.11l1.5.224q-.056.49-.133.973t-.189.959a3.911,3.911,0,0,0,1.2,1.4V-5.782H5.488V-7.224H8.876v-1.47H6.09v-1.414H8.876v-1.568h1.666v1.568h2.8v1.414h-2.8v1.47h3.486v1.442H10.542V-4.41h2.842v1.47H10.542V-.882a8.3,8.3,0,0,0,.938.119q.49.035,1.05.035.462,0,.889-.014T14.238-.8a3.082,3.082,0,0,0-.161.434q-.091.294-.161.616A3.743,3.743,0,0,0,13.832.8h-1.3A12.961,12.961,0,0,1,10.157.609,4.728,4.728,0,0,1,8.428-.056a4.468,4.468,0,0,1-1.274-1.3,10.291,10.291,0,0,1-.6,1.225A7.125,7.125,0,0,1,5.782.952ZM2.2-7.616A4.357,4.357,0,0,0,1.659-8.2a4.719,4.719,0,0,0-.637-.518A11.466,11.466,0,0,0,2.24-9.611a12.386,12.386,0,0,0,1.134-1.064,7.4,7.4,0,0,0,.84-1.057l1.288.91a9.478,9.478,0,0,1-.994,1.239A13.734,13.734,0,0,1,3.332-8.47,12.43,12.43,0,0,1,2.2-7.616Z" transform="translate(662 2571)" fill="#fff"/>
    </g>
    <g id="グループ_937" data-name="グループ 937" transform="translate(884.116 -174.545)">
      <rect id="長方形_320-2" data-name="長方形 320" width="57.453" height="20" rx="10" transform="translate(633 2555)" fill="#49b2f4"/>
      <path id="パス_903" data-name="パス 903" d="M-13.09,1.148A5.329,5.329,0,0,0-13.5.364a3.931,3.931,0,0,0-.56-.742,6.2,6.2,0,0,0,2.282-.9,3.708,3.708,0,0,0,1.281-1.484,5.365,5.365,0,0,0,.469-2.03h-3.934V-6.342h5.53V-8.064h-2.646a8.669,8.669,0,0,1-1.078,1.456,5.631,5.631,0,0,0-.728-.5,5.475,5.475,0,0,0-.784-.385,6.613,6.613,0,0,0,.707-.854,11.581,11.581,0,0,0,.672-1.071,10.472,10.472,0,0,0,.546-1.134,7.111,7.111,0,0,0,.343-1.043l1.666.49a14.173,14.173,0,0,1-.546,1.5h1.848v-2.17h1.792V-9.6H-2.66v1.54H-6.636v1.722h5.222v1.554H-5.488v3.6a.38.38,0,0,0,.1.3A.663.663,0,0,0-4.97-.8h1.12A1.222,1.222,0,0,0-3.269-.91a.787.787,0,0,0,.322-.462A6.128,6.128,0,0,0-2.73-2.408a4.68,4.68,0,0,0,.483.217q.3.119.623.224t.546.161a5.842,5.842,0,0,1-.4,1.575,1.65,1.65,0,0,1-.7.805A2.36,2.36,0,0,1-3.3.812H-5.628A2.079,2.079,0,0,1-6.846.546,1.021,1.021,0,0,1-7.2-.322V-4.788h-1.12A6.369,6.369,0,0,1-9.555-1.064,6.632,6.632,0,0,1-13.09,1.148ZM1.554.406v-1.5H7.028V-3.7H3.486V-5.222H7.028v-2.17H4.1Q3.71-6.734,3.3-6.146a10.722,10.722,0,0,1-.805,1.022,2.522,2.522,0,0,0-.413-.315q-.273-.175-.56-.336a2.977,2.977,0,0,0-.5-.231A6.76,6.76,0,0,0,1.9-7.049a15.266,15.266,0,0,0,.9-1.456q.434-.791.763-1.547A6.572,6.572,0,0,0,4-11.382l1.61.532a10.1,10.1,0,0,1-.728,1.96H7.028v-2.772H8.792V-8.89h4.55v1.5H8.792v2.17h3.5V-3.7h-3.5v2.6h5.054v1.5Z" transform="translate(662 2571)" fill="#fff"/>
    </g>
    <path id="パス_902" data-name="パス 902" d="M-7.212.936A3.339,3.339,0,0,0-7.734.552,4.128,4.128,0,0,0-8.328.24a4.413,4.413,0,0,0,.594-.726,7.435,7.435,0,0,0,.546-.972,9.3,9.3,0,0,0,.432-1.086A5.519,5.519,0,0,0-6.516-3.6l1.308.288a6.2,6.2,0,0,1-.132.648q-.084.324-.18.636a3.024,3.024,0,0,0,.816.864V-3.888H-7.152V-5.124H-.66v1.236H-3.348v.876H-1.1v1.188H-3.348V-.636a5.253,5.253,0,0,0,.888.072A15.177,15.177,0,0,0-.444-.66,4.283,4.283,0,0,0-.6-.006Q-.672.408-.7.708H-2.46A5.367,5.367,0,0,1-4.548.348,3.5,3.5,0,0,1-6-.816,6.879,6.879,0,0,1-7.212.936Zm-3.72-.084A4.514,4.514,0,0,0-10.992.4Q-11.04.12-11.1-.15a2.6,2.6,0,0,0-.12-.414h.78A.574.574,0,0,0-10.1-.642.369.369,0,0,0-10-.948v-1.92q-.456.18-.834.312t-.546.18L-11.7-3.828q.288-.06.744-.2T-10-4.32V-6.456h-1.512v-1.32H-10v-2.268h1.38v2.268h1.068v1.32H-8.616v1.668q.4-.144.7-.258a3.118,3.118,0,0,0,.45-.2v1.332q-.156.084-.462.216t-.69.288V-.336A1.089,1.089,0,0,1-8.97.57a1.706,1.706,0,0,1-1.074.282ZM-6.8-5.676V-9.792H-1.3v4.116ZM-5.436-6.7h2.772V-7.26H-5.436Zm0-1.512h2.772V-8.76H-5.436ZM1.056.4V-3.912H2.532v2.9H5.244V-4.6H1.44V-9.012H2.976v3.036H5.244V-9.912h1.5v3.936H8.988V-9.012h1.548V-4.6H6.744v3.588H9.456v-2.9h1.488V.4Z" transform="translate(1395.569 2331.511)" fill="#f88f00"/>
  </g>
</svg>
