<svg xmlns="http://www.w3.org/2000/svg" width="497" height="497" viewBox="0 0 497 497">
  <g id="logo" transform="translate(-712 -3068)">
    <circle id="楕円形_81" data-name="楕円形 81" cx="248.5" cy="248.5" r="248.5" transform="translate(712 3068)" fill="#e0f2ff"/>
    <g id="アートワーク_6" data-name="アートワーク 6" transform="translate(817.66 3296.947)">
      <g id="グループ_149" data-name="グループ 149" transform="translate(-60.66 -32.947)">
        <g id="グループ_147" data-name="グループ 147" transform="translate(124.164 7.88)">
          <g id="グループ_144" data-name="グループ 144" transform="translate(0 22.948)">
            <path id="パス_157" data-name="パス 157" d="M136.1,61.812c0,1.266-.423,2.039-2.039,2.039H127.1c-1.618,0-2.037-.772-2.037-2.039V19.648c0-1.619.774-2.04,2.037-2.04h6.959c1.261,0,2.037.421,2.037,2.04V61.812Z" transform="translate(-26.164 -17.03)" fill="#3e9cf2"/>
            <path id="パス_158" data-name="パス 158" d="M115.628,61.824l-6.087-7.866a21.929,21.929,0,0,0,4.766-13.99,22.036,22.036,0,0,0-6.562-16.077,21.483,21.483,0,0,0-15.729-6.606A22.026,22.026,0,0,0,80.8,20.325,22.334,22.334,0,0,0,69.615,39.832a22.243,22.243,0,0,0,6.4,15.883,21.479,21.479,0,0,0,16.1,6.694,21.877,21.877,0,0,0,9.232-1.948l2.665,3.43a1.7,1.7,0,0,0,1.331.649H114.3a1.685,1.685,0,0,0,1.332-2.716ZM88.715,44.218l5.647,7.263a11.093,11.093,0,0,1-2.285.232,11.291,11.291,0,0,1-7.355-2.622,11.009,11.009,0,0,1-4.115-9.123,11.634,11.634,0,0,1,3.278-8.577,10.829,10.829,0,0,1,8.13-3.33,10.644,10.644,0,0,1,8.01,3.43,11.554,11.554,0,0,1,3.341,8.424,12.124,12.124,0,0,1-.954,4.828l-2-2.59a1.684,1.684,0,0,0-1.334-.653H90.048a1.687,1.687,0,0,0-1.332,2.718Z" transform="translate(-69.615 -17.284)" fill="#3e9cf2"/>
            <path id="パス_159" data-name="パス 159" d="M133.379,42.341h0V26.357H122.146V42.34h0a5.616,5.616,0,1,1-11.231,0h0V26.357H99.68V42.34h0l0,.029v.061h0a16.846,16.846,0,0,0,33.692,0h.005Z" transform="translate(-46.058 -10.175)" fill="#3e9cf2"/>
            <path id="パス_160" data-name="パス 160" d="M190.2,41.9v-.082h0a16.127,16.127,0,0,0-26.682-12.134,16.125,16.125,0,0,0-26.681,12.134h0V58.29h11.233V41.9h0a4.917,4.917,0,0,1,9.835,0V58.29H169.13V41.9h0a4.916,4.916,0,1,1,9.833,0V58.29H190.2V41.9Z" transform="translate(-16.948 -10.65)" fill="#3e9cf2"/>
            <g id="グループ_143" data-name="グループ 143" transform="translate(264.379 1.93)">
              <path id="パス_161" data-name="パス 161" d="M224.565,18.366a6.729,6.729,0,1,1-6.721,6.738A6.758,6.758,0,0,1,224.565,18.366Zm0,12a5.26,5.26,0,1,0-5.26-5.26A5.252,5.252,0,0,0,224.565,30.364Zm-2.509-8.349a.355.355,0,0,1,.357-.355h2.9a2.267,2.267,0,0,1,2.3,2.32,2.171,2.171,0,0,1-1.329,2.078L227.147,28a.347.347,0,0,1-.319.507h-1.009a.408.408,0,0,1-.337-.262l-.824-2.1h-.974v2a.356.356,0,0,1-.355.357h-.917a.357.357,0,0,1-.357-.357Zm3.052,2.752a.747.747,0,0,0,.767-.767.738.738,0,0,0-.767-.769h-1.479v1.536Z" transform="translate(-217.844 -18.366)" fill="#3e9cf2"/>
            </g>
            <path id="パス_162" data-name="パス 162" d="M191.063,24.784c-10.9,0-19.771,9.572-19.771,21.337s8.87,21.337,19.771,21.337h5.773c.025,0,.048,0,.073,0H201.2c1.47,0,1.853-.721,1.853-1.9V59.068c0-1.179-.384-1.9-1.853-1.9h-3.341V57.16h-6.8a9.411,9.411,0,0,1-8.378-5.891h22.992a5.148,5.148,0,0,0,5.149-5.147C210.827,34.356,201.963,24.784,191.063,24.784Zm-8.378,16.188a8.9,8.9,0,0,1,16.75,0Z" transform="translate(10.057 -11.407)" fill="#3e9cf2"/>
            <path id="パス_163" data-name="パス 163" d="M216.953,24.784c-10.9,0-19.768,9.572-19.768,21.337s8.866,21.337,19.768,21.337h5.829c.025,0,.048,0,.075,0h4.295c1.47,0,1.853-.721,1.853-1.9V59.068c0-1.179-.383-1.9-1.853-1.9h-3.4V57.16h-6.8a9.406,9.406,0,0,1-8.374-5.891h22.992a5.148,5.148,0,0,0,5.149-5.147C236.721,34.356,227.855,24.784,216.953,24.784ZM208.58,40.972a8.9,8.9,0,0,1,16.748,0Z" transform="translate(30.348 -11.407)" fill="#3e9cf2"/>
          </g>
          <g id="グループ_145" data-name="グループ 145" transform="translate(25.894)">
            <path id="パス_164" data-name="パス 164" d="M85.06,13.491a.894.894,0,0,1-.927-.926.885.885,0,0,1,.906-.908h.021L89.8,11.7a11.56,11.56,0,0,0-.97-1.518.829.829,0,0,1-.189-.485c0-.442.464-.737.949-.737a.95.95,0,0,1,.567.168c.127.084,1.623,1.75,1.623,2.467v.127l1.329.021,1.138-.021a15.625,15.625,0,0,0,.99-2.254.844.844,0,0,1,.844-.592A1.085,1.085,0,0,1,97.2,9.8a7,7,0,0,1-.968,1.9l4.826-.043h.02a.881.881,0,0,1,.929.908.9.9,0,0,1-.949.926ZM86.535,8.6a.917.917,0,1,1,0-1.834h5.479L92,5.42a.943.943,0,0,1,1.033-.908A.97.97,0,0,1,94.1,5.42L94.08,6.768H99.6a.917.917,0,1,1,0,1.834Zm10.033,14.31c-1.033.021-2.13.043-3.184.043-1.243,0-2.465-.021-3.6-.062-1.475-.064-2.256-.865-2.319-1.941-.043-.694-.062-1.37-.062-2.065s.02-1.389.062-2.106c.043-.886.653-1.812,2.276-1.855.927-.021,1.96-.021,3.014-.021,1.286,0,2.634,0,3.92.041a2.109,2.109,0,0,1,2.171,1.709q.064,1.075.062,2.149,0,1.043-.062,2.149A2.181,2.181,0,0,1,96.568,22.911Zm.38-4.784c0-1.033,0-1.58-1.034-1.6-1.1-.021-2.338-.043-3.519-.043-.717,0-1.434,0-2.065.021-1.033.043-1.033.633-1.033,1.6ZM89.3,19.581c0,.3,0,.569.021.865.021.863.4.885,4.215.885.822,0,1.623-.021,2.4-.043,1.013-.041,1.013-.464,1.013-1.685Z" transform="translate(-84.133 -4.344)" fill="#3e9cf2"/>
            <path id="パス_165" data-name="パス 165" d="M102.5,9.835a.835.835,0,0,1-.947-.822.908.908,0,0,1,.947-.906h5.8a.84.84,0,0,1,.906.863.852.852,0,0,1-.906.865ZM105.134,22.8c-.526,0-1.052-.021-1.475-.043a1.605,1.605,0,0,1-1.559-1.664c0-.548-.021-1.1-.021-1.623s.021-1.033.021-1.5a1.568,1.568,0,0,1,1.537-1.6c.465-.021.97-.043,1.455-.043.59,0,1.159.021,1.643.043a1.675,1.675,0,0,1,1.687,1.5c.021.485.021,1.054.021,1.623s0,1.117-.021,1.58a1.541,1.541,0,0,1-.127.631c2.93-.567,3.583-2.7,3.583-5.795,0-.253-.021-.526-.021-.8v-.043a.882.882,0,0,1,.927-.926,1.014,1.014,0,0,1,1.054.99c0,.253.021.5.021.779,0,3.373-.886,6.724-5.185,7.566a1.481,1.481,0,0,1-.3.021.84.84,0,0,1-.906-.863v-.086C107.18,22.669,106.927,22.8,105.134,22.8ZM103.2,6.947a.818.818,0,0,1-.906-.8.869.869,0,0,1,.906-.885h4.195a.843.843,0,1,1,0,1.685Zm.043,5.627a.816.816,0,0,1-.906-.8.868.868,0,0,1,.906-.885h4.193a.843.843,0,1,1,0,1.685Zm0,2.718a.816.816,0,0,1-.906-.8.868.868,0,0,1,.906-.885h4.193a.843.843,0,1,1,0,1.685ZM106.7,19.55c0-.4,0-.8-.021-1.1-.043-.548-.507-.569-1.475-.569-.253,0-.507,0-.822.021-.59.041-.59.357-.59,1.623,0,.4.021.8.021,1.117.021.442.423.5,1.37.5,1.307,0,1.475-.189,1.5-.526C106.7,20.331,106.7,19.93,106.7,19.55Zm4-3.92a.859.859,0,0,1-.906.844.869.869,0,0,1-.927-.863c0-.275-.021-.569-.021-.865,0-.316.021-.653.021-.99.041-1.076.76-1.793,2.213-1.814,1.222-.02,2.592-.02,3.961-.02,1.011,0,2,0,2.952.02a2.063,2.063,0,0,1,2.149,1.96c.021.275.021.571.021.844,0,.3,0,.569-.021.822a.931.931,0,0,1-.992.844.832.832,0,0,1-.927-.8v-.043c0-1.834,0-2-1.1-2.024-.865-.02-2.108-.041-3.266-.041-2.888,0-3.1,0-3.162,1.054V15.63Zm0-4.614a.784.784,0,0,1-.885-.781.841.841,0,0,1,.885-.842l2.592.021V8.254l-3.435.02a.817.817,0,0,1-.906-.8.864.864,0,0,1,.906-.863l3.435.021V5.345a.911.911,0,0,1,.992-.927.941.941,0,0,1,1.011.927V6.631l3.856-.021a.833.833,0,1,1,0,1.664l-3.856-.02V9.414l2.8-.021a.812.812,0,1,1,0,1.623Zm8.114,8.345a.8.8,0,0,1,.865-.844.966.966,0,0,1,1.011,1.013c0,2.338-.631,3.562-3.371,3.562-2.151,0-2.615-.949-2.615-2.424,0-.844.043-5.1.084-5.754a.953.953,0,0,1,1.013-.822c.906,0,.906.779.906,1.138,0,1.138-.084,3.942-.084,4.994,0,.59.041,1.011.8,1.011,1.034,0,1.391-.084,1.391-1.643v-.232Z" transform="translate(-70.483 -4.418)" fill="#3e9cf2"/>
            <path id="パス_166" data-name="パス 166" d="M123.2,21.083a1.434,1.434,0,0,1-1.982-.189,1.08,1.08,0,0,1,.569-1.644,8.054,8.054,0,0,0,4.427-8.283,1.079,1.079,0,0,1,1.159-1.286,1.123,1.123,0,0,1,1.265,1.2c0,.251,0,.526-.021.779.062-.021.105-.064.169-.084a9.2,9.2,0,0,0,3.835-2.656c.316-.442.316-.76-.232-.76-2.361-.02-6.954.043-9.906.191-1.853.084-1.748-1.941-.168-2.024,3.055-.146,7.65-.127,10.812-.127,2.192,0,3.2,1.834,1.728,3.5a12.263,12.263,0,0,1-5.228,3.751,1.37,1.37,0,0,1-1.2-.062A10.628,10.628,0,0,1,123.2,21.083Z" transform="translate(-55.227 -3.02)" fill="#3e9cf2"/>
            <path id="パス_167" data-name="パス 167" d="M141.125,20.119a13.044,13.044,0,0,0,8.367-8.41c.168-.569.105-1.1-.676-1.117-2.064-.062-5.4.062-8.429.168a1.044,1.044,0,1,1-.041-2.087c2.781-.125,6.721-.146,9.4-.1,1.709.021,2.911,1.306,2.3,3.034-1.475,4.215-4.047,8.3-9.947,10.559C140.3,22.837,139.523,20.625,141.125,20.119ZM153.644,9.053a2.223,2.223,0,0,1,0-4.446,2.223,2.223,0,1,1,0,4.446Zm0-3.309a1.1,1.1,0,0,0-1.075,1.1,1.076,1.076,0,0,0,2.151,0A1.1,1.1,0,0,0,153.644,5.745Z" transform="translate(-40.919 -4.27)" fill="#3e9cf2"/>
            <path id="パス_168" data-name="パス 168" d="M159.888,15.373a1.035,1.035,0,0,1-1.1-1.076c.127-2.085.064-5.4-.041-7.4-.061-1.307,2.106-1.413,2.192-.084.107,1.9.107,5.5.062,7.461A1.089,1.089,0,0,1,159.888,15.373Zm.169,5.1c3.729-2.065,4.573-4.891,4.573-8.03,0-1.644-.105-4.257-.105-5.923,0-1.37,2.278-1.284,2.256,0-.045,1.793.062,4.152.062,5.9,0,3.624-1.1,7.27-5.458,9.779C159.657,23.193,158.731,21.211,160.058,20.474Z" transform="translate(-25.665 -3.55)" fill="#3e9cf2"/>
          </g>
          <g id="グループ_146" data-name="グループ 146" transform="translate(65.691 80.553)">
            <path id="パス_169" data-name="パス 169" d="M108.793,56.831A16.635,16.635,0,0,0,106.88,53.9a1.344,1.344,0,0,1,.109-2.067,22.193,22.193,0,0,0,1.85-2.039.505.505,0,1,1,.8.614c-.451.551-1.407,1.336-1.967,1.9-.387.387-.407.658-.107,1.027a15.5,15.5,0,0,1,2.11,2.941C109.956,56.876,109.081,57.409,108.793,56.831Z" transform="translate(-106.446 -49.581)" fill="#3e9cf2"/>
            <path id="パス_170" data-name="パス 170" d="M122.037,55.359a1.131,1.131,0,0,0,.118-1.785,2.375,2.375,0,0,0-2.356.153,1.972,1.972,0,0,0-.756.676c-.325.478-1.227-.054-.669-.6a31.86,31.86,0,0,0,2.725-2.914c.1-.125.009-.089-.064-.053a7.191,7.191,0,0,1-1.514.46c-.713.153-.849-.74-.235-.812a14.118,14.118,0,0,0,1.985-.442c.722-.207,1.316.433.865.938-.287.325-.649.676-1.01,1.01s-.722.66-1.047.976a2.763,2.763,0,0,1,2.536-.027,1.8,1.8,0,0,1-.073,3.05,2.974,2.974,0,0,1-2.986.225.94.94,0,0,1,.532-1.778,1.282,1.282,0,0,1,1.427,1.218A1.209,1.209,0,0,0,122.037,55.359Zm-1.923-.269c-.4.036-.414.4-.127.558a1.628,1.628,0,0,0,.76.136C120.754,55.368,120.512,55.054,120.114,55.089Z" transform="translate(-97.239 -49.256)" fill="#3e9cf2"/>
            <path id="パス_171" data-name="パス 171" d="M134.352,53.024a6.756,6.756,0,0,1,1.958.4,1.462,1.462,0,0,0-.127-.947c-.253-.424.56-.767.858-.207a2.206,2.206,0,0,1,.089,1.5,7.049,7.049,0,0,1,1.245.767c.569.441-.045,1.272-.558.8a6.187,6.187,0,0,0-.985-.731,4.4,4.4,0,0,1-1.714,1.832c-.631.371-1.083-.334-.5-.7a3.856,3.856,0,0,0,1.425-1.523,5.623,5.623,0,0,0-2.1-.451,4.3,4.3,0,0,1-1.156,1.65,1.262,1.262,0,0,1-1.723,0c-.46-.576-.127-1.514.911-1.974a5.068,5.068,0,0,1,1.479-.389c.317-.678.731-1.5.985-2.065.054-.127.08-.2-.055-.164a4.691,4.691,0,0,1-1.063.218.429.429,0,0,1-.029-.858,12.051,12.051,0,0,0,1.3-.225c.821-.162,1.181.369.776,1.029-.38.631-.74,1.363-1.065,2.039Zm-2.119,1.083c-.235.118-.66.5-.507.722.109.153.433.1.6-.029a3.154,3.154,0,0,0,.749-.965A2.847,2.847,0,0,0,132.234,54.106Z" transform="translate(-87.31 -49.311)" fill="#3e9cf2"/>
            <path id="パス_172" data-name="パス 172" d="M145.265,52.263a.434.434,0,0,1-.478-.432.461.461,0,0,1,.478-.462h5.666a.447.447,0,1,1,0,.894Z" transform="translate(-76.402 -48.181)" fill="#3e9cf2"/>
          </g>
        </g>
        <g id="グループ_148" data-name="グループ 148">
          <path id="パス_173" data-name="パス 173" d="M88.769,45.442A41.661,41.661,0,1,1,47.11,3.781,41.659,41.659,0,0,1,88.769,45.442" transform="translate(4.268 2.963)" fill="#b2daff"/>
          <path id="パス_174" data-name="パス 174" d="M46.459,70.821c-27.287-7.869-24.105-38.841,0-44.531.5-2.679,3.683-5.023,5.527-5.023s5.019,2.344,5.524,5.023c24.107,5.69,27.287,36.662,0,44.531a6.038,6.038,0,0,1-5.524,4.352,6.042,6.042,0,0,1-5.527-4.352m5.024,25.618c32.4,0,52.487-20.344,52.487-47.969S75.59,0,51.483,0h1C28.379,0,0,20.847,0,48.469S20.09,96.438,52.487,96.438Z" fill="#3e9cf2"/>
          <path id="パス_175" data-name="パス 175" d="M72.577,50.213,51.451,29.086C50.163,37.1,44.084,44.669,32.436,48.029A5.234,5.234,0,0,1,32,49.18L51.531,68.715a44.838,44.838,0,0,0,21.046-18.5" transform="translate(25.072 22.791)" fill="#177fde"/>
        </g>
      </g>
    </g>
  </g>
</svg>
