<svg xmlns="http://www.w3.org/2000/svg" xmlns:xlink="http://www.w3.org/1999/xlink" width="138" height="139" viewBox="0 0 138 139">
  <defs>
    <clipPath id="clip-path">
      <ellipse id="楕円形_2" data-name="楕円形 2" cx="69" cy="69.5" rx="69" ry="69.5" transform="translate(-448 4425)" fill="#d5edff"/>
    </clipPath>
  </defs>
  <g id="teacher2" transform="translate(238 -4702)">
    <ellipse id="楕円形_32" data-name="楕円形 32" cx="69" cy="69.5" rx="69" ry="69.5" transform="translate(-238 4702)" fill="#d5edff"/>
    <g id="マスクグループ_3" data-name="マスクグループ 3" transform="translate(210 277)" clip-path="url(#clip-path)">
      <g id="_18165_paint" data-name="18165_paint" transform="translate(-456 4419)">
        <path id="パス_727" data-name="パス 727" d="M131.2,72.318a4.194,4.194,0,0,1,3.03-1.109,3.89,3.89,0,0,1,3.494,1.941c1.187,2.059,1.137,5.853.34,8.2a12.661,12.661,0,0,1-3.717,6.028,4.618,4.618,0,0,1-3.562,1.028l-.342-.058a27.2,27.2,0,0,1-1.225,3.327c-.9,2.44-5.836,10.951-12.1,14.361v2.752c-.52.421-11.134,8.79-11.938,9.36H103.3c-.8-.57-11.418-8.939-11.938-9.36v-2.962a25.1,25.1,0,0,1-7.031-6.072,31.86,31.86,0,0,1-6.048-11.41,4.533,4.533,0,0,1-3.854-.966A12.679,12.679,0,0,1,70.71,81.35c-.8-2.347-.847-6.141.341-8.2a3.889,3.889,0,0,1,3.493-1.941,4.194,4.194,0,0,1,3.03,1.109s-3.162-25.19,26.014-25.19C138.16,47.127,131.2,72.318,131.2,72.318Z" transform="translate(-24.177 -9.696)" fill="#fce0cd"/>
        <path id="パス_728" data-name="パス 728" d="M134.146,36.115a23.983,23.983,0,0,0-4.612-5.411L125.253,26.9C119.7,20.714,112.325,19,105.054,19a32.951,32.951,0,0,0-20.394,6.7,29.756,29.756,0,0,0-5.749,5.986c-3.73,3.648-6.7,11.616-6.481,19.518a41.444,41.444,0,0,0,1.3,10.607,4.895,4.895,0,0,1,1.6-.307,4.194,4.194,0,0,1,3.03,1.109l1.2.842a44.786,44.786,0,0,1,.524-4.817c.558-3.386,4.071-4.947,5.565-7.969.86-1.742,1.371-3.776,2.843-5.015a7.291,7.291,0,0,1,4.012-1.4,72.979,72.979,0,0,1,12.179.562c2.114.119,4.163.541,7.178.925,1.638.208,4.668.743,5.828.976,4.561,1.048,6.31,2.188,8.6,5.292a22.374,22.374,0,0,1,2.677,6.186l3.014,4.419a4.194,4.194,0,0,1,3.03-1.109,4.956,4.956,0,0,1,1.486.266,34.442,34.442,0,0,0,1.263-10.566C137.468,44.228,136.317,39.707,134.146,36.115Z" transform="translate(-24.965)" fill="#645d5c"/>
        <path id="パス_729" data-name="パス 729" d="M114.237,118.8a11.134,11.134,0,0,0,5.365,1.245,8.769,8.769,0,0,0,5.455-1.626,1.573,1.573,0,0,0,0-2.224,1.622,1.622,0,0,0-2.224,0c.488-.38.153-.12.028-.04-.105.066-.214.131-.328.189-.147.077-.51.163-.07.048-.151.039-.3.115-.449.163a8.4,8.4,0,0,1-1.256.287c.235-.037.083-.012-.066,0-.123.012-.246.022-.37.03q-.446.029-.892.025-.4,0-.8-.029-.183-.012-.366-.03c-.056-.006-.5-.084-.123-.012a11.6,11.6,0,0,1-1.173-.262c-.164-.049-.328-.108-.487-.163-.383-.131.281.139-.066-.024-.2-.1-.4-.2-.6-.3a1.573,1.573,0,1,0-1.587,2.715Z" transform="translate(-39.111 -33.353)" fill="#efc0a0"/>
        <path id="パス_730" data-name="パス 730" d="M120.988,100.251a24.7,24.7,0,0,1,.581,2.658l-.056-.418a1.6,1.6,0,0,1,.01.367l.056-.418a.856.856,0,0,1-.041.165l.159-.376a.641.641,0,0,1-.058.106l.246-.318a.567.567,0,0,1-.087.086l.318-.246a1.743,1.743,0,0,1-.21.111l.375-.159a1.523,1.523,0,0,1-.355.1l.418-.056a1.38,1.38,0,0,1-.333,0l.418.056c-.126-.018-.249-.048-.375-.066a1.194,1.194,0,0,0-.627-.028,1.169,1.169,0,0,0-.585.187,1.573,1.573,0,0,0-.564,2.152,1.5,1.5,0,0,0,.94.721c.3.041.6.118.91.131a2.94,2.94,0,0,0,1.364-.328,2.014,2.014,0,0,0,1.1-1.323,3.232,3.232,0,0,0-.012-1.4c-.145-.856-.343-1.7-.563-2.546a1.573,1.573,0,0,0-1.935-1.1,1.6,1.6,0,0,0-1.1,1.935Z" transform="translate(-41.39 -27.322)" fill="#efc0a0"/>
        <path id="パス_731" data-name="パス 731" d="M100.156,88.581c-.444,1.442-.155,4.761,2.578,5.046,3.612-.022,3.805-4.034,2.589-5.92C104.327,86.159,101.4,85.517,100.156,88.581Z" transform="translate(-34.469 -23.239)" fill="#645d5c"/>
        <path id="パス_732" data-name="パス 732" d="M141.491,88.581c.444,1.442.155,4.762-2.578,5.046-3.612-.022-3.805-4.034-2.589-5.921C137.321,86.159,140.247,85.517,141.491,88.581Z" transform="translate(-46.763 -23.239)" fill="#645d5c"/>
        <path id="パス_733" data-name="パス 733" d="M1.519,275.726H158.9a1.574,1.574,0,0,0,0-3.145H1.519A1.574,1.574,0,0,0,1.519,275.726Z" transform="translate(0 -87.417)" fill="#645d5c"/>
        <path id="パス_734" data-name="パス 734" d="M138.5,166.311c-5.836-8.866-17.209-12.6-30.179-17.692-1.447-1.121-2.858-2.105-4-2.835-2.767,12.286-6.382,25.424-10.271,37.369-2.883,8.851-3.831,11.854-7.518,20.953H85.346c-3.687-9.1-4.636-12.1-7.518-20.953-3.89-11.946-7.5-25.084-10.271-37.369-1.245.8-2.812,1.9-4.4,3.149-12.636,4.932-23.66,8.695-29.377,17.378,0,0-5.116,1.649-9.885,2.887l-4.4,3.35c-.715,8.038-1.888,16.137-2.359,24.223-.735,12.572,3.94,26.715,18.4,28H46.805v7.806h87.849a22,22,0,0,0,9.684-2.134,16.571,16.571,0,0,0,5.589-5.323c2.2-3.048,2.577-8.348,2.022-12.063-2.129-14.234-6.377-26.612-10.583-40.376a22.672,22.672,0,0,0-2.827-6.094" transform="translate(-5.883 -43.706)" fill="#b3b3b3"/>
        <path id="パス_735" data-name="パス 735" d="M112.244,201.5c-3.687-9.1-4.636-12.1-7.518-20.953-3.571-10.968-6.91-22.94-9.575-34.336a3.913,3.913,0,0,1,.88-3.223c1.2-1.388,2.709-3.4,3.932-4.766.52.421,11.134,8.79,11.938,9.36h1.871c.8-.57,11.418-8.939,11.938-9.36,1.225,1.37,2.736,3.379,3.932,4.766a3.911,3.911,0,0,1,.88,3.223c-2.664,11.4-6,23.367-9.575,34.336-2.883,8.851-3.831,11.854-7.518,20.953Z" transform="translate(-32.781 -41.1)" fill="#fff"/>
        <path id="パス_736" data-name="パス 736" d="M114.525,198.225c.852,2.3,1.841,4.835,3.2,8.2h1.189c3.394-8.376,4.468-11.587,6.866-18.949-1.163-9.969-2.7-21.824-2.7-22.174a8.279,8.279,0,0,1,.286-1.862q.107-.418.193-.835c.307-1.385.363-2.1.721-3.56l.022-.072c-1.712-2.309-3.783-5.046-5.046-6.466H117.39c-1.251,1.408-3.3,4.11-5,6.407.1.271.159.448.159.448a18.19,18.19,0,0,1,.875,2.846,11.86,11.86,0,0,1,.691,3.3c.01.586-1.608,11.828-3.109,22.4C112.363,192.075,113.3,194.913,114.525,198.225Z" transform="translate(-38.267 -46.025)" fill="#3d8dcc"/>
        <path id="パス_737" data-name="パス 737" d="M96.959,206.771c-6.647-11.518-13.213-23.088-19.336-34.894q-.309-.594-.615-1.191A5.23,5.23,0,0,1,76.4,169.5c-.014-.085-.27.307.157-.167.278-.309.57-.607.859-.906,1.376-1.424,2.811-2.787,4.255-4.141a1.587,1.587,0,0,0-.318-2.47l-2.537-1.448-1.128-.643-.7-.4-.282-.161q-.286-.185,0,.058l.215.794a6.913,6.913,0,0,1,.786-1.185,16.854,16.854,0,0,1,1.2-1.432c1.358-1.5-.86-3.727-2.224-2.224-1.154,1.27-3.719,3.841-2.644,5.724.524.912,1.755,1.366,2.63,1.866l3.1,1.769-.318-2.47c-1.329,1.245-2.651,2.5-3.927,3.8-1.155,1.179-2.678,2.471-2.2,4.315a11.386,11.386,0,0,0,1.039,2.223q.617,1.2,1.24,2.388,1.2,2.286,2.411,4.561c3.36,6.287,6.826,12.516,10.343,18.716q2.924,5.156,5.89,10.288a1.574,1.574,0,0,0,2.715-1.588Z" transform="translate(-25.243 -46.772)" fill="#a0a0a0"/>
        <path id="パス_738" data-name="パス 738" d="M137.5,207.818c7.037-12.2,14.074-24.435,20.426-37.007a3.562,3.562,0,0,0,.478-2.662,5.74,5.74,0,0,0-1.638-2.26c-1.442-1.507-2.949-2.941-4.471-4.366l-.318,2.47,3.382-1.93c1.114-.636,2.621-1.206,2.6-2.722a5.643,5.643,0,0,0-1.445-2.955,25.912,25.912,0,0,0-2.49-2.818,1.573,1.573,0,0,0-2.224,2.224,24.388,24.388,0,0,1,1.9,2.069c.221.276.428.56.621.856.09.137.178.276.262.417.012.021.24.514.232.341l.215-.794c.125-.242.111-.105-.139.023s-.47.269-.7.4l-1.269.721-2.537,1.448a1.587,1.587,0,0,0-.318,2.47c1.253,1.176,2.5,2.359,3.708,3.581q.384.393.763.786c.212.221.767.624.852.909.024.079.005-.237-.053-.061a9.071,9.071,0,0,1-.609,1.185q-2.253,4.373-4.587,8.7-4.777,8.877-9.778,17.631-2.774,4.885-5.585,9.75a1.574,1.574,0,0,0,2.715,1.588Z" transform="translate(-46.388 -46.232)" fill="#a0a0a0"/>
        <path id="パス_739" data-name="パス 739" d="M37.482,134.1c.165-.3.328-.609.5-.928.881-1.626,1.741-3.188,2.615-3.564a3.428,3.428,0,0,1,2.318.117,2.752,2.752,0,0,1,.795,2.234,36.891,36.891,0,0,1-1.279,6.191,48.016,48.016,0,0,1-2.89,8.8,14.738,14.738,0,0,1-4.9,5.336c-.016.5-.031.952-.031.952a29.72,29.72,0,0,1-.486,3.741c-5.122.655-13.193,1.132-16.723,1.325,0-1.167-.075-2.189-.123-2.987V155.3c-.145-1.031-3.552-8.332-5.727-12.264-1.831-3.921-3.716-7.27-5.657-11.14a17.512,17.512,0,0,1-1.468-3.244,2.967,2.967,0,0,1,.295-2.8,2.079,2.079,0,0,1,2.8-.467,4.727,4.727,0,0,1,1.84,2.156c1.552,2.731,3.211,5.2,4.859,7.836l-.305-.772-1.789-4.526c-.6-1.507-3.727-9.157-4.232-10.463a5.415,5.415,0,0,1-.372-3.745,2.317,2.317,0,0,1,1.2-1.215,3.332,3.332,0,0,1,1.549-.038c1.385.305,1.879,1.486,2.807,2.955l.231.366-.438-1.171a19.279,19.279,0,0,1-1.168-4.352,3.087,3.087,0,0,1,2.2-2.824,2.852,2.852,0,0,1,2.913,1.567c1.145,1.978,5.53,11.556,7.737,16.751a19.967,19.967,0,0,1,2.928-3.359,7.246,7.246,0,0,1,4.849-2.315c1.493-.007,2.736.924,4.034,1.681,1.151.671,3.273,1.631,3.455,2.573a2.654,2.654,0,0,1-2.613,3.053,25.812,25.812,0,0,1-3.367-.889,3.384,3.384,0,0,0-3.238,1.769,6.228,6.228,0,0,0-.643,3.731,4.928,4.928,0,0,0,1.1,3.14,3.068,3.068,0,0,0,4.16,0,13.032,13.032,0,0,0,2.262-3.192Z" transform="translate(-1.455 -31.224)" fill="#fce0cd"/>
        <path id="パス_770" data-name="パス 770" d="M113.907,238.295c0,1.966-.007,4.986.008,7.067a1.8,1.8,0,0,0,1.806,1.784c2.064-.007,5.439-.007,7.506,0a1.8,1.8,0,0,0,1.805-1.784c.015-2.081.012-5.1.008-7.067a1.793,1.793,0,0,0-1.8-1.791H115.7a1.794,1.794,0,0,0-1.8,1.791Z" transform="translate(-39.266 -74.98)" fill="#bdbdbd"/>
      </g>
    </g>
  </g>
</svg>
