<svg xmlns="http://www.w3.org/2000/svg" xmlns:xlink="http://www.w3.org/1999/xlink" width="140" height="140" viewBox="0 0 140 140">
  <defs>
    <clipPath id="clip-path">
      <circle id="楕円形_1" data-name="楕円形 1" cx="70" cy="70" r="70" transform="translate(0 0)" fill="#fff" stroke="#707070" stroke-width="1"/>
    </clipPath>
  </defs>
  <g id="teacher1" transform="translate(-0.292 -22)">
    <g id="グループ_24" data-name="グループ 24" transform="translate(0.292 22)">
      <ellipse id="楕円形_2" data-name="楕円形 2" cx="69" cy="69.5" rx="69" ry="69.5" transform="translate(1 1)" fill="#b0b2b4"/>
      <g id="マスクグループ_1" data-name="マスクグループ 1" transform="translate(0 0)" clip-path="url(#clip-path)">
        <g id="c" transform="translate(-27.604 11.112)">
          <g id="d" transform="translate(0 0)">
            <path id="パス_1" data-name="パス 1" d="M181.2,63.6a4.152,4.152,0,0,1,3.322-.972,3.921,3.921,0,0,1,2.819,1.874,5.534,5.534,0,0,1,.58,2.23,16.611,16.611,0,0,1-1.694,8.8,10.557,10.557,0,0,1-2.73,3.583,6.994,6.994,0,0,1-3.255,1.467l-.557.086c-.267,1-.567,1.842-.714,2.289-.948,2.574-6.258,11.486-12.939,14.728-.017,2.249-.061,4.824.724,6.77,1.341,3.309,8.565,7.48,9.062,7.7,0,0-3.924,15.093-22.586,15.093-23.731,0-22.763-15.675-22.763-15.675.5-.216,6.592-3.8,7.933-7.114.892-2.209.71-5.233.724-7.668a25.846,25.846,0,0,1-6.244-5.533A28.245,28.245,0,0,1,127.5,80.753l-1.061-.163a7,7,0,0,1-3.255-1.467,10.552,10.552,0,0,1-2.73-3.583,16.611,16.611,0,0,1-1.694-8.8,5.541,5.541,0,0,1,.58-2.23,3.92,3.92,0,0,1,2.819-1.874,4.153,4.153,0,0,1,3.322.972s2.639-24.746,27.982-24.746S181.2,63.6,181.2,63.6Z" transform="translate(-57.17 -18.715)" fill="#fce0cd"/>
            <path id="パス_2" data-name="パス 2" d="M186.577,26.134a22.328,22.328,0,0,0-.915-2.991c-1.377-3.518-3.487-7.579-7.76-9.925l-5.014-3.77c-5-8.282-14.225-9.9-22.083-9.351-9.333.653-15.985,3.159-22.05,10.283-8.838,10.381-9.086,24.114-5.746,33.589a1.719,1.719,0,0,1,.246-.052,4.119,4.119,0,0,1,3.3.965l4.377-4.762c1.83-2.6,7.019-9.053,10.963-9.84,2.82-.563,5.826.047,8.751-.071,5.3-.213,9.689-2.725,14.392-4.557.626-.244,1.258-.476,1.9-.688a2.58,2.58,0,0,1,1.116-.183,1.98,1.98,0,0,1,1.125.651c5.461,5.33,10.59,12.989,11.515,20.979.844-.769,1.685-1.528,1.685-1.528a4.121,4.121,0,0,1,3.3-.965,2.913,2.913,0,0,1,.367.077,35.585,35.585,0,0,0,.539-17.86Z" transform="translate(-58.29 0)" fill="#645d5c"/>
            <path id="パス_3" data-name="パス 3" d="M66.652,262.046c.026-.7.047-1.317.073-1.83-.154-9.1-.53-21.414-1.081-34l-.262.342-.863,1.127a109.631,109.631,0,0,1-10.4,11.517,15.886,15.886,0,0,1-12.135,3.754c-6.41-1.039-9.214-7.136-11.831-13.086-3.764-8.557-6.44-17.761-9.116-26.309,5.362-1.166,13.9-5.078,19.261-7.9,2.118,5.209,3.986,9.85,6.122,14.853,3.847-9.967,4.836-15.419,8.61-25.272a13.817,13.817,0,0,1,2.562-4.908,13.859,13.859,0,0,1,4.59-2.941c5.15-2.328,17.488-7.051,23.731-9.848a21.914,21.914,0,0,1,5-7.375,41.674,41.674,0,0,0,12.029,8.383c.249.113.527.251.607.512a.964.964,0,0,1-.139.679,8.3,8.3,0,0,1-.659.932l5.44-.007a8.128,8.128,0,0,1-.655-.925.964.964,0,0,1-.139-.679c.08-.261.358-.4.607-.512a41.674,41.674,0,0,0,12.029-8.383,21.552,21.552,0,0,1,4.789,6.893c5.475,2.192,19.438,7.562,24.7,10.1,1.69.816,3.542,1.549,4.823,2.922a15.974,15.974,0,0,1,2.869,5.292c3.8,9.928,5.4,19.677,7.473,30.505H147.979c-.641,15.872-1.235,33.375-1.48,45.441-.005.244-.005.482-.01.715Z" transform="translate(-10.133 -77.142)" fill="#fff"/>
            <path id="パス_4" data-name="パス 4" d="M176.131,270.867a108.23,108.23,0,0,0,7.654-9.426c.7-1.021,1.3-1.572,1.366-2.336a17.881,17.881,0,0,0-.174-2.984c-1.458-16.386-3.62-42-6.405-65.906a10.421,10.421,0,0,1,.647-2.852c.4-1.231,1.239-4.057.8-3.052-.448-.543-.891-1.081-1.308-1.591-.729-.892-1.377-1.7-1.832-2.287l-5.442.007c-.455.59-1.1,1.392-1.827,2.281-.291.356-.6.726-.9,1.1.236,1.268.692,2.618.99,3.893.054.252.117.5.18.749a6.935,6.935,0,0,1,.271,1.66c-2.023,22.013-4.622,49.222-6.44,68.05a4.243,4.243,0,0,0,.166,2.134,10.019,10.019,0,0,0,1.1,1.684,76.888,76.888,0,0,0,7.569,8.96,3.075,3.075,0,0,0,1.694.881,2.592,2.592,0,0,0,1.856-.92l.039-.044Z" transform="translate(-78.815 -86.898)" fill="#65a0d4"/>
            <path id="パス_5" data-name="パス 5" d="M201.984,181.2a46.31,46.31,0,0,0,6.31-8.249c.9-1.435,1.764-2.892,2.644-4.339a2.98,2.98,0,0,0,.656-1.424,2.726,2.726,0,0,0-.492-1.229,24.22,24.22,0,0,0-1.5-2.373,1.28,1.28,0,0,0-1.7-.446,1.255,1.255,0,0,0-.446,1.7,25.11,25.11,0,0,1,1.823,2.974v-1.256c-2.748,4.48-5.308,9.131-9.052,12.881a1.245,1.245,0,0,0,1.759,1.759h0Z" transform="translate(-96.256 -78.489)" fill="#d9d9d9"/>
            <path id="パス_6" data-name="パス 6" d="M156.737,179.818c-3.743-3.75-6.3-8.4-9.052-12.881v1.256a25.973,25.973,0,0,1,1.571-2.618c.908-1.324-1.248-2.57-2.149-1.256a24.62,24.62,0,0,0-1.356,2.212,1.678,1.678,0,0,0-.278,1.513,7.92,7.92,0,0,0,.67,1.144c.878,1.447,1.743,2.9,2.645,4.335a45.736,45.736,0,0,0,6.188,8.055,1.245,1.245,0,0,0,1.759-1.759h0Z" transform="translate(-70.02 -78.87)" fill="#d9d9d9"/>
            <path id="パス_7" data-name="パス 7" d="M98.415,196.587c1.254,9.828,1.834,19.752,2.4,29.639q1.014,17.725,1.544,35.474.138,4.431.247,8.863c.068,2.808.168,5.615.065,8.422-.059,1.6,2.43,1.6,2.488,0,.187-5.076-.1-10.19-.25-15.266q-.259-8.679-.621-17.353c-.483-11.609-1.067-23.218-1.948-34.8-.38-5-.8-10-1.437-14.974a1.285,1.285,0,0,0-1.244-1.244,1.251,1.251,0,0,0-1.244,1.244h0Z" transform="translate(-47.395 -94.08)" fill="#d9d9d9"/>
            <path id="パス_8" data-name="パス 8" d="M263.129,278.555c.093-5.719.269-11.437.446-17.154q.3-9.731.672-19.46.36-9.574.775-19.144.352-8.081.764-16.161c.179-3.411.348-6.827.629-10.232.02-.236.04-.472.062-.708a1.253,1.253,0,0,0-1.244-1.244,1.271,1.271,0,0,0-1.244,1.244c-.288,3.095-.436,6.205-.6,9.308q-.421,7.791-.754,15.587-.42,9.459-.78,18.921-.376,9.791-.692,19.585-.277,8.655-.478,17.314-.023,1.072-.04,2.145a1.245,1.245,0,0,0,2.488,0Z" transform="translate(-125.529 -93.651)" fill="#d9d9d9"/>
            <path id="パス_9" data-name="パス 9" d="M20.473,161.733c-1.161-4.595-4.423-16.061-5.623-17.592-.861-1.1-1.881-1.946-3.773-1.139-1.622.692-1.359,2.564-1.052,4.111.337,1.7,2.347,9.744,3.52,13.921a3.215,3.215,0,0,0-3.645-.826,2.45,2.45,0,0,0-1.638,2.476s.113.621.278,1.514a3.119,3.119,0,0,0-3.01.017c-1.111.595-2.231,2.187-1.683,3.336l.734,1.54-.229-.188C2.94,167.742.489,168.457.091,170a5.109,5.109,0,0,0,.871,3.675l.251.412.129.4A30.533,30.533,0,0,0,6.6,184.527c1.213,1.4,2.614,2.792,3.715,4.294s1.374,3.173,1.911,4.971l.239.8c2.843-1.051,10.844-4.04,15.1-6.068l-.151-.426a18.96,18.96,0,0,1-.607-6.082,41.407,41.407,0,0,1,1.846-5.417,10.03,10.03,0,0,0,.773-4.531,13.374,13.374,0,0,0-1.959-6.114,3.553,3.553,0,0,0-.955-.9.877.877,0,0,0-.134-.08c-1.56-.956-3.611-.961-5.379-.885-.09-.458-.148-.752-.148-.752-.062-.317-.193-.871-.377-1.6Z" transform="translate(-0.001 -68.718)" fill="#fce0cd"/>
            <path id="パス_10" data-name="パス 10" d="M35.438,192.433a18.647,18.647,0,0,0-.525-2.211,4.982,4.982,0,0,0-.833-2,3.479,3.479,0,0,0-1.687-1.109,7.012,7.012,0,0,0-1.1-.222c-.205-.03-.412-.056-.617-.084l-.065-.009c-.061-.008-.122-.018-.182-.028-.13-.024-.26-.045-.388-.081l-.1-.03q-.2-.072.023.012c-.1-.063-.109-.065-.032-.008s.068.053-.019-.027q.157.217-.029-.062-.069-.111-.128-.229a1.3,1.3,0,0,1-.142-.608,1.8,1.8,0,0,1,.173-.608c.031-.067.248-.545.308-.543s-.4.28-.1.129c.039-.019.311-.143.128-.072a3.914,3.914,0,0,1,.458-.137,12.329,12.329,0,0,1,2.044-.276,1.275,1.275,0,0,0,1.244-1.244,1.254,1.254,0,0,0-1.244-1.244c-1.5.117-3.663.147-4.63,1.517a4.061,4.061,0,0,0-.007,4.933c1.023,1.315,2.567.819,3.87,1.361-.217-.09.324.22.121.064a1.5,1.5,0,0,1,.264.264c-.156-.206.132.346.044.1a5.435,5.435,0,0,1,.142.573c.205.848.488,1.672.609,2.539a1.251,1.251,0,0,0,1.53.869,1.277,1.277,0,0,0,.869-1.53h0Z" transform="translate(-13.08 -87.527)" fill="#efc0a0"/>
            <path id="パス_11" data-name="パス 11" d="M8.578,202.8c.015.05.022.106.039.155-.109-.318-.024-.243-.024-.085,0,.056-.025.276.008.034s0-.014-.013.039a1.331,1.331,0,0,1-.122.385l.075-.179c-.018.039-.037.079-.056.117-.03.059-.061.117-.093.174-.066.115-.147.22-.217.332.18-.293.1-.124.032-.045-.042.049-.085.1-.13.145-.087.091-.179.173-.273.257-.169.15.239-.161.063-.052-.055.034-.109.071-.166.1s-.243.113-.017.017.021-.016-.034,0-.122.032-.185.045c-.288.059.281-.017.039,0-.137.009-.272.019-.409.016s-.574-.075-.161,0a6.619,6.619,0,0,1-.828-.211c-.234-.077.242.12.038.017-.062-.031-.124-.06-.185-.093a3.011,3.011,0,0,1-.392-.256,1.249,1.249,0,0,0-.958-.125,1.245,1.245,0,0,0-.869,1.53,1.466,1.466,0,0,0,.572.743,4.794,4.794,0,0,0,2.362.848A3.78,3.78,0,0,0,9,206.3c1.318-.775,2.438-2.612,1.973-4.163a1.244,1.244,0,0,0-2.4.661h0Z" transform="translate(-1.779 -96.91)" fill="#efc0a0"/>
            <path id="パス_12" data-name="パス 12" d="M7.044,193.625c.574.964,1.251,1.847,1.873,2.777.59.884,1.173,1.772,1.834,2.6a4.143,4.143,0,0,0,2.506,1.613,4.081,4.081,0,0,0,3.73-.9,4.251,4.251,0,0,0,1.054-4.284,1.245,1.245,0,0,0-2.4.661,1.985,1.985,0,0,1,.1.947c.024-.217-.048.171-.062.217s-.035.114-.055.169q.079-.177-.013.018a3.933,3.933,0,0,1-.232.374c.166-.222-.11.1-.149.137-.055.052-.293.209-.049.052-.041.027-.4.223-.159.121a1.907,1.907,0,0,1-1.406.016,2.92,2.92,0,0,1-.346-.117c.225.1-.126-.093-.163-.1q-.15-.106.1.081c-.036-.031-.072-.063-.106-.1-.064-.068-.133-.132-.2-.2s-.14-.157-.208-.237c-.034-.04-.3-.372-.116-.138-.154-.2-.3-.408-.449-.615-.317-.45-.621-.909-.926-1.368-.666-1-1.395-1.951-2.011-2.985a1.245,1.245,0,0,0-2.149,1.256h0Z" transform="translate(-3.304 -92.361)" fill="#efc0a0"/>
            <path id="パス_13" data-name="パス 13" d="M24.26,189.716c.01.175.007.347,0,.522,0,.255.051-.109-.022.145-.031.108-.06.218-.091.327q-.076.2,0,0c-.031.063-.063.125-.1.186s-.213.3-.037.083a2.6,2.6,0,0,1-.2.22q-.07.068-.145.132.17-.124.06-.047c-.1.048-.187.124-.284.176-.078.041-.314.1-.046.031-.1.029-.2.07-.311.1s-.406.033-.074.025c-.106,0-.206.011-.313.005.277.016-.076-.035-.148-.061l.045.017c-.066-.034-.131-.071-.193-.11-.025-.016-.291-.228-.113-.074-.1-.088-.2-.179-.293-.275s-.178-.2-.267-.3c-.174-.194.081.13-.077-.1-.133-.19-.262-.38-.383-.578-.349-.571-.7-1.143-1.056-1.708-.708-1.111-1.44-2.208-2.089-3.355a1.244,1.244,0,0,0-2.149,1.256c.78,1.377,1.675,2.684,2.512,4.025a9.488,9.488,0,0,0,2.613,3.221,3.516,3.516,0,0,0,3.843-.12,4.152,4.152,0,0,0,1.8-3.747,1.272,1.272,0,0,0-1.244-1.244,1.256,1.256,0,0,0-1.244,1.244h0Z" transform="translate(-7.619 -88.845)" fill="#efc0a0"/>
            <path id="パス_14" data-name="パス 14" d="M108.8,171.347c-6.7,3.105-13.675,5.656-20.505,8.491-3.628,1.506-7.9,2.869-10.118,6.337a16.887,16.887,0,0,0-1.454,3.149c-.464,1.223-.929,2.445-1.374,3.675-.817,2.261-1.578,4.543-2.306,6.834-1.629,5.125-3.2,10.257-5.123,15.283a1.254,1.254,0,0,0,.869,1.53,1.272,1.272,0,0,0,1.53-.869c1.7-4.436,3.136-8.951,4.555-13.481a137.2,137.2,0,0,1,4.659-13.349,8.25,8.25,0,0,1,1.8-2.734,11.422,11.422,0,0,1,2.93-1.917c1.362-.672,2.836-1.284,4.134-1.826,3.538-1.478,7.1-2.9,10.655-4.336,3.687-1.494,7.394-2.967,11-4.639a1.254,1.254,0,0,0,.446-1.7,1.273,1.273,0,0,0-1.7-.446h0Z" transform="translate(-32.681 -82.451)" fill="#d9d9d9"/>
            <path id="パス_15" data-name="パス 15" d="M49.662,249.288c-3.295-7.3-6.308-14.713-9.324-22.13a1.268,1.268,0,0,0-1.828-.743q-4.672,2.456-9.535,4.531a54.35,54.35,0,0,1-9.429,3.245,1.255,1.255,0,0,0-.869,1.53c1.855,5.929,3.632,11.887,5.729,17.737,1.073,2.994,2.234,5.957,3.513,8.87a54.811,54.811,0,0,0,3.192,6.462,17.47,17.47,0,0,0,4.589,5.207,11.9,11.9,0,0,0,6.873,2.176,17.25,17.25,0,0,0,7.884-1.971,21.692,21.692,0,0,0,5.556-4.372A117.363,117.363,0,0,0,65.3,259.014a1.252,1.252,0,0,0-.446-1.7,1.276,1.276,0,0,0-1.7.446l-.469.613-.3.389-.087.114c.181-.232.037-.053-.063.073q-.893,1.119-1.813,2.217c-1.518,1.819-3.072,3.61-4.683,5.348a30.25,30.25,0,0,1-4.633,4.4,15.426,15.426,0,0,1-6.833,2.673,10.163,10.163,0,0,1-6.39-1.143,12.923,12.923,0,0,1-4.236-4.3,44.3,44.3,0,0,1-3.154-6.121q-1.749-3.932-3.227-7.973c-2.3-6.252-4.2-12.638-6.185-18.993l-.869,1.53a56.9,56.9,0,0,0,9.832-3.414q4.955-2.1,9.726-4.612l-1.828-.743c3.1,7.616,6.191,15.23,9.575,22.724a1.254,1.254,0,0,0,1.7.446,1.275,1.275,0,0,0,.446-1.7h0Z" transform="translate(-8.973 -108.966)" fill="#d9d9d9"/>
            <path id="パス_16" data-name="パス 16" d="M218.464,172.98c6.794,2.744,13.694,5.341,20.419,8.179,1.392.587,2.848,1.214,4.241,1.87,2.053.967,4.332,1.812,5.654,3.765a30.432,30.432,0,0,1,3.162,7.48c.887,2.653,1.651,5.346,2.328,8.06,1.554,6.231,2.658,12.563,3.864,18.868a1.256,1.256,0,0,0,1.53.869,1.27,1.27,0,0,0,.869-1.53c-1.1-5.773-2.125-11.567-3.48-17.289-.661-2.791-1.406-5.564-2.274-8.3a55.644,55.644,0,0,0-2.986-7.915,10.722,10.722,0,0,0-2.368-3.278,14.075,14.075,0,0,0-3.389-2.1c-1.508-.716-3.021-1.419-4.554-2.081-3.806-1.642-7.657-3.182-11.509-4.712-3.613-1.435-7.241-2.833-10.846-4.29a1.252,1.252,0,0,0-1.53.869,1.274,1.274,0,0,0,.869,1.53h0Z" transform="translate(-104.775 -82.123)" fill="#d9d9d9"/>
            <g id="e" transform="translate(100.083 132.863)">
              <path id="パス_17" data-name="パス 17" d="M246.771,285.519c2.758-2.456,13.421-11.873,15.76-14.212a16.5,16.5,0,0,0-9.991-4.326,33.751,33.751,0,0,0-11.314.6c-3.742.935-8.588,3.245-11.184,6.223-3.177-3.03-7.879-4.369-12.14-4.509a31.244,31.244,0,0,0-12.608,2.263,13.782,13.782,0,0,0-7.693,6.631c2.5,2.182,14.232,10.225,16.829,12.287l32.34-4.958Z" transform="translate(-195.251 -261.344)" fill="#3f88c9"/>
              <path id="パス_18" data-name="パス 18" d="M194.843,266.528a17.366,17.366,0,0,0-1.775,1.953,33.612,33.612,0,0,0,3.044,2.813l.3.221a14.159,14.159,0,0,1,6.7-5,31.244,31.244,0,0,1,12.608-2.263c4.26.14,8.963,1.479,12.14,4.509,2.6-2.978,7.442-5.289,11.184-6.223a33.75,33.75,0,0,1,11.314-.6,18.294,18.294,0,0,1,6.53,1.863l.086-.085c.662-.629,1.985-1.953,3.111-3.144-4.07-3.078-6.353-3.537-11.153-4a34.785,34.785,0,0,0-11.374.417c-3.571.892-8.151,2.381-10.689,5.2a20.8,20.8,0,0,0-11.148-3.3,31.244,31.244,0,0,0-12.608,2.263,22.521,22.521,0,0,0-5.178,2.759,35.778,35.778,0,0,0-3.09,2.614Z" transform="translate(-193.068 -256.301)" fill="#fff"/>
              <path id="パス_19" data-name="パス 19" d="M250.375,288.052q-.226-.183-.456-.36c-1.957-1.512-3.377-1.749-5.389-.625l-1.08.938c-.823-.873-1.521-1.6-1.819-1.855a3.361,3.361,0,0,0-3.224-.725c-1.272.473-1.8,1.168-1.8,2.233l-.121.905c-.674-.713-1.281-1.328-1.745-1.743-.392-.352-2.3-1.293-3.575-.337a2.064,2.064,0,0,0-.645,2.962,3.923,3.923,0,0,1,.187.355l-.285-.149a2.894,2.894,0,0,0-4.094,1.475,4.152,4.152,0,0,0,.328,2.719c.824,1.593,4.424,5.588,6.367,7.641,4.452,3.149,11.556.956,17.247-.367a7.513,7.513,0,0,0,2.255-.97c2.129-1.477,3.224-3.293,4.963-5.214a13.539,13.539,0,0,0,1.952-2.366,5.01,5.01,0,0,0,.717-3.511,2.644,2.644,0,0,0-.995-1.578,3.2,3.2,0,0,0-2.918.091,14.514,14.514,0,0,0-3.867,2.339,18.012,18.012,0,0,0-2-1.857Z" transform="translate(-209.038 -270.252)" fill="#fce0cd"/>
              <path id="パス_20" data-name="パス 20" d="M263.98,293.61c-.488-.457-.935-.963-1.391-1.451-.738-.788-1.472-1.581-2.21-2.369a1.254,1.254,0,0,0-1.759,0,1.27,1.27,0,0,0,0,1.759q1.106,1.183,2.21,2.369c.456.488.9.994,1.391,1.451a1.244,1.244,0,0,0,1.759-1.759Z" transform="translate(-224.468 -272.257)" fill="#efc0a0"/>
              <path id="パス_21" data-name="パス 21" d="M233.695,294.881a89.005,89.005,0,0,0,6.168,7.019,1.244,1.244,0,1,0,1.759-1.759,88.916,88.916,0,0,1-6.168-7.019,1.248,1.248,0,0,0-1.759,0,1.279,1.279,0,0,0,0,1.759Z" transform="translate(-212.466 -273.86)" fill="#efc0a0"/>
              <path id="パス_22" data-name="パス 22" d="M251.325,295.7c-1.563-1.693-3.079-3.429-4.648-5.116a1.254,1.254,0,0,0-1.759,0,1.271,1.271,0,0,0,0,1.759c1.569,1.687,3.085,3.423,4.648,5.116a1.254,1.254,0,0,0,1.759,0,1.271,1.271,0,0,0,0-1.759Z" transform="translate(-217.869 -272.641)" fill="#efc0a0"/>
            </g>
            <g id="f" transform="translate(81.259 44.789)">
              <path id="パス_23" data-name="パス 23" d="M175.318,127.318a10.974,10.974,0,0,0,5.288,1.221,8.573,8.573,0,0,0,5.306-1.553,1.251,1.251,0,0,0,0-1.759,1.276,1.276,0,0,0-1.759,0c.369-.287.05-.045-.045.016s-.218.133-.332.192c-.079.041-.469.2-.157.085-.152.058-.3.117-.457.166a7.86,7.86,0,0,1-2.728.364,8.174,8.174,0,0,1-2.6-.35c-.167-.05-.331-.11-.5-.167-.054-.019-.106-.046-.16-.062.306.09.089.04.008,0q-.308-.145-.608-.3a1.272,1.272,0,0,0-1.7.446,1.258,1.258,0,0,0,.446,1.7Z" transform="matrix(-1, 0.017, -0.017, -1, 197.765, 145.314)" fill="#efc0a0"/>
              <path id="パス_24" data-name="パス 24" d="M184.136,103.923a25.088,25.088,0,0,1,.592,2.71l-.045-.331a1.64,1.64,0,0,1,.01.374l.045-.331a.933.933,0,0,1-.041.168l.125-.3a.631.631,0,0,1-.06.108l.194-.252a.587.587,0,0,1-.089.087l.252-.194a1.766,1.766,0,0,1-.215.114l.3-.125a1.575,1.575,0,0,1-.362.106l.331-.045a1.458,1.458,0,0,1-.34,0l.331.045c-.128-.018-.253-.049-.382-.066a1.376,1.376,0,0,0-.958.125,1.244,1.244,0,0,0-.446,1.7,1.192,1.192,0,0,0,.743.572c.278.037.549.109.832.121a2.639,2.639,0,0,0,1.21-.285,1.714,1.714,0,0,0,.96-1.134,2.907,2.907,0,0,0-.013-1.238c-.147-.873-.349-1.738-.574-2.594a1.244,1.244,0,1,0-2.4.661h0Z" transform="translate(-169.497 -94.079)" fill="#efc0a0"/>
              <path id="パス_25" data-name="パス 25" d="M156.928,88.611c-.453,1.471-.158,4.853,2.628,5.141,3.682-.022,3.878-4.111,2.638-6.035-1.015-1.574-4-2.229-5.266.894Z" transform="translate(-156.755 -86.402)" fill="#645d5c"/>
              <path id="パス_26" data-name="パス 26" d="M208.434,88.611c.453,1.471.158,4.853-2.628,5.141-3.682-.022-3.878-4.112-2.639-6.035C204.182,86.143,207.166,85.489,208.434,88.611Z" transform="translate(-178.778 -86.402)" fill="#645d5c"/>
            </g>
          </g>
        </g>
      </g>
    </g>
  </g>
</svg>
