<svg xmlns="http://www.w3.org/2000/svg" width="930" height="930" viewBox="0 0 930 930">
  <g id="bg" transform="translate(1163 -5619)" opacity="0.606">
    <circle id="楕円形_30" data-name="楕円形 30" cx="3" cy="3" r="3" transform="translate(-1163 5619)" fill="#49b2f4"/>
    <circle id="楕円形_30-2" data-name="楕円形 30" cx="3" cy="3" r="3" transform="translate(-1097 5619)" fill="#49b2f4"/>
    <circle id="楕円形_30-3" data-name="楕円形 30" cx="3" cy="3" r="3" transform="translate(-1031 5619)" fill="#49b2f4"/>
    <circle id="楕円形_30-4" data-name="楕円形 30" cx="3" cy="3" r="3" transform="translate(-965 5619)" fill="#49b2f4"/>
    <circle id="楕円形_30-5" data-name="楕円形 30" cx="3" cy="3" r="3" transform="translate(-899 5619)" fill="#49b2f4"/>
    <circle id="楕円形_30-6" data-name="楕円形 30" cx="3" cy="3" r="3" transform="translate(-833 5619)" fill="#49b2f4"/>
    <circle id="楕円形_30-7" data-name="楕円形 30" cx="3" cy="3" r="3" transform="translate(-767 5619)" fill="#91d5ff"/>
    <circle id="楕円形_30-8" data-name="楕円形 30" cx="3" cy="3" r="3" transform="translate(-701 5619)" fill="#91d5ff"/>
    <circle id="楕円形_30-9" data-name="楕円形 30" cx="3" cy="3" r="3" transform="translate(-635 5619)" fill="#91d5ff"/>
    <circle id="楕円形_30-10" data-name="楕円形 30" cx="3" cy="3" r="3" transform="translate(-569 5619)" fill="#afe0ff"/>
    <circle id="楕円形_30-11" data-name="楕円形 30" cx="3" cy="3" r="3" transform="translate(-503 5619)" fill="#afe0ff"/>
    <circle id="楕円形_30-12" data-name="楕円形 30" cx="3" cy="3" r="3" transform="translate(-437 5619)" fill="#afe0ff"/>
    <circle id="楕円形_30-13" data-name="楕円形 30" cx="3" cy="3" r="3" transform="translate(-371 5619)" fill="#afe0ff"/>
    <circle id="楕円形_30-14" data-name="楕円形 30" cx="3" cy="3" r="3" transform="translate(-305 5619)" fill="#afe0ff"/>
    <circle id="楕円形_79" data-name="楕円形 79" cx="3" cy="3" r="3" transform="translate(-239 5619)" fill="#afe0ff"/>
    <circle id="楕円形_30-15" data-name="楕円形 30" cx="3" cy="3" r="3" transform="translate(-1163 5685)" fill="#49b2f4"/>
    <circle id="楕円形_30-16" data-name="楕円形 30" cx="3" cy="3" r="3" transform="translate(-1097 5685)" fill="#49b2f4"/>
    <circle id="楕円形_30-17" data-name="楕円形 30" cx="3" cy="3" r="3" transform="translate(-1031 5685)" fill="#49b2f4"/>
    <circle id="楕円形_30-18" data-name="楕円形 30" cx="3" cy="3" r="3" transform="translate(-965 5685)" fill="#49b2f4"/>
    <circle id="楕円形_30-19" data-name="楕円形 30" cx="3" cy="3" r="3" transform="translate(-899 5685)" fill="#49b2f4"/>
    <circle id="楕円形_30-20" data-name="楕円形 30" cx="3" cy="3" r="3" transform="translate(-833 5685)" fill="#49b2f4"/>
    <circle id="楕円形_30-21" data-name="楕円形 30" cx="3" cy="3" r="3" transform="translate(-767 5685)" fill="#91d5ff"/>
    <circle id="楕円形_30-22" data-name="楕円形 30" cx="3" cy="3" r="3" transform="translate(-701 5685)" fill="#91d5ff"/>
    <circle id="楕円形_30-23" data-name="楕円形 30" cx="3" cy="3" r="3" transform="translate(-635 5685)" fill="#91d5ff"/>
    <circle id="楕円形_30-24" data-name="楕円形 30" cx="3" cy="3" r="3" transform="translate(-569 5685)" fill="#afe0ff"/>
    <circle id="楕円形_30-25" data-name="楕円形 30" cx="3" cy="3" r="3" transform="translate(-503 5685)" fill="#afe0ff"/>
    <circle id="楕円形_30-26" data-name="楕円形 30" cx="3" cy="3" r="3" transform="translate(-437 5685)" fill="#afe0ff"/>
    <circle id="楕円形_30-27" data-name="楕円形 30" cx="3" cy="3" r="3" transform="translate(-371 5685)" fill="#afe0ff"/>
    <circle id="楕円形_78" data-name="楕円形 78" cx="3" cy="3" r="3" transform="translate(-305 5685)" fill="#afe0ff"/>
    <circle id="楕円形_30-28" data-name="楕円形 30" cx="3" cy="3" r="3" transform="translate(-1163 5751)" fill="#49b2f4"/>
    <circle id="楕円形_30-29" data-name="楕円形 30" cx="3" cy="3" r="3" transform="translate(-1097 5751)" fill="#49b2f4"/>
    <circle id="楕円形_30-30" data-name="楕円形 30" cx="3" cy="3" r="3" transform="translate(-1031 5751)" fill="#49b2f4"/>
    <circle id="楕円形_30-31" data-name="楕円形 30" cx="3" cy="3" r="3" transform="translate(-965 5751)" fill="#49b2f4"/>
    <circle id="楕円形_30-32" data-name="楕円形 30" cx="3" cy="3" r="3" transform="translate(-899 5751)" fill="#91d5ff"/>
    <circle id="楕円形_30-33" data-name="楕円形 30" cx="3" cy="3" r="3" transform="translate(-833 5751)" fill="#91d5ff"/>
    <circle id="楕円形_30-34" data-name="楕円形 30" cx="3" cy="3" r="3" transform="translate(-767 5751)" fill="#91d5ff"/>
    <circle id="楕円形_30-35" data-name="楕円形 30" cx="3" cy="3" r="3" transform="translate(-701 5751)" fill="#91d5ff"/>
    <circle id="楕円形_30-36" data-name="楕円形 30" cx="3" cy="3" r="3" transform="translate(-635 5751)" fill="#91d5ff"/>
    <circle id="楕円形_30-37" data-name="楕円形 30" cx="3" cy="3" r="3" transform="translate(-569 5751)" fill="#afe0ff"/>
    <circle id="楕円形_30-38" data-name="楕円形 30" cx="3" cy="3" r="3" transform="translate(-503 5751)" fill="#afe0ff"/>
    <circle id="楕円形_30-39" data-name="楕円形 30" cx="3" cy="3" r="3" transform="translate(-437 5751)" fill="#afe0ff"/>
    <circle id="楕円形_77" data-name="楕円形 77" cx="3" cy="3" r="3" transform="translate(-371 5751)" fill="#afe0ff"/>
    <circle id="楕円形_30-40" data-name="楕円形 30" cx="3" cy="3" r="3" transform="translate(-1163 5817)" fill="#49b2f4"/>
    <circle id="楕円形_30-41" data-name="楕円形 30" cx="3" cy="3" r="3" transform="translate(-1097 5817)" fill="#49b2f4"/>
    <circle id="楕円形_30-42" data-name="楕円形 30" cx="3" cy="3" r="3" transform="translate(-1031 5817)" fill="#49b2f4"/>
    <circle id="楕円形_30-43" data-name="楕円形 30" cx="3" cy="3" r="3" transform="translate(-965 5817)" fill="#49b2f4"/>
    <circle id="楕円形_30-44" data-name="楕円形 30" cx="3" cy="3" r="3" transform="translate(-899 5817)" fill="#91d5ff"/>
    <circle id="楕円形_30-45" data-name="楕円形 30" cx="3" cy="3" r="3" transform="translate(-833 5817)" fill="#91d5ff"/>
    <circle id="楕円形_30-46" data-name="楕円形 30" cx="3" cy="3" r="3" transform="translate(-767 5817)" fill="#91d5ff"/>
    <circle id="楕円形_30-47" data-name="楕円形 30" cx="3" cy="3" r="3" transform="translate(-701 5817)" fill="#91d5ff"/>
    <circle id="楕円形_30-48" data-name="楕円形 30" cx="3" cy="3" r="3" transform="translate(-635 5817)" fill="#91d5ff"/>
    <circle id="楕円形_30-49" data-name="楕円形 30" cx="3" cy="3" r="3" transform="translate(-569 5817)" fill="#afe0ff"/>
    <circle id="楕円形_30-50" data-name="楕円形 30" cx="3" cy="3" r="3" transform="translate(-503 5817)" fill="#afe0ff"/>
    <circle id="楕円形_30-51" data-name="楕円形 30" cx="3" cy="3" r="3" transform="translate(-437 5817)" fill="#afe0ff"/>
    <circle id="楕円形_76" data-name="楕円形 76" cx="3" cy="3" r="3" transform="translate(-371 5817)" fill="#afe0ff"/>
    <circle id="楕円形_30-52" data-name="楕円形 30" cx="3" cy="3" r="3" transform="translate(-1163 5883)" fill="#49b2f4"/>
    <circle id="楕円形_30-53" data-name="楕円形 30" cx="3" cy="3" r="3" transform="translate(-1097 5883)" fill="#49b2f4"/>
    <circle id="楕円形_30-54" data-name="楕円形 30" cx="3" cy="3" r="3" transform="translate(-1031 5883)" fill="#49b2f4"/>
    <circle id="楕円形_30-55" data-name="楕円形 30" cx="3" cy="3" r="3" transform="translate(-965 5883)" fill="#49b2f4"/>
    <circle id="楕円形_30-56" data-name="楕円形 30" cx="3" cy="3" r="3" transform="translate(-899 5883)" fill="#91d5ff"/>
    <circle id="楕円形_30-57" data-name="楕円形 30" cx="3" cy="3" r="3" transform="translate(-833 5883)" fill="#91d5ff"/>
    <circle id="楕円形_30-58" data-name="楕円形 30" cx="3" cy="3" r="3" transform="translate(-767 5883)" fill="#91d5ff"/>
    <circle id="楕円形_30-59" data-name="楕円形 30" cx="3" cy="3" r="3" transform="translate(-701 5883)" fill="#91d5ff"/>
    <circle id="楕円形_30-60" data-name="楕円形 30" cx="3" cy="3" r="3" transform="translate(-635 5883)" fill="#91d5ff"/>
    <circle id="楕円形_30-61" data-name="楕円形 30" cx="3" cy="3" r="3" transform="translate(-569 5883)" fill="#afe0ff"/>
    <circle id="楕円形_30-62" data-name="楕円形 30" cx="3" cy="3" r="3" transform="translate(-503 5883)" fill="#afe0ff"/>
    <circle id="楕円形_75" data-name="楕円形 75" cx="3" cy="3" r="3" transform="translate(-437 5883)" fill="#afe0ff"/>
    <circle id="楕円形_30-63" data-name="楕円形 30" cx="3" cy="3" r="3" transform="translate(-1163 5949)" fill="#49b2f4"/>
    <circle id="楕円形_30-64" data-name="楕円形 30" cx="3" cy="3" r="3" transform="translate(-1097 5949)" fill="#49b2f4"/>
    <circle id="楕円形_30-65" data-name="楕円形 30" cx="3" cy="3" r="3" transform="translate(-1031 5949)" fill="#49b2f4"/>
    <circle id="楕円形_30-66" data-name="楕円形 30" cx="3" cy="3" r="3" transform="translate(-965 5949)" fill="#91d5ff"/>
    <circle id="楕円形_30-67" data-name="楕円形 30" cx="3" cy="3" r="3" transform="translate(-899 5949)" fill="#91d5ff"/>
    <circle id="楕円形_30-68" data-name="楕円形 30" cx="3" cy="3" r="3" transform="translate(-833 5949)" fill="#91d5ff"/>
    <circle id="楕円形_30-69" data-name="楕円形 30" cx="3" cy="3" r="3" transform="translate(-767 5949)" fill="#91d5ff"/>
    <circle id="楕円形_30-70" data-name="楕円形 30" cx="3" cy="3" r="3" transform="translate(-701 5949)" fill="#91d5ff"/>
    <circle id="楕円形_30-71" data-name="楕円形 30" cx="3" cy="3" r="3" transform="translate(-635 5949)" fill="#91d5ff"/>
    <circle id="楕円形_30-72" data-name="楕円形 30" cx="3" cy="3" r="3" transform="translate(-569 5949)" fill="#afe0ff"/>
    <circle id="楕円形_30-73" data-name="楕円形 30" cx="3" cy="3" r="3" transform="translate(-503 5949)" fill="#afe0ff"/>
    <circle id="楕円形_30-74" data-name="楕円形 30" cx="3" cy="3" r="3" transform="translate(-1163 6015)" fill="#91d5ff"/>
    <circle id="楕円形_30-75" data-name="楕円形 30" cx="3" cy="3" r="3" transform="translate(-1097 6015)" fill="#91d5ff"/>
    <circle id="楕円形_30-76" data-name="楕円形 30" cx="3" cy="3" r="3" transform="translate(-1031 6015)" fill="#91d5ff"/>
    <circle id="楕円形_30-77" data-name="楕円形 30" cx="3" cy="3" r="3" transform="translate(-965 6015)" fill="#91d5ff"/>
    <circle id="楕円形_30-78" data-name="楕円形 30" cx="3" cy="3" r="3" transform="translate(-899 6015)" fill="#91d5ff"/>
    <circle id="楕円形_30-79" data-name="楕円形 30" cx="3" cy="3" r="3" transform="translate(-833 6015)" fill="#91d5ff"/>
    <circle id="楕円形_30-80" data-name="楕円形 30" cx="3" cy="3" r="3" transform="translate(-767 6015)" fill="#b8e0fa"/>
    <circle id="楕円形_30-81" data-name="楕円形 30" cx="3" cy="3" r="3" transform="translate(-701 6015)" fill="#b8e0fa"/>
    <circle id="楕円形_30-82" data-name="楕円形 30" cx="3" cy="3" r="3" transform="translate(-635 6015)" fill="#b8e0fa"/>
    <circle id="楕円形_30-83" data-name="楕円形 30" cx="3" cy="3" r="3" transform="translate(-569 6015)" fill="#afe0ff"/>
    <circle id="楕円形_30-84" data-name="楕円形 30" cx="3" cy="3" r="3" transform="translate(-503 6015)" fill="#b8e0fa"/>
    <circle id="楕円形_30-85" data-name="楕円形 30" cx="3" cy="3" r="3" transform="translate(-1163 6081)" fill="#91d5ff"/>
    <circle id="楕円形_30-86" data-name="楕円形 30" cx="3" cy="3" r="3" transform="translate(-1097 6081)" fill="#91d5ff"/>
    <circle id="楕円形_30-87" data-name="楕円形 30" cx="3" cy="3" r="3" transform="translate(-1031 6081)" fill="#91d5ff"/>
    <circle id="楕円形_30-88" data-name="楕円形 30" cx="3" cy="3" r="3" transform="translate(-965 6081)" fill="#91d5ff"/>
    <circle id="楕円形_30-89" data-name="楕円形 30" cx="3" cy="3" r="3" transform="translate(-899 6081)" fill="#91d5ff"/>
    <circle id="楕円形_30-90" data-name="楕円形 30" cx="3" cy="3" r="3" transform="translate(-833 6081)" fill="#b8e0fa"/>
    <circle id="楕円形_30-91" data-name="楕円形 30" cx="3" cy="3" r="3" transform="translate(-767 6081)" fill="#b8e0fa"/>
    <circle id="楕円形_30-92" data-name="楕円形 30" cx="3" cy="3" r="3" transform="translate(-701 6081)" fill="#b8e0fa"/>
    <circle id="楕円形_30-93" data-name="楕円形 30" cx="3" cy="3" r="3" transform="translate(-635 6081)" fill="#b8e0fa"/>
    <circle id="楕円形_30-94" data-name="楕円形 30" cx="3" cy="3" r="3" transform="translate(-569 6081)" fill="#afe0ff"/>
    <circle id="楕円形_30-95" data-name="楕円形 30" cx="3" cy="3" r="3" transform="translate(-1163 6147)" fill="#b8e0fa"/>
    <circle id="楕円形_30-96" data-name="楕円形 30" cx="3" cy="3" r="3" transform="translate(-1097 6147)" fill="#b8e0fa"/>
    <circle id="楕円形_30-97" data-name="楕円形 30" cx="3" cy="3" r="3" transform="translate(-1031 6147)" fill="#b8e0fa"/>
    <circle id="楕円形_30-98" data-name="楕円形 30" cx="3" cy="3" r="3" transform="translate(-965 6147)" fill="#b8e0fa"/>
    <circle id="楕円形_30-99" data-name="楕円形 30" cx="3" cy="3" r="3" transform="translate(-899 6147)" fill="#b8e0fa"/>
    <circle id="楕円形_30-100" data-name="楕円形 30" cx="3" cy="3" r="3" transform="translate(-833 6147)" fill="#b8e0fa"/>
    <circle id="楕円形_30-101" data-name="楕円形 30" cx="3" cy="3" r="3" transform="translate(-767 6147)" fill="#b8e0fa"/>
    <circle id="楕円形_30-102" data-name="楕円形 30" cx="3" cy="3" r="3" transform="translate(-701 6147)" fill="#b8e0fa"/>
    <circle id="楕円形_30-103" data-name="楕円形 30" cx="3" cy="3" r="3" transform="translate(-635 6147)" fill="#b8e0fa"/>
    <circle id="楕円形_30-104" data-name="楕円形 30" cx="3" cy="3" r="3" transform="translate(-1163 6213)" fill="#b8e0fa"/>
    <circle id="楕円形_30-105" data-name="楕円形 30" cx="3" cy="3" r="3" transform="translate(-1097 6213)" fill="#b8e0fa"/>
    <circle id="楕円形_30-106" data-name="楕円形 30" cx="3" cy="3" r="3" transform="translate(-1031 6213)" fill="#b8e0fa"/>
    <circle id="楕円形_30-107" data-name="楕円形 30" cx="3" cy="3" r="3" transform="translate(-965 6213)" fill="#b8e0fa"/>
    <circle id="楕円形_30-108" data-name="楕円形 30" cx="3" cy="3" r="3" transform="translate(-899 6213)" fill="#b8e0fa"/>
    <circle id="楕円形_30-109" data-name="楕円形 30" cx="3" cy="3" r="3" transform="translate(-833 6213)" fill="#b8e0fa"/>
    <circle id="楕円形_30-110" data-name="楕円形 30" cx="3" cy="3" r="3" transform="translate(-767 6213)" fill="#b8e0fa"/>
    <circle id="楕円形_30-111" data-name="楕円形 30" cx="3" cy="3" r="3" transform="translate(-701 6213)" fill="#b8e0fa"/>
    <circle id="楕円形_30-112" data-name="楕円形 30" cx="3" cy="3" r="3" transform="translate(-1163 6279)" fill="#b8e0fa"/>
    <circle id="楕円形_58" data-name="楕円形 58" cx="3" cy="3" r="3" transform="translate(-1163 6345)" fill="#b8e0fa"/>
    <circle id="楕円形_65" data-name="楕円形 65" cx="3" cy="3" r="3" transform="translate(-1163 6411)" fill="#b8e0fa"/>
    <circle id="楕円形_70" data-name="楕円形 70" cx="3" cy="3" r="3" transform="translate(-1163 6477)" fill="#b8e0fa"/>
    <circle id="楕円形_74" data-name="楕円形 74" cx="3" cy="3" r="3" transform="translate(-1163 6543)" fill="#b8e0fa"/>
    <circle id="楕円形_30-113" data-name="楕円形 30" cx="3" cy="3" r="3" transform="translate(-1097 6279)" fill="#b8e0fa"/>
    <circle id="楕円形_57" data-name="楕円形 57" cx="3" cy="3" r="3" transform="translate(-1097 6345)" fill="#b8e0fa"/>
    <circle id="楕円形_64" data-name="楕円形 64" cx="3" cy="3" r="3" transform="translate(-1097 6411)" fill="#b8e0fa"/>
    <circle id="楕円形_69" data-name="楕円形 69" cx="3" cy="3" r="3" transform="translate(-1097 6477)" fill="#b8e0fa"/>
    <circle id="楕円形_73" data-name="楕円形 73" cx="3" cy="3" r="3" transform="translate(-1097 6543)" fill="#b8e0fa"/>
    <circle id="楕円形_30-114" data-name="楕円形 30" cx="3" cy="3" r="3" transform="translate(-1031 6279)" fill="#b8e0fa"/>
    <circle id="楕円形_56" data-name="楕円形 56" cx="3" cy="3" r="3" transform="translate(-1031 6345)" fill="#b8e0fa"/>
    <circle id="楕円形_63" data-name="楕円形 63" cx="3" cy="3" r="3" transform="translate(-1031 6411)" fill="#b8e0fa"/>
    <circle id="楕円形_68" data-name="楕円形 68" cx="3" cy="3" r="3" transform="translate(-1031 6477)" fill="#b8e0fa"/>
    <circle id="楕円形_72" data-name="楕円形 72" cx="3" cy="3" r="3" transform="translate(-1031 6543)" fill="#b8e0fa"/>
    <circle id="楕円形_30-115" data-name="楕円形 30" cx="3" cy="3" r="3" transform="translate(-965 6279)" fill="#b8e0fa"/>
    <circle id="楕円形_55" data-name="楕円形 55" cx="3" cy="3" r="3" transform="translate(-965 6345)" fill="#b8e0fa"/>
    <circle id="楕円形_62" data-name="楕円形 62" cx="3" cy="3" r="3" transform="translate(-965 6411)" fill="#b8e0fa"/>
    <circle id="楕円形_67" data-name="楕円形 67" cx="3" cy="3" r="3" transform="translate(-965 6477)" fill="#b8e0fa"/>
    <circle id="楕円形_30-116" data-name="楕円形 30" cx="3" cy="3" r="3" transform="translate(-899 6279)" fill="#b8e0fa"/>
    <circle id="楕円形_54" data-name="楕円形 54" cx="3" cy="3" r="3" transform="translate(-899 6345)" fill="#b8e0fa"/>
    <circle id="楕円形_61" data-name="楕円形 61" cx="3" cy="3" r="3" transform="translate(-899 6411)" fill="#b8e0fa"/>
    <circle id="楕円形_30-117" data-name="楕円形 30" cx="3" cy="3" r="3" transform="translate(-833 6279)" fill="#b8e0fa"/>
    <circle id="楕円形_53" data-name="楕円形 53" cx="3" cy="3" r="3" transform="translate(-833 6345)" fill="#b8e0fa"/>
    <circle id="楕円形_30-118" data-name="楕円形 30" cx="3" cy="3" r="3" transform="translate(-767 6279)" fill="#b8e0fa"/>
  </g>
</svg>
