<svg xmlns="http://www.w3.org/2000/svg" width="265.21" height="176.179" viewBox="0 0 265.21 176.179">
  <path id="num1" d="M111.5-172.585q30.162,0,43.881,22.975,12.74,21.451,12.74,64.461,0,49.217-16.66,70.776-13.938,17.966-40.4,17.966-30.488,0-43.99-23.411-12.413-21.451-12.413-64.9,0-49,16.769-70.341Q85.258-172.585,111.5-172.585Zm0,22.213q-15.026,0-21.233,16.115Q84.278-118.9,84.278-85.041q0,38.764,7.4,53.79,6.1,12.522,19.382,12.522,15.353,0,21.668-16.769Q138.5-51.068,138.5-85.041q0-38.437-7.513-53.137Q124.893-150.373,111.5-150.373Zm174.18-20.471V-21.451h34.19V.436H222.417V-21.451h35.824V-142.315a120.505,120.505,0,0,1-33.864,15.135L219.7-150.808a135.161,135.161,0,0,0,42.466-20.035Z" transform="translate(-54.661 172.585)" fill="#afddff" opacity="0.249"/>
</svg>
