<svg xmlns="http://www.w3.org/2000/svg" width="1062" height="666" viewBox="0 0 1062 666">
  <g id="bg" transform="translate(-2156 -2243)" opacity="0.365">
    <circle id="楕円形_30" data-name="楕円形 30" cx="3" cy="3" r="3" transform="translate(2156 2243)" fill="#49b2f4"/>
    <circle id="楕円形_30-2" data-name="楕円形 30" cx="3" cy="3" r="3" transform="translate(2222 2243)" fill="#49b2f4"/>
    <circle id="楕円形_30-3" data-name="楕円形 30" cx="3" cy="3" r="3" transform="translate(2288 2243)" fill="#49b2f4"/>
    <circle id="楕円形_30-4" data-name="楕円形 30" cx="3" cy="3" r="3" transform="translate(2354 2243)" fill="#49b2f4"/>
    <circle id="楕円形_30-5" data-name="楕円形 30" cx="3" cy="3" r="3" transform="translate(2420 2243)" fill="#91d5ff"/>
    <circle id="楕円形_30-6" data-name="楕円形 30" cx="3" cy="3" r="3" transform="translate(2486 2243)" fill="#91d5ff"/>
    <circle id="楕円形_30-7" data-name="楕円形 30" cx="3" cy="3" r="3" transform="translate(2552 2243)" fill="#91d5ff"/>
    <circle id="楕円形_30-8" data-name="楕円形 30" cx="3" cy="3" r="3" transform="translate(2618 2243)" fill="#91d5ff"/>
    <circle id="楕円形_30-9" data-name="楕円形 30" cx="3" cy="3" r="3" transform="translate(2684 2243)" fill="#91d5ff"/>
    <circle id="楕円形_30-10" data-name="楕円形 30" cx="3" cy="3" r="3" transform="translate(2750 2243)" fill="#afe0ff"/>
    <circle id="楕円形_30-11" data-name="楕円形 30" cx="3" cy="3" r="3" transform="translate(2816 2243)" fill="#afe0ff"/>
    <circle id="楕円形_30-12" data-name="楕円形 30" cx="3" cy="3" r="3" transform="translate(2882 2243)" fill="#afe0ff"/>
    <circle id="楕円形_30-13" data-name="楕円形 30" cx="3" cy="3" r="3" transform="translate(2948 2243)" fill="#afe0ff"/>
    <circle id="楕円形_30-14" data-name="楕円形 30" cx="3" cy="3" r="3" transform="translate(3014 2243)" fill="#afe0ff"/>
    <circle id="楕円形_30-15" data-name="楕円形 30" cx="3" cy="3" r="3" transform="translate(3080 2243)" fill="#e5f2ff"/>
    <circle id="楕円形_30-16" data-name="楕円形 30" cx="3" cy="3" r="3" transform="translate(3146 2243)" fill="#e5f2ff"/>
    <circle id="楕円形_30-17" data-name="楕円形 30" cx="3" cy="3" r="3" transform="translate(3212 2243)" fill="#e5f2ff"/>
    <circle id="楕円形_30-18" data-name="楕円形 30" cx="3" cy="3" r="3" transform="translate(2156 2309)" fill="#49b2f4"/>
    <circle id="楕円形_30-19" data-name="楕円形 30" cx="3" cy="3" r="3" transform="translate(2222 2309)" fill="#49b2f4"/>
    <circle id="楕円形_30-20" data-name="楕円形 30" cx="3" cy="3" r="3" transform="translate(2288 2309)" fill="#49b2f4"/>
    <circle id="楕円形_30-21" data-name="楕円形 30" cx="3" cy="3" r="3" transform="translate(2354 2309)" fill="#49b2f4"/>
    <circle id="楕円形_30-22" data-name="楕円形 30" cx="3" cy="3" r="3" transform="translate(2420 2309)" fill="#91d5ff"/>
    <circle id="楕円形_30-23" data-name="楕円形 30" cx="3" cy="3" r="3" transform="translate(2486 2309)" fill="#91d5ff"/>
    <circle id="楕円形_30-24" data-name="楕円形 30" cx="3" cy="3" r="3" transform="translate(2552 2309)" fill="#91d5ff"/>
    <circle id="楕円形_30-25" data-name="楕円形 30" cx="3" cy="3" r="3" transform="translate(2618 2309)" fill="#91d5ff"/>
    <circle id="楕円形_30-26" data-name="楕円形 30" cx="3" cy="3" r="3" transform="translate(2684 2309)" fill="#91d5ff"/>
    <circle id="楕円形_30-27" data-name="楕円形 30" cx="3" cy="3" r="3" transform="translate(2750 2309)" fill="#afe0ff"/>
    <circle id="楕円形_30-28" data-name="楕円形 30" cx="3" cy="3" r="3" transform="translate(2816 2309)" fill="#afe0ff"/>
    <circle id="楕円形_30-29" data-name="楕円形 30" cx="3" cy="3" r="3" transform="translate(2882 2309)" fill="#afe0ff"/>
    <circle id="楕円形_30-30" data-name="楕円形 30" cx="3" cy="3" r="3" transform="translate(2948 2309)" fill="#afe0ff"/>
    <circle id="楕円形_30-31" data-name="楕円形 30" cx="3" cy="3" r="3" transform="translate(3014 2309)" fill="#afe0ff"/>
    <circle id="楕円形_30-32" data-name="楕円形 30" cx="3" cy="3" r="3" transform="translate(3080 2309)" fill="#e5f2ff"/>
    <circle id="楕円形_30-33" data-name="楕円形 30" cx="3" cy="3" r="3" transform="translate(3146 2309)" fill="#e5f2ff"/>
    <circle id="楕円形_30-34" data-name="楕円形 30" cx="3" cy="3" r="3" transform="translate(3212 2309)" fill="#e5f2ff"/>
    <circle id="楕円形_30-35" data-name="楕円形 30" cx="3" cy="3" r="3" transform="translate(2156 2375)" fill="#49b2f4"/>
    <circle id="楕円形_30-36" data-name="楕円形 30" cx="3" cy="3" r="3" transform="translate(2222 2375)" fill="#49b2f4"/>
    <circle id="楕円形_30-37" data-name="楕円形 30" cx="3" cy="3" r="3" transform="translate(2288 2375)" fill="#49b2f4"/>
    <circle id="楕円形_30-38" data-name="楕円形 30" cx="3" cy="3" r="3" transform="translate(2354 2375)" fill="#49b2f4"/>
    <circle id="楕円形_30-39" data-name="楕円形 30" cx="3" cy="3" r="3" transform="translate(2420 2375)" fill="#91d5ff"/>
    <circle id="楕円形_30-40" data-name="楕円形 30" cx="3" cy="3" r="3" transform="translate(2486 2375)" fill="#91d5ff"/>
    <circle id="楕円形_30-41" data-name="楕円形 30" cx="3" cy="3" r="3" transform="translate(2552 2375)" fill="#91d5ff"/>
    <circle id="楕円形_30-42" data-name="楕円形 30" cx="3" cy="3" r="3" transform="translate(2618 2375)" fill="#91d5ff"/>
    <circle id="楕円形_30-43" data-name="楕円形 30" cx="3" cy="3" r="3" transform="translate(2684 2375)" fill="#91d5ff"/>
    <circle id="楕円形_30-44" data-name="楕円形 30" cx="3" cy="3" r="3" transform="translate(2750 2375)" fill="#afe0ff"/>
    <circle id="楕円形_30-45" data-name="楕円形 30" cx="3" cy="3" r="3" transform="translate(2816 2375)" fill="#afe0ff"/>
    <circle id="楕円形_30-46" data-name="楕円形 30" cx="3" cy="3" r="3" transform="translate(2882 2375)" fill="#afe0ff"/>
    <circle id="楕円形_30-47" data-name="楕円形 30" cx="3" cy="3" r="3" transform="translate(2948 2375)" fill="#afe0ff"/>
    <circle id="楕円形_30-48" data-name="楕円形 30" cx="3" cy="3" r="3" transform="translate(3014 2375)" fill="#afe0ff"/>
    <circle id="楕円形_30-49" data-name="楕円形 30" cx="3" cy="3" r="3" transform="translate(3080 2375)" fill="#e5f2ff"/>
    <circle id="楕円形_30-50" data-name="楕円形 30" cx="3" cy="3" r="3" transform="translate(3146 2375)" fill="#e5f2ff"/>
    <circle id="楕円形_30-51" data-name="楕円形 30" cx="3" cy="3" r="3" transform="translate(3212 2375)" fill="#e5f2ff"/>
    <circle id="楕円形_30-52" data-name="楕円形 30" cx="3" cy="3" r="3" transform="translate(2156 2441)" fill="#49b2f4"/>
    <circle id="楕円形_30-53" data-name="楕円形 30" cx="3" cy="3" r="3" transform="translate(2222 2441)" fill="#49b2f4"/>
    <circle id="楕円形_30-54" data-name="楕円形 30" cx="3" cy="3" r="3" transform="translate(2288 2441)" fill="#49b2f4"/>
    <circle id="楕円形_30-55" data-name="楕円形 30" cx="3" cy="3" r="3" transform="translate(2354 2441)" fill="#49b2f4"/>
    <circle id="楕円形_30-56" data-name="楕円形 30" cx="3" cy="3" r="3" transform="translate(2420 2441)" fill="#91d5ff"/>
    <circle id="楕円形_30-57" data-name="楕円形 30" cx="3" cy="3" r="3" transform="translate(2486 2441)" fill="#91d5ff"/>
    <circle id="楕円形_30-58" data-name="楕円形 30" cx="3" cy="3" r="3" transform="translate(2552 2441)" fill="#91d5ff"/>
    <circle id="楕円形_30-59" data-name="楕円形 30" cx="3" cy="3" r="3" transform="translate(2618 2441)" fill="#91d5ff"/>
    <circle id="楕円形_30-60" data-name="楕円形 30" cx="3" cy="3" r="3" transform="translate(2684 2441)" fill="#91d5ff"/>
    <circle id="楕円形_30-61" data-name="楕円形 30" cx="3" cy="3" r="3" transform="translate(2750 2441)" fill="#afe0ff"/>
    <circle id="楕円形_30-62" data-name="楕円形 30" cx="3" cy="3" r="3" transform="translate(2816 2441)" fill="#afe0ff"/>
    <circle id="楕円形_30-63" data-name="楕円形 30" cx="3" cy="3" r="3" transform="translate(2882 2441)" fill="#afe0ff"/>
    <circle id="楕円形_30-64" data-name="楕円形 30" cx="3" cy="3" r="3" transform="translate(2948 2441)" fill="#afe0ff"/>
    <circle id="楕円形_30-65" data-name="楕円形 30" cx="3" cy="3" r="3" transform="translate(3014 2441)" fill="#afe0ff"/>
    <circle id="楕円形_30-66" data-name="楕円形 30" cx="3" cy="3" r="3" transform="translate(3080 2441)" fill="#e5f2ff"/>
    <circle id="楕円形_30-67" data-name="楕円形 30" cx="3" cy="3" r="3" transform="translate(3146 2441)" fill="#e5f2ff"/>
    <circle id="楕円形_30-68" data-name="楕円形 30" cx="3" cy="3" r="3" transform="translate(3212 2441)" fill="#e5f2ff"/>
    <circle id="楕円形_30-69" data-name="楕円形 30" cx="3" cy="3" r="3" transform="translate(2156 2507)" fill="#49b2f4"/>
    <circle id="楕円形_30-70" data-name="楕円形 30" cx="3" cy="3" r="3" transform="translate(2222 2507)" fill="#49b2f4"/>
    <circle id="楕円形_30-71" data-name="楕円形 30" cx="3" cy="3" r="3" transform="translate(2288 2507)" fill="#49b2f4"/>
    <circle id="楕円形_30-72" data-name="楕円形 30" cx="3" cy="3" r="3" transform="translate(2354 2507)" fill="#49b2f4"/>
    <circle id="楕円形_30-73" data-name="楕円形 30" cx="3" cy="3" r="3" transform="translate(2420 2507)" fill="#91d5ff"/>
    <circle id="楕円形_30-74" data-name="楕円形 30" cx="3" cy="3" r="3" transform="translate(2486 2507)" fill="#91d5ff"/>
    <circle id="楕円形_30-75" data-name="楕円形 30" cx="3" cy="3" r="3" transform="translate(2552 2507)" fill="#91d5ff"/>
    <circle id="楕円形_30-76" data-name="楕円形 30" cx="3" cy="3" r="3" transform="translate(2618 2507)" fill="#91d5ff"/>
    <circle id="楕円形_30-77" data-name="楕円形 30" cx="3" cy="3" r="3" transform="translate(2684 2507)" fill="#91d5ff"/>
    <circle id="楕円形_30-78" data-name="楕円形 30" cx="3" cy="3" r="3" transform="translate(2750 2507)" fill="#afe0ff"/>
    <circle id="楕円形_30-79" data-name="楕円形 30" cx="3" cy="3" r="3" transform="translate(2816 2507)" fill="#afe0ff"/>
    <circle id="楕円形_30-80" data-name="楕円形 30" cx="3" cy="3" r="3" transform="translate(2882 2507)" fill="#afe0ff"/>
    <circle id="楕円形_30-81" data-name="楕円形 30" cx="3" cy="3" r="3" transform="translate(2948 2507)" fill="#afe0ff"/>
    <circle id="楕円形_30-82" data-name="楕円形 30" cx="3" cy="3" r="3" transform="translate(3014 2507)" fill="#afe0ff"/>
    <circle id="楕円形_30-83" data-name="楕円形 30" cx="3" cy="3" r="3" transform="translate(3080 2507)" fill="#e5f2ff"/>
    <circle id="楕円形_30-84" data-name="楕円形 30" cx="3" cy="3" r="3" transform="translate(3146 2507)" fill="#e5f2ff"/>
    <circle id="楕円形_30-85" data-name="楕円形 30" cx="3" cy="3" r="3" transform="translate(3212 2507)" fill="#e5f2ff"/>
    <circle id="楕円形_30-86" data-name="楕円形 30" cx="3" cy="3" r="3" transform="translate(2156 2573)" fill="#49b2f4"/>
    <circle id="楕円形_30-87" data-name="楕円形 30" cx="3" cy="3" r="3" transform="translate(2222 2573)" fill="#49b2f4"/>
    <circle id="楕円形_30-88" data-name="楕円形 30" cx="3" cy="3" r="3" transform="translate(2288 2573)" fill="#49b2f4"/>
    <circle id="楕円形_30-89" data-name="楕円形 30" cx="3" cy="3" r="3" transform="translate(2354 2573)" fill="#49b2f4"/>
    <circle id="楕円形_30-90" data-name="楕円形 30" cx="3" cy="3" r="3" transform="translate(2420 2573)" fill="#91d5ff"/>
    <circle id="楕円形_30-91" data-name="楕円形 30" cx="3" cy="3" r="3" transform="translate(2486 2573)" fill="#91d5ff"/>
    <circle id="楕円形_30-92" data-name="楕円形 30" cx="3" cy="3" r="3" transform="translate(2552 2573)" fill="#91d5ff"/>
    <circle id="楕円形_30-93" data-name="楕円形 30" cx="3" cy="3" r="3" transform="translate(2618 2573)" fill="#91d5ff"/>
    <circle id="楕円形_30-94" data-name="楕円形 30" cx="3" cy="3" r="3" transform="translate(2684 2573)" fill="#91d5ff"/>
    <circle id="楕円形_30-95" data-name="楕円形 30" cx="3" cy="3" r="3" transform="translate(2750 2573)" fill="#afe0ff"/>
    <circle id="楕円形_30-96" data-name="楕円形 30" cx="3" cy="3" r="3" transform="translate(2816 2573)" fill="#afe0ff"/>
    <circle id="楕円形_30-97" data-name="楕円形 30" cx="3" cy="3" r="3" transform="translate(2882 2573)" fill="#afe0ff"/>
    <circle id="楕円形_30-98" data-name="楕円形 30" cx="3" cy="3" r="3" transform="translate(2948 2573)" fill="#afe0ff"/>
    <circle id="楕円形_30-99" data-name="楕円形 30" cx="3" cy="3" r="3" transform="translate(3014 2573)" fill="#afe0ff"/>
    <circle id="楕円形_30-100" data-name="楕円形 30" cx="3" cy="3" r="3" transform="translate(3080 2573)" fill="#e5f2ff"/>
    <circle id="楕円形_30-101" data-name="楕円形 30" cx="3" cy="3" r="3" transform="translate(3146 2573)" fill="#e5f2ff"/>
    <circle id="楕円形_30-102" data-name="楕円形 30" cx="3" cy="3" r="3" transform="translate(3212 2573)" fill="#e5f2ff"/>
    <circle id="楕円形_30-103" data-name="楕円形 30" cx="3" cy="3" r="3" transform="translate(2156 2639)" fill="#49b2f4"/>
    <circle id="楕円形_30-104" data-name="楕円形 30" cx="3" cy="3" r="3" transform="translate(2222 2639)" fill="#49b2f4"/>
    <circle id="楕円形_30-105" data-name="楕円形 30" cx="3" cy="3" r="3" transform="translate(2288 2639)" fill="#49b2f4"/>
    <circle id="楕円形_30-106" data-name="楕円形 30" cx="3" cy="3" r="3" transform="translate(2354 2639)" fill="#49b2f4"/>
    <circle id="楕円形_30-107" data-name="楕円形 30" cx="3" cy="3" r="3" transform="translate(2420 2639)" fill="#91d5ff"/>
    <circle id="楕円形_30-108" data-name="楕円形 30" cx="3" cy="3" r="3" transform="translate(2486 2639)" fill="#91d5ff"/>
    <circle id="楕円形_30-109" data-name="楕円形 30" cx="3" cy="3" r="3" transform="translate(2552 2639)" fill="#91d5ff"/>
    <circle id="楕円形_30-110" data-name="楕円形 30" cx="3" cy="3" r="3" transform="translate(2618 2639)" fill="#91d5ff"/>
    <circle id="楕円形_30-111" data-name="楕円形 30" cx="3" cy="3" r="3" transform="translate(2684 2639)" fill="#91d5ff"/>
    <circle id="楕円形_30-112" data-name="楕円形 30" cx="3" cy="3" r="3" transform="translate(2750 2639)" fill="#afe0ff"/>
    <circle id="楕円形_30-113" data-name="楕円形 30" cx="3" cy="3" r="3" transform="translate(2816 2639)" fill="#afe0ff"/>
    <circle id="楕円形_30-114" data-name="楕円形 30" cx="3" cy="3" r="3" transform="translate(2882 2639)" fill="#afe0ff"/>
    <circle id="楕円形_30-115" data-name="楕円形 30" cx="3" cy="3" r="3" transform="translate(2948 2639)" fill="#afe0ff"/>
    <circle id="楕円形_30-116" data-name="楕円形 30" cx="3" cy="3" r="3" transform="translate(3014 2639)" fill="#afe0ff"/>
    <circle id="楕円形_30-117" data-name="楕円形 30" cx="3" cy="3" r="3" transform="translate(3080 2639)" fill="#e5f2ff"/>
    <circle id="楕円形_30-118" data-name="楕円形 30" cx="3" cy="3" r="3" transform="translate(3146 2639)" fill="#e5f2ff"/>
    <circle id="楕円形_30-119" data-name="楕円形 30" cx="3" cy="3" r="3" transform="translate(3212 2639)" fill="#e5f2ff"/>
    <circle id="楕円形_30-120" data-name="楕円形 30" cx="3" cy="3" r="3" transform="translate(2156 2705)" fill="#49b2f4"/>
    <circle id="楕円形_30-121" data-name="楕円形 30" cx="3" cy="3" r="3" transform="translate(2222 2705)" fill="#49b2f4"/>
    <circle id="楕円形_30-122" data-name="楕円形 30" cx="3" cy="3" r="3" transform="translate(2288 2705)" fill="#49b2f4"/>
    <circle id="楕円形_30-123" data-name="楕円形 30" cx="3" cy="3" r="3" transform="translate(2354 2705)" fill="#49b2f4"/>
    <circle id="楕円形_30-124" data-name="楕円形 30" cx="3" cy="3" r="3" transform="translate(2420 2705)" fill="#91d5ff"/>
    <circle id="楕円形_30-125" data-name="楕円形 30" cx="3" cy="3" r="3" transform="translate(2486 2705)" fill="#91d5ff"/>
    <circle id="楕円形_30-126" data-name="楕円形 30" cx="3" cy="3" r="3" transform="translate(2552 2705)" fill="#91d5ff"/>
    <circle id="楕円形_30-127" data-name="楕円形 30" cx="3" cy="3" r="3" transform="translate(2618 2705)" fill="#91d5ff"/>
    <circle id="楕円形_30-128" data-name="楕円形 30" cx="3" cy="3" r="3" transform="translate(2684 2705)" fill="#91d5ff"/>
    <circle id="楕円形_30-129" data-name="楕円形 30" cx="3" cy="3" r="3" transform="translate(2750 2705)" fill="#afe0ff"/>
    <circle id="楕円形_30-130" data-name="楕円形 30" cx="3" cy="3" r="3" transform="translate(2816 2705)" fill="#afe0ff"/>
    <circle id="楕円形_30-131" data-name="楕円形 30" cx="3" cy="3" r="3" transform="translate(2882 2705)" fill="#afe0ff"/>
    <circle id="楕円形_30-132" data-name="楕円形 30" cx="3" cy="3" r="3" transform="translate(2948 2705)" fill="#afe0ff"/>
    <circle id="楕円形_30-133" data-name="楕円形 30" cx="3" cy="3" r="3" transform="translate(3014 2705)" fill="#afe0ff"/>
    <circle id="楕円形_30-134" data-name="楕円形 30" cx="3" cy="3" r="3" transform="translate(3080 2705)" fill="#e5f2ff"/>
    <circle id="楕円形_30-135" data-name="楕円形 30" cx="3" cy="3" r="3" transform="translate(3146 2705)" fill="#e5f2ff"/>
    <circle id="楕円形_30-136" data-name="楕円形 30" cx="3" cy="3" r="3" transform="translate(3212 2705)" fill="#e5f2ff"/>
    <circle id="楕円形_30-137" data-name="楕円形 30" cx="3" cy="3" r="3" transform="translate(2156 2771)" fill="#49b2f4"/>
    <circle id="楕円形_30-138" data-name="楕円形 30" cx="3" cy="3" r="3" transform="translate(2222 2771)" fill="#49b2f4"/>
    <circle id="楕円形_30-139" data-name="楕円形 30" cx="3" cy="3" r="3" transform="translate(2288 2771)" fill="#49b2f4"/>
    <circle id="楕円形_30-140" data-name="楕円形 30" cx="3" cy="3" r="3" transform="translate(2354 2771)" fill="#49b2f4"/>
    <circle id="楕円形_30-141" data-name="楕円形 30" cx="3" cy="3" r="3" transform="translate(2420 2771)" fill="#91d5ff"/>
    <circle id="楕円形_30-142" data-name="楕円形 30" cx="3" cy="3" r="3" transform="translate(2486 2771)" fill="#91d5ff"/>
    <circle id="楕円形_30-143" data-name="楕円形 30" cx="3" cy="3" r="3" transform="translate(2552 2771)" fill="#91d5ff"/>
    <circle id="楕円形_30-144" data-name="楕円形 30" cx="3" cy="3" r="3" transform="translate(2618 2771)" fill="#91d5ff"/>
    <circle id="楕円形_30-145" data-name="楕円形 30" cx="3" cy="3" r="3" transform="translate(2684 2771)" fill="#91d5ff"/>
    <circle id="楕円形_30-146" data-name="楕円形 30" cx="3" cy="3" r="3" transform="translate(2750 2771)" fill="#afe0ff"/>
    <circle id="楕円形_30-147" data-name="楕円形 30" cx="3" cy="3" r="3" transform="translate(2816 2771)" fill="#afe0ff"/>
    <circle id="楕円形_30-148" data-name="楕円形 30" cx="3" cy="3" r="3" transform="translate(2882 2771)" fill="#afe0ff"/>
    <circle id="楕円形_30-149" data-name="楕円形 30" cx="3" cy="3" r="3" transform="translate(2948 2771)" fill="#afe0ff"/>
    <circle id="楕円形_30-150" data-name="楕円形 30" cx="3" cy="3" r="3" transform="translate(3014 2771)" fill="#afe0ff"/>
    <circle id="楕円形_30-151" data-name="楕円形 30" cx="3" cy="3" r="3" transform="translate(3080 2771)" fill="#e5f2ff"/>
    <circle id="楕円形_30-152" data-name="楕円形 30" cx="3" cy="3" r="3" transform="translate(3146 2771)" fill="#e5f2ff"/>
    <circle id="楕円形_30-153" data-name="楕円形 30" cx="3" cy="3" r="3" transform="translate(3212 2771)" fill="#e5f2ff"/>
    <circle id="楕円形_30-154" data-name="楕円形 30" cx="3" cy="3" r="3" transform="translate(2156 2837)" fill="#49b2f4"/>
    <circle id="楕円形_30-155" data-name="楕円形 30" cx="3" cy="3" r="3" transform="translate(2222 2837)" fill="#49b2f4"/>
    <circle id="楕円形_30-156" data-name="楕円形 30" cx="3" cy="3" r="3" transform="translate(2288 2837)" fill="#49b2f4"/>
    <circle id="楕円形_30-157" data-name="楕円形 30" cx="3" cy="3" r="3" transform="translate(2354 2837)" fill="#49b2f4"/>
    <circle id="楕円形_30-158" data-name="楕円形 30" cx="3" cy="3" r="3" transform="translate(2420 2837)" fill="#91d5ff"/>
    <circle id="楕円形_30-159" data-name="楕円形 30" cx="3" cy="3" r="3" transform="translate(2486 2837)" fill="#91d5ff"/>
    <circle id="楕円形_30-160" data-name="楕円形 30" cx="3" cy="3" r="3" transform="translate(2552 2837)" fill="#91d5ff"/>
    <circle id="楕円形_30-161" data-name="楕円形 30" cx="3" cy="3" r="3" transform="translate(2618 2837)" fill="#91d5ff"/>
    <circle id="楕円形_30-162" data-name="楕円形 30" cx="3" cy="3" r="3" transform="translate(2684 2837)" fill="#91d5ff"/>
    <circle id="楕円形_30-163" data-name="楕円形 30" cx="3" cy="3" r="3" transform="translate(2750 2837)" fill="#afe0ff"/>
    <circle id="楕円形_30-164" data-name="楕円形 30" cx="3" cy="3" r="3" transform="translate(2816 2837)" fill="#afe0ff"/>
    <circle id="楕円形_30-165" data-name="楕円形 30" cx="3" cy="3" r="3" transform="translate(2882 2837)" fill="#afe0ff"/>
    <circle id="楕円形_30-166" data-name="楕円形 30" cx="3" cy="3" r="3" transform="translate(2948 2837)" fill="#afe0ff"/>
    <circle id="楕円形_30-167" data-name="楕円形 30" cx="3" cy="3" r="3" transform="translate(3014 2837)" fill="#afe0ff"/>
    <circle id="楕円形_30-168" data-name="楕円形 30" cx="3" cy="3" r="3" transform="translate(3080 2837)" fill="#e5f2ff"/>
    <circle id="楕円形_30-169" data-name="楕円形 30" cx="3" cy="3" r="3" transform="translate(3146 2837)" fill="#e5f2ff"/>
    <circle id="楕円形_30-170" data-name="楕円形 30" cx="3" cy="3" r="3" transform="translate(3212 2837)" fill="#e5f2ff"/>
    <circle id="楕円形_30-171" data-name="楕円形 30" cx="3" cy="3" r="3" transform="translate(2156 2903)" fill="#49b2f4"/>
    <circle id="楕円形_30-172" data-name="楕円形 30" cx="3" cy="3" r="3" transform="translate(2222 2903)" fill="#49b2f4"/>
    <circle id="楕円形_30-173" data-name="楕円形 30" cx="3" cy="3" r="3" transform="translate(2288 2903)" fill="#49b2f4"/>
    <circle id="楕円形_30-174" data-name="楕円形 30" cx="3" cy="3" r="3" transform="translate(2354 2903)" fill="#49b2f4"/>
    <circle id="楕円形_30-175" data-name="楕円形 30" cx="3" cy="3" r="3" transform="translate(2420 2903)" fill="#91d5ff"/>
    <circle id="楕円形_30-176" data-name="楕円形 30" cx="3" cy="3" r="3" transform="translate(2486 2903)" fill="#91d5ff"/>
    <circle id="楕円形_30-177" data-name="楕円形 30" cx="3" cy="3" r="3" transform="translate(2552 2903)" fill="#91d5ff"/>
    <circle id="楕円形_30-178" data-name="楕円形 30" cx="3" cy="3" r="3" transform="translate(2618 2903)" fill="#91d5ff"/>
    <circle id="楕円形_30-179" data-name="楕円形 30" cx="3" cy="3" r="3" transform="translate(2684 2903)" fill="#91d5ff"/>
    <circle id="楕円形_30-180" data-name="楕円形 30" cx="3" cy="3" r="3" transform="translate(2750 2903)" fill="#afe0ff"/>
    <circle id="楕円形_30-181" data-name="楕円形 30" cx="3" cy="3" r="3" transform="translate(2816 2903)" fill="#afe0ff"/>
    <circle id="楕円形_30-182" data-name="楕円形 30" cx="3" cy="3" r="3" transform="translate(2882 2903)" fill="#afe0ff"/>
    <circle id="楕円形_30-183" data-name="楕円形 30" cx="3" cy="3" r="3" transform="translate(2948 2903)" fill="#afe0ff"/>
    <circle id="楕円形_30-184" data-name="楕円形 30" cx="3" cy="3" r="3" transform="translate(3014 2903)" fill="#afe0ff"/>
    <circle id="楕円形_30-185" data-name="楕円形 30" cx="3" cy="3" r="3" transform="translate(3080 2903)" fill="#e5f2ff"/>
    <circle id="楕円形_30-186" data-name="楕円形 30" cx="3" cy="3" r="3" transform="translate(3146 2903)" fill="#e5f2ff"/>
    <circle id="楕円形_30-187" data-name="楕円形 30" cx="3" cy="3" r="3" transform="translate(3212 2903)" fill="#e5f2ff"/>
  </g>
</svg>
