<svg xmlns="http://www.w3.org/2000/svg" width="1175.8" height="346.8" viewBox="0 0 1175.8 346.8">
  <path id="bg-txt1" d="M13.4,0V-140h61a48.013,48.013,0,0,1,19.9,4,33.034,33.034,0,0,1,14.2,11.9q5.3,7.9,5.3,19.5,0,12.4-5.5,20.6A25.733,25.733,0,0,1,94.4-73.2a25.279,25.279,0,0,1,12.7,5.7,33.168,33.168,0,0,1,9.1,12.3A41.69,41.69,0,0,1,119.6-38q0,19.8-11.9,28.9T76.2,0Zm26-24H72.6q9.4,0,14.2-4.2t4.8-13.4q0-8.8-5.6-13.1A21.356,21.356,0,0,0,72.6-59H39.4Zm0-59.2H69.2q16.2,0,16.2-17.2,0-7.8-4.3-11.7T69.2-116H39.4ZM192.2,2.2q-21.2,0-34.4-12.5T144.6-48.2q0-15.8,5.9-27.1a42.4,42.4,0,0,1,16.3-17.4,46.551,46.551,0,0,1,24-6.1q13.6,0,23.1,6.5a41.123,41.123,0,0,1,14.5,17.9q5,11.4,5,26.2v5.4h-64q1,13.4,7.3,18.3t15.9,4.9q8.8,0,14.4-4.2t10-12.6l18.4,13Q227.6-9.6,216.9-3.7T192.2,2.2ZM170.4-62h38.2Q205-79.2,190.4-79.2q-8,0-13,4T170.4-62ZM263.6,0V-96.4H286l1.4,10.8a39.552,39.552,0,0,1,10.3-9.2,27.205,27.205,0,0,1,14.9-4q15,0,24.5,9.6t9.5,28.4V0H321.4V-54.6q0-10.6-4.1-16A13.2,13.2,0,0,0,306.2-76a16,16,0,0,0-12.5,5.5q-4.9,5.5-4.9,17.3V0Zm159,2.2q-21.2,0-34.4-12.5T375-48.2q0-15.8,5.9-27.1a42.4,42.4,0,0,1,16.3-17.4,46.552,46.552,0,0,1,24-6.1q13.6,0,23.1,6.5a41.123,41.123,0,0,1,14.5,17.9q5,11.4,5,26.2v5.4h-64q1,13.4,7.3,18.3T423-19.6q8.8,0,14.4-4.2t10-12.6l18.4,13Q458-9.6,447.3-3.7T422.6,2.2ZM400.8-62H439q-3.6-17.2-18.2-17.2-8,0-13,4T400.8-62Zm103,62V-74.8h-18V-96.4h18V-113q0-17.8,8-24.7t24.2-6.9a90.657,90.657,0,0,1,10.4.6,68.1,68.1,0,0,1,8.4,1.4v22.8a38.363,38.363,0,0,0-6.3-1.9,32.2,32.2,0,0,0-6.7-.7q-13,0-13,12.6v13.4h26v21.6h-26V0Zm77.4,0V-96.4h25.2V0Zm12.4-110.8a14.684,14.684,0,0,1-10.9-4.6,15.178,15.178,0,0,1-4.5-11,14.845,14.845,0,0,1,4.5-10.9,14.845,14.845,0,0,1,10.9-4.5,14.845,14.845,0,0,1,10.9,4.5,14.845,14.845,0,0,1,4.5,10.9,15.178,15.178,0,0,1-4.5,11A14.684,14.684,0,0,1,593.6-110.8ZM682,2.2A55.012,55.012,0,0,1,665.7.1a17.647,17.647,0,0,1-10.2-7.9Q652-13.6,652-24.2V-74.8H634V-96.4h18v-33.4h25v33.4h26v21.6H677v44q0,6.2,3.1,8.4t8.9,2.2a24.834,24.834,0,0,0,7.9-1.3A38.838,38.838,0,0,0,703-24V-1.2a41.429,41.429,0,0,1-9.5,2.5A73.622,73.622,0,0,1,682,2.2ZM764.6,2a64.613,64.613,0,0,1-22.3-3.9A50.482,50.482,0,0,1,723-14.8l15.4-17a36.67,36.67,0,0,0,27.6,12q7.6,0,10.6-1.9t3-7.1a5.724,5.724,0,0,0-1.5-3.9q-1.5-1.7-6.2-3.2a131.248,131.248,0,0,0-14.1-3.3q-14.6-2.8-22.5-9.6t-7.9-20.4a26.251,26.251,0,0,1,4.8-15.7,31.454,31.454,0,0,1,13.1-10.4A45.454,45.454,0,0,1,764-99q22.8,0,36.8,12.8L787-68.2a29.817,29.817,0,0,0-10.7-6.7A35.266,35.266,0,0,0,764.4-77q-6.6,0-9,2.1A6.342,6.342,0,0,0,753-70a5.85,5.85,0,0,0,1.2,3.6q1.2,1.6,5.2,3.1a113,113,0,0,0,12.4,3.5q16.6,3.8,25.1,11.5t8.5,20.5q0,15-11.5,22.4T764.6,2ZM21.4,200V125.2H3.4V103.6h18V87q0-17.8,8-24.7t24.2-6.9A90.657,90.657,0,0,1,64,56a68.1,68.1,0,0,1,8.4,1.4V80.2a38.363,38.363,0,0,0-6.3-1.9,32.2,32.2,0,0,0-6.7-.7q-13,0-13,12.6v13.4h26v21.6h-26V200Zm116.4,2.2a47.185,47.185,0,0,1-24.1-6.2,43.646,43.646,0,0,1-16.8-17.6q-6.1-11.4-6.1-26.6,0-15.4,6.1-26.7a44.5,44.5,0,0,1,16.8-17.6,46.6,46.6,0,0,1,24.1-6.3,46.453,46.453,0,0,1,24.2,6.3,44.724,44.724,0,0,1,16.7,17.6q6.1,11.3,6.1,26.7,0,15.2-6.1,26.6A43.855,43.855,0,0,1,162,196,47.035,47.035,0,0,1,137.8,202.2Zm0-22.8a19.752,19.752,0,0,0,15.7-7.1q6.1-7.1,6.1-20.5,0-13.6-6.1-20.7a19.752,19.752,0,0,0-15.7-7.1,19.173,19.173,0,0,0-15.5,7.1q-5.9,7.1-5.9,20.7,0,13.4,5.9,20.5A19.173,19.173,0,0,0,137.8,179.4ZM213.2,200V103.6h22.6l1.6,13a26.941,26.941,0,0,1,11-11.2,31.138,31.138,0,0,1,15.6-4.2,35.388,35.388,0,0,1,6.2.5,43.679,43.679,0,0,1,4.8,1.1v24.4a37.43,37.43,0,0,0-6.4-1.5,59.144,59.144,0,0,0-8.4-.5,21.822,21.822,0,0,0-15.5,5.9q-6.3,5.9-6.3,17.3V200Zm192.4,2.2a55.011,55.011,0,0,1-16.3-2.1,17.647,17.647,0,0,1-10.2-7.9q-3.5-5.8-3.5-16.4V125.2h-18V103.6h18V70.2h25v33.4h26v21.6h-26v44q0,6.2,3.1,8.4t8.9,2.2a24.834,24.834,0,0,0,7.9-1.3,38.838,38.838,0,0,0,6.1-2.5v22.8a41.428,41.428,0,0,1-9.5,2.5A73.623,73.623,0,0,1,405.6,202.2Zm90.2,0q-21.2,0-34.4-12.5t-13.2-37.9q0-15.8,5.9-27.1a42.4,42.4,0,0,1,16.3-17.4,46.552,46.552,0,0,1,24-6.1q13.6,0,23.1,6.5A41.123,41.123,0,0,1,532,125.6q5,11.4,5,26.2v5.4H473q1,13.4,7.3,18.3t15.9,4.9q8.8,0,14.4-4.2t10-12.6l18.4,13q-7.8,13.8-18.5,19.7T495.8,202.2ZM474,138h38.2q-3.6-17.2-18.2-17.2-8,0-13,4T474,138Zm124.2,63.2q-15.8.8-26.3-6.8t-10.5-22a26.405,26.405,0,0,1,6.1-17.5,40.929,40.929,0,0,1,15.8-11.4,53.839,53.839,0,0,1,20.1-4.3,25.7,25.7,0,0,1,8.8.7,40.114,40.114,0,0,1,7.8,2.9v-6.4q0-8.4-3.6-10.9T606.2,123a54.737,54.737,0,0,0-17.7,3.1,58.681,58.681,0,0,0-15.7,7.9l-11.4-19.4a102.838,102.838,0,0,1,20.1-9.3,74.143,74.143,0,0,1,24.7-4.1q18.6,0,28.2,7.6t9.6,27.6v42q0,4.2,1.9,4.8t8.5-1.4v15.4a58.4,58.4,0,0,1-8,2.7,40.5,40.5,0,0,1-10.6,1.3q-11.8,0-15-8Q611.6,200.2,598.2,201.2Zm-.6-21.6q10.6-.6,16.9-4.1t5.9-9.7a6.059,6.059,0,0,0-4.5-6,28.269,28.269,0,0,0-10.5-1q-9.2.4-14.6,4.7t-5.2,9.1a6.49,6.49,0,0,0,3.1,5.3Q591.6,179.8,597.6,179.6ZM720,202.2a47.185,47.185,0,0,1-24.1-6.2,43.646,43.646,0,0,1-16.8-17.6Q673,167,673,151.8q0-15.4,6.1-26.7a44.5,44.5,0,0,1,16.8-17.6,46.6,46.6,0,0,1,24.1-6.3,48.321,48.321,0,0,1,22.1,5,41.867,41.867,0,0,1,16.1,14.2l-20,14.8Q732.8,124,720,124a19.173,19.173,0,0,0-15.5,7.1q-5.9,7.1-5.9,20.7,0,13.4,5.9,20.5a19.173,19.173,0,0,0,15.5,7.1q12.6,0,18.4-11L758.2,183a41.867,41.867,0,0,1-16.1,14.2A48.321,48.321,0,0,1,720,202.2Zm66.4-2.2V57.8h25.2v56.6a25.653,25.653,0,0,1,9-9.2,26.705,26.705,0,0,1,14.8-4q15,0,24.5,9.6t9.5,28.4V200H844.2V145.4q0-10.6-4.1-16A13.2,13.2,0,0,0,829,124a16,16,0,0,0-12.5,5.5q-4.9,5.5-4.9,17.3V200Zm159,2.2q-21.2,0-34.4-12.5t-13.2-37.9q0-15.8,5.9-27.1A42.4,42.4,0,0,1,920,107.3a46.552,46.552,0,0,1,24-6.1q13.6,0,23.1,6.5a41.123,41.123,0,0,1,14.5,17.9q5,11.4,5,26.2v5.4h-64q1,13.4,7.3,18.3t15.9,4.9q8.8,0,14.4-4.2t10-12.6l18.4,13q-7.8,13.8-18.5,19.7T945.4,202.2ZM923.6,138h38.2q-3.6-17.2-18.2-17.2-8,0-13,4T923.6,138Zm93.2,62V103.6h22.6l1.6,13a26.941,26.941,0,0,1,11-11.2,31.138,31.138,0,0,1,15.6-4.2,35.389,35.389,0,0,1,6.2.5,43.684,43.684,0,0,1,4.8,1.1v24.4a37.429,37.429,0,0,0-6.4-1.5,59.141,59.141,0,0,0-8.4-.5,21.822,21.822,0,0,0-15.5,5.9q-6.3,5.9-6.3,17.3V200Zm121.6,2a64.613,64.613,0,0,1-22.3-3.9,50.482,50.482,0,0,1-19.3-12.9l15.4-17a36.67,36.67,0,0,0,27.6,12q7.6,0,10.6-1.9t3-7.1a5.724,5.724,0,0,0-1.5-3.9q-1.5-1.7-6.2-3.2a131.252,131.252,0,0,0-14.1-3.3q-14.6-2.8-22.5-9.6t-7.9-20.4a26.251,26.251,0,0,1,4.8-15.7,31.454,31.454,0,0,1,13.1-10.4,45.453,45.453,0,0,1,18.7-3.7q22.8,0,36.8,12.8l-13.8,18a29.818,29.818,0,0,0-10.7-6.7,35.267,35.267,0,0,0-11.9-2.1q-6.6,0-9,2.1a6.342,6.342,0,0,0-2.4,4.9,5.851,5.851,0,0,0,1.2,3.6q1.2,1.6,5.2,3.1a113,113,0,0,0,12.4,3.5q16.6,3.8,25.1,11.5t8.5,20.5q0,15-11.5,22.4T1138.4,202Z" transform="translate(-3.4 144.6)" fill="#dcefff" opacity="0.501"/>
</svg>
