<svg id="student" xmlns="http://www.w3.org/2000/svg" xmlns:xlink="http://www.w3.org/1999/xlink" width="261" height="261" viewBox="0 0 261 261">
  <defs>
    <clipPath id="clip-path">
      <circle id="楕円形_4" data-name="楕円形 4" cx="130.5" cy="130.5" r="130.5" transform="translate(0 0)" fill="#fff" stroke="#707070" stroke-width="1"/>
    </clipPath>
  </defs>
  <g id="グループ_23" data-name="グループ 23" transform="translate(0 0)">
    <circle id="楕円形_3" data-name="楕円形 3" cx="130" cy="130" r="130" transform="translate(0 0)" fill="#fff"/>
    <g id="マスクグループ_2" data-name="マスクグループ 2" transform="translate(0)" clip-path="url(#clip-path)">
      <g id="c" transform="translate(22.157 39.573)">
        <g id="d" transform="translate(0 0)">
          <path id="パス_53" data-name="パス 53" d="M163.915,190.033c-.959-.327-16.678-7.681-17-7.8-4.967-1.792-4.773-4.989-5.4-8.558a67.676,67.676,0,0,1-1-8.136c12.907-5.479,23.3-22.864,25.111-27.775.271-.825.825-2.376,1.318-4.219.662-.117,1.034-.174,1.034-.174a12.938,12.938,0,0,0,6.02-2.713,19.522,19.522,0,0,0,5.049-6.626,30.72,30.72,0,0,0,3.133-16.284,10.24,10.24,0,0,0-1.074-4.124,7.251,7.251,0,0,0-5.213-3.466,7.678,7.678,0,0,0-6.144,1.8s5.35-43.024-51.713-43.024c-53.656,0-51.34,43.024-51.34,43.024a7.679,7.679,0,0,0-6.144-1.8,7.249,7.249,0,0,0-5.213,3.466,10.256,10.256,0,0,0-1.074,4.124A30.722,30.722,0,0,0,57.4,124.031a19.532,19.532,0,0,0,5.049,6.626,12.941,12.941,0,0,0,6.02,2.713l1.962.3a52.235,52.235,0,0,0,9.957,19.437,44.983,44.983,0,0,0,14.935,12.076,67.57,67.57,0,0,1-1.018,8.49c-.626,3.574-.43,6.768-5.4,8.563-.329.119-16.045,7.47-17,7.8,0,0,.317,27.364,45.259,27.364s46.755-27.364,46.755-27.364Z" transform="translate(-13.889 -15.114)" fill="#fce0cd"/>
          <path id="パス_54" data-name="パス 54" d="M206.686,284.324c-1.894-3.92-3.506-7.979-5.682-11.76-1.927-3.347-5.478-11.375-12.71-17.788-3.831-3.4-13.245-10.282-27.6-16.964-2.6-1.21-5.524-2.614-8.479-3.971l-.1.07a83.064,83.064,0,0,1-94.8.04l-.132-.094c-2.943,1.352-5.857,2.75-8.444,3.955-14.349,6.682-23.764,13.567-27.6,16.964-7.232,6.413-10.783,14.441-12.71,17.788-2.177,3.781-3.788,7.84-5.682,11.76Z" transform="translate(-0.706 -59.972)" fill="#fff"/>
          <path id="パス_55" data-name="パス 55" d="M197.668,50.728c3.022,3.345,9.064,5.692,15.78,5.723,7.276.029,13.775-2.551,17.75-5.88a6.08,6.08,0,0,0,1.752-2.057,1.837,1.837,0,0,0,.184-.926c-.01-.132-.12-.632-.285-.661-4.115-.745-5.785-4.637-6.2-8.776-.41-4.158.084-8.547-.529-12.676-.886-5.972-2.75-11.414-4.2-13.434C215.555,1.838,208.787.545,203.286.056c-5.333-.474-12.082,2.06-15.634,6.068a16.256,16.256,0,0,0-3.718,13.735Z" transform="translate(-47.097 0)" fill="#645d5c"/>
          <path id="パス_56" data-name="パス 56" d="M170.867,90.2a7.679,7.679,0,0,1,6.144-1.8,7.338,7.338,0,0,1,1.744.487A81.256,81.256,0,0,0,180.087,70.3a59.928,59.928,0,0,0-8.449-28.764,56.457,56.457,0,0,0-7.774-9.952c-1.184-1.21-2.982-2.98-4.206-4.057a69.881,69.881,0,0,0-10.229-6.866,59.926,59.926,0,0,0-8.934-4.054,62.931,62.931,0,0,0-21.178-3.515c-14.189,0-26.237,4.176-35.878,11.175-11.2,8.126-23.873,22.6-24.887,46.031a74.572,74.572,0,0,0,.379,9.469,70.165,70.165,0,0,0,1.552,8.913,7.478,7.478,0,0,1,1.188-.28,7.678,7.678,0,0,1,6.144,1.8c16.39-3.762,35.107-14.473,39.012-16.275,14.758-3.344,28.9-10.088,37.456-20.61,1.8,6.213,4.782,14.605,6.97,18.272,3.1,5.19,12.071,16.867,19.615,18.612" transform="translate(-15.007 -3.357)" fill="#645d5c"/>
          <path id="パス_57" data-name="パス 57" d="M27.128,251.6a57.906,57.906,0,0,0-14.073,12.663,100.234,100.234,0,0,0-7.461,12.326c-2.008,3.608-3.556,7.444-5.343,11.16A2.138,2.138,0,0,0,1,290.6a2.1,2.1,0,0,0,2.848-.747c1.539-3.2,2.9-6.487,4.532-9.644,1-1.941,2.084-3.852,3.131-5.771a50.187,50.187,0,0,1,10.159-13.492,68.646,68.646,0,0,1,7.561-5.749,2.134,2.134,0,0,0,.747-2.848,2.1,2.1,0,0,0-2.848-.747h0Z" transform="translate(0 -64.452)" fill="#d9d9d9"/>
          <path id="パス_58" data-name="パス 58" d="M240.221,255.269c4.864,3.3,9.415,6.938,12.938,11.7a103.036,103.036,0,0,1,7.191,12.047c1.929,3.519,3.44,7.247,5.177,10.859a2.1,2.1,0,0,0,2.848.747,2.127,2.127,0,0,0,.747-2.848c-5.068-10.537-9.763-22.029-18.718-29.969a78.712,78.712,0,0,0-8.082-6.129,2.082,2.082,0,1,0-2.1,3.6h0Z" transform="translate(-61.345 -64.47)" fill="#d9d9d9"/>
          <path id="パス_59" data-name="パス 59" d="M196.84,264.18c5.66-2.634,25.7-16.713,25.221-17.435-1.685-2.564-19.327-10.267-31.643-16.127-6.759-3.216-11.5-6.159-12.7-6.736-8.42,13.814-22.608,38.042-31.2,52.257,9.21,1.889,24.62,0,50.318-11.96Z" transform="translate(-37.578 -57.418)" fill="#5394cf"/>
          <path id="パス_60" data-name="パス 60" d="M57.792,264.18c-5.66-2.634-25.7-16.713-25.221-17.435,1.685-2.564,19.327-10.267,31.643-16.127,6.759-3.216,11.5-6.159,12.7-6.736,8.42,13.814,22.608,38.042,31.2,52.257-9.21,1.889-24.62,0-50.318-11.96Z" transform="translate(-8.351 -57.418)" fill="#5394cf"/>
          <path id="パス_61" data-name="パス 61" d="M155.255,274.027c9.655-1.344,18.968-4.741,27.82-8.722A148.913,148.913,0,0,0,206.1,252.537a52.248,52.248,0,0,0,7.643-6.025c1.892-1.9-1.051-4.847-2.944-2.944a31.32,31.32,0,0,1-2.585,2.288q-.375.3-.754.6c.289-.225.019-.015-.112.084q-.243.184-.487.366-.97.724-1.962,1.417c-3.178,2.227-6.483,4.274-9.849,6.2a144.734,144.734,0,0,1-25.6,11.73,84.3,84.3,0,0,1-15.3,3.759,2.1,2.1,0,0,0-1.454,2.561,2.138,2.138,0,0,0,2.561,1.454h0Z" transform="translate(-39.144 -62.309)" fill="#fff"/>
          <path id="パス_62" data-name="パス 62" d="M105.252,270.011c-9.334-1.3-18.394-4.5-26.955-8.36a149.443,149.443,0,0,1-22.729-12.595q-1.164-.793-2.3-1.62-.506-.368-1.007-.745c-.159-.12-.318-.241-.477-.362.321.246-.045-.036-.164-.129a33.075,33.075,0,0,1-3.017-2.633c-1.892-1.9-4.837,1.042-2.944,2.944a48.719,48.719,0,0,0,6.583,5.289c3.192,2.247,6.515,4.309,9.9,6.254a150.92,150.92,0,0,0,26.439,12.122,84.682,84.682,0,0,0,15.567,3.849,2.153,2.153,0,0,0,2.561-1.454,2.1,2.1,0,0,0-1.454-2.561h0Z" transform="translate(-11.553 -62.309)" fill="#fff"/>
          <path id="パス_63" data-name="パス 63" d="M123.976,279.146c.414,3.759,1.728,10.189,2.245,13.87a46.061,46.061,0,0,0,10.917,2.853,31.386,31.386,0,0,0,9.678-3.02,83.461,83.461,0,0,0,2.167-13.7c-.8-.208-22.993,0-25.007,0Z" transform="translate(-31.795 -71.567)" fill="#f2635f"/>
          <path id="パス_64" data-name="パス 64" d="M104.434,81.3a2.926,2.926,0,0,1,.079-2.822,3.365,3.365,0,0,1,1.545-.915l3.374-1.244a3.9,3.9,0,0,1,4.43,1.258,80.53,80.53,0,0,1,8.044,12.635,3.875,3.875,0,0,1-1.524,5.118,37.525,37.525,0,0,1-5.143,2.434,3.884,3.884,0,0,1-4.957-2.182l-5.637-13.733c-.072-.176-.144-.36-.21-.546Z" transform="translate(-26.701 -19.511)" fill="#4d4544"/>
          <g id="e" transform="translate(77.048 87.234)">
            <path id="パス_65" data-name="パス 65" d="M128.086,171.337a20.079,20.079,0,0,0,9.668,2.228c3.414-.022,6.918-.671,9.659-2.807a2.094,2.094,0,0,0,0-2.944,2.135,2.135,0,0,0-2.944,0c.6-.468.027-.035-.126.063-.2.128-.4.245-.613.355-.122.064-.8.367-.343.18q-.417.17-.846.307a15.546,15.546,0,0,1-5.1.682,16.218,16.218,0,0,1-4.872-.657c-.31-.093-.612-.2-.918-.309-.1-.035-.2-.078-.3-.115.507.188.057.025-.038-.019-.38-.178-.753-.365-1.124-.561a2.127,2.127,0,0,0-2.849.747,2.1,2.1,0,0,0,.747,2.849h0Z" transform="translate(-109.636 -130.121)" fill="#efc0a0"/>
            <path id="パス_66" data-name="パス 66" d="M139.733,140.818a46.37,46.37,0,0,1,1.1,5.011l-.074-.553a2.99,2.99,0,0,1,.019.691l.074-.553a1.707,1.707,0,0,1-.076.311l.21-.5a1.217,1.217,0,0,1-.11.2l.326-.422a1.046,1.046,0,0,1-.164.161l.422-.326a3.151,3.151,0,0,1-.4.21l.5-.21a2.875,2.875,0,0,1-.669.195l.553-.074a2.642,2.642,0,0,1-.628,0l.553.074c-.236-.033-.469-.091-.706-.123a2.307,2.307,0,0,0-1.6.21,2.082,2.082,0,0,0-.747,2.849,2,2,0,0,0,1.244.957c.5.067.977.194,1.48.216a4.634,4.634,0,0,0,2.127-.5,2.967,2.967,0,0,0,1.674-1.966,5.134,5.134,0,0,0-.024-2.173c-.273-1.614-.646-3.214-1.061-4.8a2.082,2.082,0,1,0-4.015,1.106h0Z" transform="translate(-112.448 -122.67)" fill="#efc0a0"/>
            <path id="パス_67" data-name="パス 67" d="M103.943,121.41c-.837,2.72-.291,8.975,4.861,9.508,6.809-.041,7.171-7.6,4.88-11.16-1.877-2.912-7.4-4.123-9.74,1.653Z" transform="translate(-103.624 -117.323)" fill="#645d5c"/>
            <path id="パス_68" data-name="パス 68" d="M173.594,121.41c.837,2.72.291,8.975-4.86,9.508-6.809-.041-7.172-7.6-4.88-11.16C165.73,116.845,171.249,115.635,173.594,121.41Z" transform="translate(-118.745 -117.323)" fill="#645d5c"/>
          </g>
        </g>
      </g>
    </g>
  </g>
</svg>
