<svg xmlns="http://www.w3.org/2000/svg" xmlns:xlink="http://www.w3.org/1999/xlink" width="261" height="261" viewBox="0 0 261 261">
  <defs>
    <clipPath id="clip-path">
      <circle id="楕円形_1" data-name="楕円形 1" cx="130.5" cy="130.5" r="130.5" transform="translate(0 -0.001)" fill="#fff" stroke="#707070" stroke-width="1"/>
    </clipPath>
  </defs>
  <g id="teacher" transform="translate(0 0)">
    <g id="グループ_24" data-name="グループ 24" transform="translate(0 0)">
      <ellipse id="楕円形_2" data-name="楕円形 2" cx="128.5" cy="129.5" rx="128.5" ry="129.5" transform="translate(2 1.999)" fill="#fff"/>
      <g id="マスクグループ_1" data-name="マスクグループ 1" transform="translate(0)" clip-path="url(#clip-path)">
        <g id="c" transform="translate(-51.423 20.7)">
          <g id="d" transform="translate(0 0)">
            <path id="パス_1" data-name="パス 1" d="M235.131,84.956a7.734,7.734,0,0,1,6.189-1.811,7.3,7.3,0,0,1,5.251,3.491,10.309,10.309,0,0,1,1.081,4.153,30.944,30.944,0,0,1-3.155,16.4,19.665,19.665,0,0,1-5.085,6.675,13.029,13.029,0,0,1-6.063,2.733l-1.038.16c-.5,1.862-1.056,3.431-1.331,4.264-1.766,4.8-11.658,21.4-24.1,27.436-.031,4.189-.113,8.986,1.348,12.611,2.5,6.165,15.955,13.934,16.882,14.336,0,0-7.31,28.116-42.074,28.116-44.207,0-42.4-29.2-42.4-29.2.927-.4,12.28-7.088,14.779-13.253,1.661-4.115,1.323-9.748,1.348-14.285a48.148,48.148,0,0,1-11.632-10.308A52.617,52.617,0,0,1,135.1,116.9l-1.977-.3a13.034,13.034,0,0,1-6.063-2.733,19.657,19.657,0,0,1-5.085-6.675,30.943,30.943,0,0,1-3.155-16.4,10.322,10.322,0,0,1,1.081-4.153,7.3,7.3,0,0,1,5.251-3.491,7.736,7.736,0,0,1,6.189,1.811s4.915-46.1,52.126-46.1,51.672,46.1,51.672,46.1Z" transform="translate(-4.075 -1.334)" fill="#fce0cd"/>
            <path id="パス_2" data-name="パス 2" d="M243.137,48.684a41.593,41.593,0,0,0-1.705-5.571c-2.566-6.554-6.5-14.119-14.456-18.489l-9.34-7.023C208.316,2.173,191.136-.844,176.5.181,159.111,1.4,146.72,6.065,135.421,19.337c-16.464,19.339-16.925,44.92-10.7,62.572a3.2,3.2,0,0,1,.459-.1,7.673,7.673,0,0,1,6.142,1.8l8.153-8.871c3.409-4.847,13.075-16.864,20.422-18.331,5.253-1.05,10.852.088,16.3-.131,9.878-.4,18.048-5.077,26.81-8.489,1.167-.455,2.344-.886,3.536-1.282a4.807,4.807,0,0,1,2.078-.341,3.689,3.689,0,0,1,2.1,1.212c10.173,9.928,19.727,24.2,21.451,39.08,1.573-1.432,3.139-2.846,3.139-2.846a7.677,7.677,0,0,1,6.142-1.8,5.429,5.429,0,0,1,.683.144c3.4-10.523,3.295-23.578,1-33.271Z" transform="translate(-4.155 0)" fill="#645d5c"/>
            <path id="パス_3" data-name="パス 3" d="M106.011,349.947c.048-1.3.087-2.453.135-3.409-.288-16.946-.988-39.892-2.013-63.332l-.488.637-1.607,2.1c-4.382,5.532-13.531,16.343-19.373,21.455-5.825,5.095-14.937,8.217-22.605,6.993C48.117,312.458,42.9,301.1,38.019,290.017c-7.012-15.941-12-33.087-16.981-49.01,9.988-2.173,25.893-9.459,35.881-14.718,3.946,9.7,7.425,18.35,11.4,27.669,7.166-18.568,9.009-28.723,16.039-47.079,1.3-3.407,2.284-6.474,4.772-9.142,2.337-2.5,5.429-4.068,8.551-5.479,9.594-4.336,32.578-13.135,44.208-18.346a40.822,40.822,0,0,1,9.32-13.739,77.632,77.632,0,0,0,22.407,15.617c.464.211.981.467,1.131.954a1.8,1.8,0,0,1-.259,1.265,15.465,15.465,0,0,1-1.228,1.736l10.135-.013a15.142,15.142,0,0,1-1.221-1.724,1.8,1.8,0,0,1-.259-1.265c.15-.487.666-.744,1.131-.954a77.632,77.632,0,0,0,22.408-15.617,40.148,40.148,0,0,1,8.922,12.842c10.2,4.083,36.21,14.086,46.011,18.821,3.148,1.521,6.6,2.886,8.984,5.443,2.54,2.722,4.013,6.382,5.345,9.859,7.083,18.494,10.057,36.655,13.92,56.827H257.51c-1.195,29.567-2.3,62.173-2.757,84.65-.01.454-.01.9-.019,1.333Z" transform="translate(-0.723 -5.498)" fill="#fff"/>
            <path id="パス_4" data-name="パス 4" d="M186.9,348.9a201.615,201.615,0,0,0,14.258-17.56c1.306-1.9,2.421-2.928,2.545-4.352a33.308,33.308,0,0,0-.324-5.559c-2.716-30.524-6.743-78.24-11.932-122.774a19.412,19.412,0,0,1,1.205-5.313c.746-2.294,2.309-7.557,1.486-5.686-.834-1.011-1.66-2.013-2.436-2.964-1.358-1.661-2.566-3.162-3.414-4.261l-10.138.013c-.847,1.1-2.051,2.594-3.4,4.249-.543.663-1.109,1.353-1.685,2.053.44,2.363,1.289,4.878,1.844,7.251.1.47.218.924.336,1.394a12.918,12.918,0,0,1,.5,3.092c-3.769,41.007-8.611,91.693-12,126.767a7.905,7.905,0,0,0,.31,3.976,18.67,18.67,0,0,0,2.055,3.137,143.227,143.227,0,0,0,14.1,16.691,5.728,5.728,0,0,0,3.155,1.641,4.829,4.829,0,0,0,3.457-1.714l.072-.082Z" transform="translate(-5.618 -6.194)" fill="#65a0d4"/>
            <path id="パス_5" data-name="パス 5" d="M203.818,196.924a86.274,86.274,0,0,0,11.754-15.367c1.675-2.674,3.286-5.387,4.926-8.084a5.551,5.551,0,0,0,1.223-2.653,5.079,5.079,0,0,0-.916-2.29,45.117,45.117,0,0,0-2.8-4.42,2.384,2.384,0,0,0-3.171-.831,2.337,2.337,0,0,0-.831,3.171,46.773,46.773,0,0,1,3.4,5.54v-2.34c-5.119,8.345-9.888,17.01-16.862,24-2.11,2.114,1.167,5.392,3.277,3.278h0Z" transform="translate(-6.861 -5.594)" fill="#d9d9d9"/>
            <path id="パス_6" data-name="パス 6" d="M166.533,193.674c-6.973-6.986-11.743-15.65-16.862-24v2.34a48.388,48.388,0,0,1,2.926-4.878c1.691-2.466-2.324-4.788-4-2.34a45.863,45.863,0,0,0-2.526,4.121,3.126,3.126,0,0,0-.518,2.819,14.751,14.751,0,0,0,1.248,2.13c1.636,2.7,3.248,5.406,4.928,8.075a85.2,85.2,0,0,0,11.527,15c2.11,2.114,5.388-1.163,3.278-3.278h0Z" transform="translate(-4.991 -5.621)" fill="#d9d9d9"/>
            <path id="パス_7" data-name="パス 7" d="M98.421,197.661c2.336,18.307,3.417,36.8,4.47,55.212q1.889,33.019,2.877,66.083.258,8.255.461,16.51c.126,5.231.313,10.459.121,15.688-.11,2.983,4.526,2.979,4.635,0,.348-9.456-.184-18.982-.466-28.439q-.482-16.167-1.157-32.326c-.9-21.625-1.987-43.252-3.628-64.835-.708-9.312-1.495-18.629-2.677-27.893a2.393,2.393,0,0,0-2.318-2.318,2.331,2.331,0,0,0-2.318,2.318h0Z" transform="translate(-3.379 -6.705)" fill="#d9d9d9"/>
            <path id="パス_8" data-name="パス 8" d="M265.276,351.124c.174-10.653.5-21.306.832-31.955q.563-18.127,1.251-36.25.671-17.834,1.444-35.663.656-15.054,1.423-30.1c.333-6.355.648-12.718,1.172-19.061.037-.44.074-.88.116-1.319a2.335,2.335,0,0,0-2.318-2.318,2.367,2.367,0,0,0-2.318,2.318c-.537,5.765-.813,11.559-1.126,17.34q-.785,14.514-1.4,29.036-.782,17.621-1.452,35.247-.7,18.24-1.288,36.483-.516,16.123-.891,32.253-.043,2-.075,4c-.048,2.984,4.586,2.985,4.635,0Z" transform="translate(-8.948 -6.675)" fill="#d9d9d9"/>
            <path id="パス_9" data-name="パス 9" d="M38.138,178.172c-2.163-8.56-8.24-29.919-10.476-32.772-1.6-2.047-3.5-3.625-7.028-2.122-3.021,1.289-2.531,4.776-1.96,7.659.629,3.174,4.372,18.151,6.557,25.932a5.989,5.989,0,0,0-6.79-1.538c-2.4,1.093-3.321,3.137-3.052,4.613,0,0,.211,1.157.518,2.82a5.81,5.81,0,0,0-5.608.031c-2.069,1.108-4.155,4.074-3.136,6.215l1.367,2.869-.427-.351C5.476,189.366.911,190.7.169,193.58c-.57,2.212.392,4.823,1.623,6.846.146.24.3.5.468.768l.24.741c1.67,5.17,4.92,13.069,9.79,18.7,2.26,2.61,4.87,5.2,6.92,8s2.56,5.91,3.559,9.26l.445,1.481c5.3-1.957,20.2-7.527,28.132-11.3l-.282-.793c-.78-3.6-1.64-8.28-1.13-11.33a77.135,77.135,0,0,1,3.44-10.09,18.683,18.683,0,0,0,1.44-8.44c-.36-3.28-1.21-7.97-3.65-11.39a6.619,6.619,0,0,0-1.78-1.68,1.636,1.636,0,0,0-.25-.15c-2.906-1.781-6.727-1.789-10.02-1.648-.167-.854-.275-1.4-.275-1.4-.116-.59-.36-1.623-.7-2.976Z" transform="translate(-0.001 -4.898)" fill="#fce0cd"/>
            <path id="パス_10" data-name="パス 10" d="M42.582,201.662a34.736,34.736,0,0,0-.977-4.12,9.281,9.281,0,0,0-1.552-3.734,6.482,6.482,0,0,0-3.142-2.066,13.066,13.066,0,0,0-2.049-.413c-.382-.056-.767-.1-1.15-.156q-.448-.058-.122-.016c-.114-.015-.227-.033-.34-.052-.242-.045-.485-.084-.722-.151l-.187-.055q-.38-.135.042.022c-.183-.117-.2-.122-.06-.014s.127.1-.035-.051q.293.4-.054-.115-.129-.207-.238-.426a2.422,2.422,0,0,1-.264-1.132,3.36,3.36,0,0,1,.322-1.132c.058-.126.463-1.016.575-1.011.094,0-.752.522-.182.24.072-.036.578-.266.239-.133a7.3,7.3,0,0,1,.854-.255,22.967,22.967,0,0,1,3.808-.515,2.376,2.376,0,0,0,2.318-2.318,2.336,2.336,0,0,0-2.318-2.318c-2.795.217-6.823.273-8.625,2.827a7.564,7.564,0,0,0-.014,9.189c1.906,2.449,4.781,1.525,7.209,2.536-.4-.168.6.409.225.119a2.791,2.791,0,0,1,.492.492c-.291-.384.245.645.082.194a10.125,10.125,0,0,1,.264,1.067c.382,1.579.909,3.114,1.134,4.729a2.331,2.331,0,0,0,2.851,1.618,2.379,2.379,0,0,0,1.618-2.851h0Z" transform="translate(-0.933 -6.238)" fill="#efc0a0"/>
            <path id="パス_11" data-name="パス 11" d="M12.793,204.166c.028.094.041.2.072.289-.2-.593-.044-.452-.045-.157,0,.1-.047.514.015.064s0-.026-.025.072a2.48,2.48,0,0,1-.228.717l.139-.333c-.034.073-.069.147-.1.218-.055.109-.113.217-.174.323-.124.214-.274.409-.4.619.336-.546.183-.231.06-.084-.078.092-.158.182-.241.269-.161.17-.333.323-.508.478-.315.28.446-.3.118-.1-.1.064-.2.132-.31.191-.091.05-.452.21-.032.031s.039-.029-.064,0-.228.06-.344.084c-.537.11.523-.031.073,0-.255.017-.506.035-.762.03-.232,0-1.07-.14-.3.008a12.322,12.322,0,0,1-1.543-.393c-.436-.143.45.224.071.032-.115-.058-.232-.112-.345-.174a5.61,5.61,0,0,1-.73-.477,2.326,2.326,0,0,0-1.786-.234,2.319,2.319,0,0,0-1.618,2.851,2.73,2.73,0,0,0,1.065,1.385,8.93,8.93,0,0,0,4.4,1.58,7.042,7.042,0,0,0,4.341-.771c2.455-1.444,4.542-4.865,3.675-7.755a2.318,2.318,0,1,0-4.469,1.232h0Z" transform="translate(-0.128 -6.907)" fill="#efc0a0"/>
            <path id="パス_12" data-name="パス 12" d="M7.2,195.224c1.07,1.8,2.331,3.441,3.489,5.174,1.1,1.647,2.184,3.3,3.417,4.853a7.717,7.717,0,0,0,4.668,3.005,7.6,7.6,0,0,0,6.948-1.68,7.919,7.919,0,0,0,1.964-7.981c-.8-2.868-5.275-1.65-4.47,1.232a3.7,3.7,0,0,1,.183,1.764c.045-.4-.089.318-.115.4-.03.106-.065.211-.1.315q.148-.329-.025.034a7.334,7.334,0,0,1-.433.7c.309-.413-.2.187-.278.256-.1.1-.546.39-.091.1-.077.05-.74.415-.3.226a3.553,3.553,0,0,1-2.619.03,5.444,5.444,0,0,1-.645-.217c.419.18-.235-.174-.3-.194q-.28-.2.189.151c-.068-.057-.133-.117-.2-.178-.119-.127-.248-.245-.367-.374-.133-.144-.261-.292-.387-.441-.063-.075-.55-.693-.216-.258-.288-.376-.565-.76-.837-1.146-.591-.838-1.157-1.694-1.725-2.548-1.24-1.865-2.6-3.634-3.747-5.561-1.526-2.56-5.534-.232-4,2.34h0Z" transform="translate(-0.236 -6.583)" fill="#efc0a0"/>
            <path id="パス_13" data-name="パス 13" d="M31.543,194.24c.019.326.013.646.007.972-.008.475.1-.2-.041.27-.058.2-.112.406-.17.608q-.142.381,0,.006c-.057.118-.118.233-.183.346s-.4.563-.069.155a4.839,4.839,0,0,1-.373.41q-.13.128-.269.246.316-.232.112-.087c-.183.09-.349.231-.529.328-.145.077-.585.192-.085.057-.194.053-.381.13-.578.179-.175.043-.756.062-.137.046-.2,0-.384.021-.582.01.516.03-.142-.066-.276-.113-.155-.056-.127-.046.084.031-.123-.063-.243-.131-.36-.2-.047-.029-.543-.425-.211-.137-.189-.163-.371-.333-.546-.512s-.332-.368-.5-.553c-.324-.361.151.241-.144-.182-.247-.354-.489-.708-.714-1.077-.651-1.064-1.3-2.129-1.968-3.181-1.319-2.069-2.683-4.114-3.892-6.25a2.318,2.318,0,0,0-4,2.34c1.452,2.565,3.12,5,4.68,7.5,1.377,2.2,2.628,4.54,4.868,6a6.55,6.55,0,0,0,7.159-.223,7.734,7.734,0,0,0,3.35-6.981,2.37,2.37,0,0,0-2.318-2.318,2.339,2.339,0,0,0-2.318,2.318h0Z" transform="translate(-0.544 -6.332)" fill="#efc0a0"/>
            <path id="パス_14" data-name="パス 14" d="M144.123,171.476c-12.488,5.784-25.475,10.535-38.2,15.818-6.758,2.806-14.718,5.344-18.849,11.805a31.459,31.459,0,0,0-2.709,5.866c-.864,2.278-1.73,4.555-2.559,6.846-1.523,4.212-2.94,8.462-4.3,12.731-3.034,9.547-5.965,19.107-9.543,28.47a2.336,2.336,0,0,0,1.618,2.851,2.37,2.37,0,0,0,2.851-1.618c3.158-8.263,5.842-16.675,8.485-25.113A255.589,255.589,0,0,1,89.6,204.264a15.369,15.369,0,0,1,3.353-5.093,21.279,21.279,0,0,1,5.459-3.571c2.537-1.252,5.283-2.392,7.7-3.4,6.591-2.753,13.229-5.4,19.848-8.078,6.869-2.783,13.773-5.527,20.5-8.642a2.337,2.337,0,0,0,.831-3.171,2.371,2.371,0,0,0-3.171-.831h0Z" transform="translate(-2.33 -5.877)" fill="#d9d9d9"/>
            <path id="パス_15" data-name="パス 15" d="M76.438,269.166c-6.138-13.6-11.751-27.409-17.369-41.225a2.362,2.362,0,0,0-3.4-1.385Q46.96,231.131,37.9,235a101.243,101.243,0,0,1-17.565,6.044,2.338,2.338,0,0,0-1.618,2.851c3.456,11.045,6.766,22.143,10.672,33.04,2,5.578,4.161,11.1,6.543,16.523a102.1,102.1,0,0,0,5.946,12.037,32.544,32.544,0,0,0,8.548,9.7,22.175,22.175,0,0,0,12.8,4.054,32.133,32.133,0,0,0,14.687-3.671,40.412,40.412,0,0,0,10.35-8.144,218.638,218.638,0,0,0,17.294-20.146,2.332,2.332,0,0,0-.831-3.171,2.376,2.376,0,0,0-3.171.832l-.874,1.142-.554.724c-.054.07-.107.142-.162.212.338-.432.07-.1-.118.136q-1.664,2.084-3.377,4.129c-2.827,3.389-5.723,6.725-8.723,9.962-2.663,2.873-5.4,5.953-8.631,8.205a28.736,28.736,0,0,1-12.729,4.979,18.933,18.933,0,0,1-11.9-2.128,24.074,24.074,0,0,1-7.891-8.011,82.514,82.514,0,0,1-5.875-11.4q-3.258-7.325-6.012-14.852c-4.279-11.647-7.817-23.543-11.521-35.38L21.57,245.51a105.986,105.986,0,0,0,18.316-6.36q9.23-3.917,18.119-8.592l-3.4-1.385c5.768,14.188,11.533,28.371,17.836,42.332a2.336,2.336,0,0,0,3.171.831,2.374,2.374,0,0,0,.831-3.171h0Z" transform="translate(-0.64 -7.766)" fill="#d9d9d9"/>
            <path id="パス_16" data-name="パス 16" d="M219.254,175.106c12.656,5.112,25.509,9.95,38.037,15.235,2.594,1.094,5.305,2.261,7.9,3.483,3.825,1.8,8.07,3.376,10.533,7.014,2.8,4.139,4.32,9.237,5.891,13.935,1.652,4.942,3.076,9.959,4.336,15.015,2.894,11.608,4.951,23.4,7.2,35.148A2.339,2.339,0,0,0,296,266.554a2.366,2.366,0,0,0,1.618-2.851c-2.058-10.755-3.958-21.548-6.483-32.206-1.232-5.2-2.619-10.366-4.236-15.459a103.648,103.648,0,0,0-5.563-14.745,19.972,19.972,0,0,0-4.411-6.107,26.22,26.22,0,0,0-6.313-3.905c-2.81-1.335-5.627-2.644-8.483-3.876-7.09-3.059-14.263-5.928-21.439-8.778-6.731-2.673-13.489-5.278-20.2-7.991a2.333,2.333,0,0,0-2.851,1.618,2.373,2.373,0,0,0,1.618,2.851h0Z" transform="translate(-7.468 -5.853)" fill="#d9d9d9"/>
            <g id="e" transform="translate(186.44 247.503)">
              <path id="パス_17" data-name="パス 17" d="M289.2,301.694c5.137-4.575,25-22.117,29.359-26.475-3.576-3.7-10.408-7.3-18.612-8.06a62.874,62.874,0,0,0-21.077,1.121c-6.97,1.741-16,6.045-20.834,11.592-5.918-5.645-14.678-8.139-22.614-8.4a58.2,58.2,0,0,0-23.487,4.216c-6.064,2.423-10.968,5.9-14.332,12.353,4.65,4.065,26.513,19.048,31.351,22.888l60.246-9.236Z" transform="translate(-193.224 -256.661)" fill="#3f88c9"/>
              <path id="パス_18" data-name="パス 18" d="M196.375,275.352a32.345,32.345,0,0,0-3.306,3.639,62.606,62.606,0,0,0,5.671,5.24l.555.412c3.215-4.565,7.448-7.3,12.481-9.313a58.2,58.2,0,0,1,23.487-4.216c7.936.262,16.7,2.755,22.614,8.4,4.836-5.547,13.864-9.852,20.833-11.592a62.874,62.874,0,0,1,21.077-1.121,34.079,34.079,0,0,1,12.164,3.471l.159-.157c1.233-1.171,3.7-3.638,5.8-5.857-7.582-5.733-11.834-6.59-20.776-7.46-6.8-.663-14.535-.885-21.189.776s-15.184,4.436-19.911,9.7c-5.322-3.752-12.769-5.878-20.768-6.142a58.2,58.2,0,0,0-23.487,4.216,41.956,41.956,0,0,0-9.646,5.14,66.65,66.65,0,0,0-5.756,4.869Z" transform="translate(-193.068 -256.301)" fill="#fff"/>
              <path id="パス_19" data-name="パス 19" d="M271.211,290.455q-.421-.34-.85-.671c-3.646-2.817-6.291-3.258-10.038-1.164l-2.011,1.747c-1.533-1.626-2.833-2.974-3.388-3.455a6.26,6.26,0,0,0-6.005-1.35c-2.369.882-3.361,2.177-3.361,4.16,0,0-.1.717-.225,1.686-1.256-1.329-2.387-2.474-3.25-3.247-.73-.655-4.29-2.409-6.66-.629-2.09,1.57-2.412,3.671-1.2,5.517a7.316,7.316,0,0,1,.348.661l-.53-.277a5.391,5.391,0,0,0-7.627,2.748,7.735,7.735,0,0,0,.61,5.065c1.534,2.967,8.241,10.41,11.861,14.235,8.293,5.867,21.528,1.781,32.129-.684a14,14,0,0,0,4.2-1.807c3.965-2.752,6.006-6.135,9.245-9.713a25.213,25.213,0,0,0,3.637-4.407c1.055-2.06,1.925-4.3,1.336-6.54a4.925,4.925,0,0,0-1.853-2.94c-1.577-1.04-3.687-.545-5.436.17a27.038,27.038,0,0,0-7.2,4.357,33.564,33.564,0,0,0-3.727-3.46Z" transform="translate(-194.206 -257.296)" fill="#fce0cd"/>
              <path id="パス_20" data-name="パス 20" d="M268.911,297.217c-.91-.851-1.741-1.794-2.591-2.7-1.374-1.469-2.742-2.944-4.117-4.413a2.337,2.337,0,0,0-3.278,0,2.366,2.366,0,0,0,0,3.277q2.061,2.2,4.117,4.413c.85.909,1.682,1.852,2.591,2.7a2.318,2.318,0,0,0,3.277-3.278Z" transform="translate(-195.306 -257.438)" fill="#efc0a0"/>
              <path id="パス_21" data-name="パス 21" d="M234,296.712a165.784,165.784,0,0,0,11.49,13.075,2.318,2.318,0,1,0,3.277-3.278,165.624,165.624,0,0,1-11.49-13.075,2.325,2.325,0,0,0-3.277,0,2.382,2.382,0,0,0,0,3.277Z" transform="translate(-194.451 -257.553)" fill="#efc0a0"/>
              <path id="パス_22" data-name="パス 22" d="M257.159,300.43c-2.912-3.154-5.736-6.388-8.659-9.531a2.336,2.336,0,0,0-3.278,0,2.367,2.367,0,0,0,0,3.278c2.923,3.143,5.748,6.377,8.659,9.531a2.336,2.336,0,0,0,3.277,0,2.368,2.368,0,0,0,0-3.277Z" transform="translate(-194.836 -257.466)" fill="#efc0a0"/>
            </g>
            <g id="f" transform="translate(151.374 83.436)">
              <path id="パス_23" data-name="パス 23" d="M175.844,129.427a20.443,20.443,0,0,0,9.85,2.274c3.505-.023,7.074-.7,9.885-2.892a2.33,2.33,0,0,0,0-3.278,2.377,2.377,0,0,0-3.278,0c.687-.535.094-.084-.083.029-.2.128-.407.247-.618.358-.147.077-.873.38-.293.158-.283.107-.564.217-.852.31a14.642,14.642,0,0,1-5.082.679,15.227,15.227,0,0,1-4.85-.653c-.312-.094-.616-.2-.924-.311-.1-.035-.2-.086-.3-.116.571.167.166.074.015,0q-.574-.269-1.132-.565a2.369,2.369,0,0,0-3.171.831,2.344,2.344,0,0,0,.831,3.171Z" transform="translate(-157.371 -87.723)" fill="#efc0a0"/>
              <path id="パス_24" data-name="パス 24" d="M184.934,105.287a46.723,46.723,0,0,1,1.1,5.048l-.083-.616a3.054,3.054,0,0,1,.019.7l.083-.616a1.737,1.737,0,0,1-.076.313l.234-.553a1.176,1.176,0,0,1-.111.2l.362-.469a1.093,1.093,0,0,1-.165.162l.469-.362a3.291,3.291,0,0,1-.4.211l.553-.234a2.932,2.932,0,0,1-.674.2l.616-.083a2.714,2.714,0,0,1-.633,0l.616.083c-.238-.033-.472-.091-.711-.124a2.564,2.564,0,0,0-1.786.234,2.317,2.317,0,0,0-.831,3.17,2.22,2.22,0,0,0,1.385,1.065c.519.07,1.023.2,1.55.226a4.916,4.916,0,0,0,2.254-.531,3.193,3.193,0,0,0,1.787-2.112,5.414,5.414,0,0,0-.024-2.306c-.274-1.626-.651-3.238-1.069-4.832a2.318,2.318,0,1,0-4.469,1.232h0Z" transform="translate(-157.663 -86.949)" fill="#efc0a0"/>
              <path id="パス_25" data-name="パス 25" d="M157.077,90.518c-.843,2.74-.294,9.041,4.9,9.577,6.858-.041,7.223-7.659,4.914-11.241-1.891-2.933-7.449-4.152-9.81,1.665Z" transform="translate(-156.755 -86.402)" fill="#645d5c"/>
              <path id="パス_26" data-name="パス 26" d="M213.57,90.518c.843,2.74.294,9.041-4.895,9.577-6.859-.042-7.224-7.66-4.915-11.241C205.649,85.92,211.208,84.7,213.57,90.518Z" transform="translate(-158.325 -86.402)" fill="#645d5c"/>
            </g>
          </g>
        </g>
      </g>
    </g>
  </g>
</svg>
