<svg xmlns="http://www.w3.org/2000/svg" xmlns:xlink="http://www.w3.org/1999/xlink" width="236.821" height="121.107" viewBox="0 0 236.821 121.107">
  <defs>
    <clipPath id="clip-path">
      <ellipse id="楕円形_4" data-name="楕円形 4" cx="42.681" cy="42.681" rx="42.681" ry="42.681" transform="translate(0)" fill="#fff" stroke="#707070" stroke-width="1"/>
    </clipPath>
    <clipPath id="clip-path-2">
      <ellipse id="楕円形_1" data-name="楕円形 1" cx="42.374" cy="42.681" rx="42.374" ry="42.681" transform="translate(0 0)" fill="#fff" stroke="#707070" stroke-width="1"/>
    </clipPath>
  </defs>
  <g id="fig2-sp" transform="translate(-77.784 -2537.489)">
    <g id="グループ_999" data-name="グループ 999" transform="translate(77.784 2567.754)">
      <g id="グループ_977" data-name="グループ 977" transform="translate(0)">
        <g id="グループ_23" data-name="グループ 23" transform="translate(0 0)">
          <ellipse id="楕円形_3" data-name="楕円形 3" cx="42.374" cy="42.374" rx="42.374" ry="42.374" transform="translate(0 0)" fill="#fff7cb"/>
          <g id="マスクグループ_2" data-name="マスクグループ 2" transform="translate(0 0)" clip-path="url(#clip-path)">
            <g id="c" transform="translate(7.264 12.911)">
              <g id="d" transform="translate(0 0)">
                <path id="パス_53" data-name="パス 53" d="M90.057,101.815c-.314-.107-5.455-2.512-5.562-2.551-1.625-.586-1.561-1.632-1.766-2.8A22.134,22.134,0,0,1,82.4,93.8c4.222-1.792,7.622-7.479,8.214-9.085.089-.27.27-.777.431-1.38.216-.038.338-.057.338-.057a4.232,4.232,0,0,0,1.969-.887,6.386,6.386,0,0,0,1.651-2.167A10.048,10.048,0,0,0,96.031,74.9a3.35,3.35,0,0,0-.351-1.349,2.372,2.372,0,0,0-1.705-1.134,2.511,2.511,0,0,0-2.01.588s1.75-14.073-16.915-14.073C57.5,58.932,58.257,73,58.257,73a2.512,2.512,0,0,0-2.01-.588,2.371,2.371,0,0,0-1.705,1.134,3.355,3.355,0,0,0-.351,1.349,10.049,10.049,0,0,0,1.025,5.326,6.389,6.389,0,0,0,1.651,2.167,4.233,4.233,0,0,0,1.969.887l.642.1a17.086,17.086,0,0,0,3.257,6.358,14.714,14.714,0,0,0,4.885,3.95,22.1,22.1,0,0,1-.333,2.777c-.2,1.169-.141,2.214-1.766,2.8-.107.039-5.248,2.444-5.561,2.55,0,0,.1,8.951,14.8,8.951s15.293-8.951,15.293-8.951Z" transform="translate(-40.984 -44.599)" fill="#fce0cd"/>
                <path id="パス_54" data-name="パス 54" d="M69.46,250.354c-.619-1.282-1.147-2.61-1.859-3.847a19.974,19.974,0,0,0-4.157-5.818,39.817,39.817,0,0,0-9.026-5.549c-.85-.4-1.807-.855-2.774-1.3l-.032.023a27.17,27.17,0,0,1-31.009.013l-.043-.031c-.963.442-1.916.9-2.762,1.294a39.822,39.822,0,0,0-9.026,5.549,19.976,19.976,0,0,0-4.157,5.818c-.712,1.237-1.239,2.564-1.859,3.847Z" transform="translate(-2.085 -176.969)" fill="#fff"/>
                <path id="パス_55" data-name="パス 55" d="M188.229,16.593a7.22,7.22,0,0,0,5.162,1.872,9.223,9.223,0,0,0,5.806-1.923,1.989,1.989,0,0,0,.573-.673.6.6,0,0,0,.06-.3c0-.043-.039-.207-.093-.216-1.346-.244-1.892-1.517-2.028-2.871s.027-2.8-.173-4.146a12.252,12.252,0,0,0-1.373-4.394c-2.083-3.338-4.3-3.761-6.1-3.921A6.654,6.654,0,0,0,184.952,2,5.317,5.317,0,0,0,183.736,6.5Z" transform="translate(-138.977 0)" fill="#645d5c"/>
                <path id="パス_56" data-name="パス 56" d="M95.266,38.313a2.512,2.512,0,0,1,2.01-.588,2.4,2.4,0,0,1,.571.159,26.578,26.578,0,0,0,.436-6.08,19.6,19.6,0,0,0-2.764-9.408,18.467,18.467,0,0,0-2.543-3.255c-.387-.4-.975-.975-1.376-1.327a22.858,22.858,0,0,0-3.346-2.246,19.6,19.6,0,0,0-2.922-1.326,20.585,20.585,0,0,0-6.927-1.15,19.619,19.619,0,0,0-11.736,3.655A19.135,19.135,0,0,0,58.528,31.8a24.392,24.392,0,0,0,.124,3.1,22.951,22.951,0,0,0,.508,2.915,2.447,2.447,0,0,1,.389-.091,2.511,2.511,0,0,1,2.01.588c5.361-1.231,11.484-4.734,12.761-5.324,4.827-1.094,9.454-3.3,12.252-6.741a32.725,32.725,0,0,0,2.28,5.977c1.013,1.7,3.948,5.517,6.416,6.088" transform="translate(-44.285 -9.907)" fill="#645d5c"/>
                <path id="パス_57" data-name="パス 57" d="M8.873,251.406a18.94,18.94,0,0,0-4.6,4.142A32.79,32.79,0,0,0,1.83,259.58c-.657,1.18-1.163,2.435-1.748,3.651a.7.7,0,0,0,.244.932.687.687,0,0,0,.932-.244c.5-1.047.949-2.122,1.482-3.155.328-.635.682-1.26,1.024-1.888a16.416,16.416,0,0,1,3.323-4.413,22.46,22.46,0,0,1,2.473-1.881.7.7,0,0,0,.244-.932.688.688,0,0,0-.932-.244h0Z" transform="translate(0 -190.189)" fill="#d9d9d9"/>
                <path id="パス_58" data-name="パス 58" d="M239.529,252.653a16.87,16.87,0,0,1,4.232,3.826,33.7,33.7,0,0,1,2.352,3.941c.631,1.151,1.125,2.37,1.693,3.552a.687.687,0,0,0,.932.244.7.7,0,0,0,.244-.932c-1.658-3.447-3.194-7.205-6.122-9.8a25.749,25.749,0,0,0-2.644-2,.681.681,0,1,0-.687,1.176h0Z" transform="translate(-181.019 -190.243)" fill="#d9d9d9"/>
                <path id="パス_59" data-name="パス 59" d="M162.98,237.064c1.851-.862,8.405-5.467,8.25-5.7-.551-.839-6.322-3.358-10.35-5.275-2.211-1.052-3.762-2.015-4.153-2.2-2.754,4.519-7.395,12.443-10.206,17.093,3.013.618,8.053,0,16.459-3.912Z" transform="translate(-110.886 -169.433)" fill="#5394cf"/>
                <path id="パス_60" data-name="パス 60" d="M40.814,237.064c-1.851-.862-8.405-5.467-8.25-5.7.551-.839,6.322-3.358,10.35-5.275,2.211-1.052,3.762-2.015,4.153-2.2,2.754,4.519,7.395,12.443,10.206,17.093-3.013.618-8.053,0-16.459-3.912Z" transform="translate(-24.643 -169.433)" fill="#5394cf"/>
                <path id="パス_61" data-name="パス 61" d="M153.488,253.117a33.781,33.781,0,0,0,9.1-2.853,48.708,48.708,0,0,0,7.532-4.176,17.092,17.092,0,0,0,2.5-1.971.681.681,0,0,0-.963-.963,10.24,10.24,0,0,1-.845.748q-.123.1-.247.195c.095-.073.006,0-.037.027l-.159.12q-.317.237-.642.463c-1.039.728-2.12,1.4-3.221,2.029a47.342,47.342,0,0,1-8.375,3.837,27.572,27.572,0,0,1-5,1.229.685.685,0,0,0-.476.838.7.7,0,0,0,.838.476h0Z" transform="translate(-115.509 -183.865)" fill="#fff"/>
                <path id="パス_62" data-name="パス 62" d="M64.739,251.8a32.632,32.632,0,0,1-8.817-2.735,48.881,48.881,0,0,1-7.435-4.12q-.381-.259-.754-.53-.166-.12-.329-.244l-.156-.118c.105.081-.015-.012-.054-.042a10.821,10.821,0,0,1-.987-.861.681.681,0,0,0-.963.963,15.94,15.94,0,0,0,2.153,1.73c1.044.735,2.131,1.409,3.238,2.046a49.365,49.365,0,0,0,8.648,3.965,27.7,27.7,0,0,0,5.092,1.259.7.7,0,0,0,.838-.476.686.686,0,0,0-.476-.838h0Z" transform="translate(-34.09 -183.864)" fill="#fff"/>
                <path id="パス_63" data-name="パス 63" d="M123.976,279.084c.135,1.23.565,3.333.734,4.537a15.067,15.067,0,0,0,3.571.933,10.265,10.265,0,0,0,3.166-.988,27.3,27.3,0,0,0,.709-4.482c-.262-.068-7.521,0-8.18,0Z" transform="translate(-93.824 -211.186)" fill="#f2635f"/>
                <path id="パス_64" data-name="パス 64" d="M104.217,77.786a.957.957,0,0,1,.026-.923,1.1,1.1,0,0,1,.505-.3l1.1-.407a1.276,1.276,0,0,1,1.449.411,26.34,26.34,0,0,1,2.631,4.133,1.268,1.268,0,0,1-.5,1.674,12.272,12.272,0,0,1-1.682.8,1.271,1.271,0,0,1-1.621-.714l-1.844-4.492c-.024-.058-.047-.118-.069-.179Z" transform="translate(-78.791 -57.575)" fill="#4d4544"/>
                <g id="e" transform="translate(25.202 28.534)">
                  <path id="パス_65" data-name="パス 65" d="M127.4,168.569a6.568,6.568,0,0,0,3.162.729,5.111,5.111,0,0,0,3.159-.918.685.685,0,0,0,0-.963.7.7,0,0,0-.963,0c.2-.153.009-.011-.041.021-.065.042-.132.08-.2.116-.04.021-.263.12-.112.059q-.136.055-.277.1a5.085,5.085,0,0,1-1.67.223,5.3,5.3,0,0,1-1.594-.215c-.1-.03-.2-.066-.3-.1-.033-.011-.064-.026-.1-.038.166.062.019.008-.012-.006-.124-.058-.246-.119-.368-.183a.7.7,0,0,0-.932.244.688.688,0,0,0,.244.932h0Z" transform="translate(-121.365 -155.087)" fill="#efc0a0"/>
                  <path id="パス_66" data-name="パス 66" d="M138.587,139.036a15.168,15.168,0,0,1,.358,1.639l-.024-.181a.978.978,0,0,1,.006.226l.024-.181a.559.559,0,0,1-.025.1l.069-.163a.4.4,0,0,1-.036.065l.107-.138a.345.345,0,0,1-.054.053l.138-.107a1.032,1.032,0,0,1-.13.069l.163-.069a.94.94,0,0,1-.219.064l.181-.024a.864.864,0,0,1-.205,0l.181.024c-.077-.011-.153-.03-.231-.04a.754.754,0,0,0-.525.069.681.681,0,0,0-.244.932.652.652,0,0,0,.407.313c.162.022.32.063.484.071a1.516,1.516,0,0,0,.7-.163.97.97,0,0,0,.548-.643,1.679,1.679,0,0,0-.008-.711c-.089-.528-.211-1.051-.347-1.569a.681.681,0,1,0-1.313.362h0Z" transform="translate(-129.662 -133.1)" fill="#efc0a0"/>
                  <path id="パス_67" data-name="パス 67" d="M103.728,118.66c-.274.89-.1,2.936,1.59,3.11,2.227-.013,2.346-2.487,1.6-3.651A1.764,1.764,0,0,0,103.728,118.66Z" transform="translate(-103.624 -117.323)" fill="#645d5c"/>
                  <path id="パス_68" data-name="パス 68" d="M166.186,118.66c.274.89.1,2.936-1.59,3.11-2.227-.013-2.346-2.487-1.6-3.651A1.764,1.764,0,0,1,166.186,118.66Z" transform="translate(-148.245 -117.323)" fill="#645d5c"/>
                </g>
              </g>
            </g>
          </g>
        </g>
      </g>
      <g id="グループ_978" data-name="グループ 978" transform="translate(23.355 74.313)">
        <g id="グループ_985" data-name="グループ 985" transform="translate(0 0)">
          <rect id="長方形_320" data-name="長方形 320" width="39.53" height="16.529" rx="8.264" fill="#f88f00"/>
          <path id="パス_905" data-name="パス 905" d="M-9.89.29V-.78h3.91V-2.64H-8.51V-3.73h2.53V-5.28H-8.07q-.28.47-.575.89a7.658,7.658,0,0,1-.575.73,1.8,1.8,0,0,0-.3-.225q-.2-.125-.4-.24a2.126,2.126,0,0,0-.355-.165,4.828,4.828,0,0,0,.625-.745A10.9,10.9,0,0,0-9-6.075q.31-.565.545-1.105a4.694,4.694,0,0,0,.315-.95l1.15.38a7.215,7.215,0,0,1-.52,1.4h1.53V-8.33h1.26v1.98h3.25v1.07H-4.72v1.55h2.5v1.09h-2.5V-.78h3.61V.29ZM4.13.68a1.876,1.876,0,0,0-.395-.3A3.824,3.824,0,0,0,3.28.16V.67H2.14V-3.04q-.35.33-.69.6A2.6,2.6,0,0,0,1.22-2.7Q1.07-2.86.9-3.005A1.91,1.91,0,0,0,.6-3.23a6.09,6.09,0,0,0,.675-.57q.365-.35.72-.76t.655-.83a5.444,5.444,0,0,0,.47-.77l1.01.52a8.754,8.754,0,0,1-.85,1.33V.02A5.458,5.458,0,0,0,3.93-1a7.057,7.057,0,0,0,.48-1.26,6.511,6.511,0,0,0,.23-1.39l1.07.16q-.04.35-.1.695T5.48-2.11a2.794,2.794,0,0,0,.86,1V-4.13H3.92V-5.16H6.34V-6.21H4.35V-7.22H6.34V-8.34H7.53v1.12h2v1.01h-2v1.05h2.49v1.03H7.53v.98H9.56V-2.1H7.53V-.63a5.927,5.927,0,0,0,.67.085q.35.025.75.025.33,0,.635-.01t.585-.04a2.2,2.2,0,0,0-.115.31Q9.99-.05,9.94.18a2.674,2.674,0,0,0-.06.39H8.95a9.258,9.258,0,0,1-1.7-.135A3.377,3.377,0,0,1,6.02-.04a3.191,3.191,0,0,1-.91-.93A7.351,7.351,0,0,1,4.68-.1,5.09,5.09,0,0,1,4.13.68ZM1.57-5.44a3.112,3.112,0,0,0-.385-.42A3.371,3.371,0,0,0,.73-6.23a8.19,8.19,0,0,0,.87-.635,8.848,8.848,0,0,0,.81-.76,5.287,5.287,0,0,0,.6-.755l.92.65a6.77,6.77,0,0,1-.71.885,9.81,9.81,0,0,1-.84.8A8.879,8.879,0,0,1,1.57-5.44Z" transform="translate(19.135 11.733)" fill="#fff"/>
        </g>
      </g>
    </g>
    <g id="グループ_1000" data-name="グループ 1000" transform="translate(229.856 2567.754)">
      <g id="グループ_976" data-name="グループ 976" transform="translate(0 0)">
        <g id="グループ_24" data-name="グループ 24" transform="translate(0 0)">
          <ellipse id="楕円形_2" data-name="楕円形 2" cx="41.76" cy="42.374" rx="41.76" ry="42.374" transform="translate(0.614 0.614)" fill="#d5edff"/>
          <g id="マスクグループ_1" data-name="マスクグループ 1" transform="translate(0 0)" clip-path="url(#clip-path-2)">
            <g id="c-2" data-name="c" transform="translate(-17.145 6.895)">
              <g id="d-2" data-name="d" transform="translate(0 0)">
                <path id="パス_1" data-name="パス 1" d="M156.816,53.948a2.532,2.532,0,0,1,2.026-.593,2.391,2.391,0,0,1,1.719,1.143,3.374,3.374,0,0,1,.354,1.36,10.129,10.129,0,0,1-1.033,5.369,6.438,6.438,0,0,1-1.665,2.185,4.265,4.265,0,0,1-1.985.895l-.34.052c-.163.609-.346,1.123-.436,1.4-.578,1.57-3.816,7-7.89,8.981a11.46,11.46,0,0,0,.441,4.128c.818,2.018,5.223,4.561,5.526,4.693,0,0-2.393,9.2-13.773,9.2-14.471,0-13.881-9.559-13.881-9.559.3-.132,4.02-2.32,4.838-4.338a13.566,13.566,0,0,0,.441-4.676,15.761,15.761,0,0,1-3.808-3.374,17.224,17.224,0,0,1-3.283-6.408l-.647-.1a4.267,4.267,0,0,1-1.985-.895,6.434,6.434,0,0,1-1.665-2.185,10.129,10.129,0,0,1-1.033-5.369,3.379,3.379,0,0,1,.354-1.36,2.39,2.39,0,0,1,1.719-1.143,2.532,2.532,0,0,1,2.026.593s1.609-15.09,17.063-15.09,16.915,15.09,16.915,15.09Z" transform="translate(-81.18 -26.575)" fill="#fce0cd"/>
                <path id="パス_2" data-name="パス 2" d="M161,15.937a13.614,13.614,0,0,0-.558-1.824,11.058,11.058,0,0,0-4.732-6.052l-3.057-2.3c-3.05-5.05-8.674-6.038-13.466-5.7-5.691.4-9.748,1.926-13.446,6.271-5.389,6.33-5.54,14.7-3.5,20.483a1.049,1.049,0,0,1,.15-.032,2.512,2.512,0,0,1,2.01.588l2.669-2.9c1.116-1.587,4.28-5.52,6.685-6,1.72-.344,3.552.029,5.336-.043,3.233-.13,5.908-1.662,8.776-2.779.382-.149.767-.29,1.158-.42a1.573,1.573,0,0,1,.68-.112,1.208,1.208,0,0,1,.686.4c3.33,3.25,6.458,7.921,7.022,12.793.515-.469,1.028-.932,1.028-.932a2.513,2.513,0,0,1,2.01-.588,1.776,1.776,0,0,1,.223.047A21.7,21.7,0,0,0,161,15.937Z" transform="translate(-82.77 0)" fill="#645d5c"/>
                <path id="パス_3" data-name="パス 3" d="M48.854,222.3c.016-.427.028-.8.044-1.116-.094-5.547-.323-13.059-.659-20.732l-.16.209-.526.688a66.853,66.853,0,0,1-6.342,7.023,9.687,9.687,0,0,1-7.4,2.289c-3.909-.633-5.619-4.352-7.215-7.98a153.86,153.86,0,0,1-5.559-16.043c3.27-.711,8.476-3.1,11.745-4.818,1.292,3.176,2.431,6.007,3.733,9.058,2.346-6.078,2.949-9.4,5.25-15.411a8.425,8.425,0,0,1,1.562-2.993,8.451,8.451,0,0,1,2.8-1.794c3.141-1.419,10.664-4.3,14.471-6.005a13.363,13.363,0,0,1,3.051-4.5,25.413,25.413,0,0,0,7.335,5.112c.152.069.321.153.37.312a.588.588,0,0,1-.085.414,5.062,5.062,0,0,1-.4.568l3.318,0a4.958,4.958,0,0,1-.4-.564.588.588,0,0,1-.085-.414c.049-.159.218-.243.37-.312a25.413,25.413,0,0,0,7.335-5.112,13.142,13.142,0,0,1,2.921,4.2c3.339,1.337,11.853,4.611,15.062,6.161a9.478,9.478,0,0,1,2.941,1.782,9.741,9.741,0,0,1,1.75,3.227c2.319,6.054,3.292,12,4.557,18.6H98.447c-.391,9.679-.753,20.352-.9,27.71,0,.149,0,.294-.006.436Z" transform="translate(-14.388 -109.541)" fill="#fff"/>
                <path id="パス_4" data-name="パス 4" d="M171.26,235.579a66.009,66.009,0,0,0,4.667-5.748c.427-.623.793-.958.833-1.425a10.9,10.9,0,0,0-.106-1.82c-.889-9.992-2.207-25.612-3.906-40.19a6.355,6.355,0,0,1,.395-1.739c.244-.751.756-2.474.486-1.861-.273-.331-.543-.659-.8-.97-.444-.544-.84-1.035-1.117-1.395l-3.319,0c-.277.36-.671.849-1.114,1.391l-.552.672c.144.774.422,1.6.6,2.374.033.154.071.3.11.456a4.23,4.23,0,0,1,.165,1.012c-1.234,13.424-2.819,30.015-3.927,41.5a2.587,2.587,0,0,0,.1,1.3,6.109,6.109,0,0,0,.673,1.027,46.884,46.884,0,0,0,4.616,5.464,1.875,1.875,0,0,0,1.033.537,1.581,1.581,0,0,0,1.132-.561l.024-.027Z" transform="translate(-111.916 -123.395)" fill="#65a0d4"/>
                <path id="パス_5" data-name="パス 5" d="M201.155,174.085a28.241,28.241,0,0,0,3.848-5.03c.548-.875,1.076-1.764,1.612-2.646a1.817,1.817,0,0,0,.4-.868,1.662,1.662,0,0,0-.3-.75,14.767,14.767,0,0,0-.915-1.447.78.78,0,0,0-1.038-.272.765.765,0,0,0-.272,1.038,15.314,15.314,0,0,1,1.112,1.814v-.766c-1.676,2.732-3.237,5.568-5.52,7.855a.759.759,0,0,0,1.073,1.073h0Z" transform="translate(-136.682 -111.453)" fill="#d9d9d9"/>
                <path id="パス_6" data-name="パス 6" d="M152.307,173.553c-2.283-2.287-3.844-5.123-5.52-7.855v.766a15.835,15.835,0,0,1,.958-1.6c.553-.807-.761-1.567-1.31-.766a15.017,15.017,0,0,0-.827,1.349,1.023,1.023,0,0,0-.169.923,4.828,4.828,0,0,0,.408.7c.535.883,1.063,1.77,1.613,2.643a27.89,27.89,0,0,0,3.773,4.912.759.759,0,0,0,1.073-1.073h0Z" transform="translate(-99.427 -111.994)" fill="#d9d9d9"/>
                <path id="パス_7" data-name="パス 7" d="M98.412,196.1c.765,5.993,1.118,12.045,1.463,18.074q.618,10.809.942,21.632.084,2.7.151,5.4c.041,1.712.1,3.424.04,5.136-.036.977,1.482.975,1.517,0,.114-3.1-.06-6.214-.153-9.309q-.158-5.292-.379-10.582c-.294-7.079-.651-14.158-1.188-21.224-.232-3.048-.489-6.1-.876-9.131a.783.783,0,0,0-.759-.759.763.763,0,0,0-.759.759Z" transform="translate(-67.3 -133.593)" fill="#d9d9d9"/>
                <path id="パス_8" data-name="パス 8" d="M262.158,245.738c.057-3.487.164-6.974.272-10.46q.184-5.934.41-11.866.22-5.838.473-11.674.215-4.928.466-9.855c.109-2.08.212-4.163.384-6.24.012-.144.024-.288.038-.432a.764.764,0,0,0-.759-.759.775.775,0,0,0-.759.759c-.176,1.887-.266,3.784-.369,5.676q-.257,4.751-.46,9.5-.256,5.768-.475,11.538-.229,5.971-.422,11.943-.169,5.278-.292,10.558-.014.654-.025,1.308a.759.759,0,0,0,1.517,0Z" transform="translate(-178.25 -132.984)" fill="#d9d9d9"/>
                <path id="パス_9" data-name="パス 9" d="M12.485,154.3c-.708-2.8-2.7-9.794-3.429-10.728a1.723,1.723,0,0,0-2.3-.694c-.989.422-.829,1.563-.642,2.507.206,1.039,1.431,5.942,2.146,8.489a1.961,1.961,0,0,0-2.223-.5,1.494,1.494,0,0,0-1,1.51s.069.379.169.923a1.9,1.9,0,0,0-1.836.01c-.677.363-1.36,1.334-1.026,2.034l.448.939-.14-.115a1.7,1.7,0,0,0-2.6.672,3.116,3.116,0,0,0,.531,2.241l.153.251.079.242a18.619,18.619,0,0,0,3.2,6.121c.74.854,1.594,1.7,2.265,2.619a9.186,9.186,0,0,1,1.165,3.031l.146.485c1.734-.641,6.613-2.464,9.209-3.7l-.092-.26a11.562,11.562,0,0,1-.37-3.709,25.25,25.25,0,0,1,1.126-3.3,6.116,6.116,0,0,0,.471-2.763,8.155,8.155,0,0,0-1.195-3.729,2.167,2.167,0,0,0-.583-.55.535.535,0,0,0-.082-.049,5.864,5.864,0,0,0-3.28-.54c-.055-.279-.09-.458-.09-.458-.038-.193-.118-.531-.23-.974Z" transform="translate(-0.001 -97.579)" fill="#fce0cd"/>
                <path id="パス_10" data-name="パス 10" d="M32.207,188.259a11.371,11.371,0,0,0-.32-1.349,3.038,3.038,0,0,0-.508-1.222,2.122,2.122,0,0,0-1.029-.676,4.274,4.274,0,0,0-.671-.135c-.125-.018-.251-.034-.376-.051l-.04-.005-.111-.017c-.079-.015-.159-.027-.236-.049l-.061-.018q-.124-.044.014.007c-.06-.038-.066-.04-.02,0s.041.032-.011-.017q.1.132-.018-.038-.042-.068-.078-.139a.793.793,0,0,1-.086-.37,1.1,1.1,0,0,1,.105-.37c.019-.041.151-.333.188-.331s-.246.171-.059.079c.024-.012.189-.087.078-.044a2.384,2.384,0,0,1,.279-.083,7.518,7.518,0,0,1,1.246-.168.778.778,0,0,0,.759-.759.765.765,0,0,0-.759-.759c-.915.071-2.234.089-2.824.925a2.476,2.476,0,0,0,0,3.008c.624.8,1.565.5,2.36.83-.132-.055.2.134.074.039a.913.913,0,0,1,.161.161c-.1-.126.08.211.027.064a3.314,3.314,0,0,1,.086.349c.125.517.3,1.019.371,1.548a.763.763,0,0,0,.933.53.779.779,0,0,0,.53-.933h0Z" transform="translate(-18.574 -124.288)" fill="#efc0a0"/>
                <path id="パス_11" data-name="パス 11" d="M6.672,202.183c.009.031.013.064.024.095-.067-.194-.015-.148-.015-.052,0,.034-.015.168.005.021s0-.009-.008.024a.812.812,0,0,1-.075.235l.046-.109c-.011.024-.022.048-.034.071s-.037.071-.057.106c-.04.07-.09.134-.132.2.11-.179.06-.076.02-.027-.026.03-.052.059-.079.088-.053.056-.109.106-.166.156-.1.092.146-.1.039-.032-.034.021-.066.043-.1.063s-.148.069-.01.01.013-.009-.021,0-.075.02-.113.027c-.176.036.171-.01.024,0-.083.006-.166.011-.249.01s-.35-.046-.1,0a4.04,4.04,0,0,1-.505-.129c-.143-.047.147.073.023.01-.038-.019-.076-.037-.113-.057a1.836,1.836,0,0,1-.239-.156.762.762,0,0,0-.584-.077.759.759,0,0,0-.53.933.894.894,0,0,0,.349.453,2.923,2.923,0,0,0,1.441.517,2.305,2.305,0,0,0,1.421-.252,2.442,2.442,0,0,0,1.2-2.539.759.759,0,1,0-1.463.4h0Z" transform="translate(-2.525 -137.611)" fill="#efc0a0"/>
                <path id="パス_12" data-name="パス 12" d="M6.972,192.9c.35.588.763,1.126,1.142,1.694.36.539.715,1.08,1.118,1.588a2.526,2.526,0,0,0,1.528.984,2.489,2.489,0,0,0,2.274-.55,2.592,2.592,0,0,0,.643-2.613.759.759,0,0,0-1.463.4,1.21,1.21,0,0,1,.06.578c.015-.132-.029.1-.038.132s-.021.069-.034.1q.048-.108-.008.011a2.4,2.4,0,0,1-.142.228c.1-.135-.067.061-.091.084s-.179.128-.03.032c-.025.016-.242.136-.1.074a1.163,1.163,0,0,1-.857.01,1.782,1.782,0,0,1-.211-.071c.137.059-.077-.057-.1-.064q-.092-.064.062.049c-.022-.019-.044-.038-.065-.058-.039-.042-.081-.08-.12-.122s-.085-.1-.127-.144c-.021-.025-.18-.227-.071-.084-.094-.123-.185-.249-.274-.375-.193-.274-.379-.554-.565-.834-.406-.61-.851-1.19-1.227-1.82a.759.759,0,0,0-1.31.766h0Z" transform="translate(-4.691 -131.151)" fill="#efc0a0"/>
                <path id="パス_13" data-name="パス 13" d="M20.966,187.671c.006.107,0,.212,0,.318,0,.156.031-.066-.013.089-.019.066-.037.133-.056.2q-.046.125,0,0c-.019.039-.039.076-.06.113s-.13.184-.022.051a1.582,1.582,0,0,1-.122.134q-.043.042-.088.081.1-.076.037-.028c-.06.029-.114.076-.173.107s-.192.063-.028.019c-.064.017-.125.043-.189.058s-.248.02-.045.015c-.064,0-.126.007-.191,0,.169.01-.046-.021-.09-.037l.028.01c-.04-.021-.08-.043-.118-.067-.015-.009-.178-.139-.069-.045-.062-.053-.121-.109-.179-.168s-.109-.12-.163-.181c-.106-.118.049.079-.047-.059-.081-.116-.16-.232-.234-.352-.213-.348-.425-.7-.644-1.041-.432-.677-.878-1.347-1.274-2.046a.759.759,0,0,0-1.31.766c.475.84,1.021,1.637,1.532,2.454a5.786,5.786,0,0,0,1.594,1.964,2.144,2.144,0,0,0,2.343-.073,2.532,2.532,0,0,0,1.1-2.285.776.776,0,0,0-.759-.759.766.766,0,0,0-.759.759h0Z" transform="translate(-10.819 -126.16)" fill="#efc0a0"/>
                <path id="パス_14" data-name="パス 14" d="M92.821,171.289c-4.088,1.894-8.339,3.449-12.5,5.178-2.212.919-4.818,1.749-6.17,3.864a10.3,10.3,0,0,0-.887,1.92c-.283.746-.566,1.491-.838,2.241-.5,1.379-.962,2.77-1.406,4.168-.993,3.125-1.953,6.255-3.124,9.32a.765.765,0,0,0,.53.933.776.776,0,0,0,.933-.53c1.034-2.7,1.912-5.459,2.778-8.221a83.666,83.666,0,0,1,2.841-8.141,5.032,5.032,0,0,1,1.1-1.667,6.966,6.966,0,0,1,1.787-1.169c.83-.41,1.729-.783,2.521-1.113,2.157-.9,4.33-1.766,6.5-2.644,2.249-.911,4.509-1.809,6.711-2.829a.765.765,0,0,0,.272-1.038.776.776,0,0,0-1.038-.272h0Z" transform="translate(-46.406 -117.08)" fill="#d9d9d9"/>
                <path id="パス_15" data-name="パス 15" d="M37.554,240.3c-2.009-4.451-3.847-8.972-5.686-13.495a.773.773,0,0,0-1.115-.453q-2.849,1.5-5.815,2.763a33.145,33.145,0,0,1-5.75,1.979.765.765,0,0,0-.53.933c1.131,3.616,2.215,7.248,3.493,10.816.654,1.826,1.362,3.632,2.142,5.409a33.424,33.424,0,0,0,1.946,3.94,10.654,10.654,0,0,0,2.8,3.175,7.259,7.259,0,0,0,4.191,1.327,10.519,10.519,0,0,0,4.808-1.2,13.228,13.228,0,0,0,3.388-2.666,71.567,71.567,0,0,0,5.661-6.595.763.763,0,0,0-.272-1.038.778.778,0,0,0-1.038.272l-.286.374-.181.237-.053.07c.111-.141.023-.032-.039.045q-.545.682-1.105,1.352c-.926,1.109-1.873,2.2-2.855,3.261a18.447,18.447,0,0,1-2.825,2.686,9.408,9.408,0,0,1-4.167,1.63,6.2,6.2,0,0,1-3.9-.7,7.88,7.88,0,0,1-2.583-2.622,27.014,27.014,0,0,1-1.923-3.733q-1.066-2.4-1.968-4.862c-1.4-3.813-2.559-7.707-3.772-11.582l-.53.933a34.692,34.692,0,0,0,6-2.082q3.021-1.282,5.931-2.812l-1.115-.453c1.888,4.644,3.775,9.287,5.839,13.857a.765.765,0,0,0,1.038.272.777.777,0,0,0,.272-1.038h0Z" transform="translate(-12.742 -154.73)" fill="#d9d9d9"/>
                <path id="パス_16" data-name="パス 16" d="M218.106,172.018c4.143,1.673,8.35,3.257,12.451,4.987.849.358,1.737.74,2.586,1.14,1.252.59,2.642,1.105,3.448,2.3A18.558,18.558,0,0,1,238.52,185c.541,1.618,1.007,3.26,1.419,4.915.947,3.8,1.621,7.661,2.356,11.505a.766.766,0,0,0,.933.53.774.774,0,0,0,.53-.933c-.674-3.521-1.3-7.054-2.122-10.543-.4-1.7-.857-3.393-1.387-5.061a33.932,33.932,0,0,0-1.821-4.827,6.538,6.538,0,0,0-1.444-2,8.584,8.584,0,0,0-2.066-1.278c-.92-.437-1.842-.866-2.777-1.269-2.321-1-4.669-1.941-7.018-2.873-2.2-.875-4.415-1.728-6.614-2.616a.764.764,0,0,0-.933.53.777.777,0,0,0,.53.933h0Z" transform="translate(-148.779 -116.614)" fill="#d9d9d9"/>
                <g id="e-2" data-name="e" transform="translate(61.031 81.02)">
                  <path id="パス_17" data-name="パス 17" d="M227.585,278.2c1.682-1.5,8.184-7.24,9.611-8.667A10.061,10.061,0,0,0,231.1,266.9a20.58,20.58,0,0,0-6.9.367,14.482,14.482,0,0,0-6.82,3.795,11.4,11.4,0,0,0-7.4-2.75,19.053,19.053,0,0,0-7.688,1.38,8.4,8.4,0,0,0-4.691,4.044c1.522,1.331,8.679,6.235,10.263,7.492Z" transform="translate(-196.168 -263.463)" fill="#3f88c9"/>
                  <path id="パス_18" data-name="パス 18" d="M194.15,262.537a10.6,10.6,0,0,0-1.082,1.191,20.5,20.5,0,0,0,1.857,1.715l.182.135a8.635,8.635,0,0,1,4.086-3.049,19.052,19.052,0,0,1,7.688-1.38,11.4,11.4,0,0,1,7.4,2.75,14.481,14.481,0,0,1,6.82-3.795,20.581,20.581,0,0,1,6.9-.367,11.155,11.155,0,0,1,3.982,1.136l.052-.052c.4-.383,1.211-1.191,1.9-1.917-2.482-1.877-3.874-2.157-6.8-2.442a21.213,21.213,0,0,0-6.936.254c-2.178.544-4.971,1.452-6.518,3.174a12.686,12.686,0,0,0-6.8-2.01,19.052,19.052,0,0,0-7.688,1.38,13.733,13.733,0,0,0-3.158,1.683,21.818,21.818,0,0,0-1.884,1.594Z" transform="translate(-193.068 -256.301)" fill="#fff"/>
                  <path id="パス_19" data-name="パス 19" d="M240.953,286.966q-.138-.111-.278-.22a2.577,2.577,0,0,0-3.286-.381l-.658.572c-.5-.532-.927-.974-1.109-1.131a2.049,2.049,0,0,0-1.966-.442c-.775.289-1.1.713-1.1,1.362l-.074.552c-.411-.435-.781-.81-1.064-1.063a2.012,2.012,0,0,0-2.18-.206,1.259,1.259,0,0,0-.394,1.806,2.407,2.407,0,0,1,.114.216l-.174-.091a1.765,1.765,0,0,0-2.5.9,2.532,2.532,0,0,0,.2,1.658,35.4,35.4,0,0,0,3.883,4.66c2.715,1.92,7.047.583,10.517-.224a4.581,4.581,0,0,0,1.375-.591,17.992,17.992,0,0,0,3.026-3.179,8.256,8.256,0,0,0,1.19-1.443,3.056,3.056,0,0,0,.438-2.141,1.612,1.612,0,0,0-.607-.963,1.952,1.952,0,0,0-1.779.056,8.849,8.849,0,0,0-2.358,1.426,10.979,10.979,0,0,0-1.22-1.133Z" transform="translate(-215.746 -276.112)" fill="#fce0cd"/>
                  <path id="パス_20" data-name="パス 20" d="M261.751,291.979c-.3-.279-.57-.587-.848-.885-.45-.481-.9-.964-1.348-1.445a.765.765,0,0,0-1.073,0,.774.774,0,0,0,0,1.073q.675.721,1.348,1.445c.278.3.551.606.848.885a.759.759,0,0,0,1.073-1.073Z" transform="translate(-237.656 -278.958)" fill="#efc0a0"/>
                  <path id="パス_21" data-name="パス 21" d="M233.558,294.053a54.284,54.284,0,0,0,3.761,4.28.759.759,0,0,0,1.073-1.073,54.23,54.23,0,0,1-3.761-4.28.761.761,0,0,0-1.073,0,.78.78,0,0,0,0,1.073Z" transform="translate(-220.612 -281.234)" fill="#efc0a0"/>
                  <path id="パス_22" data-name="パス 22" d="M248.687,293.568c-.953-1.032-1.878-2.091-2.835-3.12a.765.765,0,0,0-1.073,0,.775.775,0,0,0,0,1.073c.957,1.029,1.882,2.088,2.835,3.12a.764.764,0,0,0,1.073,0,.775.775,0,0,0,0-1.073Z" transform="translate(-228.285 -279.503)" fill="#efc0a0"/>
                </g>
                <g id="f" transform="translate(49.552 27.313)">
                  <path id="パス_23" data-name="パス 23" d="M175.08,126.365a6.692,6.692,0,0,0,3.224.744,5.228,5.228,0,0,0,3.236-.947.763.763,0,0,0,0-1.073.778.778,0,0,0-1.073,0c.225-.175.031-.028-.027.009s-.133.081-.2.117c-.048.025-.286.124-.1.052-.093.035-.185.071-.279.1a4.793,4.793,0,0,1-1.664.222,4.985,4.985,0,0,1-1.588-.214c-.1-.031-.2-.067-.3-.1-.033-.011-.064-.028-.1-.038.187.055.054.024,0,0q-.188-.088-.371-.185a.775.775,0,0,0-1.038.272.767.767,0,0,0,.272,1.038Z" transform="translate(-169.033 -112.713)" fill="#efc0a0"/>
                  <path id="パス_24" data-name="パス 24" d="M183.775,103.306a15.293,15.293,0,0,1,.361,1.652l-.027-.2a1,1,0,0,1,.006.228l.027-.2a.573.573,0,0,1-.025.1l.077-.181a.384.384,0,0,1-.036.066l.119-.154a.36.36,0,0,1-.054.053l.154-.119a1.075,1.075,0,0,1-.131.069l.181-.076a.961.961,0,0,1-.221.064l.2-.027a.889.889,0,0,1-.207,0l.2.027c-.078-.011-.155-.03-.233-.04a.839.839,0,0,0-.585.076.758.758,0,0,0-.272,1.038.727.727,0,0,0,.453.349c.17.023.335.066.507.074a1.61,1.61,0,0,0,.738-.174,1.045,1.045,0,0,0,.585-.691,1.773,1.773,0,0,0-.008-.755c-.09-.532-.213-1.06-.35-1.582a.759.759,0,1,0-1.463.4h0Z" transform="translate(-174.848 -97.303)" fill="#efc0a0"/>
                  <path id="パス_25" data-name="パス 25" d="M156.86,87.749c-.276.9-.1,2.959,1.6,3.135,2.245-.013,2.365-2.507,1.609-3.68A1.778,1.778,0,0,0,156.86,87.749Z" transform="translate(-156.755 -86.402)" fill="#645d5c"/>
                  <path id="パス_26" data-name="パス 26" d="M206.111,87.749c.276.9.1,2.959-1.6,3.135-2.245-.014-2.365-2.507-1.609-3.68A1.778,1.778,0,0,1,206.111,87.749Z" transform="translate(-188.027 -86.402)" fill="#645d5c"/>
                </g>
              </g>
            </g>
          </g>
        </g>
      </g>
      <g id="グループ_986" data-name="グループ 986" transform="translate(22.294 74.313)">
        <g id="グループ_985-2" data-name="グループ 985" transform="translate(0 0)">
          <rect id="長方形_320-2" data-name="長方形 320" width="39.53" height="16.529" rx="8.264" fill="#49b2f4"/>
          <path id="パス_904" data-name="パス 904" d="M-9.35.82A3.806,3.806,0,0,0-9.64.26a2.808,2.808,0,0,0-.4-.53A4.43,4.43,0,0,0-8.41-.91a2.648,2.648,0,0,0,.915-1.06A3.832,3.832,0,0,0-7.16-3.42H-9.97V-4.53h3.95V-5.76H-7.91a6.192,6.192,0,0,1-.77,1.04,4.022,4.022,0,0,0-.52-.355,3.911,3.911,0,0,0-.56-.275,4.723,4.723,0,0,0,.505-.61,8.272,8.272,0,0,0,.48-.765,7.48,7.48,0,0,0,.39-.81A5.08,5.08,0,0,0-8.14-8.28l1.19.35a10.123,10.123,0,0,1-.39,1.07h1.32V-8.41h1.28v1.55H-1.9v1.1H-4.74v1.23h3.73v1.11H-3.92V-.85a.271.271,0,0,0,.075.215.473.473,0,0,0,.3.065h.8a.873.873,0,0,0,.415-.08A.562.562,0,0,0-2.1-.98a4.377,4.377,0,0,0,.155-.74,3.343,3.343,0,0,0,.345.155q.215.085.445.16t.39.115A4.173,4.173,0,0,1-1.055-.165a1.178,1.178,0,0,1-.5.575,1.686,1.686,0,0,1-.8.17H-4.02A1.485,1.485,0,0,1-4.89.39a.729.729,0,0,1-.25-.62V-3.42h-.8A4.55,4.55,0,0,1-6.825-.76,4.737,4.737,0,0,1-9.35.82ZM1.11.29V-.78H5.02V-2.64H2.49V-3.73H5.02V-5.28H2.93q-.28.47-.575.89a7.658,7.658,0,0,1-.575.73,1.8,1.8,0,0,0-.295-.225q-.2-.125-.4-.24A2.126,2.126,0,0,0,.73-4.29a4.828,4.828,0,0,0,.625-.745A10.9,10.9,0,0,0,2-6.075q.31-.565.545-1.105a4.694,4.694,0,0,0,.315-.95l1.15.38a7.215,7.215,0,0,1-.52,1.4H5.02V-8.33H6.28v1.98H9.53v1.07H6.28v1.55h2.5v1.09H6.28V-.78H9.89V.29Z" transform="translate(19.481 11.733)" fill="#fff"/>
        </g>
      </g>
    </g>
    <g id="グループ_1005" data-name="グループ 1005" transform="translate(149.389 2550.155) rotate(-7)">
      <path id="パス_840" data-name="パス 840" d="M0,12.683s35.541-28.537,76.956,0" transform="translate(0 4.789)" fill="none" stroke="#fff7cb" stroke-width="15"/>
      <path id="多角形_23" data-name="多角形 23" d="M17.122,3.159a3,3,0,0,1,4.784,0l13.48,17.8a3,3,0,0,1-2.392,4.811H6.034a3,3,0,0,1-2.392-4.811Z" transform="matrix(-0.559, 0.829, -0.829, -0.559, 106.779, 14.412)" fill="#fff7cb"/>
    </g>
    <path id="パス_906" data-name="パス 906" d="M-8.414,1.092A3.9,3.9,0,0,0-9.023.644,4.816,4.816,0,0,0-9.716.28a5.148,5.148,0,0,0,.693-.847A8.674,8.674,0,0,0-8.386-1.7a10.844,10.844,0,0,0,.5-1.267A6.439,6.439,0,0,0-7.6-4.2l1.526.336a7.237,7.237,0,0,1-.154.756q-.1.378-.21.742a3.529,3.529,0,0,0,.952,1.008V-4.536H-8.344V-5.978H-.77v1.442H-3.906v1.022h2.618v1.386H-3.906V-.742A6.129,6.129,0,0,0-2.87-.658,17.707,17.707,0,0,0-.518-.77,5,5,0,0,0-.7-.007Q-.784.476-.812.826H-2.87A6.262,6.262,0,0,1-5.306.406,4.08,4.08,0,0,1-7-.952,8.025,8.025,0,0,1-8.414,1.092Zm-4.34-.1a5.267,5.267,0,0,0-.07-.532Q-12.88.14-12.95-.175a3.034,3.034,0,0,0-.14-.483h.91a.67.67,0,0,0,.4-.091.431.431,0,0,0,.119-.357v-2.24q-.532.21-.973.364t-.637.21l-.378-1.694q.336-.07.868-.231t1.12-.343V-7.532h-1.764v-1.54h1.764v-2.646h1.61v2.646h1.246v1.54h-1.246v1.946q.462-.168.819-.3a3.638,3.638,0,0,0,.525-.231v1.554q-.182.1-.539.252t-.805.336V-.392A1.271,1.271,0,0,1-10.465.665a1.99,1.99,0,0,1-1.253.329Zm4.816-7.616v-4.8h6.426v4.8Zm1.6-1.19h3.234V-8.47H-6.342Zm0-1.764h3.234v-.644H-6.342ZM1.232.462V-4.564H2.954v3.388H6.118V-5.362H1.68v-5.152H3.472v3.542H6.118v-4.592h1.75v4.592h2.618v-3.542h1.806v5.152H7.868v4.186h3.164V-4.564h1.736V.462Z" transform="translate(194.08 2557.8)" fill="#f88f00"/>
  </g>
</svg>
