<svg xmlns="http://www.w3.org/2000/svg" width="340" height="522.365" viewBox="0 0 340 522.365">
  <g id="fukidashi-sp" transform="translate(0 1194)" fill="#fff">
    <path d="M 249.0002746582031 -675.2792358398438 L 235.0509033203125 -696.519775390625 L 234.4584350585938 -697.4219360351562 L 233.3791809082031 -697.4219360351562 L 19.99983978271484 -697.4219360351562 C 15.19184017181396 -697.4219360351562 10.67170715332031 -699.294189453125 7.271973609924316 -702.6939086914062 C 3.872306823730469 -706.0935668945312 2.000040054321289 -710.6137084960938 2.000040054321289 -715.4216918945312 L 2.000040054321289 -1173.999633789062 C 2.000040054321289 -1178.8076171875 3.872373580932617 -1183.328002929688 7.272040367126465 -1186.72802734375 C 10.67177391052246 -1190.1279296875 15.19197368621826 -1192.000366210938 19.99983978271484 -1192.000366210938 L 320.0003662109375 -1192.000366210938 C 324.8083190917969 -1192.000366210938 329.3284301757812 -1190.1279296875 332.7281799316406 -1186.727905273438 C 336.1278991699219 -1183.328002929688 338.000244140625 -1178.8076171875 338.000244140625 -1173.999633789062 L 338.000244140625 -715.4216918945312 C 338.000244140625 -710.61376953125 336.1279602050781 -706.0935668945312 332.7282409667969 -702.6939086914062 C 329.3285827636719 -699.294189453125 324.8083801269531 -697.4219360351562 320.0003662109375 -697.4219360351562 L 264.620849609375 -697.4219360351562 L 263.5415649414062 -697.4219360351562 L 262.9490966796875 -696.519775390625 L 249.0002746582031 -675.2792358398438 Z" stroke="none"/>
    <path d="M 249.000244140625 -678.9227294921875 L 262.4622497558594 -699.421875 L 320.0003967285156 -699.421875 C 324.274169921875 -699.421875 328.2921142578125 -701.086181640625 331.3140258789062 -704.1080932617188 C 334.3359680175781 -707.1300659179688 336.000244140625 -711.14794921875 336.000244140625 -715.4216918945312 L 336.000244140625 -1173.999633789062 C 336.000244140625 -1178.2734375 334.3359680175781 -1182.29150390625 331.31396484375 -1185.313720703125 C 328.2919616699219 -1188.3359375 324.2740478515625 -1190.000366210938 320.0003967285156 -1190.000366210938 L 19.99982070922852 -1190.000366210938 C 15.72617816925049 -1190.000366210938 11.7083215713501 -1188.3359375 8.686321258544922 -1185.313720703125 C 5.664320945739746 -1182.29150390625 4.000035285949707 -1178.2734375 4.000035285949707 -1173.999633789062 L 4.000035285949707 -715.4216918945312 C 4.000035285949707 -711.14794921875 5.664320945739746 -707.1300659179688 8.686249732971191 -704.1080932617188 C 11.70817852020264 -701.086181640625 15.72603511810303 -699.421875 19.99982070922852 -699.421875 L 235.5377502441406 -699.421875 L 249.000244140625 -678.9227294921875 M 249.0003204345703 -671.6358032226562 L 233.3791809082031 -695.421875 L 19.99982070922852 -695.421875 C 8.954107284545898 -695.421875 3.538295277394354e-05 -704.3760375976562 3.538295277394354e-05 -715.4216918945312 L 3.538295277394354e-05 -1173.999633789062 C 3.538295277394354e-05 -1185.045288085938 8.954107284545898 -1194.000366210938 19.99982070922852 -1194.000366210938 L 320.0003967285156 -1194.000366210938 C 331.0461120605469 -1194.000366210938 340.000244140625 -1185.045288085938 340.000244140625 -1173.999633789062 L 340.000244140625 -715.4216918945312 C 340.000244140625 -704.3760375976562 331.0461120605469 -695.421875 320.0003967285156 -695.421875 L 264.6208190917969 -695.421875 L 249.0003204345703 -671.6358032226562 Z" stroke="none" fill="#ededed"/>
  </g>
</svg>
