<svg xmlns="http://www.w3.org/2000/svg" width="675" height="270" viewBox="0 0 675 270">
  <g id="fukidashi" transform="translate(0 1194)" fill="#fff">
    <path d="M 337.5 -928.6394653320312 L 318.2822570800781 -968.8626098632812 L 317.7386779785156 -970.0004272460938 L 316.4776611328125 -970.0004272460938 L 19.99983406066895 -970.0004272460938 C 15.19183349609375 -970.0004272460938 10.67166709899902 -971.8726806640625 7.271999835968018 -975.2724609375 C 3.872250080108643 -978.672119140625 2 -983.1922607421875 2 -988.0003051757812 L 2 -1173.999633789062 C 2 -1178.807739257812 3.872333288192749 -1183.328002929688 7.271999835968018 -1186.727905273438 C 10.67175006866455 -1190.1279296875 15.19191646575928 -1192.000366210938 19.99983406066895 -1192.000366210938 L 655.000244140625 -1192.000366210938 C 659.80810546875 -1192.000366210938 664.3282470703125 -1190.1279296875 667.72802734375 -1186.727905273438 C 671.127685546875 -1183.328002929688 673 -1178.807739257812 673 -1173.999633789062 L 673 -988.0003051757812 C 673 -983.1922607421875 671.1277465820312 -978.672119140625 667.72802734375 -975.2724609375 C 664.3283081054688 -971.8726806640625 659.8082275390625 -970.0004272460938 655.000244140625 -970.0004272460938 L 358.5223388671875 -970.0004272460938 L 357.2613220214844 -970.0004272460938 L 356.7177429199219 -968.8626098632812 L 337.5 -928.6394653320312 Z" stroke="none"/>
    <path d="M 337.5 -933.2787475585938 L 356.0003662109375 -972.0004272460938 L 655.000244140625 -972.0004272460938 C 659.2739868164062 -972.0004272460938 663.2919311523438 -973.6647338867188 666.3138427734375 -976.6866455078125 C 669.3357543945312 -979.7085571289062 671 -983.7265625 671 -988.0003051757812 L 671 -1173.999633789062 C 671 -1178.2734375 669.3357543945312 -1182.29150390625 666.313720703125 -1185.313842773438 C 663.291748046875 -1188.336059570312 659.27392578125 -1190.000366210938 655.000244140625 -1190.000366210938 L 19.99981880187988 -1190.000366210938 C 15.72618198394775 -1190.000366210938 11.70827293395996 -1188.336059570312 8.686272621154785 -1185.313842773438 C 5.664272785186768 -1182.29150390625 4 -1178.2734375 4 -1173.999633789062 L 4 -988.0003051757812 C 4 -983.7265625 5.664272785186768 -979.7085571289062 8.686182022094727 -976.6866455078125 C 11.70809078216553 -973.6647338867188 15.7260913848877 -972.0004272460938 19.99981880187988 -972.0004272460938 L 318.9996337890625 -972.0004272460938 L 337.5 -933.2787475585938 M 337.5 -924.0003051757812 L 316.4776306152344 -968.0004272460938 L 19.99981880187988 -968.0004272460938 C 8.95409107208252 -968.0004272460938 0 -976.9545288085938 0 -988.0003051757812 L 0 -1173.999633789062 C 0 -1185.045288085938 8.95409107208252 -1194.000366210938 19.99981880187988 -1194.000366210938 L 655.000244140625 -1194.000366210938 C 666.0458984375 -1194.000366210938 675 -1185.045288085938 675 -1173.999633789062 L 675 -988.0003051757812 C 675 -976.9545288085938 666.0458984375 -968.0004272460938 655.000244140625 -968.0004272460938 L 358.5223693847656 -968.0004272460938 L 337.5 -924.0003051757812 Z" stroke="none" fill="#ededed"/>
  </g>
</svg>
