<svg xmlns="http://www.w3.org/2000/svg" xmlns:xlink="http://www.w3.org/1999/xlink" width="140" height="140" viewBox="0 0 140 140">
  <defs>
    <clipPath id="clip-path">
      <circle id="楕円形_4" data-name="楕円形 4" cx="70" cy="70" r="70" transform="translate(-241 4655)" fill="#fff" stroke="#707070" stroke-width="1"/>
    </clipPath>
  </defs>
  <g id="student2" transform="translate(241 -4655)">
    <circle id="楕円形_3" data-name="楕円形 3" cx="69.5" cy="69.5" r="69.5" transform="translate(-241 4655)" fill="#fff7cb"/>
    <g id="マスクグループ_4" data-name="マスクグループ 4" clip-path="url(#clip-path)">
      <g id="c" transform="translate(-229.115 4676.227)">
        <g id="d" transform="translate(0 0)">
          <path id="パス_53" data-name="パス 53" d="M113.03,129.254c-.514-.175-8.946-4.12-9.121-4.184-2.664-.961-2.56-2.676-2.9-4.591a36.3,36.3,0,0,1-.534-4.364c6.923-2.939,12.5-12.264,13.469-14.9.146-.442.442-1.275.707-2.263.355-.063.555-.093.555-.093a6.94,6.94,0,0,0,3.229-1.455,10.471,10.471,0,0,0,2.708-3.554,16.478,16.478,0,0,0,1.68-8.735,5.493,5.493,0,0,0-.576-2.212,3.889,3.889,0,0,0-2.8-1.859,4.118,4.118,0,0,0-3.3.964s2.87-23.078-27.739-23.078c-28.781,0-27.538,23.078-27.538,23.078a4.119,4.119,0,0,0-3.3-.964,3.888,3.888,0,0,0-2.8,1.859,5.5,5.5,0,0,0-.576,2.212,16.479,16.479,0,0,0,1.68,8.735A10.477,10.477,0,0,0,58.6,97.406a6.941,6.941,0,0,0,3.229,1.455l1.053.16a28.019,28.019,0,0,0,5.341,10.426,24.129,24.129,0,0,0,8.011,6.477,36.244,36.244,0,0,1-.546,4.554c-.336,1.917-.231,3.631-2.9,4.593-.176.064-8.607,4.007-9.12,4.182,0,0,.17,14.678,24.277,14.678s25.079-14.678,25.079-14.678Z" transform="translate(-32.556 -35.428)" fill="#fce0cd"/>
          <path id="パス_54" data-name="パス 54" d="M112.143,260.92c-1.016-2.1-1.88-4.28-3.048-6.308-1.034-1.8-2.938-6.1-6.818-9.541a65.3,65.3,0,0,0-14.8-9.1c-1.393-.649-2.963-1.4-4.548-2.13l-.053.037a44.555,44.555,0,0,1-50.852.022l-.071-.05c-1.579.725-3.142,1.475-4.53,2.121a65.306,65.306,0,0,0-14.8,9.1c-3.879,3.44-5.784,7.746-6.818,9.541-1.168,2.028-2.032,4.205-3.048,6.308Z" transform="translate(-1.656 -140.578)" fill="#fff"/>
          <path id="パス_55" data-name="パス 55" d="M191.165,27.21c1.621,1.794,4.862,3.053,8.464,3.07a15.125,15.125,0,0,0,9.521-3.154,3.261,3.261,0,0,0,.94-1.1.985.985,0,0,0,.1-.5c-.006-.071-.064-.339-.153-.355-2.208-.4-3.1-2.487-3.326-4.707s.045-4.585-.284-6.8a20.092,20.092,0,0,0-2.251-7.206c-3.416-5.474-7.046-6.167-10-6.429a10.912,10.912,0,0,0-8.386,3.255,8.719,8.719,0,0,0-1.994,7.367Z" transform="translate(-110.399 0)" fill="#645d5c"/>
          <path id="パス_56" data-name="パス 56" d="M118.781,54.451a4.119,4.119,0,0,1,3.3-.964,3.936,3.936,0,0,1,.936.261,43.585,43.585,0,0,0,.714-9.971,32.145,32.145,0,0,0-4.532-15.429,30.284,30.284,0,0,0-4.17-5.338c-.635-.649-1.6-1.6-2.256-2.176a37.483,37.483,0,0,0-5.487-3.683,32.144,32.144,0,0,0-4.792-2.174,33.756,33.756,0,0,0-11.36-1.886,32.173,32.173,0,0,0-19.245,5.994A31.379,31.379,0,0,0,58.535,43.777a40,40,0,0,0,.2,5.079,37.636,37.636,0,0,0,.832,4.781,4.012,4.012,0,0,1,.637-.15,4.118,4.118,0,0,1,3.3.964c8.792-2.018,18.832-7.763,20.926-8.73,7.916-1.794,15.5-5.411,20.091-11.055a53.665,53.665,0,0,0,3.739,9.8c1.661,2.784,6.475,9.047,10.522,9.984" transform="translate(-35.178 -7.87)" fill="#645d5c"/>
          <path id="パス_57" data-name="パス 57" d="M14.551,251.467A31.06,31.06,0,0,0,7,258.26a53.766,53.766,0,0,0-4,6.612c-1.077,1.935-1.908,3.993-2.866,5.986a1.147,1.147,0,0,0,.4,1.528,1.127,1.127,0,0,0,1.528-.4c.826-1.717,1.556-3.48,2.431-5.173.538-1.041,1.118-2.066,1.679-3.1a26.921,26.921,0,0,1,5.449-7.237,36.824,36.824,0,0,1,4.056-3.084,1.145,1.145,0,0,0,.4-1.528,1.127,1.127,0,0,0-1.528-.4h0Z" transform="translate(0 -151.08)" fill="#d9d9d9"/>
          <path id="パス_58" data-name="パス 58" d="M239.744,253.466a27.663,27.663,0,0,1,6.94,6.274,55.262,55.262,0,0,1,3.857,6.462c1.035,1.888,1.845,3.887,2.777,5.825a1.127,1.127,0,0,0,1.528.4,1.141,1.141,0,0,0,.4-1.528c-2.718-5.652-5.237-11.816-10.04-16.075a42.225,42.225,0,0,0-4.335-3.288,1.117,1.117,0,1,0-1.127,1.929h0Z" transform="translate(-143.795 -151.122)" fill="#d9d9d9"/>
          <path id="パス_59" data-name="パス 59" d="M173.512,245.5c3.036-1.413,13.783-8.965,13.529-9.352-.9-1.376-10.367-5.507-16.973-8.65-3.625-1.725-6.17-3.3-6.81-3.613-4.516,7.41-12.127,20.406-16.737,28.031,4.94,1.013,13.206,0,26.99-6.415Z" transform="translate(-88.084 -134.591)" fill="#5394cf"/>
          <path id="パス_60" data-name="パス 60" d="M46.1,245.5c-3.036-1.413-13.783-8.965-13.529-9.352.9-1.376,10.367-5.507,16.973-8.65,3.625-1.725,6.17-3.3,6.81-3.613,4.516,7.41,12.127,20.406,16.737,28.031-4.94,1.013-13.206,0-26.99-6.415Z" transform="translate(-19.575 -134.591)" fill="#5394cf"/>
          <path id="パス_61" data-name="パス 61" d="M154.038,259.621a55.4,55.4,0,0,0,14.923-4.679,79.879,79.879,0,0,0,12.351-6.848,28.026,28.026,0,0,0,4.1-3.232,1.117,1.117,0,0,0-1.579-1.579,16.8,16.8,0,0,1-1.386,1.227q-.2.162-.4.319c.155-.12.01-.008-.06.045l-.261.2q-.52.388-1.053.76c-1.7,1.194-3.477,2.292-5.283,3.328a77.634,77.634,0,0,1-13.734,6.292,45.218,45.218,0,0,1-8.207,2.016,1.124,1.124,0,0,0-.78,1.374,1.147,1.147,0,0,0,1.374.78h0Z" transform="translate(-91.756 -146.056)" fill="#fff"/>
          <path id="パス_62" data-name="パス 62" d="M77.34,257.467a53.511,53.511,0,0,1-14.458-4.484,80.159,80.159,0,0,1-12.192-6.756q-.625-.425-1.236-.869-.272-.2-.54-.4l-.256-.194c.172.132-.024-.019-.088-.069a17.742,17.742,0,0,1-1.618-1.412,1.117,1.117,0,0,0-1.579,1.579A26.137,26.137,0,0,0,48.9,247.7c1.712,1.205,3.495,2.311,5.31,3.355a80.953,80.953,0,0,0,14.182,6.5,45.423,45.423,0,0,0,8.35,2.065,1.155,1.155,0,0,0,1.374-.78,1.124,1.124,0,0,0-.78-1.374h0Z" transform="translate(-27.08 -146.055)" fill="#fff"/>
          <path id="パス_63" data-name="パス 63" d="M123.976,279.1c.222,2.016.927,5.465,1.2,7.44a24.707,24.707,0,0,0,5.856,1.53,16.836,16.836,0,0,0,5.191-1.62,44.769,44.769,0,0,0,1.163-7.35c-.429-.112-12.333,0-13.413,0Z" transform="translate(-74.531 -167.758)" fill="#f2635f"/>
          <path id="パス_64" data-name="パス 64" d="M104.284,78.879a1.569,1.569,0,0,1,.042-1.514,1.805,1.805,0,0,1,.829-.491l1.81-.667a2.092,2.092,0,0,1,2.376.675,43.2,43.2,0,0,1,4.315,6.777,2.079,2.079,0,0,1-.818,2.745,20.126,20.126,0,0,1-2.759,1.305,2.083,2.083,0,0,1-2.659-1.171L104.4,79.173c-.039-.095-.077-.193-.113-.293Z" transform="translate(-62.589 -45.735)" fill="#4d4544"/>
          <g id="e" transform="translate(41.328 46.792)">
            <path id="パス_65" data-name="パス 65" d="M127.613,169.43a10.77,10.77,0,0,0,5.186,1.2,8.382,8.382,0,0,0,5.181-1.506,1.123,1.123,0,0,0,0-1.579,1.145,1.145,0,0,0-1.579,0c.322-.251.014-.019-.068.034-.107.069-.217.132-.329.191-.065.034-.431.2-.184.1q-.224.091-.454.165a8.339,8.339,0,0,1-2.738.366,8.7,8.7,0,0,1-2.614-.352c-.166-.05-.328-.109-.492-.166-.053-.019-.106-.042-.159-.062.272.1.031.014-.02-.01-.2-.1-.4-.2-.6-.3a1.141,1.141,0,0,0-1.528.4,1.129,1.129,0,0,0,.4,1.528h0Z" transform="translate(-117.717 -147.322)" fill="#efc0a0"/>
            <path id="パス_66" data-name="パス 66" d="M138.944,139.59a24.876,24.876,0,0,1,.587,2.688l-.04-.3a1.6,1.6,0,0,1,.01.371l.04-.3a.915.915,0,0,1-.041.167l.112-.267a.652.652,0,0,1-.059.107l.175-.226a.563.563,0,0,1-.088.087l.226-.175a1.691,1.691,0,0,1-.213.112l.267-.112a1.542,1.542,0,0,1-.359.1l.3-.04a1.418,1.418,0,0,1-.337,0l.3.04c-.127-.018-.252-.049-.378-.066a1.237,1.237,0,0,0-.861.112,1.117,1.117,0,0,0-.4,1.528,1.07,1.07,0,0,0,.667.513c.266.036.524.1.794.116a2.485,2.485,0,0,0,1.141-.267,1.591,1.591,0,0,0,.9-1.054,2.754,2.754,0,0,0-.013-1.165c-.146-.866-.347-1.724-.569-2.574a1.117,1.117,0,0,0-2.154.593h0Z" transform="translate(-124.308 -129.856)" fill="#efc0a0"/>
            <path id="パス_67" data-name="パス 67" d="M103.795,119.515c-.449,1.459-.156,4.814,2.607,5.1,3.652-.022,3.847-4.079,2.618-5.986-1.007-1.562-3.967-2.212-5.225.887Z" transform="translate(-103.624 -117.323)" fill="#645d5c"/>
            <path id="パス_68" data-name="パス 68" d="M168.49,119.515c.449,1.459.156,4.814-2.607,5.1-3.652-.022-3.847-4.079-2.618-5.986C164.272,117.067,167.232,116.418,168.49,119.515Z" transform="translate(-139.069 -117.323)" fill="#645d5c"/>
          </g>
        </g>
      </g>
      <path id="パス_739" data-name="パス 739" d="M9.711,131.134c-.145-.264-.288-.535-.442-.816-.774-1.43-1.53-2.8-2.3-3.133a3.014,3.014,0,0,0-2.038.1,2.419,2.419,0,0,0-.7,1.964,32.427,32.427,0,0,0,1.124,5.442,42.206,42.206,0,0,0,2.54,7.735,12.954,12.954,0,0,0,4.307,4.69c.014.435.027.837.027.837a26.124,26.124,0,0,0,.427,3.288c4.5.576,11.6,1,14.7,1.165,0-1.026.066-1.924.108-2.625v-.016c.127-.906,3.122-7.323,5.034-10.78,1.61-3.447,3.266-6.39,4.972-9.792a15.392,15.392,0,0,0,1.29-2.851,2.608,2.608,0,0,0-.259-2.459,1.828,1.828,0,0,0-2.463-.41,4.155,4.155,0,0,0-1.617,1.895c-1.364,2.4-2.822,4.572-4.271,6.888l.268-.678,1.572-3.978c.526-1.325,3.276-8.049,3.72-9.2a4.759,4.759,0,0,0,.327-3.292,2.037,2.037,0,0,0-1.054-1.068,2.929,2.929,0,0,0-1.362-.033c-1.217.268-1.652,1.306-2.467,2.6l-.2.321.385-1.029a16.946,16.946,0,0,0,1.027-3.826,2.713,2.713,0,0,0-1.932-2.482,2.507,2.507,0,0,0-2.56,1.377c-1.007,1.738-4.861,10.157-6.8,14.724a17.551,17.551,0,0,0-2.573-2.952,6.369,6.369,0,0,0-4.262-2.035c-1.312-.006-2.405.812-3.546,1.477-1.012.59-2.877,1.434-3.036,2.262a2.333,2.333,0,0,0,2.3,2.683,22.687,22.687,0,0,0,2.959-.782,2.975,2.975,0,0,1,2.846,1.555,5.474,5.474,0,0,1,.565,3.28,4.332,4.332,0,0,1-.966,2.76,2.7,2.7,0,0,1-3.657,0,11.456,11.456,0,0,1-1.988-2.806Z" transform="translate(-144.727 4630.674)" fill="#fce0cd"/>
    </g>
  </g>
</svg>
