<svg width="1930" height="915" viewBox="0 0 1930 915" fill="none" xmlns="http://www.w3.org/2000/svg">
<g clip-path="url(#clip0_1_2)">
<rect width="1930" height="915" fill="white"/>
<path opacity="0.163" d="M1931.75 -0.743103H-3.24854V915.257H1931.75V-0.743103Z" fill="url(#paint0_linear_1_2)"/>
<path d="M991.662 775.613L1310.21 569.113C1346.31 545.713 1395.68 555.086 1419.91 589.947C1444.15 624.807 1434.44 672.473 1398.34 695.873L1079.79 902.373C1043.69 925.773 994.33 916.4 970.093 881.54C945.859 846.68 955.567 799.014 991.668 775.614L991.662 775.613Z" fill="url(#paint1_linear_1_2)"/>
<path d="M1282.16 308.904L1757.52 -10.218C1759.85 -11.772 1762.7 -12.3411 1765.44 -11.8008C1768.19 -11.2605 1770.61 -9.65481 1772.17 -7.33505L1772.7 -6.54105C1774.26 -4.21425 1774.83 -1.36669 1774.29 1.37863C1773.75 4.12396 1772.14 6.54351 1769.82 8.10794L1294.46 327.224C1292.13 328.778 1289.28 329.347 1286.54 328.807C1283.79 328.266 1281.37 326.661 1279.81 324.341L1279.28 323.547C1277.72 321.22 1277.15 318.373 1277.69 315.627C1278.23 312.882 1279.84 310.462 1282.16 308.898L1282.16 308.904Z" fill="url(#paint2_linear_1_2)"/>
<path d="M1570.17 278.06L1836.96 98.9599C1851.56 89.2236 1869.41 85.659 1886.63 89.0448C1903.84 92.4306 1919.02 102.492 1928.84 117.03C1938.57 131.625 1942.14 149.479 1938.75 166.694C1935.37 183.908 1925.3 199.083 1910.77 208.903L1643.98 388.003C1629.39 397.739 1611.53 401.304 1594.32 397.919C1577.1 394.533 1561.93 384.472 1552.11 369.934C1542.37 355.339 1538.81 337.485 1542.19 320.27C1545.58 303.056 1555.64 287.881 1570.18 278.061L1570.17 278.06Z" fill="url(#paint3_linear_1_2)"/>
</g>
<defs>
<linearGradient id="paint0_linear_1_2" x1="223.146" y1="42.3089" x2="680.8" y2="1191.36" gradientUnits="userSpaceOnUse">
<stop stop-color="#A5D5FF"/>
<stop offset="1" stop-color="#60B5FF"/>
</linearGradient>
<linearGradient id="paint1_linear_1_2" x1="1195" y1="915.257" x2="1195" y2="556.229" gradientUnits="userSpaceOnUse">
<stop stop-color="white"/>
<stop offset="1" stop-color="#BEE6FF"/>
</linearGradient>
<linearGradient id="paint2_linear_1_2" x1="1525.99" y1="329.006" x2="1525.99" y2="-12" gradientUnits="userSpaceOnUse">
<stop stop-color="white"/>
<stop offset="1" stop-color="#BEE6FF"/>
</linearGradient>
<linearGradient id="paint3_linear_1_2" x1="1740.47" y1="399.167" x2="1740.47" y2="87.7963" gradientUnits="userSpaceOnUse">
<stop stop-color="white"/>
<stop offset="1" stop-color="#BEE6FF"/>
</linearGradient>
<clipPath id="clip0_1_2">
<rect width="1930" height="915" fill="white"/>
</clipPath>
</defs>
</svg>
