<svg xmlns="http://www.w3.org/2000/svg" width="161" height="161" viewBox="0 0 161 161">
  <g id="txt2" transform="translate(-1594 -190)">
    <g id="グループ_897" data-name="グループ 897" transform="translate(44 -115)">
      <circle id="楕円形_29" data-name="楕円形 29" cx="80.5" cy="80.5" r="80.5" transform="translate(1550 305)" fill="#49b2f4"/>
      <circle id="楕円形_41" data-name="楕円形 41" cx="76" cy="76" r="76" transform="translate(1555 310)" fill="#60b5ff"/>
      <path id="楕円形_41_-_アウトライン" data-name="楕円形 41 - アウトライン" d="M76,1A74.645,74.645,0,0,0,34.067,13.808a75.222,75.222,0,0,0-27.174,33,74.9,74.9,0,0,0,6.915,71.126,75.222,75.222,0,0,0,33,27.174,74.9,74.9,0,0,0,71.126-6.915,75.222,75.222,0,0,0,27.174-33,74.9,74.9,0,0,0-6.915-71.126,75.222,75.222,0,0,0-33-27.174A74.529,74.529,0,0,0,76,1m0-1A76,76,0,1,1,0,76,76,76,0,0,1,76,0Z" transform="translate(1555 310)" fill="#fff"/>
    </g>
    <path id="パス_886" data-name="パス 886" d="M-21.126.686V-.826h4.858V-2.352h-3.36V-3.878h3.36V-5.194h-3.3v-.924q-.406.266-.826.511t-.826.455a7.24,7.24,0,0,0-.476-.707,4.444,4.444,0,0,0-.574-.651,12.56,12.56,0,0,0,1.785-.952A15.176,15.176,0,0,0-18.753-8.75a13.832,13.832,0,0,0,1.505-1.5A9.113,9.113,0,0,0-16.156-11.8l1.582.224a9.245,9.245,0,0,0,1.148,1.442,13.477,13.477,0,0,0,1.505,1.344,15.678,15.678,0,0,0,1.687,1.134,11.877,11.877,0,0,0,1.708.826,4.559,4.559,0,0,0-.574.693,6,6,0,0,0-.49.819q-.406-.2-.826-.427t-.854-.5v1.05H-14.5v1.316h3.318v1.526H-14.5V-.826h4.858V.686Zm2.436-7.434h6.678A16.985,16.985,0,0,1-13.9-8.3a10.381,10.381,0,0,1-1.5-1.743,12,12,0,0,1-1.442,1.7A17.4,17.4,0,0,1-18.69-6.748ZM-5.922.686V-11.326H5.922V.686ZM-4.256-.8H4.256V-9.912H-4.256Zm.546-.854V-3.024H-.84v-1.96H-3.15V-6.356H-.84V-7.7H-3.514V-9.086H3.5V-7.7H.784v1.344H3.122v1.372H2.3q.182.168.427.406t.455.462a3.568,3.568,0,0,1,.308.364,4.125,4.125,0,0,0-.378.315q-.238.217-.42.413h1.05v1.372ZM.784-3.024H2.366q-.252-.294-.623-.658a7.035,7.035,0,0,0-.609-.546l.854-.756H.784ZM16.478.126a2.693,2.693,0,0,0-.21-.532,4.564,4.564,0,0,0-.357-.6,3.017,3.017,0,0,0-.4-.469,5.267,5.267,0,0,0,2.919-1.253,3.235,3.235,0,0,0,1.057-2.261,3.451,3.451,0,0,0-.378-1.848,3.612,3.612,0,0,0-1.183-1.316,3.607,3.607,0,0,0-1.645-.6,19.632,19.632,0,0,1-.42,2.66,13.93,13.93,0,0,1-.833,2.548,7.349,7.349,0,0,1-1.281,2.016,2.121,2.121,0,0,1-1.113.714,2,2,0,0,1-1.141-.154,2.724,2.724,0,0,1-1.036-.8,3.859,3.859,0,0,1-.686-1.295,4.52,4.52,0,0,1-.2-1.6,5.838,5.838,0,0,1,.6-2.331A5.858,5.858,0,0,1,11.606-8.82a6.129,6.129,0,0,1,2.058-1.162,6.589,6.589,0,0,1,2.478-.322,5.572,5.572,0,0,1,2,.476,5.221,5.221,0,0,1,1.645,1.155,5.211,5.211,0,0,1,1.092,1.7A4.846,4.846,0,0,1,21.2-4.858a4.828,4.828,0,0,1-1.344,3.213A6.521,6.521,0,0,1,16.478.126ZM11.928-2.7a.54.54,0,0,0,.322.112.484.484,0,0,0,.336-.168,4.941,4.941,0,0,0,.931-1.428,11.607,11.607,0,0,0,.714-2.086A13.876,13.876,0,0,0,14.6-8.638a4.32,4.32,0,0,0-1.715.812A4.336,4.336,0,0,0,11.7-6.405a4.448,4.448,0,0,0-.49,1.827,2.637,2.637,0,0,0,.175,1.141A1.728,1.728,0,0,0,11.928-2.7Zm-66.4,31V22.122q-.5.864-1.035,1.62a12,12,0,0,1-.963,1.224,2.869,2.869,0,0,0-.414-.441q-.288-.261-.6-.5a4.178,4.178,0,0,0-.549-.369,10.8,10.8,0,0,0,.936-1.044,15.9,15.9,0,0,0,.981-1.377q.477-.747.882-1.5a12.922,12.922,0,0,0,.657-1.4h-2.952V16.416h3.06V14.958a23.47,23.47,0,0,1-2.43.36,2.574,2.574,0,0,0-.135-.567q-.117-.351-.27-.693a3.283,3.283,0,0,0-.279-.522,12.841,12.841,0,0,0,1.521-.162q.927-.144,1.935-.378t1.89-.522a8.343,8.343,0,0,0,1.4-.576l1.062,1.692a11.032,11.032,0,0,1-1.188.459q-.684.225-1.44.423v1.944h2.772v1.908H-52.4v.648q.306.36.81.864t1.053.972q.549.468.945.774-.18.162-.432.441t-.486.576a3.785,3.785,0,0,0-.36.531q-.306-.288-.72-.72t-.81-.9V28.3Zm11.43-.414q-.09-.414-.225-.864t-.279-.954q-.792.162-1.854.369t-2.169.4q-1.107.2-2.07.36t-1.575.252l-.432-2.124q.306-.036.711-.072t.891-.09q.324-1.026.639-2.349t.621-2.781q.306-1.458.549-2.889t.423-2.691q.18-1.26.252-2.2l2.268.414q-.2,1.26-.495,2.853T-46.44,18.8q-.36,1.683-.729,3.267t-.711,2.826q.99-.144,1.962-.3t1.746-.3q-.468-1.242-1-2.394a16.462,16.462,0,0,0-1-1.89l1.962-.63a17.669,17.669,0,0,1,.918,1.683q.486,1,.954,2.1t.837,2.115q.369,1.017.567,1.773Zm5.148-.252V25.6h8.46q.324-.792.675-1.827t.666-2.142q.315-1.107.549-2.1t.342-1.674l2.232.54q-.18.774-.459,1.728t-.6,1.962q-.324,1.008-.648,1.917t-.612,1.593h5.8V27.63Zm.81-10.368V15.228h6.246V12.1h2.286v3.132h6.138v2.034Zm4.122,7.632q-.108-.684-.3-1.512t-.414-1.692q-.225-.864-.468-1.647t-.477-1.359l2-.594q.4.954.729,2.052t.594,2.187q.261,1.089.441,2.061-.27.036-.684.117t-.81.189A5.307,5.307,0,0,0-32.958,24.894ZM-9.9,22.14a1.911,1.911,0,0,1-1.4-.576,1.911,1.911,0,0,1-.576-1.4,1.911,1.911,0,0,1,.576-1.4,1.911,1.911,0,0,1,1.4-.576,1.911,1.911,0,0,1,1.4.576,1.911,1.911,0,0,1,.576,1.4,1.911,1.911,0,0,1-.576,1.4A1.911,1.911,0,0,1-9.9,22.14Zm25.128,6.03q-.2-.378-.513-.882t-.693-1.062q-.81.126-1.98.27t-2.475.3q-1.305.153-2.574.288t-2.313.234q-1.044.1-1.656.153l-.468-2.124q.4-.018,1.044-.054t1.458-.108q.432-.792.954-1.845t1.017-2.169q.495-1.116.882-2.079t.567-1.557l2.16.792q-.234.648-.594,1.476t-.792,1.746q-.432.918-.873,1.8t-.855,1.638q1.386-.108,2.781-.243t2.439-.261q-.558-.738-1.107-1.368a11.043,11.043,0,0,0-1-1.026l1.6-1.332q.54.5,1.215,1.251t1.368,1.6q.693.855,1.314,1.692t1.053,1.5q-.288.162-.666.405t-.72.5Q15.462,27.972,15.228,28.17Zm1.926-6.624a13.386,13.386,0,0,1-2.61-1.908,12.522,12.522,0,0,1-1.98-2.358,9.806,9.806,0,0,1-1.188-2.556H8.334V12.78h4.788a6.707,6.707,0,0,0,.639,2.259,8.5,8.5,0,0,0,1.287,1.926,11.131,11.131,0,0,0,1.71,1.566,15.657,15.657,0,0,0,1.908,1.215,6.025,6.025,0,0,0-.531.522,8.538,8.538,0,0,0-.558.675Q17.316,21.294,17.154,21.546Zm-14.256.2a3.611,3.611,0,0,0-.5-.513q-.324-.279-.675-.531a4.008,4.008,0,0,0-.621-.378,8.54,8.54,0,0,0,1.494-1.3,16.248,16.248,0,0,0,1.386-1.71,16.254,16.254,0,0,0,1.116-1.809,9.533,9.533,0,0,0,.684-1.593l2.088.828a19.409,19.409,0,0,1-2.2,3.942A17.309,17.309,0,0,1,2.9,21.744ZM21.51,27.63V25.6h8.46q.324-.792.675-1.827t.666-2.142q.315-1.107.549-2.1t.342-1.674l2.232.54q-.18.774-.459,1.728t-.6,1.962q-.324,1.008-.648,1.917T32.112,25.6h5.8V27.63Zm.81-10.368V15.228h6.246V12.1h2.286v3.132H36.99v2.034Zm4.122,7.632q-.108-.684-.3-1.512t-.414-1.692q-.225-.864-.468-1.647t-.477-1.359l2-.594q.4.954.729,2.052t.594,2.187q.261,1.089.441,2.061-.27.036-.684.117t-.81.189A5.307,5.307,0,0,0,26.442,24.894ZM47.808,28.35q-.108-.216-.324-.576t-.459-.711a3.966,3.966,0,0,0-.423-.531,15.066,15.066,0,0,0,2.565-1.071A9.242,9.242,0,0,0,51.3,23.9a11.416,11.416,0,0,1-1.107-1.773,10.462,10.462,0,0,1-.765-2.025,9.315,9.315,0,0,1-.81.594A5.342,5.342,0,0,0,48,19.881a8.853,8.853,0,0,0-.729-.747,9.568,9.568,0,0,0,1.053-.738,12.741,12.741,0,0,0,1.089-.972,8.6,8.6,0,0,0,.864-.99H47.736v.81H45.81v1.008q.324.45.819,1.026t1,1.107q.5.531.846.873a7.893,7.893,0,0,0-.747.621,9.324,9.324,0,0,0-.693.693q-.234-.252-.567-.666t-.657-.864v7.29H43.794V21.888q-.36.684-.729,1.287a12.231,12.231,0,0,1-.729,1.071,5.851,5.851,0,0,0-.81-.567q-.522-.315-.882-.5a11,11,0,0,0,.963-1.305q.477-.747.909-1.566a17.71,17.71,0,0,0,.756-1.62,13.682,13.682,0,0,0,.5-1.449h-2.52V15.372h2.538V12.006H45.81v3.366h1.854v-.81H51.5V11.988H53.6v2.574H57.51v1.872H54.882a11.366,11.366,0,0,0,.918.99,13.5,13.5,0,0,0,1.089.945,8.351,8.351,0,0,0,1.053.711q-.306.288-.72.765a5.6,5.6,0,0,0-.612.819q-.45-.306-.918-.648a11.1,11.1,0,0,1-1.782,3.906,11.387,11.387,0,0,0,2.142,1.539,23.1,23.1,0,0,0,2.268,1.107,3.712,3.712,0,0,0-.468.486q-.27.324-.5.666a5.234,5.234,0,0,0-.36.594,17.006,17.006,0,0,1-2.241-1.251,15.292,15.292,0,0,1-2.1-1.665,11.763,11.763,0,0,1-2.232,1.719A15.314,15.314,0,0,1,47.808,28.35Zm4.734-5.994a9.118,9.118,0,0,0,.72-1.431,9.591,9.591,0,0,0,.486-1.647l1.53.4a15.174,15.174,0,0,1-1.134-1.107,11.106,11.106,0,0,1-.954-1.179l1.17-.954H50.814l1.17.954A10.041,10.041,0,0,1,51,18.639a13.642,13.642,0,0,1-1.2,1.161l1.476-.432a8.84,8.84,0,0,0,.522,1.62A9.271,9.271,0,0,0,52.542,22.356Zm-88.848,33.39q-.072-.234-.216-.621t-.306-.774a2.416,2.416,0,0,0-.324-.585,20.253,20.253,0,0,0,3.942-.522,22.108,22.108,0,0,0,3.528-1.134q-.288-.36-.576-.684a6.042,6.042,0,0,0-.45-.468l2.088-1.3a6.6,6.6,0,0,1,.558.549q.324.351.666.729a10.643,10.643,0,0,0,2.646-2.124h-3.528A20.927,20.927,0,0,1-34,51.66q-.108-.216-.324-.576t-.477-.711a2.706,2.706,0,0,0-.495-.531,15.725,15.725,0,0,0,2.322-.756,18.992,18.992,0,0,0,2.43-1.2,15.8,15.8,0,0,0,2.16-1.5,7.99,7.99,0,0,0,1.53-1.638l2.088.81q-.7.828-1.458,1.566h4l.774.756A12.864,12.864,0,0,1-24.741,51.6a18.361,18.361,0,0,1-5.04,2.745A25.355,25.355,0,0,1-36.306,55.746Zm-.486-6.444a3.135,3.135,0,0,0-.27-.585q-.2-.351-.414-.684a3.2,3.2,0,0,0-.4-.513,15.9,15.9,0,0,0,3.114-.846,20.168,20.168,0,0,0,2.808-1.332q-.288-.306-.594-.576t-.5-.414l1.89-1.476q.27.2.621.495t.675.6a15.777,15.777,0,0,0,1.3-1.071,13.263,13.263,0,0,0,1.044-1.071h-3.186A21.811,21.811,0,0,1-33.066,43.8,20.142,20.142,0,0,1-35.8,45.468a4.191,4.191,0,0,0-.36-.522q-.252-.324-.531-.639a2.19,2.19,0,0,0-.495-.441A14.338,14.338,0,0,0-35.154,42.8a17.619,17.619,0,0,0,1.89-1.359,15.409,15.409,0,0,0,1.557-1.467,7.518,7.518,0,0,0,1.035-1.386l2.214.576q-.2.288-.414.576t-.45.576h4.068l.72.756A16.527,16.527,0,0,1-27.522,44.5a21.1,21.1,0,0,1-4.194,2.871A22.771,22.771,0,0,1-36.792,49.3Zm27.126,6.066q-.126-.252-.351-.612t-.477-.7q-.234.27-.486.576t-.4.5q-.324-.306-.756-.639t-.936-.675a7.713,7.713,0,0,1-2.007.981,13.766,13.766,0,0,1-2.493.549q-.054-.216-.171-.567t-.243-.684a2.4,2.4,0,0,0-.252-.513A8.625,8.625,0,0,0-14.85,52.7a22.3,22.3,0,0,0-2.538-1.3q.2-.252.45-.639t.522-.837h-1.746v-1.71h2.736a13.659,13.659,0,0,0,.846-1.692V44.766a17.442,17.442,0,0,1-1.242,1.26A14.529,14.529,0,0,1-17.1,47.088a4.38,4.38,0,0,0-.387-.486q-.243-.27-.486-.5a3.476,3.476,0,0,0-.405-.333,9.983,9.983,0,0,0,.909-.621q.513-.387,1.035-.855t.954-.9h-2.5V41.76h1.332q-.27-.522-.612-1.053a7.024,7.024,0,0,0-.648-.873l1.4-.792a8.089,8.089,0,0,1,.54.7q.288.414.549.819a6.314,6.314,0,0,1,.405.711,7.057,7.057,0,0,0-.936.486h1.368V38.9h1.8V41.76H-11.5a4.46,4.46,0,0,0-.468-.252q-.234-.108-.414-.18a11.163,11.163,0,0,0,.747-1.17,8.859,8.859,0,0,0,.549-1.152l1.62.666q-.216.468-.549,1.044t-.657,1.044h1.242V43.4H-11.88a14.515,14.515,0,0,0,1.053,1.053,8.471,8.471,0,0,0,1.089.855,7.2,7.2,0,0,0-.63.585,6.258,6.258,0,0,0-.594.693,10.383,10.383,0,0,1-.936-.819,12.151,12.151,0,0,1-.882-.963v1.872h-1.332l1.368.45q-.108.234-.252.513t-.306.585h4.068v1.71H-10.4a6.869,6.869,0,0,1-1.242,2.556q.4.234.747.486t.657.5a8.592,8.592,0,0,0,1.989-1.152,8.052,8.052,0,0,0,1.5-1.53,13.265,13.265,0,0,1-.864-1.926,17.066,17.066,0,0,1-.594-2.07q-.18.342-.369.639t-.387.585a4.735,4.735,0,0,0-.783-.531,5.115,5.115,0,0,0-.945-.423,9.219,9.219,0,0,0,1.1-1.746,16.828,16.828,0,0,0,.855-2.1,20.688,20.688,0,0,0,.6-2.2q.234-1.089.342-2.043l1.98.288A31.215,31.215,0,0,1-6.5,42.444H-1.62v1.8H-2.682a20.153,20.153,0,0,1-.567,3.573,12.16,12.16,0,0,1-1.179,2.961A12.337,12.337,0,0,0-1.17,53.622q-.234.234-.522.558t-.531.63a2.5,2.5,0,0,0-.315.468,12.2,12.2,0,0,1-1.683-1.305,14.681,14.681,0,0,1-1.4-1.485A11.457,11.457,0,0,1-9.666,55.368Zm4.032-6.534a11.9,11.9,0,0,0,.666-2.205,15.515,15.515,0,0,0,.288-2.385H-6.786a14.085,14.085,0,0,0,.378,2.43A11.23,11.23,0,0,0-5.634,48.834ZM-13.356,51.5a5.65,5.65,0,0,0,.864-1.566h-1.782q-.162.252-.3.477l-.243.4A14.4,14.4,0,0,1-13.356,51.5ZM10.89,55.512A8.784,8.784,0,0,0,10.7,54.5a5.337,5.337,0,0,0-.3-.918h1.512a.894.894,0,0,0,.54-.126.59.59,0,0,0,.162-.486v-.612H7.308a10.951,10.951,0,0,1,.936.648q.468.36.864.72-.306.288-.72.747a8.756,8.756,0,0,0-.666.819A6.729,6.729,0,0,0,7,54.612q-.432-.36-.882-.693t-.828-.567l.918-.99H1.782v-1.6H12.618v-.666H9.72a10.559,10.559,0,0,1-2.727-.3,4.2,4.2,0,0,1-1.827-1q-.306.18-.774.432l-.972.522q-.5.27-.918.54l-.9-1.746q.342-.126.8-.333t.927-.423q.468-.216.792-.4V45.018H1.908V43.362H6.03v3.8a1.528,1.528,0,0,0,1.017,1.107,7.269,7.269,0,0,0,2.673.369h8.442a6.268,6.268,0,0,0-.252.711,4.345,4.345,0,0,0-.162.747H14.742v.666h3.24v1.6h-3.24V53.55q0,1.962-2.322,1.962ZM7.452,48.006v-5.76H10.44a2.632,2.632,0,0,0,.153-.324,2.158,2.158,0,0,1,.135-.288H6.282v-1.44H9.054q-.18-.324-.378-.63a5.261,5.261,0,0,0-.4-.54l1.746-.378a5.4,5.4,0,0,1,.468.684q.27.45.5.864H12.69q.162-.342.333-.765t.279-.765l1.98.324q-.108.234-.261.558t-.333.648h3.2v1.44h-5l-.306.612h4.032v5.76ZM4.788,42.444a8.909,8.909,0,0,0-1.242-1.116,13.077,13.077,0,0,0-1.332-.9L3.33,38.97a9.313,9.313,0,0,1,.882.54q.5.342.99.7a8.944,8.944,0,0,1,.81.666,8.739,8.739,0,0,0-.657.756A7.14,7.14,0,0,0,4.788,42.444Zm4.626,2.988h5.238V44.8H9.414Zm0,1.476h5.238V46.3H9.414Zm0-2.97h5.238v-.594H9.414ZM22.464,55.4a6.071,6.071,0,0,0-.621-.972,5.188,5.188,0,0,0-.8-.846,12.646,12.646,0,0,0,3.7-2.52,11.634,11.634,0,0,0,2.34-3.348,13.475,13.475,0,0,0,1.125-3.924l1.278.216q-.072-.612-.117-1.242t-.027-1.3H25.164V39.456h6.39a20.92,20.92,0,0,0,.306,5.778,11.46,11.46,0,0,0,2.115,4.68,14,14,0,0,0,4.419,3.654,6.223,6.223,0,0,0-.864.846,10.9,10.9,0,0,0-.774.99,17.532,17.532,0,0,1-4.194-3.8,14.39,14.39,0,0,1-2.628-5.346,14.086,14.086,0,0,1-1.575,3.7,14.506,14.506,0,0,1-5.9,5.445Z" transform="translate(1674 249)" fill="#fff"/>
  </g>
</svg>
